<svg width="192" height="192" viewBox="0 0 192 192" fill="none" xmlns="http://www.w3.org/2000/svg">
<g clip-path="url(#clip0_3_6)">
<g clip-path="url(#clip1_3_6)">
<path d="M2.1237 1.47511L188.484 1.33461L95.3042 187.766L2.1237 1.47511Z" fill="#3504FB" stroke="#3504FB" stroke-width="2.625"/>
<mask id="path-2-outside-1_3_6" maskUnits="userSpaceOnUse" x="64.0368" y="18" width="65" height="119" fill="black">
<rect fill="white" x="64.0368" y="18" width="65" height="119"/>
<path d="M89.8729 115.325C89.8729 118.956 89.1467 121.965 87.6942 124.351C86.2417 126.737 84.426 128.657 82.2473 130.109C80.0685 131.458 77.6304 132.444 74.9329 133.066C72.3392 133.689 69.8492 134 67.4629 134V43.5819C67.4629 36.3194 69.1229 30.7169 72.4429 26.7744C75.7629 22.8319 80.5354 20.8606 86.7604 20.8606C89.8729 20.8606 92.4148 21.3794 94.386 22.4169C96.3573 23.4544 97.8617 24.8031 98.8992 26.4631C100.04 28.1231 100.819 29.9387 101.234 31.91C101.649 33.7775 101.856 35.5931 101.856 37.3569C101.856 38.2906 101.752 38.965 101.545 39.38C100.196 38.2387 98.5879 37.6681 96.7204 37.6681C95.1642 37.6681 93.9192 37.9794 92.9854 38.6019C92.1554 39.1206 91.481 39.8469 90.9623 40.7806C90.5473 41.6106 90.236 42.5962 90.0285 43.7375C89.9248 44.8787 89.8729 46.0719 89.8729 47.3169V115.325ZM103.568 21.1719H105.591C111.505 21.1719 116.381 23.0394 120.22 26.7744C124.059 30.4056 125.978 35.6969 125.978 42.6481V58.9887C125.978 65.8362 124.266 71.0237 120.842 74.5512C117.522 78.0787 113.476 79.9462 108.704 80.1537H107.614C104.709 80.1537 102.271 79.635 100.3 78.5975C98.3285 77.56 96.7204 76.2631 95.4754 74.7069C94.3342 73.0469 93.5042 71.2831 92.9854 69.4156C92.4667 67.4444 92.2073 65.525 92.2073 63.6575C92.9335 64.28 93.6079 64.7469 94.2304 65.0581C94.8529 65.2656 96.0979 65.3694 97.9654 65.3694C99.3142 65.3694 100.352 65.0062 101.078 64.28C101.908 63.45 102.479 62.4644 102.79 61.3231C103.205 60.1819 103.412 58.9369 103.412 57.5881C103.516 56.1356 103.568 54.8387 103.568 53.6975V21.1719ZM123.488 134H121.932C119.234 134 116.537 133.741 113.839 133.222C111.245 132.703 108.859 131.769 106.68 130.421C104.605 129.072 102.894 127.204 101.545 124.818C100.196 122.432 99.5217 119.319 99.5217 115.481V82.4881H102.012C104.605 82.4881 107.199 82.7994 109.793 83.4219C112.387 83.9406 114.669 84.9262 116.64 86.3787C118.715 87.7275 120.375 89.595 121.62 91.9812C122.865 94.3675 123.488 97.4281 123.488 101.163V134Z"/>
</mask>
<path d="M89.8729 115.325C89.8729 118.956 89.1467 121.965 87.6942 124.351C86.2417 126.737 84.426 128.657 82.2473 130.109C80.0685 131.458 77.6304 132.444 74.9329 133.066C72.3392 133.689 69.8492 134 67.4629 134V43.5819C67.4629 36.3194 69.1229 30.7169 72.4429 26.7744C75.7629 22.8319 80.5354 20.8606 86.7604 20.8606C89.8729 20.8606 92.4148 21.3794 94.386 22.4169C96.3573 23.4544 97.8617 24.8031 98.8992 26.4631C100.04 28.1231 100.819 29.9387 101.234 31.91C101.649 33.7775 101.856 35.5931 101.856 37.3569C101.856 38.2906 101.752 38.965 101.545 39.38C100.196 38.2387 98.5879 37.6681 96.7204 37.6681C95.1642 37.6681 93.9192 37.9794 92.9854 38.6019C92.1554 39.1206 91.481 39.8469 90.9623 40.7806C90.5473 41.6106 90.236 42.5962 90.0285 43.7375C89.9248 44.8787 89.8729 46.0719 89.8729 47.3169V115.325ZM103.568 21.1719H105.591C111.505 21.1719 116.381 23.0394 120.22 26.7744C124.059 30.4056 125.978 35.6969 125.978 42.6481V58.9887C125.978 65.8362 124.266 71.0237 120.842 74.5512C117.522 78.0787 113.476 79.9462 108.704 80.1537H107.614C104.709 80.1537 102.271 79.635 100.3 78.5975C98.3285 77.56 96.7204 76.2631 95.4754 74.7069C94.3342 73.0469 93.5042 71.2831 92.9854 69.4156C92.4667 67.4444 92.2073 65.525 92.2073 63.6575C92.9335 64.28 93.6079 64.7469 94.2304 65.0581C94.8529 65.2656 96.0979 65.3694 97.9654 65.3694C99.3142 65.3694 100.352 65.0062 101.078 64.28C101.908 63.45 102.479 62.4644 102.79 61.3231C103.205 60.1819 103.412 58.9369 103.412 57.5881C103.516 56.1356 103.568 54.8387 103.568 53.6975V21.1719ZM123.488 134H121.932C119.234 134 116.537 133.741 113.839 133.222C111.245 132.703 108.859 131.769 106.68 130.421C104.605 129.072 102.894 127.204 101.545 124.818C100.196 122.432 99.5217 119.319 99.5217 115.481V82.4881H102.012C104.605 82.4881 107.199 82.7994 109.793 83.4219C112.387 83.9406 114.669 84.9262 116.64 86.3787C118.715 87.7275 120.375 89.595 121.62 91.9812C122.865 94.3675 123.488 97.4281 123.488 101.163V134Z" fill="#FFFEFE"/>
<path d="M87.6942 124.351L85.4519 122.986L85.4519 122.986L87.6942 124.351ZM82.2473 130.109L83.629 132.341L83.6666 132.318L83.7034 132.294L82.2473 130.109ZM74.9329 133.066L74.3427 130.508L74.3315 130.511L74.3203 130.514L74.9329 133.066ZM67.4629 134H64.8379V136.625H67.4629V134ZM72.4429 26.7744L74.4508 28.4652L74.4508 28.4652L72.4429 26.7744ZM94.386 22.4169L93.1634 24.7398L93.1635 24.7398L94.386 22.4169ZM98.8992 26.4631L96.6732 27.8544L96.7036 27.903L96.736 27.9503L98.8992 26.4631ZM101.234 31.91L98.6648 32.4508L98.6679 32.4651L98.671 32.4794L101.234 31.91ZM101.545 39.38L99.8492 41.3839L102.399 43.5414L103.893 40.5539L101.545 39.38ZM92.9854 38.6019L94.3767 40.8279L94.4094 40.8074L94.4415 40.786L92.9854 38.6019ZM90.9623 40.7806L88.6676 39.5058L88.6399 39.5557L88.6144 39.6067L90.9623 40.7806ZM90.0285 43.7375L87.4459 43.2679L87.4249 43.3832L87.4143 43.4998L90.0285 43.7375ZM103.568 21.1719V18.5469H100.943V21.1719H103.568ZM120.22 26.7744L118.389 28.6558L118.402 28.6687L118.416 28.6814L120.22 26.7744ZM120.842 74.5512L118.959 72.723L118.945 72.7375L118.931 72.7522L120.842 74.5512ZM108.704 80.1537V82.7787H108.761L108.818 82.7763L108.704 80.1537ZM100.3 78.5975L99.0772 80.9204L99.0772 80.9204L100.3 78.5975ZM95.4754 74.7069L93.3123 76.194L93.3662 76.2724L93.4256 76.3467L95.4754 74.7069ZM92.9854 69.4156L90.4468 70.0837L90.4514 70.101L90.4562 70.1182L92.9854 69.4156ZM92.2073 63.6575L93.9156 61.6644L89.5823 57.9502V63.6575H92.2073ZM94.2304 65.0581L93.0565 67.406L93.2233 67.4894L93.4003 67.5484L94.2304 65.0581ZM102.79 61.3231L100.323 60.426L100.286 60.5279L100.257 60.6324L102.79 61.3231ZM103.412 57.5881L100.794 57.4011L100.787 57.4945V57.5881H103.412ZM123.488 134V136.625H126.113V134H123.488ZM113.839 133.222L113.324 135.796L113.334 135.798L113.343 135.8L113.839 133.222ZM106.68 130.421L105.25 132.622L105.274 132.637L105.299 132.653L106.68 130.421ZM101.545 124.818L103.83 123.526L103.83 123.526L101.545 124.818ZM99.5217 82.4881V79.8631H96.8967V82.4881H99.5217ZM109.793 83.4219L109.18 85.9744L109.229 85.9861L109.278 85.9959L109.793 83.4219ZM116.64 86.3787L115.083 88.492L115.145 88.5377L115.21 88.5797L116.64 86.3787ZM121.62 91.9812L123.948 90.767L123.948 90.767L121.62 91.9812ZM89.8729 115.325H87.2479C87.2479 118.616 86.5895 121.117 85.4519 122.986L87.6942 124.351L89.9364 125.716C91.7038 122.813 92.4979 119.296 92.4979 115.325H89.8729ZM87.6942 124.351L85.4519 122.986C84.185 125.068 82.6302 126.699 80.7912 127.925L82.2473 130.109L83.7034 132.294C86.2218 130.615 88.2983 128.407 89.9364 125.716L87.6942 124.351ZM82.2473 130.109L80.8656 127.877C78.9499 129.063 76.7828 129.945 74.3427 130.508L74.9329 133.066L75.5232 135.624C78.478 134.942 81.1871 133.853 83.629 132.341L82.2473 130.109ZM74.9329 133.066L74.3203 130.514C71.904 131.094 69.6203 131.375 67.4629 131.375V134V136.625C70.0781 136.625 72.7743 136.284 75.5455 135.619L74.9329 133.066ZM67.4629 134H70.0879V43.5819H67.4629H64.8379V134H67.4629ZM67.4629 43.5819H70.0879C70.0879 36.6881 71.6652 31.7731 74.4508 28.4652L72.4429 26.7744L70.435 25.0835C66.5806 29.6606 64.8379 35.9506 64.8379 43.5819H67.4629ZM72.4429 26.7744L74.4508 28.4652C77.1684 25.2381 81.1329 23.4856 86.7604 23.4856V20.8606V18.2356C79.9379 18.2356 74.3574 20.4257 70.435 25.0835L72.4429 26.7744ZM86.7604 20.8606V23.4856C89.6066 23.4856 91.6889 23.9637 93.1634 24.7398L94.386 22.4169L95.6086 20.094C93.1407 18.795 90.1392 18.2356 86.7604 18.2356V20.8606ZM94.386 22.4169L93.1635 24.7398C94.7814 25.5913 95.9142 26.6401 96.6732 27.8544L98.8992 26.4631L101.125 25.0719C99.8091 22.9662 97.9331 21.3174 95.6086 20.094L94.386 22.4169ZM98.8992 26.4631L96.736 27.9503C97.681 29.3247 98.3212 30.8187 98.6648 32.4508L101.234 31.91L103.802 31.3692C103.316 29.0588 102.4 26.9216 101.062 24.976L98.8992 26.4631ZM101.234 31.91L98.671 32.4794C99.048 34.1756 99.231 35.8 99.231 37.3569H101.856H104.481C104.481 35.3862 104.249 33.3794 103.796 31.3406L101.234 31.91ZM101.856 37.3569H99.231C99.231 37.7351 99.2094 37.9968 99.1838 38.1638C99.1557 38.3459 99.1359 38.328 99.1969 38.2061L101.545 39.38L103.893 40.5539C104.388 39.5627 104.481 38.366 104.481 37.3569H101.856ZM101.545 39.38L103.24 37.3761C101.389 35.8097 99.1704 35.0431 96.7204 35.0431V37.6681V40.2931C98.0054 40.2931 99.0029 40.6678 99.8492 41.3839L101.545 39.38ZM96.7204 37.6681V35.0431C94.8396 35.0431 93.0313 35.4164 91.5293 36.4177L92.9854 38.6019L94.4415 40.786C94.807 40.5423 95.4887 40.2931 96.7204 40.2931V37.6681ZM92.9854 38.6019L91.5942 36.3759C90.3536 37.1512 89.3819 38.22 88.6676 39.5058L90.9623 40.7806L93.2569 42.0554C93.5801 41.4737 93.9572 41.09 94.3767 40.8279L92.9854 38.6019ZM90.9623 40.7806L88.6144 39.6067C88.0645 40.7066 87.6873 41.9402 87.4459 43.2679L90.0285 43.7375L92.6112 44.2071C92.7848 43.2523 93.0301 42.5147 93.3102 41.9546L90.9623 40.7806ZM90.0285 43.7375L87.4143 43.4998C87.3028 44.7265 87.2479 45.9993 87.2479 47.3169H89.8729H92.4979C92.4979 46.1445 92.5468 45.031 92.6428 43.9751L90.0285 43.7375ZM89.8729 47.3169H87.2479V115.325H89.8729H92.4979V47.3169H89.8729ZM103.568 21.1719V23.7969H105.591V21.1719V18.5469H103.568V21.1719ZM105.591 21.1719V23.7969C110.899 23.7969 115.094 25.4492 118.389 28.6558L120.22 26.7744L122.05 24.893C117.668 20.6295 112.111 18.5469 105.591 18.5469V21.1719ZM120.22 26.7744L118.416 28.6814C121.579 31.6739 123.353 36.18 123.353 42.6481H125.978H128.603C128.603 35.2138 126.538 29.1374 122.024 24.8674L120.22 26.7744ZM125.978 42.6481H123.353V58.9887H125.978H128.603V42.6481H125.978ZM125.978 58.9887H123.353C123.353 65.4251 121.747 69.8506 118.959 72.723L120.842 74.5512L122.726 76.3795C126.786 72.1969 128.603 66.2474 128.603 58.9887H125.978ZM120.842 74.5512L118.931 72.7522C116.072 75.7892 112.668 77.3539 108.59 77.5312L108.704 80.1537L108.818 82.7763C114.284 82.5386 118.972 80.3683 122.754 76.3503L120.842 74.5512ZM108.704 80.1537V77.5287H107.614V80.1537V82.7787H108.704V80.1537ZM107.614 80.1537V77.5287C105.01 77.5287 103.02 77.0626 101.522 76.2746L100.3 78.5975L99.0772 80.9204C101.523 82.2074 104.408 82.7787 107.614 82.7787V80.1537ZM100.3 78.5975L101.522 76.2746C99.8332 75.3856 98.5192 74.3096 97.5252 73.067L95.4754 74.7069L93.4256 76.3467C94.9216 78.2167 96.8239 79.7344 99.0772 80.9204L100.3 78.5975ZM95.4754 74.7069L97.6385 73.2197C96.6554 71.7897 95.9526 70.2896 95.5146 68.7131L92.9854 69.4156L90.4562 70.1182C91.0557 72.2766 92.013 74.3041 93.3123 76.194L95.4754 74.7069ZM92.9854 69.4156L95.524 68.7476C95.0574 66.9746 94.8323 65.28 94.8323 63.6575H92.2073H89.5823C89.5823 65.77 89.8759 67.9141 90.4468 70.0837L92.9854 69.4156ZM92.2073 63.6575L90.499 65.6505C91.3321 66.3647 92.1856 66.9706 93.0565 67.406L94.2304 65.0581L95.4043 62.7102C95.0302 62.5232 94.535 62.1953 93.9156 61.6644L92.2073 63.6575ZM94.2304 65.0581L93.4003 67.5484C94.4891 67.9113 96.1571 67.9944 97.9654 67.9944V65.3694V62.7444C97.0727 62.7444 96.3731 62.7193 95.849 62.6756C95.5882 62.6539 95.39 62.6291 95.2456 62.605C95.0937 62.5797 95.043 62.562 95.0605 62.5678L94.2304 65.0581ZM97.9654 65.3694V67.9944C99.7839 67.9944 101.576 67.4945 102.934 66.1362L101.078 64.28L99.2218 62.4238C99.1276 62.518 98.8444 62.7444 97.9654 62.7444V65.3694ZM101.078 64.28L102.934 66.1362C104.09 64.9805 104.892 63.5922 105.322 62.0138L102.79 61.3231L100.257 60.6324C100.065 61.3366 99.7261 61.9195 99.2218 62.4238L101.078 64.28ZM102.79 61.3231L105.257 62.2202C105.787 60.7614 106.037 59.2091 106.037 57.5881H103.412H100.787C100.787 58.6646 100.622 59.6024 100.323 60.426L102.79 61.3231ZM103.412 57.5881L106.031 57.7751C106.138 56.2764 106.193 54.9154 106.193 53.6975H103.568H100.943C100.943 54.7621 100.894 55.9948 100.794 57.4011L103.412 57.5881ZM103.568 53.6975H106.193V21.1719H103.568H100.943V53.6975H103.568ZM123.488 134V131.375H121.932V134V136.625H123.488V134ZM121.932 134V131.375C119.404 131.375 116.872 131.132 114.335 130.644L113.839 133.222L113.343 135.8C116.201 136.349 119.065 136.625 121.932 136.625V134ZM113.839 133.222L114.354 130.648C112.057 130.188 109.966 129.367 108.062 128.189L106.68 130.421L105.299 132.653C107.752 134.171 110.434 135.218 113.324 135.796L113.839 133.222ZM106.68 130.421L108.111 128.22C106.427 127.125 104.994 125.586 103.83 123.526L101.545 124.818L99.2596 126.11C100.793 128.823 102.784 131.019 105.25 132.622L106.68 130.421ZM101.545 124.818L103.83 123.526C102.776 121.661 102.147 119.039 102.147 115.481H99.5217H96.8967C96.8967 119.6 97.6165 123.203 99.2596 126.11L101.545 124.818ZM99.5217 115.481H102.147V82.4881H99.5217H96.8967V115.481H99.5217ZM99.5217 82.4881V85.1131H102.012V82.4881V79.8631H99.5217V82.4881ZM102.012 82.4881V85.1131C104.393 85.1131 106.781 85.3987 109.18 85.9744L109.793 83.4219L110.406 80.8694C107.617 80.2001 104.818 79.8631 102.012 79.8631V82.4881ZM109.793 83.4219L109.278 85.9959C111.526 86.4454 113.446 87.2855 115.083 88.492L116.64 86.3787L118.198 84.2655C115.893 82.567 113.248 81.4358 110.308 80.8478L109.793 83.4219ZM116.64 86.3787L115.21 88.5797C116.873 89.6609 118.238 91.1737 119.293 93.1955L121.62 91.9812L123.948 90.767C122.513 88.0162 120.558 85.7941 118.071 84.1778L116.64 86.3787ZM121.62 91.9812L119.293 93.1955C120.282 95.0901 120.863 97.696 120.863 101.163H123.488H126.113C126.113 97.1603 125.449 93.6449 123.948 90.767L121.62 91.9812ZM123.488 101.163H120.863V134H123.488H126.113V101.163H123.488Z" fill="#3504FB" mask="url(#path-2-outside-1_3_6)"/>
</g>
</g>
<defs>
<clipPath id="clip0_3_6">
<rect width="192" height="192" fill="white"/>
</clipPath>
<clipPath id="clip1_3_6">
<rect width="192" height="192" fill="white"/>
</clipPath>
</defs>
</svg>
