<svg width="512" height="512" viewBox="0 0 512 512" fill="none" xmlns="http://www.w3.org/2000/svg">
<g clip-path="url(#clip0_3_5)">
<g clip-path="url(#clip1_3_5)">
<path d="M5.66286 3.93463L502.624 3.55996L254.145 500.709L5.66286 3.93463Z" fill="#3504FB" stroke="#3504FB" stroke-width="7"/>
<mask id="path-2-outside-1_3_5" maskUnits="userSpaceOnUse" x="172.765" y="49" width="171" height="316" fill="black">
<rect fill="white" x="172.765" y="49" width="171" height="316"/>
<path d="M239.661 308.2C239.661 317.883 237.724 325.907 233.851 332.27C229.978 338.633 225.136 343.752 219.326 347.625C213.516 351.222 207.014 353.85 199.821 355.51C192.904 357.17 186.264 358 179.901 358V116.885C179.901 97.5183 184.328 82.5783 193.181 72.065C202.034 61.5516 214.761 56.295 231.361 56.295C239.661 56.295 246.439 57.6783 251.696 60.445C256.953 63.2117 260.964 66.8083 263.731 71.235C266.774 75.6617 268.849 80.5033 269.956 85.76C271.063 90.74 271.616 95.5817 271.616 100.285C271.616 102.775 271.339 104.573 270.786 105.68C267.189 102.637 262.901 101.115 257.921 101.115C253.771 101.115 250.451 101.945 247.961 103.605C245.748 104.988 243.949 106.925 242.566 109.415C241.459 111.628 240.629 114.257 240.076 117.3C239.799 120.343 239.661 123.525 239.661 126.845V308.2ZM276.181 57.125H281.576C297.346 57.125 310.349 62.105 320.586 72.065C330.823 81.7483 335.941 95.8583 335.941 114.395V157.97C335.941 176.23 331.376 190.063 322.246 199.47C313.393 208.877 302.603 213.857 289.876 214.41H286.971C279.224 214.41 272.723 213.027 267.466 210.26C262.209 207.493 257.921 204.035 254.601 199.885C251.558 195.458 249.344 190.755 247.961 185.775C246.578 180.518 245.886 175.4 245.886 170.42C247.823 172.08 249.621 173.325 251.281 174.155C252.941 174.708 256.261 174.985 261.241 174.985C264.838 174.985 267.604 174.017 269.541 172.08C271.754 169.867 273.276 167.238 274.106 164.195C275.213 161.152 275.766 157.832 275.766 154.235C276.043 150.362 276.181 146.903 276.181 143.86V57.125ZM329.301 358H325.151C317.958 358 310.764 357.308 303.571 355.925C296.654 354.542 290.291 352.052 284.481 348.455C278.948 344.858 274.383 339.878 270.786 333.515C267.189 327.152 265.391 318.852 265.391 308.615V220.635H272.031C278.948 220.635 285.864 221.465 292.781 223.125C299.698 224.508 305.784 227.137 311.041 231.01C316.574 234.607 321.001 239.587 324.321 245.95C327.641 252.313 329.301 260.475 329.301 270.435V358Z"/>
</mask>
<path d="M239.661 308.2C239.661 317.883 237.724 325.907 233.851 332.27C229.978 338.633 225.136 343.752 219.326 347.625C213.516 351.222 207.014 353.85 199.821 355.51C192.904 357.17 186.264 358 179.901 358V116.885C179.901 97.5183 184.328 82.5783 193.181 72.065C202.034 61.5516 214.761 56.295 231.361 56.295C239.661 56.295 246.439 57.6783 251.696 60.445C256.953 63.2117 260.964 66.8083 263.731 71.235C266.774 75.6617 268.849 80.5033 269.956 85.76C271.063 90.74 271.616 95.5817 271.616 100.285C271.616 102.775 271.339 104.573 270.786 105.68C267.189 102.637 262.901 101.115 257.921 101.115C253.771 101.115 250.451 101.945 247.961 103.605C245.748 104.988 243.949 106.925 242.566 109.415C241.459 111.628 240.629 114.257 240.076 117.3C239.799 120.343 239.661 123.525 239.661 126.845V308.2ZM276.181 57.125H281.576C297.346 57.125 310.349 62.105 320.586 72.065C330.823 81.7483 335.941 95.8583 335.941 114.395V157.97C335.941 176.23 331.376 190.063 322.246 199.47C313.393 208.877 302.603 213.857 289.876 214.41H286.971C279.224 214.41 272.723 213.027 267.466 210.26C262.209 207.493 257.921 204.035 254.601 199.885C251.558 195.458 249.344 190.755 247.961 185.775C246.578 180.518 245.886 175.4 245.886 170.42C247.823 172.08 249.621 173.325 251.281 174.155C252.941 174.708 256.261 174.985 261.241 174.985C264.838 174.985 267.604 174.017 269.541 172.08C271.754 169.867 273.276 167.238 274.106 164.195C275.213 161.152 275.766 157.832 275.766 154.235C276.043 150.362 276.181 146.903 276.181 143.86V57.125ZM329.301 358H325.151C317.958 358 310.764 357.308 303.571 355.925C296.654 354.542 290.291 352.052 284.481 348.455C278.948 344.858 274.383 339.878 270.786 333.515C267.189 327.152 265.391 318.852 265.391 308.615V220.635H272.031C278.948 220.635 285.864 221.465 292.781 223.125C299.698 224.508 305.784 227.137 311.041 231.01C316.574 234.607 321.001 239.587 324.321 245.95C327.641 252.313 329.301 260.475 329.301 270.435V358Z" fill="#FFFEFE"/>
<path d="M233.851 332.27L227.872 328.63L227.872 328.63L233.851 332.27ZM219.326 347.625L223.011 353.577L223.111 353.515L223.209 353.449L219.326 347.625ZM199.821 355.51L198.247 348.689L198.217 348.696L198.187 348.703L199.821 355.51ZM179.901 358H172.901V365H179.901V358ZM193.181 72.065L198.535 76.5739L198.535 76.5739L193.181 72.065ZM251.696 60.445L248.436 66.6394L248.436 66.6394L251.696 60.445ZM263.731 71.235L257.795 74.945L257.876 75.0747L257.963 75.2007L263.731 71.235ZM269.956 85.76L263.106 87.2021L263.114 87.2403L263.123 87.2785L269.956 85.76ZM270.786 105.68L266.265 111.024L273.064 116.777L277.047 108.81L270.786 105.68ZM247.961 103.605L251.671 109.541L251.758 109.486L251.844 109.429L247.961 103.605ZM242.566 109.415L236.447 106.015L236.373 106.148L236.305 106.284L242.566 109.415ZM240.076 117.3L233.189 116.048L233.133 116.355L233.105 116.666L240.076 117.3ZM276.181 57.125V50.125H269.181V57.125H276.181ZM320.586 72.065L315.705 77.0821L315.74 77.1164L315.776 77.1503L320.586 72.065ZM322.246 199.47L317.223 194.595L317.186 194.633L317.149 194.672L322.246 199.47ZM289.876 214.41V221.41H290.028L290.18 221.403L289.876 214.41ZM267.466 210.26L264.206 216.454L264.206 216.454L267.466 210.26ZM254.601 199.885L248.833 203.851L248.977 204.06L249.135 204.258L254.601 199.885ZM247.961 185.775L241.192 187.556L241.204 187.603L241.216 187.648L247.961 185.775ZM245.886 170.42L250.442 165.105L238.886 155.2V170.42H245.886ZM251.281 174.155L248.151 180.416L248.596 180.638L249.067 180.796L251.281 174.155ZM269.541 172.08L264.591 167.13L269.541 172.08ZM274.106 164.195L267.528 161.803L267.429 162.074L267.353 162.353L274.106 164.195ZM275.766 154.235L268.784 153.736L268.766 153.985V154.235H275.766ZM329.301 358V365H336.301V358H329.301ZM303.571 355.925L302.198 362.789L302.224 362.794L302.249 362.799L303.571 355.925ZM284.481 348.455L280.666 354.324L280.731 354.366L280.797 354.407L284.481 348.455ZM270.786 333.515L276.88 330.071L276.88 330.071L270.786 333.515ZM265.391 220.635V213.635H258.391V220.635H265.391ZM292.781 223.125L291.147 229.932L291.277 229.963L291.408 229.989L292.781 223.125ZM311.041 231.01L306.889 236.645L307.054 236.767L307.226 236.879L311.041 231.01ZM324.321 245.95L330.527 242.712L330.527 242.712L324.321 245.95ZM239.661 308.2H232.661C232.661 316.977 230.905 323.647 227.872 328.63L233.851 332.27L239.83 335.91C244.543 328.167 246.661 318.79 246.661 308.2H239.661ZM233.851 332.27L227.872 328.63C224.493 334.181 220.347 338.531 215.443 341.801L219.326 347.625L223.209 353.449C229.925 348.972 235.462 343.086 239.83 335.91L233.851 332.27ZM219.326 347.625L215.642 341.673C210.533 344.836 204.754 347.188 198.247 348.689L199.821 355.51L201.395 362.331C209.275 360.512 216.499 357.608 223.011 353.577L219.326 347.625ZM199.821 355.51L198.187 348.703C191.744 350.25 185.654 351 179.901 351V358V365C186.875 365 194.065 364.09 201.455 362.317L199.821 355.51ZM179.901 358H186.901V116.885H179.901H172.901V358H179.901ZM179.901 116.885H186.901C186.901 98.5016 191.107 85.395 198.535 76.5739L193.181 72.065L187.827 67.556C177.548 79.7616 172.901 96.535 172.901 116.885H179.901ZM193.181 72.065L198.535 76.5739C205.782 67.9682 216.355 63.295 231.361 63.295V56.295V49.295C213.168 49.295 198.286 55.1351 187.827 67.556L193.181 72.065ZM231.361 56.295V63.295C238.951 63.295 244.504 64.5698 248.436 66.6394L251.696 60.445L254.956 54.2506C248.375 50.7868 240.371 49.295 231.361 49.295V56.295ZM251.696 60.445L248.436 66.6394C252.75 68.9103 255.771 71.7069 257.795 74.945L263.731 71.235L269.667 67.525C266.158 61.9098 261.155 57.5131 254.956 54.2506L251.696 60.445ZM263.731 71.235L257.963 75.2007C260.483 78.8658 262.19 82.8498 263.106 87.2021L269.956 85.76L276.806 84.3179C275.509 78.1569 273.066 72.4575 269.499 67.2693L263.731 71.235ZM269.956 85.76L263.123 87.2785C264.128 91.8016 264.616 96.1334 264.616 100.285H271.616H278.616C278.616 95.0299 277.998 89.6784 276.789 84.2415L269.956 85.76ZM271.616 100.285H264.616C264.616 101.294 264.559 101.991 264.49 102.437C264.415 102.923 264.363 102.875 264.525 102.549L270.786 105.68L277.047 108.81C278.369 106.167 278.616 102.976 278.616 100.285H271.616ZM270.786 105.68L275.308 100.336C270.371 96.1592 264.454 94.115 257.921 94.115V101.115V108.115C261.348 108.115 264.008 109.114 266.265 111.024L270.786 105.68ZM257.921 101.115V94.115C252.906 94.115 248.083 95.1104 244.078 97.7806L247.961 103.605L251.844 109.429C252.819 108.78 254.636 108.115 257.921 108.115V101.115ZM247.961 103.605L244.251 97.669C240.943 99.7366 238.352 102.587 236.447 106.015L242.566 109.415L248.685 112.814C249.547 111.263 250.553 110.24 251.671 109.541L247.961 103.605ZM242.566 109.415L236.305 106.284C234.839 109.218 233.833 112.507 233.189 116.048L240.076 117.3L246.963 118.552C247.426 116.006 248.08 114.039 248.827 112.545L242.566 109.415ZM240.076 117.3L233.105 116.666C232.807 119.937 232.661 123.331 232.661 126.845H239.661H246.661C246.661 123.719 246.791 120.749 247.047 117.934L240.076 117.3ZM239.661 126.845H232.661V308.2H239.661H246.661V126.845H239.661ZM276.181 57.125V64.125H281.576V57.125V50.125H276.181V57.125ZM281.576 57.125V64.125C295.73 64.125 306.916 68.5313 315.705 77.0821L320.586 72.065L325.468 67.0479C313.783 55.6787 298.962 50.125 281.576 50.125V57.125ZM320.586 72.065L315.776 77.1503C324.212 85.1303 328.941 97.1466 328.941 114.395H335.941H342.941C342.941 94.57 337.434 78.3663 325.396 66.9797L320.586 72.065ZM335.941 114.395H328.941V157.97H335.941H342.941V114.395H335.941ZM335.941 157.97H328.941C328.941 175.134 324.657 186.935 317.223 194.595L322.246 199.47L327.269 204.345C338.095 193.192 342.941 177.326 342.941 157.97H335.941ZM322.246 199.47L317.149 194.672C309.526 202.771 300.447 206.944 289.572 207.417L289.876 214.41L290.18 221.403C304.758 220.77 317.259 214.982 327.343 204.268L322.246 199.47ZM289.876 214.41V207.41H286.971V214.41V221.41H289.876V214.41ZM286.971 214.41V207.41C280.026 207.41 274.719 206.167 270.726 204.066L267.466 210.26L264.206 216.454C270.727 219.886 278.422 221.41 286.971 221.41V214.41ZM267.466 210.26L270.726 204.066C266.222 201.695 262.718 198.826 260.067 195.512L254.601 199.885L249.135 204.258C253.124 209.244 258.197 213.292 264.206 216.454L267.466 210.26ZM254.601 199.885L260.369 195.919C257.748 192.106 255.874 188.106 254.706 183.901L247.961 185.775L241.216 187.648C242.815 193.404 245.368 198.811 248.833 203.851L254.601 199.885ZM247.961 185.775L254.731 183.994C253.486 179.266 252.886 174.747 252.886 170.42H245.886H238.886C238.886 176.053 239.669 181.771 241.192 187.556L247.961 185.775ZM245.886 170.42L241.331 175.735C243.552 177.639 245.828 179.255 248.151 180.416L251.281 174.155L254.412 167.894C253.414 167.395 252.093 166.521 250.442 165.105L245.886 170.42ZM251.281 174.155L249.067 180.796C251.971 181.764 256.419 181.985 261.241 181.985V174.985V167.985C258.86 167.985 256.995 167.918 255.597 167.802C254.902 167.744 254.373 167.678 253.988 167.613C253.583 167.546 253.448 167.499 253.495 167.514L251.281 174.155ZM261.241 174.985V181.985C266.09 181.985 270.868 180.652 274.491 177.03L269.541 172.08L264.591 167.13C264.34 167.381 263.585 167.985 261.241 167.985V174.985ZM269.541 172.08L274.491 177.03C277.573 173.948 279.712 170.246 280.859 166.037L274.106 164.195L267.353 162.353C266.841 164.231 265.936 165.785 264.591 167.13L269.541 172.08ZM274.106 164.195L280.685 166.587C282.099 162.697 282.766 158.558 282.766 154.235H275.766H268.766C268.766 157.106 268.326 159.606 267.528 161.803L274.106 164.195ZM275.766 154.235L282.748 154.734C283.034 150.737 283.181 147.108 283.181 143.86H276.181H269.181C269.181 146.699 269.052 149.986 268.784 153.736L275.766 154.235ZM276.181 143.86H283.181V57.125H276.181H269.181V143.86H276.181ZM329.301 358V351H325.151V358V365H329.301V358ZM325.151 358V351C318.409 351 311.659 350.352 304.893 349.051L303.571 355.925L302.249 362.799C309.87 364.265 317.506 365 325.151 365V358ZM303.571 355.925L304.944 349.061C298.819 347.836 293.243 345.646 288.166 342.503L284.481 348.455L280.797 354.407C287.339 358.457 294.49 361.247 302.198 362.789L303.571 355.925ZM284.481 348.455L288.296 342.586C283.804 339.666 279.984 335.561 276.88 330.071L270.786 333.515L264.692 336.959C268.782 344.195 274.091 350.05 280.666 354.324L284.481 348.455ZM270.786 333.515L276.88 330.071C274.068 325.096 272.391 318.103 272.391 308.615H265.391H258.391C258.391 319.6 260.311 329.208 264.692 336.959L270.786 333.515ZM265.391 308.615H272.391V220.635H265.391H258.391V308.615H265.391ZM265.391 220.635V227.635H272.031V220.635V213.635H265.391V220.635ZM272.031 220.635V227.635C278.382 227.635 284.751 228.396 291.147 229.932L292.781 223.125L294.415 216.318C286.978 214.534 279.513 213.635 272.031 213.635V220.635ZM292.781 223.125L291.408 229.989C297.402 231.188 302.522 233.428 306.889 236.645L311.041 231.01L315.193 225.375C309.047 220.845 301.994 217.829 294.154 216.261L292.781 223.125ZM311.041 231.01L307.226 236.879C311.662 239.762 315.302 243.797 318.115 249.188L324.321 245.95L330.527 242.712C326.7 235.377 321.487 229.451 314.856 225.141L311.041 231.01ZM324.321 245.95L318.115 249.188C320.751 254.24 322.301 261.189 322.301 270.435H329.301H336.301C336.301 259.761 334.531 250.386 330.527 242.712L324.321 245.95ZM329.301 270.435H322.301V358H329.301H336.301V270.435H329.301Z" fill="#3504FB" mask="url(#path-2-outside-1_3_5)"/>
</g>
</g>
<defs>
<clipPath id="clip0_3_5">
<rect width="512" height="512" fill="white"/>
</clipPath>
<clipPath id="clip1_3_5">
<rect width="512" height="512" fill="white"/>
</clipPath>
</defs>
</svg>
