<svg width="180" height="180" viewBox="0 0 180 180" fill="none" xmlns="http://www.w3.org/2000/svg">
<g clip-path="url(#clip0_3_10)">
<g clip-path="url(#clip1_3_10)">
<path d="M1.99091 1.38297L176.704 1.25125L89.3482 176.031L1.99091 1.38297Z" fill="#3504FB" stroke="#3504FB" stroke-width="2.46094"/>
<mask id="path-2-outside-1_3_10" maskUnits="userSpaceOnUse" x="60.7845" y="17" width="60" height="112" fill="black">
<rect fill="white" x="60.7845" y="17" width="60" height="112"/>
<path d="M84.2559 108.492C84.2559 111.896 83.575 114.717 82.2133 116.954C80.8516 119.191 79.1494 120.991 77.1068 122.353C75.0643 123.617 72.7785 124.541 70.2496 125.125C67.818 125.708 65.4836 126 63.2465 126V41.233C63.2465 34.4244 64.8027 29.1721 67.9152 25.476C71.0277 21.7799 75.5019 19.9318 81.3379 19.9318C84.2559 19.9318 86.6389 20.4182 88.4869 21.3908C90.335 22.3635 91.7453 23.6279 92.718 25.1842C93.7879 26.7404 94.5174 28.4426 94.9064 30.2906C95.2955 32.0414 95.49 33.7436 95.49 35.3971C95.49 36.2725 95.3928 36.9047 95.1982 37.2937C93.9338 36.2238 92.4262 35.6889 90.6754 35.6889C89.2164 35.6889 88.0492 35.9807 87.1738 36.5643C86.3957 37.0506 85.7635 37.7314 85.2771 38.6068C84.8881 39.385 84.5963 40.309 84.4018 41.3789C84.3045 42.4488 84.2559 43.5674 84.2559 44.7346V108.492ZM97.0949 20.2236H98.9916C104.536 20.2236 109.107 21.9744 112.706 25.476C116.305 28.8803 118.104 33.8408 118.104 40.3576V55.6769C118.104 62.0965 116.499 66.9598 113.29 70.2668C110.177 73.5738 106.384 75.3246 101.91 75.5191H100.888C98.1648 75.5191 95.8791 75.0328 94.0311 74.0602C92.183 73.0875 90.6754 71.8717 89.5082 70.4127C88.4383 68.8564 87.6602 67.2029 87.1738 65.4521C86.6875 63.6041 86.4443 61.8047 86.4443 60.0539C87.1252 60.6375 87.7574 61.0752 88.341 61.367C88.9246 61.5615 90.0918 61.6588 91.8426 61.6588C93.107 61.6588 94.0797 61.3184 94.7605 60.6375C95.5387 59.8594 96.0736 58.9353 96.3654 57.8654C96.7545 56.7955 96.949 55.6283 96.949 54.3639C97.0463 53.0021 97.0949 51.7863 97.0949 50.7164V20.2236ZM115.77 126H114.311C111.782 126 109.253 125.757 106.724 125.271C104.293 124.784 102.055 123.909 100.013 122.644C98.0676 121.38 96.4627 119.629 95.1982 117.392C93.9338 115.155 93.3016 112.237 93.3016 108.638V77.7076H95.6359C98.0676 77.7076 100.499 77.9994 102.931 78.583C105.362 79.0693 107.502 79.9934 109.35 81.3551C111.296 82.6195 112.852 84.3703 114.019 86.6074C115.186 88.8445 115.77 91.7139 115.77 95.2154V126Z"/>
</mask>
<path d="M84.2559 108.492C84.2559 111.896 83.575 114.717 82.2133 116.954C80.8516 119.191 79.1494 120.991 77.1068 122.353C75.0643 123.617 72.7785 124.541 70.2496 125.125C67.818 125.708 65.4836 126 63.2465 126V41.233C63.2465 34.4244 64.8027 29.1721 67.9152 25.476C71.0277 21.7799 75.5019 19.9318 81.3379 19.9318C84.2559 19.9318 86.6389 20.4182 88.4869 21.3908C90.335 22.3635 91.7453 23.6279 92.718 25.1842C93.7879 26.7404 94.5174 28.4426 94.9064 30.2906C95.2955 32.0414 95.49 33.7436 95.49 35.3971C95.49 36.2725 95.3928 36.9047 95.1982 37.2937C93.9338 36.2238 92.4262 35.6889 90.6754 35.6889C89.2164 35.6889 88.0492 35.9807 87.1738 36.5643C86.3957 37.0506 85.7635 37.7314 85.2771 38.6068C84.8881 39.385 84.5963 40.309 84.4018 41.3789C84.3045 42.4488 84.2559 43.5674 84.2559 44.7346V108.492ZM97.0949 20.2236H98.9916C104.536 20.2236 109.107 21.9744 112.706 25.476C116.305 28.8803 118.104 33.8408 118.104 40.3576V55.6769C118.104 62.0965 116.499 66.9598 113.29 70.2668C110.177 73.5738 106.384 75.3246 101.91 75.5191H100.888C98.1648 75.5191 95.8791 75.0328 94.0311 74.0602C92.183 73.0875 90.6754 71.8717 89.5082 70.4127C88.4383 68.8564 87.6602 67.2029 87.1738 65.4521C86.6875 63.6041 86.4443 61.8047 86.4443 60.0539C87.1252 60.6375 87.7574 61.0752 88.341 61.367C88.9246 61.5615 90.0918 61.6588 91.8426 61.6588C93.107 61.6588 94.0797 61.3184 94.7605 60.6375C95.5387 59.8594 96.0736 58.9353 96.3654 57.8654C96.7545 56.7955 96.949 55.6283 96.949 54.3639C97.0463 53.0021 97.0949 51.7863 97.0949 50.7164V20.2236ZM115.77 126H114.311C111.782 126 109.253 125.757 106.724 125.271C104.293 124.784 102.055 123.909 100.013 122.644C98.0676 121.38 96.4627 119.629 95.1982 117.392C93.9338 115.155 93.3016 112.237 93.3016 108.638V77.7076H95.6359C98.0676 77.7076 100.499 77.9994 102.931 78.583C105.362 79.0693 107.502 79.9934 109.35 81.3551C111.296 82.6195 112.852 84.3703 114.019 86.6074C115.186 88.8445 115.77 91.7139 115.77 95.2154V126Z" fill="#FFFEFE"/>
<path d="M82.2133 116.954L80.1111 115.675L80.1111 115.675L82.2133 116.954ZM77.1068 122.353L78.4022 124.445L78.4374 124.423L78.4719 124.4L77.1068 122.353ZM70.2496 125.125L69.6962 122.727L69.6858 122.729L69.6753 122.732L70.2496 125.125ZM63.2465 126H60.7855V128.461H63.2465V126ZM67.9152 25.476L69.7976 27.0612L69.7976 27.0612L67.9152 25.476ZM88.4869 21.3908L87.3407 23.5685L87.3407 23.5685L88.4869 21.3908ZM92.718 25.1842L90.6311 26.4885L90.6596 26.5341L90.69 26.5784L92.718 25.1842ZM94.9064 30.2906L92.4983 30.7976L92.5011 30.8111L92.5041 30.8245L94.9064 30.2906ZM95.1982 37.2937L93.6086 39.1724L95.999 41.195L97.3994 38.3943L95.1982 37.2937ZM87.1738 36.5643L88.4781 38.6511L88.5088 38.6319L88.5389 38.6119L87.1738 36.5643ZM85.2771 38.6068L83.1259 37.4117L83.0999 37.4584L83.076 37.5063L85.2771 38.6068ZM84.4018 41.3789L81.9805 40.9387L81.9609 41.0467L81.9509 41.1561L84.4018 41.3789ZM97.0949 20.2236V17.7627H94.634V20.2236H97.0949ZM112.706 25.476L110.99 27.2398L111.002 27.2519L111.015 27.2638L112.706 25.476ZM113.29 70.2668L111.524 68.5528L111.511 68.5664L111.498 68.5802L113.29 70.2668ZM101.91 75.5191V77.9801H101.963L102.016 77.9778L101.91 75.5191ZM94.0311 74.0602L92.8849 76.2379L92.8849 76.2379L94.0311 74.0602ZM89.5082 70.4127L87.4803 71.8069L87.5308 71.8804L87.5865 71.95L89.5082 70.4127ZM87.1738 65.4521L84.7939 66.0784L84.7982 66.0946L84.8027 66.1108L87.1738 65.4521ZM86.4443 60.0539L88.0459 58.1854L83.9834 54.7033V60.0539H86.4443ZM88.341 61.367L87.2405 63.5681L87.3969 63.6463L87.5628 63.7016L88.341 61.367ZM96.3654 57.8654L94.0527 57.0244L94.0179 57.1199L93.9912 57.2179L96.3654 57.8654ZM96.949 54.3639L94.4943 54.1885L94.4881 54.2761V54.3639H96.949ZM115.77 126V128.461H118.231V126H115.77ZM106.724 125.271L106.242 127.684L106.251 127.685L106.259 127.687L106.724 125.271ZM100.013 122.644L98.6717 124.708L98.6945 124.722L98.7176 124.737L100.013 122.644ZM95.1982 117.392L97.3406 116.181L97.3406 116.181L95.1982 117.392ZM93.3016 77.7076V75.2467H90.8406V77.7076H93.3016ZM102.931 78.583L102.357 80.976L102.402 80.9869L102.448 80.9962L102.931 78.583ZM109.35 81.3551L107.891 83.3363L107.949 83.3791L108.009 83.4184L109.35 81.3551ZM114.019 86.6074L116.201 85.4691L116.201 85.4691L114.019 86.6074ZM84.2559 108.492H81.7949C81.7949 111.578 81.1777 113.923 80.1111 115.675L82.2133 116.954L84.3154 118.234C85.9723 115.512 86.7168 112.215 86.7168 108.492H84.2559ZM82.2133 116.954L80.1111 115.675C78.9234 117.626 77.4658 119.156 75.7417 120.305L77.1068 122.353L78.4719 124.4C80.833 122.826 82.7797 120.757 84.3154 118.234L82.2133 116.954ZM77.1068 122.353L75.8115 120.26C74.0156 121.372 71.9839 122.199 69.6962 122.727L70.2496 125.125L70.803 127.523C73.5732 126.883 76.1129 125.862 78.4022 124.445L77.1068 122.353ZM70.2496 125.125L69.6753 122.732C67.41 123.275 65.269 123.539 63.2465 123.539V126V128.461C65.6982 128.461 68.2259 128.141 70.8239 127.518L70.2496 125.125ZM63.2465 126H65.7074V41.233H63.2465H60.7855V126H63.2465ZM63.2465 41.233H65.7074C65.7074 34.7701 67.1861 30.1623 69.7976 27.0612L67.9152 25.476L66.0328 23.8908C62.4193 28.1818 60.7855 34.0787 60.7855 41.233H63.2465ZM67.9152 25.476L69.7976 27.0612C72.3454 24.0357 76.0621 22.3928 81.3379 22.3928V19.9318V17.4709C74.9418 17.4709 69.7101 19.5241 66.0328 23.8908L67.9152 25.476ZM81.3379 19.9318V22.3928C84.0062 22.3928 85.9583 22.841 87.3407 23.5685L88.4869 21.3908L89.6331 19.2131C87.3194 17.9954 84.5055 17.4709 81.3379 17.4709V19.9318ZM88.4869 21.3908L87.3407 23.5685C88.8576 24.3669 89.9196 25.3501 90.6311 26.4885L92.718 25.1842L94.8048 23.8799C93.571 21.9058 91.8123 20.3601 89.6331 19.2131L88.4869 21.3908ZM92.718 25.1842L90.69 26.5784C91.5759 27.8669 92.1762 29.2675 92.4983 30.7976L94.9064 30.2906L97.3146 29.7836C96.8586 27.6177 95.9999 25.614 94.7459 23.79L92.718 25.1842ZM94.9064 30.2906L92.5041 30.8245C92.8575 32.4146 93.0291 33.9375 93.0291 35.3971H95.49H97.951C97.951 33.5496 97.7335 31.6682 97.3088 29.7568L94.9064 30.2906ZM95.49 35.3971H93.0291C93.0291 35.7517 93.0089 35.997 92.9848 36.1536C92.9585 36.3243 92.9399 36.3075 92.9971 36.1932L95.1982 37.2937L97.3994 38.3943C97.864 37.465 97.951 36.3431 97.951 35.3971H95.49ZM95.1982 37.2937L96.7879 35.4151C95.0524 33.9466 92.9723 33.2279 90.6754 33.2279V35.6889V38.1498C91.8801 38.1498 92.8152 38.501 93.6086 39.1724L95.1982 37.2937ZM90.6754 35.6889V33.2279C88.9122 33.2279 87.2169 33.5779 85.8087 34.5166L87.1738 36.5643L88.5389 38.6119C88.8816 38.3834 89.5206 38.1498 90.6754 38.1498V35.6889ZM87.1738 36.5643L85.8695 34.4774C84.7065 35.2043 83.7956 36.2063 83.1259 37.4117L85.2771 38.6068L87.4284 39.802C87.7314 39.2566 88.0849 38.8969 88.4781 38.6511L87.1738 36.5643ZM85.2771 38.6068L83.076 37.5063C82.5604 38.5374 82.2068 39.694 81.9805 40.9387L84.4018 41.3789L86.823 41.8191C86.9857 40.924 87.2157 40.2325 87.4783 39.7074L85.2771 38.6068ZM84.4018 41.3789L81.9509 41.1561C81.8464 42.3061 81.7949 43.4993 81.7949 44.7346H84.2559H86.7168C86.7168 43.6355 86.7626 42.5915 86.8526 41.6017L84.4018 41.3789ZM84.2559 44.7346H81.7949V108.492H84.2559H86.7168V44.7346H84.2559ZM97.0949 20.2236V22.6846H98.9916V20.2236V17.7627H97.0949V20.2236ZM98.9916 20.2236V22.6846C103.968 22.6846 107.9 24.2337 110.99 27.2398L112.706 25.476L114.422 23.7122C110.314 19.7152 105.104 17.7627 98.9916 17.7627V20.2236ZM112.706 25.476L111.015 27.2638C113.981 30.0692 115.643 34.2937 115.643 40.3576H118.104H120.565C120.565 33.3879 118.629 27.6913 114.397 23.6882L112.706 25.476ZM118.104 40.3576H115.643V55.6769H118.104H120.565V40.3576H118.104ZM118.104 55.6769H115.643C115.643 61.7111 114.137 65.86 111.524 68.5528L113.29 70.2668L115.056 71.9808C118.861 68.0596 120.565 62.4819 120.565 55.6769H118.104ZM113.29 70.2668L111.498 68.5802C108.818 71.4274 105.626 72.8943 101.803 73.0605L101.91 75.5191L102.016 77.9778C107.142 77.7549 111.536 75.7202 115.082 71.9534L113.29 70.2668ZM101.91 75.5191V73.0582H100.888V75.5191V77.9801H101.91V75.5191ZM100.888 75.5191V73.0582C98.4468 73.0582 96.5808 72.6211 95.1772 71.8824L94.0311 74.0602L92.8849 76.2379C95.1774 77.4445 97.8829 77.9801 100.888 77.9801V75.5191ZM94.0311 74.0602L95.1772 71.8824C93.5936 71.049 92.3618 70.0402 91.4299 68.8754L89.5082 70.4127L87.5865 71.95C88.989 73.7031 90.7724 75.126 92.8849 76.2379L94.0311 74.0602ZM89.5082 70.4127L91.5361 69.0185C90.6144 67.6778 89.9556 66.2715 89.545 64.7935L87.1738 65.4521L84.8027 66.1108C85.3648 68.1343 86.2622 70.0351 87.4803 71.8069L89.5082 70.4127ZM87.1738 65.4521L89.5537 64.8259C89.1163 63.1637 88.9053 61.575 88.9053 60.0539H86.4443H83.9834C83.9834 62.0344 84.2587 64.0445 84.7939 66.0784L87.1738 65.4521ZM86.4443 60.0539L84.8428 61.9224C85.6239 62.5919 86.424 63.1599 87.2405 63.5681L88.341 61.367L89.4416 59.1659C89.0908 58.9905 88.6265 58.6831 88.0459 58.1854L86.4443 60.0539ZM88.341 61.367L87.5628 63.7016C88.5835 64.0419 90.1473 64.1197 91.8426 64.1197V61.6588V59.1978C91.0056 59.1978 90.3498 59.1743 89.8585 59.1334C89.6139 59.113 89.4281 59.0898 89.2927 59.0672C89.1503 59.0435 89.1028 59.0269 89.1192 59.0323L88.341 61.367ZM91.8426 61.6588V64.1197C93.5474 64.1197 95.2272 63.6511 96.5007 62.3776L94.7605 60.6375L93.0204 58.8974C92.9322 58.9856 92.6667 59.1978 91.8426 59.1978V61.6588ZM94.7605 60.6375L96.5007 62.3776C97.5841 61.2942 98.3361 59.9927 98.7396 58.5129L96.3654 57.8654L93.9912 57.2179C93.8112 57.878 93.4932 58.4245 93.0204 58.8974L94.7605 60.6375ZM96.3654 57.8654L98.6782 58.7064C99.1755 57.3388 99.41 55.8836 99.41 54.3639H96.949H94.4881C94.4881 55.3731 94.3335 56.2522 94.0527 57.0244L96.3654 57.8654ZM96.949 54.3639L99.4037 54.5392C99.5041 53.1342 99.5559 51.8582 99.5559 50.7164H97.0949H94.634C94.634 51.7145 94.5885 52.8701 94.4943 54.1885L96.949 54.3639ZM97.0949 50.7164H99.5559V20.2236H97.0949H94.634V50.7164H97.0949ZM115.77 126V123.539H114.311V126V128.461H115.77V126ZM114.311 126V123.539C111.941 123.539 109.568 123.311 107.189 122.854L106.724 125.271L106.259 127.687C108.939 128.202 111.623 128.461 114.311 128.461V126ZM106.724 125.271L107.207 122.857C105.054 122.427 103.093 121.657 101.308 120.552L100.013 122.644L98.7176 124.737C101.018 126.161 103.532 127.142 106.242 127.684L106.724 125.271ZM100.013 122.644L101.354 120.581C99.7749 119.555 98.4317 118.111 97.3406 116.181L95.1982 117.392L93.0558 118.603C94.4937 121.147 96.3602 123.205 98.6717 124.708L100.013 122.644ZM95.1982 117.392L97.3406 116.181C96.3521 114.432 95.7625 111.974 95.7625 108.638H93.3016H90.8406C90.8406 112.5 91.5155 115.878 93.0558 118.603L95.1982 117.392ZM93.3016 108.638H95.7625V77.7076H93.3016H90.8406V108.638H93.3016ZM93.3016 77.7076V80.1686H95.6359V77.7076V75.2467H93.3016V77.7076ZM95.6359 77.7076V80.1686C97.8687 80.1686 100.108 80.4363 102.357 80.976L102.931 78.583L103.505 76.19C100.891 75.5626 98.2665 75.2467 95.6359 75.2467V77.7076ZM102.931 78.583L102.448 80.9962C104.555 81.4176 106.355 82.2051 107.891 83.3363L109.35 81.3551L110.81 79.3739C108.649 77.7816 106.17 76.7211 103.413 76.1699L102.931 78.583ZM109.35 81.3551L108.009 83.4184C109.569 84.4321 110.848 85.8504 111.837 87.7458L114.019 86.6074L116.201 85.4691C114.855 82.8902 113.023 80.807 110.692 79.2917L109.35 81.3551ZM114.019 86.6074L111.837 87.7458C112.764 89.522 113.309 91.965 113.309 95.2154H115.77H118.231C118.231 91.4628 117.609 88.1671 116.201 85.4691L114.019 86.6074ZM115.77 95.2154H113.309V126H115.77H118.231V95.2154H115.77Z" fill="#3504FB" mask="url(#path-2-outside-1_3_10)"/>
</g>
</g>
<defs>
<clipPath id="clip0_3_10">
<rect width="180" height="180" fill="white"/>
</clipPath>
<clipPath id="clip1_3_10">
<rect width="180" height="180" fill="white"/>
</clipPath>
</defs>
</svg>
