<svg width="167" height="167" viewBox="0 0 167 167" fill="none" xmlns="http://www.w3.org/2000/svg">
<g clip-path="url(#clip0_3_11)">
<g clip-path="url(#clip1_3_11)">
<path d="M1.8468 1.78356L163.941 1.66135L82.8948 163.818L1.8468 1.78356Z" fill="#3504FB" stroke="#3504FB" stroke-width="2.2832"/>
<mask id="path-2-outside-1_3_11" maskUnits="userSpaceOnUse" x="56.2612" y="16" width="56" height="104" fill="black">
<rect fill="white" x="56.2612" y="16" width="56" height="104"/>
<path d="M78.1707 100.757C78.1707 103.915 77.539 106.532 76.2757 108.608C75.0123 110.683 73.4331 112.353 71.538 113.616C69.6429 114.789 67.5223 115.646 65.176 116.188C62.92 116.729 60.7542 117 58.6787 117V38.3551C58.6787 32.0382 60.1225 27.1652 63.0102 23.736C65.8979 20.3069 70.049 18.5923 75.4635 18.5923C78.1707 18.5923 80.3816 19.0435 82.0962 19.9459C83.8108 20.8483 85.1193 22.0215 86.0217 23.4653C87.0143 24.9092 87.6911 26.4884 88.0521 28.203C88.4131 29.8273 88.5935 31.4065 88.5935 32.9406C88.5935 33.7528 88.5033 34.3393 88.3228 34.7003C87.1497 33.7077 85.7509 33.2113 84.1266 33.2113C82.773 33.2113 81.6901 33.4821 80.8779 34.0235C80.156 34.4747 79.5694 35.1064 79.1182 35.9186C78.7573 36.6405 78.4866 37.4978 78.3061 38.4904C78.2158 39.4831 78.1707 40.5208 78.1707 41.6037V100.757ZM90.0825 18.863H91.8422C96.9859 18.863 101.227 20.4874 104.566 23.736C107.905 26.8945 109.575 31.4968 109.575 37.5429V51.7558C109.575 57.7117 108.086 62.2238 105.108 65.292C102.22 68.3602 98.7005 69.9845 94.5494 70.165H93.6019C91.0752 70.165 88.9545 69.7138 87.2399 68.8114C85.5253 67.909 84.1266 66.7809 83.0437 65.4273C82.0511 63.9835 81.3291 62.4494 80.8779 60.825C80.4267 59.1105 80.2011 57.441 80.2011 55.8167C80.8328 56.3581 81.4194 56.7642 81.9608 57.0349C82.5023 57.2154 83.5852 57.3057 85.2095 57.3057C86.3826 57.3057 87.285 56.9898 87.9167 56.3581C88.6387 55.6362 89.135 54.7789 89.4057 53.7863C89.7667 52.7936 89.9471 51.7107 89.9471 50.5376C90.0374 49.2742 90.0825 48.1462 90.0825 47.1536V18.863ZM107.409 117H106.055C103.709 117 101.363 116.774 99.0164 116.323C96.7603 115.872 94.6848 115.06 92.7897 113.887C90.9849 112.714 89.4959 111.089 88.3228 109.014C87.1497 106.938 86.5631 104.231 86.5631 100.892V72.1954H88.7289C90.9849 72.1954 93.2409 72.4661 95.497 73.0076C97.753 73.4588 99.7383 74.3161 101.453 75.5794C103.258 76.7526 104.702 78.3769 105.784 80.4524C106.867 82.528 107.409 85.1901 107.409 88.4388V117Z"/>
</mask>
<path d="M78.1707 100.757C78.1707 103.915 77.539 106.532 76.2757 108.608C75.0123 110.683 73.4331 112.353 71.538 113.616C69.6429 114.789 67.5223 115.646 65.176 116.188C62.92 116.729 60.7542 117 58.6787 117V38.3551C58.6787 32.0382 60.1225 27.1652 63.0102 23.736C65.8979 20.3069 70.049 18.5923 75.4635 18.5923C78.1707 18.5923 80.3816 19.0435 82.0962 19.9459C83.8108 20.8483 85.1193 22.0215 86.0217 23.4653C87.0143 24.9092 87.6911 26.4884 88.0521 28.203C88.4131 29.8273 88.5935 31.4065 88.5935 32.9406C88.5935 33.7528 88.5033 34.3393 88.3228 34.7003C87.1497 33.7077 85.7509 33.2113 84.1266 33.2113C82.773 33.2113 81.6901 33.4821 80.8779 34.0235C80.156 34.4747 79.5694 35.1064 79.1182 35.9186C78.7573 36.6405 78.4866 37.4978 78.3061 38.4904C78.2158 39.4831 78.1707 40.5208 78.1707 41.6037V100.757ZM90.0825 18.863H91.8422C96.9859 18.863 101.227 20.4874 104.566 23.736C107.905 26.8945 109.575 31.4968 109.575 37.5429V51.7558C109.575 57.7117 108.086 62.2238 105.108 65.292C102.22 68.3602 98.7005 69.9845 94.5494 70.165H93.6019C91.0752 70.165 88.9545 69.7138 87.2399 68.8114C85.5253 67.909 84.1266 66.7809 83.0437 65.4273C82.0511 63.9835 81.3291 62.4494 80.8779 60.825C80.4267 59.1105 80.2011 57.441 80.2011 55.8167C80.8328 56.3581 81.4194 56.7642 81.9608 57.0349C82.5023 57.2154 83.5852 57.3057 85.2095 57.3057C86.3826 57.3057 87.285 56.9898 87.9167 56.3581C88.6387 55.6362 89.135 54.7789 89.4057 53.7863C89.7667 52.7936 89.9471 51.7107 89.9471 50.5376C90.0374 49.2742 90.0825 48.1462 90.0825 47.1536V18.863ZM107.409 117H106.055C103.709 117 101.363 116.774 99.0164 116.323C96.7603 115.872 94.6848 115.06 92.7897 113.887C90.9849 112.714 89.4959 111.089 88.3228 109.014C87.1497 106.938 86.5631 104.231 86.5631 100.892V72.1954H88.7289C90.9849 72.1954 93.2409 72.4661 95.497 73.0076C97.753 73.4588 99.7383 74.3161 101.453 75.5794C103.258 76.7526 104.702 78.3769 105.784 80.4524C106.867 82.528 107.409 85.1901 107.409 88.4388V117Z" fill="#FFFEFE"/>
<path d="M76.2757 108.608L74.3253 107.42L74.3253 107.42L76.2757 108.608ZM71.538 113.616L72.7398 115.557L72.7725 115.537L72.8045 115.516L71.538 113.616ZM65.176 116.188L64.6626 113.963L64.6529 113.965L64.6432 113.968L65.176 116.188ZM58.6787 117H56.3955V119.283H58.6787V117ZM63.0102 23.736L64.7567 25.2067L64.7567 25.2067L63.0102 23.736ZM82.0962 19.9459L81.0328 21.9664L81.0328 21.9664L82.0962 19.9459ZM86.0217 23.4653L84.0855 24.6754L84.112 24.7177L84.1402 24.7588L86.0217 23.4653ZM88.0521 28.203L85.8179 28.6733L85.8205 28.6858L85.8233 28.6983L88.0521 28.203ZM88.3228 34.7003L86.848 36.4433L89.0657 38.3198L90.365 35.7214L88.3228 34.7003ZM80.8779 34.0235L82.088 35.9597L82.1165 35.9419L82.1444 35.9232L80.8779 34.0235ZM79.1182 35.9186L77.1224 34.8097L77.0983 34.8531L77.0761 34.8975L79.1182 35.9186ZM78.3061 38.4904L76.0597 38.082L76.0415 38.1822L76.0322 38.2837L78.3061 38.4904ZM90.0825 18.863V16.5798H87.7993V18.863H90.0825ZM104.566 23.736L102.974 25.3725L102.985 25.3837L102.997 25.3947L104.566 23.736ZM105.108 65.292L103.469 63.7018L103.457 63.7144L103.445 63.7271L105.108 65.292ZM94.5494 70.165V72.4482H94.599L94.6486 72.446L94.5494 70.165ZM87.2399 68.8114L86.1765 70.8318L86.1765 70.8318L87.2399 68.8114ZM83.0437 65.4273L81.1623 66.7208L81.2091 66.789L81.2608 66.8536L83.0437 65.4273ZM80.8779 60.825L78.6699 61.4061L78.6739 61.4211L78.678 61.4361L80.8779 60.825ZM80.2011 55.8167L81.687 54.0831L77.9179 50.8525V55.8167H80.2011ZM81.9608 57.0349L80.9398 59.0771L81.0849 59.1497L81.2388 59.201L81.9608 57.0349ZM89.4057 53.7863L87.26 53.006L87.2277 53.0946L87.2029 53.1855L89.4057 53.7863ZM89.9471 50.5376L87.6697 50.3749L87.6639 50.4561V50.5376H89.9471ZM107.409 117V119.283H109.692V117H107.409ZM99.0164 116.323L98.5686 118.562L98.5769 118.564L98.5852 118.565L99.0164 116.323ZM92.7897 113.887L91.5454 115.801L91.5665 115.815L91.588 115.828L92.7897 113.887ZM88.3228 109.014L90.3105 107.89L90.3105 107.89L88.3228 109.014ZM86.5631 72.1954V69.9122H84.2799V72.1954H86.5631ZM95.497 73.0076L94.9641 75.2277L95.0065 75.2379L95.0492 75.2464L95.497 73.0076ZM101.453 75.5794L100.098 77.4175L100.152 77.4573L100.209 77.4938L101.453 75.5794ZM105.784 80.4524L107.809 79.3963L107.809 79.3963L105.784 80.4524ZM78.1707 100.757H75.8875C75.8875 103.619 75.3148 105.795 74.3253 107.42L76.2757 108.608L78.226 109.795C79.7632 107.269 80.4539 104.211 80.4539 100.757H78.1707ZM76.2757 108.608L74.3253 107.42C73.2234 109.231 71.8711 110.65 70.2715 111.716L71.538 113.616L72.8045 115.516C74.995 114.055 76.8012 112.135 78.226 109.795L76.2757 108.608ZM71.538 113.616L70.3362 111.675C68.67 112.706 66.785 113.473 64.6626 113.963L65.176 116.188L65.6894 118.413C68.2595 117.819 70.6159 116.872 72.7398 115.557L71.538 113.616ZM65.176 116.188L64.6432 113.968C62.5415 114.472 60.5551 114.717 58.6787 114.717V117V119.283C60.9533 119.283 63.2985 118.986 65.7089 118.408L65.176 116.188ZM58.6787 117H60.9619V38.3551H58.6787H56.3955V117H58.6787ZM58.6787 38.3551H60.9619C60.9619 32.3589 62.3338 28.0839 64.7567 25.2067L63.0102 23.736L61.2638 22.2654C57.9113 26.2465 56.3955 31.7175 56.3955 38.3551H58.6787ZM63.0102 23.736L64.7567 25.2067C67.1204 22.3998 70.5688 20.8755 75.4635 20.8755V18.5923V16.3091C69.5293 16.3091 64.6755 18.214 61.2638 22.2654L63.0102 23.736ZM75.4635 18.5923V20.8755C77.9391 20.8755 79.7502 21.2913 81.0328 21.9664L82.0962 19.9459L83.1596 17.9255C81.013 16.7957 78.4023 16.3091 75.4635 16.3091V18.5923ZM82.0962 19.9459L81.0328 21.9664C82.4401 22.7071 83.4254 23.6192 84.0855 24.6754L86.0217 23.4653L87.9578 22.2552C86.8131 20.4237 85.1814 18.9896 83.1596 17.9255L82.0962 19.9459ZM86.0217 23.4653L84.1402 24.7588C84.9621 25.9543 85.519 27.2537 85.8179 28.6733L88.0521 28.203L90.2863 27.7326C89.8633 25.723 89.0665 23.8641 87.9031 22.1718L86.0217 23.4653ZM88.0521 28.203L85.8233 28.6983C86.1511 30.1736 86.3103 31.5865 86.3103 32.9406H88.5935H90.8767C90.8767 31.2266 90.675 29.481 90.2809 27.7077L88.0521 28.203ZM88.5935 32.9406H86.3103C86.3103 33.2696 86.2916 33.4972 86.2692 33.6425C86.2448 33.8009 86.2276 33.7853 86.2807 33.6792L88.3228 34.7003L90.365 35.7214C90.796 34.8592 90.8767 33.8183 90.8767 32.9406H88.5935ZM88.3228 34.7003L89.7976 32.9573C88.1875 31.5949 86.2576 30.9281 84.1266 30.9281V33.2113V35.4945C85.2443 35.4945 86.1119 35.8204 86.848 36.4433L88.3228 34.7003ZM84.1266 33.2113V30.9281C82.4907 30.9281 80.9179 31.2528 79.6114 32.1238L80.8779 34.0235L82.1444 35.9232C82.4624 35.7113 83.0553 35.4945 84.1266 35.4945V33.2113ZM80.8779 34.0235L79.6678 32.0873C78.5888 32.7617 77.7437 33.6914 77.1224 34.8097L79.1182 35.9186L81.1141 37.0274C81.3952 36.5214 81.7232 36.1877 82.088 35.9597L80.8779 34.0235ZM79.1182 35.9186L77.0761 34.8975C76.5977 35.8541 76.2697 36.9272 76.0597 38.082L78.3061 38.4904L80.5524 38.8989C80.7034 38.0684 80.9168 37.4268 81.1604 36.9396L79.1182 35.9186ZM78.3061 38.4904L76.0322 38.2837C75.9352 39.3507 75.8875 40.4577 75.8875 41.6037H78.1707H80.4539C80.4539 40.584 80.4964 39.6155 80.5799 38.6971L78.3061 38.4904ZM78.1707 41.6037H75.8875V100.757H78.1707H80.4539V41.6037H78.1707ZM90.0825 18.863V21.1462H91.8422V18.863V16.5798H90.0825V18.863ZM91.8422 18.863V21.1462C96.4589 21.1462 100.107 22.5834 102.974 25.3725L104.566 23.736L106.158 22.0996C102.347 18.3913 97.513 16.5798 91.8422 16.5798V18.863ZM104.566 23.736L102.997 25.3947C105.749 27.9976 107.291 31.917 107.291 37.5429H109.575H111.858C111.858 31.0765 110.061 25.7914 106.135 22.0774L104.566 23.736ZM109.575 37.5429H107.291V51.7558H109.575H111.858V37.5429H109.575ZM109.575 51.7558H107.291C107.291 57.3542 105.894 61.2034 103.469 63.7018L105.108 65.292L106.746 66.8822C110.277 63.2441 111.858 58.0693 111.858 51.7558H109.575ZM105.108 65.292L103.445 63.7271C100.959 66.3688 97.9975 67.7297 94.4503 67.8839L94.5494 70.165L94.6486 72.446C99.4035 72.2393 103.481 70.3516 106.77 66.8568L105.108 65.292ZM94.5494 70.165V67.8818H93.6019V70.165V72.4482H94.5494V70.165ZM93.6019 70.165V67.8818C91.3367 67.8818 89.6055 67.4763 88.3033 66.7909L87.2399 68.8114L86.1765 70.8318C88.3035 71.9513 90.8136 72.4482 93.6019 72.4482V70.165ZM87.2399 68.8114L88.3033 66.7909C86.8341 66.0176 85.6912 65.0818 84.8266 64.001L83.0437 65.4273L81.2608 66.8536C82.562 68.4801 84.2166 69.8003 86.1765 70.8318L87.2399 68.8114ZM83.0437 65.4273L84.9252 64.1338C84.07 62.89 83.4588 61.5853 83.0778 60.214L80.8779 60.825L78.678 61.4361C79.1995 63.3135 80.0321 65.077 81.1623 66.7208L83.0437 65.4273ZM80.8779 60.825L83.086 60.244C82.6801 58.7019 82.4843 57.2279 82.4843 55.8167H80.2011H77.9179C77.9179 57.6541 78.1733 59.519 78.6699 61.4061L80.8779 60.825ZM80.2011 55.8167L78.7152 57.5502C79.4399 58.1714 80.1823 58.6984 80.9398 59.0771L81.9608 57.0349L82.9819 54.9928C82.6565 54.8301 82.2257 54.5449 81.687 54.0831L80.2011 55.8167ZM81.9608 57.0349L81.2388 59.201C82.1858 59.5166 83.6366 59.5889 85.2095 59.5889V57.3057V55.0224C84.433 55.0224 83.8245 55.0006 83.3687 54.9627C83.1418 54.9437 82.9694 54.9222 82.8438 54.9012C82.7117 54.8792 82.6676 54.8638 82.6828 54.8689L81.9608 57.0349ZM85.2095 57.3057V59.5889C86.7912 59.5889 88.3497 59.1541 89.5312 57.9726L87.9167 56.3581L86.3023 54.7437C86.2204 54.8255 85.9741 55.0224 85.2095 55.0224V57.3057ZM87.9167 56.3581L89.5312 57.9726C90.5364 56.9674 91.234 55.7599 91.6085 54.387L89.4057 53.7863L87.2029 53.1855C87.0359 53.798 86.7409 54.305 86.3023 54.7437L87.9167 56.3581ZM89.4057 53.7863L91.5514 54.5665C92.0128 53.2977 92.2303 51.9475 92.2303 50.5376H89.9471H87.6639C87.6639 51.4739 87.5205 52.2896 87.26 53.006L89.4057 53.7863ZM89.9471 50.5376L92.2245 50.7003C92.3177 49.3967 92.3657 48.2129 92.3657 47.1536H90.0825H87.7993C87.7993 48.0796 87.7571 49.1517 87.6697 50.3749L89.9471 50.5376ZM90.0825 47.1536H92.3657V18.863H90.0825H87.7993V47.1536H90.0825ZM107.409 117V114.717H106.055V117V119.283H107.409V117ZM106.055 117V114.717C103.856 114.717 101.654 114.505 99.4475 114.081L99.0164 116.323L98.5852 118.565C101.071 119.043 103.562 119.283 106.055 119.283V117ZM99.0164 116.323L99.4641 114.084C97.4664 113.685 95.6475 112.971 93.9915 111.945L92.7897 113.887L91.588 115.828C93.7221 117.149 96.0542 118.059 98.5686 118.562L99.0164 116.323ZM92.7897 113.887L94.0341 111.972C92.569 111.02 91.3228 109.681 90.3105 107.89L88.3228 109.014L86.3351 110.137C87.6691 112.497 89.4009 114.407 91.5454 115.801L92.7897 113.887ZM88.3228 109.014L90.3105 107.89C89.3933 106.268 88.8463 103.987 88.8463 100.892H86.5631H84.2799C84.2799 104.475 84.906 107.609 86.3351 110.137L88.3228 109.014ZM86.5631 100.892H88.8463V72.1954H86.5631H84.2799V100.892H86.5631ZM86.5631 72.1954V74.4786H88.7289V72.1954V69.9122H86.5631V72.1954ZM88.7289 72.1954V74.4786C90.8004 74.4786 92.8776 74.727 94.9641 75.2277L95.497 73.0076L96.0298 70.7874C93.6042 70.2053 91.1694 69.9122 88.7289 69.9122V72.1954ZM95.497 73.0076L95.0492 75.2464C97.004 75.6374 98.6742 76.3681 100.098 77.4175L101.453 75.5794L102.807 73.7413C100.802 72.264 98.5019 71.2801 95.9447 70.7687L95.497 73.0076ZM101.453 75.5794L100.209 77.4938C101.655 78.4342 102.843 79.7501 103.76 81.5086L105.784 80.4524L107.809 79.3963C106.56 77.0037 104.86 75.0709 102.697 73.6651L101.453 75.5794ZM105.784 80.4524L103.76 81.5086C104.62 83.1565 105.126 85.423 105.126 88.4388H107.409H109.692C109.692 84.9571 109.115 81.8995 107.809 79.3963L105.784 80.4524ZM107.409 88.4388H105.126V117H107.409H109.692V88.4388H107.409Z" fill="#3504FB" mask="url(#path-2-outside-1_3_11)"/>
</g>
</g>
<defs>
<clipPath id="clip0_3_11">
<rect width="167" height="167" fill="white"/>
</clipPath>
<clipPath id="clip1_3_11">
<rect width="167" height="167" fill="white"/>
</clipPath>
</defs>
</svg>
