<svg width="72" height="72" viewBox="0 0 72 72" fill="none" xmlns="http://www.w3.org/2000/svg">
<g clip-path="url(#clip0_3_24)">
<g clip-path="url(#clip1_3_24)">
<path d="M0.795747 0.553768L70.6805 0.50108L35.739 70.4132L0.795747 0.553768Z" fill="#3504FB" stroke="#3504FB" stroke-width="0.984375"/>
<mask id="path-2-outside-1_3_24" maskUnits="userSpaceOnUse" x="23.5138" y="6" width="25" height="45" fill="black">
<rect fill="white" x="23.5138" y="6" width="25" height="45"/>
<path d="M33.7023 42.9969C33.7023 44.3586 33.43 45.4869 32.8853 46.3817C32.3406 47.2766 31.6597 47.9963 30.8427 48.541C30.0257 49.0468 29.1114 49.4164 28.0998 49.6498C27.1272 49.8833 26.1934 50 25.2986 50V16.0932C25.2986 13.3698 25.9211 11.2688 27.1661 9.79039C28.4111 8.31195 30.2008 7.57273 32.5351 7.57273C33.7023 7.57273 34.6555 7.76726 35.3947 8.15633C36.134 8.54539 36.6981 9.05117 37.0872 9.67367C37.5151 10.2962 37.8069 10.977 37.9626 11.7162C38.1182 12.4166 38.196 13.0974 38.196 13.7588C38.196 14.109 38.1571 14.3619 38.0793 14.5175C37.5735 14.0895 36.9704 13.8755 36.2701 13.8755C35.6865 13.8755 35.2197 13.9923 34.8695 14.2257C34.5583 14.4202 34.3054 14.6926 34.1108 15.0427C33.9552 15.354 33.8385 15.7236 33.7607 16.1516C33.7218 16.5795 33.7023 17.027 33.7023 17.4938V42.9969ZM38.8379 7.68945H39.5966C41.8143 7.68945 43.6429 8.38976 45.0824 9.79039C46.5219 11.1521 47.2417 13.1363 47.2417 15.743V21.8708C47.2417 24.4386 46.5997 26.3839 45.3158 27.7067C44.0708 29.0295 42.5535 29.7298 40.7638 29.8077H40.3553C39.2659 29.8077 38.3516 29.6131 37.6124 29.2241C36.8732 28.835 36.2701 28.3487 35.8033 27.7651C35.3753 27.1426 35.064 26.4812 34.8695 25.7809C34.675 25.0416 34.5777 24.3219 34.5777 23.6216C34.8501 23.855 35.1029 24.0301 35.3364 24.1468C35.5698 24.2246 36.0367 24.2635 36.737 24.2635C37.2428 24.2635 37.6318 24.1273 37.9042 23.855C38.2154 23.5437 38.4294 23.1741 38.5461 22.7462C38.7018 22.3182 38.7796 21.8513 38.7796 21.3455C38.8185 20.8009 38.8379 20.3145 38.8379 19.8866V7.68945ZM46.3079 50H45.7243C44.7128 50 43.7012 49.9027 42.6897 49.7082C41.717 49.5137 40.8222 49.1635 40.0051 48.6577C39.227 48.152 38.5851 47.4516 38.0793 46.5568C37.5735 45.662 37.3206 44.4948 37.3206 43.0552V30.683H38.2543C39.227 30.683 40.1997 30.7998 41.1723 31.0332C42.145 31.2277 43.0009 31.5973 43.7401 32.142C44.5183 32.6478 45.1408 33.3481 45.6076 34.243C46.0745 35.1378 46.3079 36.2855 46.3079 37.6862V50Z"/>
</mask>
<path d="M33.7023 42.9969C33.7023 44.3586 33.43 45.4869 32.8853 46.3817C32.3406 47.2766 31.6597 47.9963 30.8427 48.541C30.0257 49.0468 29.1114 49.4164 28.0998 49.6498C27.1272 49.8833 26.1934 50 25.2986 50V16.0932C25.2986 13.3698 25.9211 11.2688 27.1661 9.79039C28.4111 8.31195 30.2008 7.57273 32.5351 7.57273C33.7023 7.57273 34.6555 7.76726 35.3947 8.15633C36.134 8.54539 36.6981 9.05117 37.0872 9.67367C37.5151 10.2962 37.8069 10.977 37.9626 11.7162C38.1182 12.4166 38.196 13.0974 38.196 13.7588C38.196 14.109 38.1571 14.3619 38.0793 14.5175C37.5735 14.0895 36.9704 13.8755 36.2701 13.8755C35.6865 13.8755 35.2197 13.9923 34.8695 14.2257C34.5583 14.4202 34.3054 14.6926 34.1108 15.0427C33.9552 15.354 33.8385 15.7236 33.7607 16.1516C33.7218 16.5795 33.7023 17.027 33.7023 17.4938V42.9969ZM38.8379 7.68945H39.5966C41.8143 7.68945 43.6429 8.38976 45.0824 9.79039C46.5219 11.1521 47.2417 13.1363 47.2417 15.743V21.8708C47.2417 24.4386 46.5997 26.3839 45.3158 27.7067C44.0708 29.0295 42.5535 29.7298 40.7638 29.8077H40.3553C39.2659 29.8077 38.3516 29.6131 37.6124 29.2241C36.8732 28.835 36.2701 28.3487 35.8033 27.7651C35.3753 27.1426 35.064 26.4812 34.8695 25.7809C34.675 25.0416 34.5777 24.3219 34.5777 23.6216C34.8501 23.855 35.1029 24.0301 35.3364 24.1468C35.5698 24.2246 36.0367 24.2635 36.737 24.2635C37.2428 24.2635 37.6318 24.1273 37.9042 23.855C38.2154 23.5437 38.4294 23.1741 38.5461 22.7462C38.7018 22.3182 38.7796 21.8513 38.7796 21.3455C38.8185 20.8009 38.8379 20.3145 38.8379 19.8866V7.68945ZM46.3079 50H45.7243C44.7128 50 43.7012 49.9027 42.6897 49.7082C41.717 49.5137 40.8222 49.1635 40.0051 48.6577C39.227 48.152 38.5851 47.4516 38.0793 46.5568C37.5735 45.662 37.3206 44.4948 37.3206 43.0552V30.683H38.2543C39.227 30.683 40.1997 30.7998 41.1723 31.0332C42.145 31.2277 43.0009 31.5973 43.7401 32.142C44.5183 32.6478 45.1408 33.3481 45.6076 34.243C46.0745 35.1378 46.3079 36.2855 46.3079 37.6862V50Z" fill="#FFFEFE"/>
<path d="M32.8853 46.3817L32.0444 45.8699L32.0444 45.8699L32.8853 46.3817ZM30.8427 48.541L31.3608 49.378L31.3749 49.3693L31.3887 49.3601L30.8427 48.541ZM28.0998 49.6498L27.8785 48.6906L27.8701 48.6927L28.0998 49.6498ZM25.2986 50H24.3142V50.9844H25.2986V50ZM27.1661 9.79039L27.919 10.4245L27.919 10.4245L27.1661 9.79039ZM35.3947 8.15633L34.9363 9.02742L34.9363 9.02742L35.3947 8.15633ZM37.0872 9.67367L36.2524 10.1954L36.2638 10.2136L36.276 10.2313L37.0872 9.67367ZM37.9626 11.7162L36.9992 11.9191L37.0016 11.9298L37.9626 11.7162ZM38.0793 14.5175L37.4434 15.269L38.3996 16.078L38.9597 14.9577L38.0793 14.5175ZM34.8695 14.2257L35.3912 15.0604L35.4035 15.0528L35.4155 15.0448L34.8695 14.2257ZM34.1108 15.0427L33.2503 14.5647L33.2399 14.5834L33.2304 14.6025L34.1108 15.0427ZM33.7607 16.1516L32.7922 15.9755L32.7843 16.0187L32.7803 16.0624L33.7607 16.1516ZM38.8379 7.68945V6.70508H37.8536V7.68945H38.8379ZM45.0824 9.79039L44.3959 10.496L44.4059 10.5055L45.0824 9.79039ZM45.3158 27.7067L44.6095 27.0211L44.6042 27.0266L44.599 27.0321L45.3158 27.7067ZM40.7638 29.8077V30.792H40.7852L40.8066 30.7911L40.7638 29.8077ZM37.6124 29.2241L37.1539 30.0952L37.1539 30.0952L37.6124 29.2241ZM35.8033 27.7651L34.9921 28.3228L35.0123 28.3522L35.0346 28.38L35.8033 27.7651ZM34.8695 25.7809L33.9175 26.0314L33.921 26.0443L34.8695 25.7809ZM34.5777 23.6216L35.2183 22.8742L33.5933 21.4813V23.6216H34.5777ZM35.3364 24.1468L34.8962 25.0272L34.9587 25.0585L35.0251 25.0807L35.3364 24.1468ZM38.5461 22.7462L37.621 22.4098L37.6071 22.448L37.5965 22.4872L38.5461 22.7462ZM38.7796 21.3455L37.7977 21.2754L37.7952 21.3104V21.3455H38.7796ZM46.3079 50V50.9844H47.2923V50H46.3079ZM42.6897 49.7082L42.4966 50.6735L42.5038 50.6749L42.6897 49.7082ZM40.0051 48.6577L39.4687 49.4831L39.4778 49.489L39.487 49.4947L40.0051 48.6577ZM38.0793 46.5568L38.9362 46.0724L38.9362 46.0724L38.0793 46.5568ZM37.3206 30.683V29.6987H36.3362V30.683H37.3206ZM41.1723 31.0332L40.9426 31.9904L40.9609 31.9948L40.9793 31.9985L41.1723 31.0332ZM43.7401 32.142L43.1562 32.9345L43.1794 32.9516L43.2037 32.9674L43.7401 32.142ZM45.6076 34.243L46.4804 33.7876L46.4804 33.7876L45.6076 34.243ZM33.7023 42.9969H32.7179C32.7179 44.2311 32.471 45.169 32.0444 45.8699L32.8853 46.3817L33.7261 46.8935C34.3889 45.8047 34.6867 44.4861 34.6867 42.9969H33.7023ZM32.8853 46.3817L32.0444 45.8699C31.5693 46.6504 30.9863 47.2622 30.2967 47.722L30.8427 48.541L31.3887 49.3601C32.3332 48.7304 33.1119 47.9027 33.7261 46.8935L32.8853 46.3817ZM30.8427 48.541L30.3246 47.704C29.6062 48.1487 28.7935 48.4795 27.8785 48.6907L28.0998 49.6498L28.3212 50.609C29.4292 50.3533 30.4451 49.9449 31.3608 49.378L30.8427 48.541ZM28.0998 49.6498L27.8701 48.6927C26.964 48.9101 26.1076 49.0156 25.2986 49.0156V50V50.9844C26.2792 50.9844 27.2903 50.8564 28.3295 50.607L28.0998 49.6498ZM25.2986 50H26.2829V16.0932H25.2986H24.3142V50H25.2986ZM25.2986 16.0932H26.2829C26.2829 13.508 26.8744 11.6649 27.919 10.4245L27.1661 9.79039L26.4131 9.15632C24.9677 10.8727 24.3142 13.2315 24.3142 16.0932H25.2986ZM27.1661 9.79039L27.919 10.4245C28.9381 9.21428 30.4248 8.55711 32.5351 8.55711V7.57273V6.58836C29.9767 6.58836 27.884 7.40962 26.4131 9.15632L27.1661 9.79039ZM32.5351 7.57273V8.55711C33.6025 8.55711 34.3833 8.73638 34.9363 9.02742L35.3947 8.15633L35.8532 7.28524C34.9277 6.79814 33.8022 6.58836 32.5351 6.58836V7.57273ZM35.3947 8.15633L34.9363 9.02742C35.543 9.34676 35.9678 9.74003 36.2524 10.1954L37.0872 9.67367L37.9219 9.15195C37.4284 8.36231 36.7249 7.74402 35.8532 7.28524L35.3947 8.15633ZM37.0872 9.67367L36.276 10.2313C36.6303 10.7468 36.8704 11.307 36.9993 11.919L37.9626 11.7162L38.9258 11.5135C38.7434 10.6471 38.3999 9.84559 37.8983 9.11599L37.0872 9.67367ZM37.9626 11.7162L37.0016 11.9298C37.143 12.5659 37.2116 13.175 37.2116 13.7588H38.196H39.1804C39.1804 13.0198 39.0934 12.2673 38.9235 11.5027L37.9626 11.7162ZM38.196 13.7588H37.2116C37.2116 13.9007 37.2035 13.9988 37.1939 14.0614C37.1834 14.1297 37.176 14.123 37.1988 14.0773L38.0793 14.5175L38.9597 14.9577C39.1456 14.586 39.1804 14.1372 39.1804 13.7588H38.196ZM38.0793 14.5175L38.7151 13.766C38.0209 13.1786 37.1889 12.8912 36.2701 12.8912V13.8755V14.8599C36.752 14.8599 37.1261 15.0004 37.4434 15.269L38.0793 14.5175ZM36.2701 13.8755V12.8912C35.5648 12.8912 34.8867 13.0312 34.3235 13.4067L34.8695 14.2257L35.4155 15.0448C35.5526 14.9534 35.8082 14.8599 36.2701 14.8599V13.8755ZM34.8695 14.2257L34.3478 13.391C33.8826 13.6817 33.5182 14.0825 33.2503 14.5647L34.1108 15.0427L34.9713 15.5208C35.0925 15.3026 35.2339 15.1588 35.3912 15.0604L34.8695 14.2257ZM34.1108 15.0427L33.2304 14.6025C33.0242 15.015 32.8827 15.4776 32.7922 15.9755L33.7607 16.1516L34.7292 16.3277C34.7943 15.9696 34.8863 15.693 34.9913 15.483L34.1108 15.0427ZM33.7607 16.1516L32.7803 16.0624C32.7385 16.5224 32.7179 16.9997 32.7179 17.4938H33.7023H34.6867C34.6867 17.0542 34.705 16.6366 34.741 16.2407L33.7607 16.1516ZM33.7023 17.4938H32.7179V42.9969H33.7023H34.6867V17.4938H33.7023ZM38.8379 7.68945V8.67383H39.5966V7.68945V6.70508H38.8379V7.68945ZM39.5966 7.68945V8.67383C41.587 8.67383 43.1601 9.29346 44.3959 10.4959L45.0824 9.79039L45.7689 9.08486C44.1256 7.48607 42.0415 6.70508 39.5966 6.70508V7.68945ZM45.0824 9.79039L44.4059 10.5055C45.5923 11.6277 46.2573 13.3175 46.2573 15.743H47.2417H48.2261C48.2261 12.9552 47.4516 10.6765 45.7589 9.07527L45.0824 9.79039ZM47.2417 15.743H46.2573V21.8708H47.2417H48.2261V15.743H47.2417ZM47.2417 21.8708H46.2573C46.2573 24.2844 45.6549 25.944 44.6095 27.0211L45.3158 27.7067L46.0222 28.3923C47.5446 26.8238 48.2261 24.5928 48.2261 21.8708H47.2417ZM45.3158 27.7067L44.599 27.0321C43.5271 28.171 42.2504 28.7577 40.721 28.8242L40.7638 29.8077L40.8066 30.7911C42.8566 30.702 44.6146 29.8881 46.0327 28.3814L45.3158 27.7067ZM40.7638 29.8077V28.8233H40.3553V29.8077V30.792H40.7638V29.8077ZM40.3553 29.8077V28.8233C39.3787 28.8233 38.6323 28.6485 38.0709 28.353L37.6124 29.2241L37.1539 30.0952C38.0709 30.5778 39.1531 30.792 40.3553 30.792V29.8077ZM37.6124 29.2241L38.0709 28.353C37.4374 28.0196 36.9447 27.6161 36.5719 27.1501L35.8033 27.7651L35.0346 28.38C35.5956 29.0812 36.3089 29.6504 37.1539 30.0952L37.6124 29.2241ZM35.8033 27.7651L36.6144 27.2074C36.2457 26.6711 35.9822 26.1086 35.818 25.5174L34.8695 25.7809L33.921 26.0443C34.1459 26.8537 34.5048 27.614 34.9921 28.3228L35.8033 27.7651ZM34.8695 25.7809L35.8215 25.5303C35.6465 24.8655 35.5621 24.23 35.5621 23.6216H34.5777H33.5933C33.5933 24.4138 33.7034 25.2178 33.9175 26.0314L34.8695 25.7809ZM34.5777 23.6216L33.9371 24.369C34.2495 24.6368 34.5696 24.864 34.8962 25.0272L35.3364 24.1468L35.7766 23.2663C35.6363 23.1962 35.4506 23.0732 35.2183 22.8742L34.5777 23.6216ZM35.3364 24.1468L35.0251 25.0807C35.4334 25.2168 36.0589 25.2479 36.737 25.2479V24.2635V23.2791C36.4022 23.2791 36.1399 23.2697 35.9434 23.2534C35.8456 23.2452 35.7712 23.2359 35.7171 23.2269C35.6601 23.2174 35.6411 23.2107 35.6477 23.2129L35.3364 24.1468ZM36.737 24.2635V25.2479C37.4189 25.2479 38.0909 25.0605 38.6003 24.5511L37.9042 23.855L37.2081 23.1589C37.1728 23.1942 37.0666 23.2791 36.737 23.2791V24.2635ZM37.9042 23.855L38.6003 24.5511C39.0336 24.1177 39.3344 23.5971 39.4958 23.0052L38.5461 22.7462L37.5965 22.4872C37.5244 22.7512 37.3973 22.9698 37.2081 23.1589L37.9042 23.855ZM38.5461 22.7462L39.4713 23.0826C39.6702 22.5355 39.764 21.9534 39.764 21.3455H38.7796H37.7952C37.7952 21.7492 37.7334 22.1009 37.621 22.4098L38.5461 22.7462ZM38.7796 21.3455L39.7615 21.4157C39.8016 20.8537 39.8223 20.3433 39.8223 19.8866H38.8379H37.8536C37.8536 20.2858 37.8354 20.7481 37.7977 21.2754L38.7796 21.3455ZM38.8379 19.8866H39.8223V7.68945H38.8379H37.8536V19.8866H38.8379ZM46.3079 50V49.0156H45.7243V50V50.9844H46.3079V50ZM45.7243 50V49.0156C44.7763 49.0156 43.827 48.9245 42.8756 48.7415L42.6897 49.7082L42.5038 50.6749C43.5755 50.881 44.6493 50.9844 45.7243 50.9844V50ZM42.6897 49.7082L42.8827 48.7429C42.0214 48.5707 41.2372 48.2627 40.5233 47.8208L40.0051 48.6577L39.487 49.4947C40.4071 50.0643 41.4126 50.4567 42.4966 50.6735L42.6897 49.7082ZM40.0051 48.6577L40.5416 47.8324C39.9099 47.4218 39.3727 46.8446 38.9362 46.0724L38.0793 46.5568L37.2223 47.0412C37.7974 48.0587 38.5441 48.8821 39.4687 49.4831L40.0051 48.6577ZM38.0793 46.5568L38.9362 46.0724C38.5408 45.3728 38.305 44.3895 38.305 43.0552H37.3206H36.3362C36.3362 44.6 36.6062 45.9511 37.2223 47.0412L38.0793 46.5568ZM37.3206 43.0552H38.305V30.683H37.3206H36.3362V43.0552H37.3206ZM37.3206 30.683V31.6674H38.2543V30.683V29.6987H37.3206V30.683ZM38.2543 30.683V31.6674C39.1475 31.6674 40.043 31.7745 40.9426 31.9904L41.1723 31.0332L41.402 30.076C40.3563 29.825 39.3066 29.6987 38.2543 29.6987V30.683ZM41.1723 31.0332L40.9793 31.9985C41.8221 32.167 42.5422 32.4821 43.1562 32.9345L43.7401 32.142L44.3241 31.3496C43.4597 30.7126 42.4679 30.2884 41.3654 30.0679L41.1723 31.0332ZM43.7401 32.142L43.2037 32.9674C43.8275 33.3728 44.3393 33.9402 44.7349 34.6983L45.6076 34.243L46.4804 33.7876C45.9422 32.7561 45.2091 31.9228 44.2766 31.3167L43.7401 32.142ZM45.6076 34.243L44.7349 34.6983C45.1056 35.4088 45.3236 36.386 45.3236 37.6862H46.3079H47.2923C47.2923 36.1851 47.0434 34.8668 46.4804 33.7876L45.6076 34.243ZM46.3079 37.6862H45.3236V50H46.3079H47.2923V37.6862H46.3079Z" fill="#3504FB" mask="url(#path-2-outside-1_3_24)"/>
</g>
</g>
<defs>
<clipPath id="clip0_3_24">
<rect width="72" height="72" fill="white"/>
</clipPath>
<clipPath id="clip1_3_24">
<rect width="72" height="72" fill="white"/>
</clipPath>
</defs>
</svg>
