<svg width="120" height="120" viewBox="0 0 120 120" fill="none" xmlns="http://www.w3.org/2000/svg">
<g clip-path="url(#clip0_3_14)">
<g clip-path="url(#clip1_3_14)">
<path d="M1.32695 0.922315L117.802 0.834502L59.5651 117.355L1.32695 0.922315Z" fill="#3504FB" stroke="#3504FB" stroke-width="1.64062"/>
<mask id="path-2-outside-1_3_14" maskUnits="userSpaceOnUse" x="40.523" y="11" width="40" height="75" fill="black">
<rect fill="white" x="40.523" y="11" width="40" height="75"/>
<path d="M56.1706 72.3281C56.1706 74.5977 55.7167 76.4781 54.8089 77.9695C53.901 79.4609 52.7663 80.6605 51.4046 81.5684C50.0428 82.4113 48.519 83.0273 46.8331 83.4164C45.212 83.8055 43.6557 84 42.1643 84V27.4887C42.1643 22.9496 43.2018 19.448 45.2768 16.984C47.3518 14.5199 50.3346 13.2879 54.2253 13.2879C56.1706 13.2879 57.7593 13.6121 58.9913 14.2605C60.2233 14.909 61.1635 15.752 61.812 16.7894C62.5253 17.827 63.0116 18.9617 63.271 20.1937C63.5303 21.3609 63.66 22.4957 63.66 23.598C63.66 24.1816 63.5952 24.6031 63.4655 24.8625C62.6225 24.1492 61.6175 23.7926 60.4503 23.7926C59.4776 23.7926 58.6995 23.9871 58.1159 24.3762C57.5971 24.7004 57.1757 25.1543 56.8514 25.7379C56.5921 26.2566 56.3975 26.8727 56.2678 27.5859C56.203 28.2992 56.1706 29.0449 56.1706 29.823V72.3281ZM64.73 13.4824H65.9944C69.6905 13.4824 72.7382 14.6496 75.1374 16.984C77.5366 19.2535 78.7362 22.5605 78.7362 26.9051V37.118C78.7362 41.3977 77.6663 44.6398 75.5264 46.8445C73.4514 49.0492 70.9225 50.2164 67.9397 50.3461H67.2589C65.4432 50.3461 63.9194 50.0219 62.6874 49.3734C61.4553 48.725 60.4503 47.9145 59.6721 46.9418C58.9589 45.9043 58.4401 44.802 58.1159 43.6348C57.7917 42.4027 57.6296 41.2031 57.6296 40.0359C58.0835 40.425 58.505 40.7168 58.894 40.9113C59.2831 41.041 60.0612 41.1059 61.2284 41.1059C62.0714 41.1059 62.7198 40.8789 63.1737 40.425C63.6925 39.9062 64.0491 39.2902 64.2436 38.577C64.503 37.8637 64.6327 37.0855 64.6327 36.2426C64.6975 35.3348 64.73 34.5242 64.73 33.8109V13.4824ZM77.18 84H76.2073C74.5214 84 72.8354 83.8379 71.1495 83.5137C69.5284 83.1895 68.037 82.6059 66.6753 81.7629C65.3784 80.9199 64.3085 79.7527 63.4655 78.2613C62.6225 76.7699 62.201 74.8246 62.201 72.4254V51.8051H63.7573C65.3784 51.8051 66.9995 51.9996 68.6206 52.3887C70.2417 52.7129 71.6682 53.3289 72.9003 54.2367C74.1971 55.0797 75.2346 56.2469 76.0128 57.7383C76.7909 59.2297 77.18 61.1426 77.18 63.477V84Z"/>
</mask>
<path d="M56.1706 72.3281C56.1706 74.5977 55.7167 76.4781 54.8089 77.9695C53.901 79.4609 52.7663 80.6605 51.4046 81.5684C50.0428 82.4113 48.519 83.0273 46.8331 83.4164C45.212 83.8055 43.6557 84 42.1643 84V27.4887C42.1643 22.9496 43.2018 19.448 45.2768 16.984C47.3518 14.5199 50.3346 13.2879 54.2253 13.2879C56.1706 13.2879 57.7593 13.6121 58.9913 14.2605C60.2233 14.909 61.1635 15.752 61.812 16.7894C62.5253 17.827 63.0116 18.9617 63.271 20.1937C63.5303 21.3609 63.66 22.4957 63.66 23.598C63.66 24.1816 63.5952 24.6031 63.4655 24.8625C62.6225 24.1492 61.6175 23.7926 60.4503 23.7926C59.4776 23.7926 58.6995 23.9871 58.1159 24.3762C57.5971 24.7004 57.1757 25.1543 56.8514 25.7379C56.5921 26.2566 56.3975 26.8727 56.2678 27.5859C56.203 28.2992 56.1706 29.0449 56.1706 29.823V72.3281ZM64.73 13.4824H65.9944C69.6905 13.4824 72.7382 14.6496 75.1374 16.984C77.5366 19.2535 78.7362 22.5605 78.7362 26.9051V37.118C78.7362 41.3977 77.6663 44.6398 75.5264 46.8445C73.4514 49.0492 70.9225 50.2164 67.9397 50.3461H67.2589C65.4432 50.3461 63.9194 50.0219 62.6874 49.3734C61.4553 48.725 60.4503 47.9145 59.6721 46.9418C58.9589 45.9043 58.4401 44.802 58.1159 43.6348C57.7917 42.4027 57.6296 41.2031 57.6296 40.0359C58.0835 40.425 58.505 40.7168 58.894 40.9113C59.2831 41.041 60.0612 41.1059 61.2284 41.1059C62.0714 41.1059 62.7198 40.8789 63.1737 40.425C63.6925 39.9062 64.0491 39.2902 64.2436 38.577C64.503 37.8637 64.6327 37.0855 64.6327 36.2426C64.6975 35.3348 64.73 34.5242 64.73 33.8109V13.4824ZM77.18 84H76.2073C74.5214 84 72.8354 83.8379 71.1495 83.5137C69.5284 83.1895 68.037 82.6059 66.6753 81.7629C65.3784 80.9199 64.3085 79.7527 63.4655 78.2613C62.6225 76.7699 62.201 74.8246 62.201 72.4254V51.8051H63.7573C65.3784 51.8051 66.9995 51.9996 68.6206 52.3887C70.2417 52.7129 71.6682 53.3289 72.9003 54.2367C74.1971 55.0797 75.2346 56.2469 76.0128 57.7383C76.7909 59.2297 77.18 61.1426 77.18 63.477V84Z" fill="#FFFEFE"/>
<path d="M54.8089 77.9695L53.4074 77.1165L53.4074 77.1165L54.8089 77.9695ZM51.4046 81.5684L52.2681 82.9633L52.2916 82.9488L52.3146 82.9334L51.4046 81.5684ZM46.8331 83.4164L46.4642 81.8178L46.4572 81.8194L46.4502 81.8211L46.8331 83.4164ZM42.1643 84H40.5237V85.6406H42.1643V84ZM45.2768 16.984L46.5318 18.0408L46.5318 18.0408L45.2768 16.984ZM58.9913 14.2605L58.2272 15.7124L58.2272 15.7124L58.9913 14.2605ZM61.812 16.7894L60.4207 17.659L60.4397 17.6894L60.46 17.7189L61.812 16.7894ZM63.271 20.1937L61.6655 20.5317L61.6674 20.5407L61.6694 20.5497L63.271 20.1937ZM63.4655 24.8625L62.4058 26.1149L63.9994 27.4634L64.9329 25.5962L63.4655 24.8625ZM58.1159 24.3762L58.9854 25.7674L59.0059 25.7546L59.0259 25.7413L58.1159 24.3762ZM56.8514 25.7379L55.4173 24.9411L55.4 24.9723L55.384 25.0042L56.8514 25.7379ZM56.2678 27.5859L54.6537 27.2924L54.6406 27.3645L54.634 27.4374L56.2678 27.5859ZM64.73 13.4824V11.8418H63.0893V13.4824H64.73ZM75.1374 16.984L73.9933 18.1599L74.0016 18.1679L74.0099 18.1758L75.1374 16.984ZM75.5264 46.8445L74.3492 45.7019L74.3404 45.7109L74.3317 45.7201L75.5264 46.8445ZM67.9397 50.3461V51.9867H67.9754L68.011 51.9852L67.9397 50.3461ZM62.6874 49.3734L61.9233 50.8253L61.9233 50.8253L62.6874 49.3734ZM59.6721 46.9418L58.3202 47.8713L58.3539 47.9203L58.391 47.9667L59.6721 46.9418ZM58.1159 43.6348L56.5293 44.0523L56.5321 44.0631L56.5351 44.0739L58.1159 43.6348ZM57.6296 40.0359L58.6973 38.7903L55.9889 36.4688V40.0359H57.6296ZM58.894 40.9113L58.1603 42.3787L58.2646 42.4309L58.3752 42.4678L58.894 40.9113ZM64.2436 38.577L62.7018 38.0163L62.6786 38.0799L62.6608 38.1453L64.2436 38.577ZM64.6327 36.2426L62.9962 36.1257L62.9921 36.1841V36.2426H64.6327ZM77.18 84V85.6406H78.8206V84H77.18ZM71.1495 83.5137L70.8277 85.1225L70.8397 85.1248L71.1495 83.5137ZM66.6753 81.7629L65.7811 83.1385L65.7963 83.1483L65.8117 83.1579L66.6753 81.7629ZM63.4655 78.2613L64.8938 77.454L64.8938 77.454L63.4655 78.2613ZM62.201 51.8051V50.1645H60.5604V51.8051H62.201ZM68.6206 52.3887L68.2377 53.984L68.2681 53.9913L68.2988 53.9974L68.6206 52.3887ZM72.9003 54.2367L71.9271 55.5575L71.9658 55.5861L72.0061 55.6123L72.9003 54.2367ZM76.0128 57.7383L77.4673 56.9794L77.4673 56.9794L76.0128 57.7383ZM56.1706 72.3281H54.53C54.53 74.3852 54.1185 75.9484 53.4074 77.1165L54.8089 77.9695L56.2103 78.8226C57.3149 77.0078 57.8112 74.8101 57.8112 72.3281H56.1706ZM54.8089 77.9695L53.4074 77.1165C52.6156 78.4173 51.6439 79.437 50.4945 80.2033L51.4046 81.5684L52.3146 82.9334C53.8887 81.8841 55.1865 80.5045 56.2103 78.8226L54.8089 77.9695ZM51.4046 81.5684L50.541 80.1734C49.3437 80.9146 47.9893 81.4659 46.4642 81.8178L46.8331 83.4164L47.202 85.015C49.0488 84.5888 50.742 83.9081 52.2681 82.9633L51.4046 81.5684ZM46.8331 83.4164L46.4502 81.8211C44.94 82.1835 43.5127 82.3594 42.1643 82.3594V84V85.6406C43.7988 85.6406 45.484 85.4274 47.216 85.0117L46.8331 83.4164ZM42.1643 84H43.805V27.4887H42.1643H40.5237V84H42.1643ZM42.1643 27.4887H43.805C43.805 23.1801 44.7908 20.1082 46.5318 18.0408L45.2768 16.984L44.0219 15.9272C41.6129 18.7879 40.5237 22.7191 40.5237 27.4887H42.1643ZM45.2768 16.984L46.5318 18.0408C48.2303 16.0238 50.7081 14.9285 54.2253 14.9285V13.2879V11.6473C49.9612 11.6473 46.4734 13.016 44.0219 15.9272L45.2768 16.984ZM54.2253 13.2879V14.9285C56.0041 14.9285 57.3056 15.2273 58.2272 15.7124L58.9913 14.2605L59.7554 12.8087C58.2129 11.9969 56.337 11.6473 54.2253 11.6473V13.2879ZM58.9913 14.2605L58.2272 15.7124C59.2384 16.2446 59.9464 16.9001 60.4207 17.659L61.812 16.7894L63.2032 15.9199C62.3807 14.6039 61.2082 13.5734 59.7554 12.8087L58.9913 14.2605ZM61.812 16.7894L60.46 17.7189C61.0506 18.5779 61.4508 19.5117 61.6655 20.5317L63.271 20.1937L64.8764 19.8558C64.5724 18.4118 63.9999 17.076 63.1639 15.86L61.812 16.7894ZM63.271 20.1937L61.6694 20.5497C61.905 21.6098 62.0194 22.625 62.0194 23.598H63.66H65.3007C65.3007 22.3664 65.1557 21.1121 64.8725 19.8378L63.271 20.1937ZM63.66 23.598H62.0194C62.0194 23.8345 62.0059 23.998 61.9899 24.1024C61.9723 24.2162 61.96 24.205 61.9981 24.1288L63.4655 24.8625L64.9329 25.5962C65.2427 24.9767 65.3007 24.2287 65.3007 23.598H63.66ZM63.4655 24.8625L64.5253 23.6101C63.3683 22.6311 61.9815 22.152 60.4503 22.152V23.7926V25.4332C61.2534 25.4332 61.8768 25.6674 62.4058 26.1149L63.4655 24.8625ZM60.4503 23.7926V22.152C59.2748 22.152 58.1446 22.3853 57.2058 23.0111L58.1159 24.3762L59.0259 25.7413C59.2544 25.589 59.6804 25.4332 60.4503 25.4332V23.7926ZM58.1159 24.3762L57.2464 22.9849C56.471 23.4695 55.8637 24.1375 55.4173 24.9411L56.8514 25.7379L58.2856 26.5346C58.4876 26.1711 58.7233 25.9313 58.9854 25.7674L58.1159 24.3762ZM56.8514 25.7379L55.384 25.0042C55.0403 25.6916 54.8046 26.4626 54.6537 27.2924L56.2678 27.5859L57.882 27.8794C57.9905 27.2827 58.1438 26.8217 58.3189 26.4716L56.8514 25.7379ZM56.2678 27.5859L54.634 27.4374C54.5643 28.2041 54.53 28.9995 54.53 29.823H56.1706H57.8112C57.8112 29.0903 57.8417 28.3944 57.9017 27.7345L56.2678 27.5859ZM56.1706 29.823H54.53V72.3281H56.1706H57.8112V29.823H56.1706ZM64.73 13.4824V15.123H65.9944V13.4824V11.8418H64.73V13.4824ZM65.9944 13.4824V15.123C69.3118 15.123 71.9335 16.1558 73.9933 18.1599L75.1374 16.984L76.2815 15.8081C73.5428 13.1434 70.0692 11.8418 65.9944 11.8418V13.4824ZM75.1374 16.984L74.0099 18.1758C75.9871 20.0462 77.0956 22.8625 77.0956 26.9051H78.7362H80.3768C80.3768 22.2586 79.0861 18.4609 76.2648 15.7921L75.1374 16.984ZM78.7362 26.9051H77.0956V37.118H78.7362H80.3768V26.9051H78.7362ZM78.7362 37.118H77.0956C77.0956 41.1407 76.0916 43.9066 74.3492 45.7019L75.5264 46.8445L76.7037 47.9872C79.241 45.373 80.3768 41.6546 80.3768 37.118H78.7362ZM75.5264 46.8445L74.3317 45.7201C72.5452 47.6183 70.4174 48.5962 67.8685 48.707L67.9397 50.3461L68.011 51.9852C71.4277 51.8366 74.3577 50.4802 76.7211 47.969L75.5264 46.8445ZM67.9397 50.3461V48.7055H67.2589V50.3461V51.9867H67.9397V50.3461ZM67.2589 50.3461V48.7055C65.6312 48.7055 64.3872 48.4141 63.4515 47.9216L62.6874 49.3734L61.9233 50.8253C63.4516 51.6296 65.2553 51.9867 67.2589 51.9867V50.3461ZM62.6874 49.3734L63.4515 47.9216C62.3958 47.366 61.5745 46.6935 60.9533 45.9169L59.6721 46.9418L58.391 47.9667C59.326 49.1354 60.5149 50.084 61.9233 50.8253L62.6874 49.3734ZM59.6721 46.9418L61.0241 46.0123C60.4096 45.1185 59.9704 44.181 59.6967 43.1957L58.1159 43.6348L56.5351 44.0739C56.9098 45.4229 57.5081 46.69 58.3202 47.8713L59.6721 46.9418ZM58.1159 43.6348L59.7025 43.2172C59.4109 42.1091 59.2702 41.05 59.2702 40.0359H57.6296H55.9889C55.9889 41.3563 56.1725 42.6963 56.5293 44.0523L58.1159 43.6348ZM57.6296 40.0359L56.5619 41.2816C57.0826 41.7279 57.616 42.1066 58.1603 42.3787L58.894 40.9113L59.6277 39.4439C59.3939 39.327 59.0844 39.1221 58.6973 38.7903L57.6296 40.0359ZM58.894 40.9113L58.3752 42.4678C59.0557 42.6946 60.0982 42.7465 61.2284 42.7465V41.1059V39.4652C60.6704 39.4652 60.2332 39.4496 59.9057 39.4223C59.7426 39.4087 59.6188 39.3932 59.5285 39.3781C59.4335 39.3623 59.4019 39.3512 59.4128 39.3549L58.894 40.9113ZM61.2284 41.1059V42.7465C62.3649 42.7465 63.4848 42.4341 64.3338 41.5851L63.1737 40.425L62.0136 39.2649C61.9548 39.3237 61.7778 39.4652 61.2284 39.4652V41.1059ZM63.1737 40.425L64.3338 41.5851C65.0561 40.8628 65.5574 39.9951 65.8264 39.0086L64.2436 38.577L62.6608 38.1453C62.5408 38.5854 62.3288 38.9497 62.0136 39.2649L63.1737 40.425ZM64.2436 38.577L65.7855 39.1376C66.117 38.2259 66.2733 37.2557 66.2733 36.2426H64.6327H62.9921C62.9921 36.9154 62.889 37.5015 62.7018 38.0163L64.2436 38.577ZM64.6327 36.2426L66.2691 36.3595C66.3361 35.4228 66.3706 34.5721 66.3706 33.8109H64.73H63.0893C63.0893 34.4763 63.059 35.2468 62.9962 36.1257L64.6327 36.2426ZM64.73 33.8109H66.3706V13.4824H64.73H63.0893V33.8109H64.73ZM77.18 84V82.3594H76.2073V84V85.6406H77.18V84ZM76.2073 84V82.3594C74.6272 82.3594 73.045 82.2075 71.4593 81.9026L71.1495 83.5137L70.8397 85.1248C72.6258 85.4683 74.4155 85.6406 76.2073 85.6406V84ZM71.1495 83.5137L71.4712 81.9049C70.0358 81.6178 68.7288 81.1046 67.5388 80.3679L66.6753 81.7629L65.8117 83.1579C67.3452 84.1072 69.021 84.7611 70.8277 85.1224L71.1495 83.5137ZM66.6753 81.7629L67.5694 80.3873C66.5166 79.703 65.6212 78.741 64.8938 77.454L63.4655 78.2613L62.0372 79.0686C62.9958 80.7645 64.2402 82.1368 65.7811 83.1385L66.6753 81.7629ZM63.4655 78.2613L64.8938 77.454C64.2347 76.2881 63.8417 74.6491 63.8417 72.4254H62.201H60.5604C60.5604 75.0001 61.0103 77.2518 62.0372 79.0686L63.4655 78.2613ZM62.201 72.4254H63.8417V51.8051H62.201H60.5604V72.4254H62.201ZM62.201 51.8051V53.4457H63.7573V51.8051V50.1645H62.201V51.8051ZM63.7573 51.8051V53.4457C65.2458 53.4457 66.7384 53.6242 68.2377 53.984L68.6206 52.3887L69.0035 50.7933C67.2605 50.375 65.511 50.1645 63.7573 50.1645V51.8051ZM68.6206 52.3887L68.2988 53.9974C69.7035 54.2784 70.9036 54.8034 71.9271 55.5575L72.9003 54.2367L73.8735 52.9159C72.4328 51.8544 70.7798 51.1474 68.9423 50.7799L68.6206 52.3887ZM72.9003 54.2367L72.0061 55.6123C73.0458 56.2881 73.899 57.2336 74.5582 58.4972L76.0128 57.7383L77.4673 56.9794C76.5703 55.2602 75.3485 53.8713 73.7944 52.8611L72.9003 54.2367ZM76.0128 57.7383L74.5582 58.4972C75.176 59.6813 75.5393 61.31 75.5393 63.477H77.18H78.8206C78.8206 60.9752 78.4058 58.7781 77.4673 56.9794L76.0128 57.7383ZM77.18 63.477H75.5393V84H77.18H78.8206V63.477H77.18Z" fill="#3504FB" mask="url(#path-2-outside-1_3_14)"/>
</g>
</g>
<defs>
<clipPath id="clip0_3_14">
<rect width="120" height="120" fill="white"/>
</clipPath>
<clipPath id="clip1_3_14">
<rect width="120" height="120" fill="white"/>
</clipPath>
</defs>
</svg>
