<svg width="152" height="152" viewBox="0 0 152 152" fill="none" xmlns="http://www.w3.org/2000/svg">
<g clip-path="url(#clip0_3_12)">
<g clip-path="url(#clip1_3_12)">
<path d="M1.68008 1.16766L149.217 1.05643L75.4495 148.649L1.68008 1.16766Z" fill="#3504FB" stroke="#3504FB" stroke-width="2.07812"/>
<mask id="path-2-outside-1_3_12" maskUnits="userSpaceOnUse" x="51.1958" y="14" width="51" height="95" fill="black">
<rect fill="white" x="51.1958" y="14" width="51" height="95"/>
<path d="M71.1494 91.2156C71.1494 94.0904 70.5744 96.4723 69.4245 98.3614C68.2746 100.251 66.8373 101.77 65.1124 102.92C63.3876 103.988 61.4574 104.768 59.3219 105.261C57.2685 105.754 55.2972 106 53.4081 106V34.419C53.4081 28.6695 54.7223 24.2342 57.3506 21.113C59.979 17.9919 63.7572 16.4313 68.6853 16.4313C71.1494 16.4313 73.1617 16.842 74.7223 17.6634C76.2828 18.4847 77.4738 19.5525 78.2952 20.8666C79.1987 22.1808 79.8147 23.6182 80.1432 25.1787C80.4718 26.6572 80.636 28.0946 80.636 29.4909C80.636 30.2301 80.5539 30.764 80.3896 31.0925C79.3219 30.189 78.0488 29.7373 76.5703 29.7373C75.3383 29.7373 74.3527 29.9837 73.6134 30.4765C72.9564 30.8872 72.4225 31.4621 72.0118 32.2013C71.6833 32.8584 71.4369 33.6387 71.2726 34.5422C71.1905 35.4457 71.1494 36.3902 71.1494 37.3759V91.2156ZM81.9913 16.6777H83.5929C88.2746 16.6777 92.135 18.1562 95.174 21.113C98.213 23.9878 99.7325 28.1767 99.7325 33.6798V46.6161C99.7325 52.037 98.3773 56.1438 95.6668 58.9364C93.0385 61.729 89.8352 63.2074 86.057 63.3717H85.1945C82.8948 63.3717 80.9646 62.961 79.404 62.1397C77.8434 61.3183 76.5703 60.2916 75.5847 59.0596C74.6812 57.7454 74.0241 56.3491 73.6134 54.8707C73.2028 53.3101 72.9974 51.7906 72.9974 50.3122C73.5724 50.805 74.1063 51.1746 74.5991 51.421C75.0919 51.5853 76.0775 51.6674 77.5559 51.6674C78.6237 51.6674 79.4451 51.3799 80.02 50.805C80.6771 50.1479 81.1288 49.3676 81.3752 48.4641C81.7038 47.5606 81.8681 46.575 81.8681 45.5073C81.9502 44.3574 81.9913 43.3307 81.9913 42.4272V16.6777ZM97.7613 106H96.5292C94.3937 106 92.2582 105.795 90.1227 105.384C88.0693 104.973 86.1802 104.234 84.4553 103.166C82.8126 102.099 81.4574 100.62 80.3896 98.731C79.3219 96.8419 78.788 94.3778 78.788 91.3388V65.2198H80.7592C82.8126 65.2198 84.866 65.4662 86.9194 65.959C88.9728 66.3697 90.7798 67.1499 92.3403 68.2998C93.983 69.3676 95.2972 70.846 96.2828 72.7352C97.2685 74.6243 97.7613 77.0473 97.7613 80.0041V106Z"/>
</mask>
<path d="M71.1494 91.2156C71.1494 94.0904 70.5744 96.4723 69.4245 98.3614C68.2746 100.251 66.8373 101.77 65.1124 102.92C63.3876 103.988 61.4574 104.768 59.3219 105.261C57.2685 105.754 55.2972 106 53.4081 106V34.419C53.4081 28.6695 54.7223 24.2342 57.3506 21.113C59.979 17.9919 63.7572 16.4313 68.6853 16.4313C71.1494 16.4313 73.1617 16.842 74.7223 17.6634C76.2828 18.4847 77.4738 19.5525 78.2952 20.8666C79.1987 22.1808 79.8147 23.6182 80.1432 25.1787C80.4718 26.6572 80.636 28.0946 80.636 29.4909C80.636 30.2301 80.5539 30.764 80.3896 31.0925C79.3219 30.189 78.0488 29.7373 76.5703 29.7373C75.3383 29.7373 74.3527 29.9837 73.6134 30.4765C72.9564 30.8872 72.4225 31.4621 72.0118 32.2013C71.6833 32.8584 71.4369 33.6387 71.2726 34.5422C71.1905 35.4457 71.1494 36.3902 71.1494 37.3759V91.2156ZM81.9913 16.6777H83.5929C88.2746 16.6777 92.135 18.1562 95.174 21.113C98.213 23.9878 99.7325 28.1767 99.7325 33.6798V46.6161C99.7325 52.037 98.3773 56.1438 95.6668 58.9364C93.0385 61.729 89.8352 63.2074 86.057 63.3717H85.1945C82.8948 63.3717 80.9646 62.961 79.404 62.1397C77.8434 61.3183 76.5703 60.2916 75.5847 59.0596C74.6812 57.7454 74.0241 56.3491 73.6134 54.8707C73.2028 53.3101 72.9974 51.7906 72.9974 50.3122C73.5724 50.805 74.1063 51.1746 74.5991 51.421C75.0919 51.5853 76.0775 51.6674 77.5559 51.6674C78.6237 51.6674 79.4451 51.3799 80.02 50.805C80.6771 50.1479 81.1288 49.3676 81.3752 48.4641C81.7038 47.5606 81.8681 46.575 81.8681 45.5073C81.9502 44.3574 81.9913 43.3307 81.9913 42.4272V16.6777ZM97.7613 106H96.5292C94.3937 106 92.2582 105.795 90.1227 105.384C88.0693 104.973 86.1802 104.234 84.4553 103.166C82.8126 102.099 81.4574 100.62 80.3896 98.731C79.3219 96.8419 78.788 94.3778 78.788 91.3388V65.2198H80.7592C82.8126 65.2198 84.866 65.4662 86.9194 65.959C88.9728 66.3697 90.7798 67.1499 92.3403 68.2998C93.983 69.3676 95.2972 70.846 96.2828 72.7352C97.2685 74.6243 97.7613 77.0473 97.7613 80.0041V106Z" fill="#FFFEFE"/>
<path d="M69.4245 98.3614L67.6494 97.2809L67.6494 97.2809L69.4245 98.3614ZM65.1124 102.92L66.2063 104.687L66.236 104.668L66.2652 104.649L65.1124 102.92ZM59.3219 105.261L58.8546 103.236L58.8457 103.238L58.8369 103.24L59.3219 105.261ZM53.4081 106H51.33V108.078H53.4081V106ZM57.3506 21.113L58.9402 22.4516L58.9402 22.4516L57.3506 21.113ZM74.7223 17.6634L73.7544 19.5023L73.7544 19.5023L74.7223 17.6634ZM78.2952 20.8666L76.5329 21.968L76.557 22.0065L76.5827 22.044L78.2952 20.8666ZM80.1432 25.1787L78.1097 25.6069L78.1121 25.6182L78.1146 25.6296L80.1432 25.1787ZM80.3896 31.0925L79.0473 32.6789L81.0658 34.3869L82.2484 32.0219L80.3896 31.0925ZM73.6134 30.4765L74.7149 32.2387L74.7408 32.2225L74.7662 32.2056L73.6134 30.4765ZM72.0118 32.2013L70.1952 31.1921L70.1733 31.2316L70.1531 31.272L72.0118 32.2013ZM71.2726 34.5422L69.228 34.1704L69.2114 34.2617L69.203 34.354L71.2726 34.5422ZM81.9913 16.6777V14.5996H79.9131V16.6777H81.9913ZM95.174 21.113L93.7248 22.6025L93.7353 22.6127L93.7459 22.6227L95.174 21.113ZM95.6668 58.9364L94.1756 57.489L94.1645 57.5005L94.1535 57.5121L95.6668 58.9364ZM86.057 63.3717V65.4498H86.1021L86.1472 65.4479L86.057 63.3717ZM79.404 62.1397L78.4361 63.9787L78.4361 63.9787L79.404 62.1397ZM75.5847 59.0596L73.8722 60.2369L73.9149 60.299L73.962 60.3578L75.5847 59.0596ZM73.6134 54.8707L71.6037 55.3996L71.6073 55.4133L71.6111 55.4269L73.6134 54.8707ZM72.9974 50.3122L74.3499 48.7344L70.9193 45.7939V50.3122H72.9974ZM74.5991 51.421L73.6697 53.2797L73.8018 53.3458L73.9419 53.3925L74.5991 51.421ZM81.3752 48.4641L79.4222 47.754L79.3929 47.8346L79.3703 47.9173L81.3752 48.4641ZM81.8681 45.5073L79.7952 45.3592L79.7899 45.4331V45.5073H81.8681ZM97.7613 106V108.078H99.8394V106H97.7613ZM90.1227 105.384L89.7151 107.422L89.7227 107.423L89.7302 107.425L90.1227 105.384ZM84.4553 103.166L83.3228 104.909L83.342 104.921L83.3615 104.933L84.4553 103.166ZM80.3896 98.731L82.1988 97.7085L82.1988 97.7085L80.3896 98.731ZM78.788 65.2198V63.1416H76.7099V65.2198H78.788ZM86.9194 65.959L86.4344 67.9797L86.473 67.989L86.5118 67.9968L86.9194 65.959ZM92.3403 68.2998L91.1076 69.9728L91.1567 70.009L91.2078 70.0422L92.3403 68.2998ZM96.2828 72.7352L98.1253 71.7739L98.1253 71.7739L96.2828 72.7352ZM71.1494 91.2156H69.0713C69.0713 93.8212 68.55 95.8013 67.6494 97.2809L69.4245 98.3614L71.1997 99.4419C72.5988 97.1433 73.2275 94.3595 73.2275 91.2156H71.1494ZM69.4245 98.3614L67.6494 97.2809C66.6464 98.9286 65.4156 100.22 63.9597 101.191L65.1124 102.92L66.2652 104.649C68.259 103.32 69.9029 101.572 71.1997 99.4419L69.4245 98.3614ZM65.1124 102.92L64.0186 101.153C62.502 102.092 60.7864 102.79 58.8546 103.236L59.3219 105.261L59.7892 107.286C62.1284 106.746 64.2731 105.884 66.2063 104.687L65.1124 102.92ZM59.3219 105.261L58.8369 103.24C56.924 103.699 55.116 103.922 53.4081 103.922V106V108.078C55.4785 108.078 57.613 107.808 59.8069 107.282L59.3219 105.261ZM53.4081 106H55.4863V34.419H53.4081H51.33V106H53.4081ZM53.4081 34.419H55.4863C55.4863 28.9614 56.7349 25.0704 58.9402 22.4516L57.3506 21.113L55.7611 19.7745C52.7097 23.398 51.33 28.3776 51.33 34.419H53.4081ZM57.3506 21.113L58.9402 22.4516C61.0916 19.8968 64.2302 18.5094 68.6853 18.5094V16.4313V14.3532C63.2841 14.3532 58.8663 16.087 55.7611 19.7745L57.3506 21.113ZM68.6853 16.4313V18.5094C70.9386 18.5094 72.587 18.8879 73.7544 19.5023L74.7223 17.6634L75.6902 15.8244C73.7364 14.7961 71.3602 14.3532 68.6853 14.3532V16.4313ZM74.7223 17.6634L73.7544 19.5023C75.0353 20.1765 75.9321 21.0067 76.5329 21.968L78.2952 20.8666L80.0574 19.7652C79.0155 18.0982 77.5304 16.7929 75.6902 15.8244L74.7223 17.6634ZM78.2952 20.8666L76.5827 22.044C77.3308 23.132 77.8376 24.3148 78.1097 25.6069L80.1432 25.1787L82.1768 24.7506C81.7917 22.9216 81.0666 21.2296 80.0076 19.6893L78.2952 20.8666ZM80.1432 25.1787L78.1146 25.6296C78.413 26.9724 78.5579 28.2584 78.5579 29.4909H80.636H82.7142C82.7142 27.9308 82.5305 26.342 82.1719 24.7279L80.1432 25.1787ZM80.636 29.4909H78.5579C78.5579 29.7903 78.5408 29.9974 78.5205 30.1297C78.4983 30.2739 78.4826 30.2597 78.5309 30.1631L80.3896 31.0925L82.2484 32.0219C82.6407 31.2371 82.7142 30.2897 82.7142 29.4909H80.636ZM80.3896 31.0925L81.732 29.5061C80.2664 28.266 78.5099 27.6591 76.5703 27.6591V29.7373V31.8154C77.5876 31.8154 78.3773 32.112 79.0473 32.6789L80.3896 31.0925ZM76.5703 29.7373V27.6591C75.0814 27.6591 73.6498 27.9547 72.4607 28.7474L73.6134 30.4765L74.7662 32.2056C75.0556 32.0127 75.5952 31.8154 76.5703 31.8154V29.7373ZM73.6134 30.4765L72.512 28.7142C71.5299 29.3281 70.7607 30.1742 70.1952 31.1921L72.0118 32.2013L73.8284 33.2106C74.0843 32.75 74.3828 32.4463 74.7149 32.2387L73.6134 30.4765ZM72.0118 32.2013L70.1531 31.272C69.7177 32.1427 69.4191 33.1193 69.228 34.1704L71.2726 34.5422L73.3172 34.9139C73.4546 34.158 73.6488 33.5741 73.8705 33.1307L72.0118 32.2013ZM71.2726 34.5422L69.203 34.354C69.1147 35.3252 69.0713 36.3327 69.0713 37.3759H71.1494H73.2275C73.2275 36.4477 73.2662 35.5662 73.3422 34.7303L71.2726 34.5422ZM71.1494 37.3759H69.0713V91.2156H71.1494H73.2275V37.3759H71.1494ZM81.9913 16.6777V18.7559H83.5929V16.6777V14.5996H81.9913V16.6777ZM83.5929 16.6777V18.7559C87.7949 18.7559 91.1158 20.064 93.7248 22.6025L95.174 21.113L96.6232 19.6236C93.1542 16.2484 88.7543 14.5996 83.5929 14.5996V16.6777ZM95.174 21.113L93.7459 22.6227C96.2504 24.9918 97.6544 28.5592 97.6544 33.6798H99.7325H101.811C101.811 27.7942 100.176 22.9838 96.6021 19.6034L95.174 21.113ZM99.7325 33.6798H97.6544V46.6161H99.7325H101.811V33.6798H99.7325ZM99.7325 46.6161H97.6544C97.6544 51.7116 96.3827 55.2151 94.1756 57.489L95.6668 58.9364L97.158 60.3838C100.372 57.0725 101.811 52.3625 101.811 46.6161H99.7325ZM95.6668 58.9364L94.1535 57.5121C91.8906 59.9165 89.1953 61.1552 85.9667 61.2956L86.057 63.3717L86.1472 65.4479C90.4751 65.2597 94.1864 63.5415 97.1801 60.3607L95.6668 58.9364ZM86.057 63.3717V61.2936H85.1945V63.3717V65.4498H86.057V63.3717ZM85.1945 63.3717V61.2936C83.1328 61.2936 81.5571 60.9245 80.3719 60.3007L79.404 62.1397L78.4361 63.9787C80.372 64.9976 82.6567 65.4498 85.1945 65.4498V63.3717ZM79.404 62.1397L80.3719 60.3007C79.0346 59.5969 77.9944 58.7451 77.2074 57.7614L75.5847 59.0596L73.962 60.3578C75.1463 61.8382 76.6522 63.0398 78.4361 63.9787L79.404 62.1397ZM75.5847 59.0596L77.2972 57.8823C76.5188 56.7502 75.9625 55.5626 75.6158 54.3145L73.6134 54.8707L71.6111 55.4269C72.0858 57.1356 72.8436 58.7407 73.8722 60.2369L75.5847 59.0596ZM73.6134 54.8707L75.6232 54.3418C75.2538 52.9383 75.0756 51.5967 75.0756 50.3122H72.9974H70.9193C70.9193 51.9846 71.1518 53.682 71.6037 55.3996L73.6134 54.8707ZM72.9974 50.3122L71.645 51.89C72.3046 52.4554 72.9803 52.935 73.6697 53.2797L74.5991 51.421L75.5284 49.5623C75.2322 49.4142 74.8402 49.1546 74.3499 48.7344L72.9974 50.3122ZM74.5991 51.421L73.9419 53.3925C74.8039 53.6798 76.1244 53.7455 77.5559 53.7455V51.6674V49.5893C76.8492 49.5893 76.2954 49.5694 75.8805 49.5349C75.674 49.5177 75.5171 49.498 75.4027 49.479C75.2825 49.4589 75.2424 49.4449 75.2562 49.4495L74.5991 51.421ZM77.5559 51.6674V53.7455C78.9956 53.7455 80.4141 53.3498 81.4895 52.2745L80.02 50.805L78.5506 49.3355C78.476 49.41 78.2519 49.5893 77.5559 49.5893V51.6674ZM80.02 50.805L81.4895 52.2745C82.4044 51.3596 83.0394 50.2605 83.3801 49.0109L81.3752 48.4641L79.3703 47.9173C79.2183 48.4748 78.9498 48.9363 78.5506 49.3355L80.02 50.805ZM81.3752 48.4641L83.3283 49.1743C83.7482 48.0194 83.9462 46.7906 83.9462 45.5073H81.8681H79.7899C79.7899 46.3595 79.6594 47.1019 79.4222 47.754L81.3752 48.4641ZM81.8681 45.5073L83.9409 45.6553C84.0257 44.4688 84.0694 43.3913 84.0694 42.4272H81.9913H79.9131C79.9131 43.27 79.8747 44.2459 79.7952 45.3592L81.8681 45.5073ZM81.9913 42.4272H84.0694V16.6777H81.9913H79.9131V42.4272H81.9913ZM97.7613 106V103.922H96.5292V106V108.078H97.7613V106ZM96.5292 106V103.922C94.5278 103.922 92.5237 103.73 90.5151 103.343L90.1227 105.384L89.7302 107.425C91.9927 107.86 94.2596 108.078 96.5292 108.078V106ZM90.1227 105.384L90.5302 103.346C88.7119 102.983 87.0564 102.332 85.5492 101.399L84.4553 103.166L83.3615 104.933C85.3039 106.136 87.4266 106.964 89.7151 107.422L90.1227 105.384ZM84.4553 103.166L85.5879 101.424C84.2544 100.557 83.1201 99.3385 82.1988 97.7085L80.3896 98.731L78.5805 99.7536C79.7947 101.902 81.3708 103.64 83.3228 104.909L84.4553 103.166ZM80.3896 98.731L82.1988 97.7085C81.364 96.2315 80.8661 94.1556 80.8661 91.3388H78.788H76.7099C76.7099 94.6001 77.2797 97.4523 78.5805 99.7536L80.3896 98.731ZM78.788 91.3388H80.8661V65.2198H78.788H76.7099V91.3388H78.788ZM78.788 65.2198V67.2979H80.7592V65.2198V63.1416H78.788V65.2198ZM80.7592 65.2198V67.2979C82.6447 67.2979 84.5353 67.5239 86.4344 67.9797L86.9194 65.959L87.4044 63.9382C85.1967 63.4084 82.9806 63.1416 80.7592 63.1416V65.2198ZM86.9194 65.959L86.5118 67.9968C88.2911 68.3526 89.8113 69.0177 91.1076 69.9728L92.3403 68.2998L93.5731 66.6268C91.7482 65.2822 89.6544 64.3867 87.3269 63.9212L86.9194 65.959ZM92.3403 68.2998L91.2078 70.0422C92.5247 70.8982 93.6053 72.0959 94.4404 73.6964L96.2828 72.7352L98.1253 71.7739C96.9891 69.5962 95.4414 67.837 93.4729 66.5575L92.3403 68.2998ZM96.2828 72.7352L94.4404 73.6964C95.2229 75.1963 95.6831 77.2593 95.6831 80.0041H97.7613H99.8394C99.8394 76.8352 99.314 74.0522 98.1253 71.7739L96.2828 72.7352ZM97.7613 80.0041H95.6831V106H97.7613H99.8394V80.0041H97.7613Z" fill="#3504FB" mask="url(#path-2-outside-1_3_12)"/>
</g>
</g>
<defs>
<clipPath id="clip0_3_12">
<rect width="152" height="152" fill="white"/>
</clipPath>
<clipPath id="clip1_3_12">
<rect width="152" height="152" fill="white"/>
</clipPath>
</defs>
</svg>
