<svg width="60" height="60" viewBox="0 0 60 60" fill="none" xmlns="http://www.w3.org/2000/svg">
<g clip-path="url(#clip0_3_25)">
<g clip-path="url(#clip1_3_25)">
<path d="M0.663 0.460654L58.9013 0.416748L29.7831 58.677L0.663 0.460654Z" fill="#3504FB" stroke="#3504FB" stroke-width="0.820312"/>
<mask id="path-2-outside-1_3_25" maskUnits="userSpaceOnUse" x="20.2615" y="5" width="20" height="38" fill="black">
<rect fill="white" x="20.2615" y="5" width="20" height="38"/>
<path d="M28.0853 36.1641C28.0853 37.2988 27.8584 38.2391 27.4044 38.9848C26.9505 39.7305 26.3832 40.3303 25.7023 40.7842C25.0214 41.2057 24.2595 41.5137 23.4166 41.7082C22.606 41.9027 21.8279 42 21.0822 42V13.7443C21.0822 11.4748 21.6009 9.72402 22.6384 8.49199C23.6759 7.25996 25.1673 6.64394 27.1126 6.64394C28.0853 6.64394 28.8796 6.80605 29.4957 7.13027C30.1117 7.45449 30.5818 7.87598 30.906 8.39472C31.2626 8.91348 31.5058 9.48086 31.6355 10.0969C31.7652 10.6805 31.83 11.2479 31.83 11.799C31.83 12.0908 31.7976 12.3016 31.7328 12.4312C31.3113 12.0746 30.8087 11.8963 30.2251 11.8963C29.7388 11.8963 29.3498 11.9936 29.058 12.1881C28.7986 12.3502 28.5878 12.5771 28.4257 12.8689C28.296 13.1283 28.1988 13.4363 28.1339 13.793C28.1015 14.1496 28.0853 14.5225 28.0853 14.9115V36.1641ZM32.365 6.74121H32.9972C34.8453 6.74121 36.3691 7.3248 37.5687 8.49199C38.7683 9.62676 39.3681 11.2803 39.3681 13.4525V18.559C39.3681 20.6988 38.8332 22.3199 37.7632 23.4223C36.7257 24.5246 35.4613 25.1082 33.9699 25.173H33.6294C32.7216 25.173 31.9597 25.0109 31.3437 24.6867C30.7277 24.3625 30.2251 23.9572 29.8361 23.4709C29.4794 22.9521 29.2201 22.401 29.058 21.8174C28.8959 21.2014 28.8148 20.6016 28.8148 20.018C29.0418 20.2125 29.2525 20.3584 29.447 20.4557C29.6416 20.5205 30.0306 20.5529 30.6142 20.5529C31.0357 20.5529 31.3599 20.4395 31.5869 20.2125C31.8462 19.9531 32.0246 19.6451 32.1218 19.2885C32.2515 18.9318 32.3164 18.5428 32.3164 18.1213C32.3488 17.6674 32.365 17.2621 32.365 16.9055V6.74121ZM38.59 42H38.1037C37.2607 42 36.4177 41.9189 35.5748 41.7568C34.7642 41.5947 34.0185 41.3029 33.3376 40.8814C32.6892 40.46 32.1543 39.8764 31.7328 39.1307C31.3113 38.385 31.1005 37.4123 31.1005 36.2127V25.9025H31.8787C32.6892 25.9025 33.4998 25.9998 34.3103 26.1943C35.1209 26.3564 35.8341 26.6645 36.4502 27.1184C37.0986 27.5398 37.6173 28.1234 38.0064 28.8691C38.3955 29.6148 38.59 30.5713 38.59 31.7385V42Z"/>
</mask>
<path d="M28.0853 36.1641C28.0853 37.2988 27.8584 38.2391 27.4044 38.9848C26.9505 39.7305 26.3832 40.3303 25.7023 40.7842C25.0214 41.2057 24.2595 41.5137 23.4166 41.7082C22.606 41.9027 21.8279 42 21.0822 42V13.7443C21.0822 11.4748 21.6009 9.72402 22.6384 8.49199C23.6759 7.25996 25.1673 6.64394 27.1126 6.64394C28.0853 6.64394 28.8796 6.80605 29.4957 7.13027C30.1117 7.45449 30.5818 7.87598 30.906 8.39472C31.2626 8.91348 31.5058 9.48086 31.6355 10.0969C31.7652 10.6805 31.83 11.2479 31.83 11.799C31.83 12.0908 31.7976 12.3016 31.7328 12.4312C31.3113 12.0746 30.8087 11.8963 30.2251 11.8963C29.7388 11.8963 29.3498 11.9936 29.058 12.1881C28.7986 12.3502 28.5878 12.5771 28.4257 12.8689C28.296 13.1283 28.1988 13.4363 28.1339 13.793C28.1015 14.1496 28.0853 14.5225 28.0853 14.9115V36.1641ZM32.365 6.74121H32.9972C34.8453 6.74121 36.3691 7.3248 37.5687 8.49199C38.7683 9.62676 39.3681 11.2803 39.3681 13.4525V18.559C39.3681 20.6988 38.8332 22.3199 37.7632 23.4223C36.7257 24.5246 35.4613 25.1082 33.9699 25.173H33.6294C32.7216 25.173 31.9597 25.0109 31.3437 24.6867C30.7277 24.3625 30.2251 23.9572 29.8361 23.4709C29.4794 22.9521 29.2201 22.401 29.058 21.8174C28.8959 21.2014 28.8148 20.6016 28.8148 20.018C29.0418 20.2125 29.2525 20.3584 29.447 20.4557C29.6416 20.5205 30.0306 20.5529 30.6142 20.5529C31.0357 20.5529 31.3599 20.4395 31.5869 20.2125C31.8462 19.9531 32.0246 19.6451 32.1218 19.2885C32.2515 18.9318 32.3164 18.5428 32.3164 18.1213C32.3488 17.6674 32.365 17.2621 32.365 16.9055V6.74121ZM38.59 42H38.1037C37.2607 42 36.4177 41.9189 35.5748 41.7568C34.7642 41.5947 34.0185 41.3029 33.3376 40.8814C32.6892 40.46 32.1543 39.8764 31.7328 39.1307C31.3113 38.385 31.1005 37.4123 31.1005 36.2127V25.9025H31.8787C32.6892 25.9025 33.4998 25.9998 34.3103 26.1943C35.1209 26.3564 35.8341 26.6645 36.4502 27.1184C37.0986 27.5398 37.6173 28.1234 38.0064 28.8691C38.3955 29.6148 38.59 30.5713 38.59 31.7385V42Z" fill="#FFFEFE"/>
<path d="M27.4044 38.9848L26.7037 38.5582L26.7037 38.5582L27.4044 38.9848ZM25.7023 40.7842L26.1341 41.4817L26.1458 41.4744L26.1573 41.4667L25.7023 40.7842ZM23.4166 41.7082L23.2321 40.9089L23.2251 40.9105L23.4166 41.7082ZM21.0822 42H20.2619V42.8203H21.0822V42ZM22.6384 8.49199L23.2659 9.02038L23.2659 9.02038L22.6384 8.49199ZM29.4957 7.13027L29.1136 7.85618L29.1136 7.85618L29.4957 7.13027ZM30.906 8.39472L30.2104 8.82949L30.2199 8.84469L30.23 8.85945L30.906 8.39472ZM31.6355 10.0969L30.8327 10.2659L30.8347 10.2748L31.6355 10.0969ZM31.7328 12.4312L31.2029 13.0575L31.9997 13.7317L32.4665 12.7981L31.7328 12.4312ZM29.058 12.1881L29.4927 12.8837L29.503 12.8773L29.513 12.8706L29.058 12.1881ZM28.4257 12.8689L27.7087 12.4706L27.7 12.4861L27.692 12.5021L28.4257 12.8689ZM28.1339 13.793L27.3269 13.6462L27.3203 13.6822L27.317 13.7187L28.1339 13.793ZM32.365 6.74121V5.9209H31.5447V6.74121H32.365ZM37.5687 8.49199L36.9966 9.07999L37.005 9.08792L37.5687 8.49199ZM37.7632 23.4223L37.1745 22.8509L37.1659 22.8601L37.7632 23.4223ZM33.9699 25.173V25.9934H33.9877L34.0055 25.9926L33.9699 25.173ZM31.3437 24.6867L30.9616 25.4126L30.9616 25.4126L31.3437 24.6867ZM29.8361 23.4709L29.1601 23.9356L29.177 23.9601L29.1955 23.9833L29.8361 23.4709ZM29.058 21.8174L28.2646 22.0262L28.2676 22.0369L29.058 21.8174ZM28.8148 20.018L29.3487 19.3951L27.9945 18.2344V20.018H28.8148ZM29.447 20.4557L29.0802 21.1894L29.1323 21.2154L29.1876 21.2339L29.447 20.4557ZM32.1218 19.2885L31.3509 19.0081L31.3393 19.04L31.3304 19.0726L32.1218 19.2885ZM32.3164 18.1213L31.4981 18.0628L31.496 18.092V18.1213H32.3164ZM38.59 42V42.8203H39.4103V42H38.59ZM35.5748 41.7568L35.4139 42.5612L35.4198 42.5624L35.5748 41.7568ZM33.3376 40.8814L32.8906 41.5692L32.8982 41.5742L32.9059 41.5789L33.3376 40.8814ZM31.7328 39.1307L32.4469 38.727L32.4469 38.727L31.7328 39.1307ZM31.1005 25.9025V25.0822H30.2802V25.9025H31.1005ZM34.3103 26.1943L34.1189 26.992L34.1341 26.9956L34.1494 26.9987L34.3103 26.1943ZM36.4502 27.1184L35.9635 27.7788L35.9829 27.793L36.0031 27.8061L36.4502 27.1184ZM38.0064 28.8691L38.7337 28.4897L38.7337 28.4897L38.0064 28.8691ZM28.0853 36.1641H27.265C27.265 37.1926 27.0592 37.9742 26.7037 38.5582L27.4044 38.9848L28.1052 39.4113C28.6575 38.5039 28.9056 37.4051 28.9056 36.1641H28.0853ZM27.4044 38.9848L26.7037 38.5582C26.3078 39.2087 25.822 39.7185 25.2473 40.1016L25.7023 40.7842L26.1573 41.4667C26.9443 40.942 27.5933 40.2523 28.1052 39.4113L27.4044 38.9848ZM25.7023 40.7842L25.2705 40.0867C24.6719 40.4573 23.9946 40.7329 23.2321 40.9089L23.4166 41.7082L23.601 42.5075C24.5244 42.2944 25.371 41.954 26.1341 41.4817L25.7023 40.7842ZM23.4166 41.7082L23.2251 40.9105C22.47 41.0918 21.7564 41.1797 21.0822 41.1797V42V42.8203C21.8994 42.8203 22.742 42.7137 23.608 42.5059L23.4166 41.7082ZM21.0822 42H21.9025V13.7443H21.0822H20.2619V42H21.0822ZM21.0822 13.7443H21.9025C21.9025 11.59 22.3954 10.0541 23.2659 9.02038L22.6384 8.49199L22.011 7.9636C20.8065 9.39394 20.2619 11.3596 20.2619 13.7443H21.0822ZM22.6384 8.49199L23.2659 9.02038C24.1151 8.0119 25.3541 7.46426 27.1126 7.46426V6.64394V5.82363C24.9806 5.82363 23.2367 6.50802 22.011 7.9636L22.6384 8.49199ZM27.1126 6.64394V7.46426C28.0021 7.46426 28.6528 7.61365 29.1136 7.85618L29.4957 7.13027L29.8777 6.40436C29.1065 5.99845 28.1685 5.82363 27.1126 5.82363V6.64394ZM29.4957 7.13027L29.1136 7.85618C29.6192 8.1223 29.9732 8.45003 30.2104 8.82949L30.906 8.39472L31.6016 7.95996C31.1904 7.30193 30.6041 6.78669 29.8777 6.40436L29.4957 7.13027ZM30.906 8.39472L30.23 8.85945C30.5253 9.28896 30.7254 9.75583 30.8328 10.2659L31.6355 10.0969L32.4382 9.92788C32.2862 9.20589 32 8.53799 31.582 7.92999L30.906 8.39472ZM31.6355 10.0969L30.8347 10.2748C30.9525 10.8049 31.0097 11.3125 31.0097 11.799H31.83H32.6503C32.6503 11.1832 32.5779 10.5561 32.4363 9.91892L31.6355 10.0969ZM31.83 11.799H31.0097C31.0097 11.9172 31.003 11.999 30.9949 12.0512C30.9862 12.1081 30.98 12.1025 30.9991 12.0644L31.7328 12.4312L32.4665 12.7981C32.6214 12.4883 32.6503 12.1144 32.6503 11.799H31.83ZM31.7328 12.4312L32.2626 11.805C31.6841 11.3155 30.9908 11.076 30.2251 11.076V11.8963V12.7166C30.6267 12.7166 30.9384 12.8337 31.2029 13.0575L31.7328 12.4312ZM30.2251 11.8963V11.076C29.6374 11.076 29.0723 11.1926 28.6029 11.5055L29.058 12.1881L29.513 12.8706C29.6272 12.7945 29.8402 12.7166 30.2251 12.7166V11.8963ZM29.058 12.1881L28.6232 11.4925C28.2355 11.7348 27.9319 12.0688 27.7087 12.4706L28.4257 12.8689L29.1428 13.2673C29.2438 13.0855 29.3617 12.9656 29.4927 12.8837L29.058 12.1881ZM28.4257 12.8689L27.692 12.5021C27.5202 12.8458 27.4023 13.2313 27.3269 13.6462L28.1339 13.793L28.941 13.9397C28.9953 13.6413 29.0719 13.4108 29.1594 13.2358L28.4257 12.8689ZM28.1339 13.793L27.317 13.7187C27.2821 14.102 27.265 14.4998 27.265 14.9115H28.0853H28.9056C28.9056 14.5452 28.9209 14.1972 28.9509 13.8672L28.1339 13.793ZM28.0853 14.9115H27.265V36.1641H28.0853H28.9056V14.9115H28.0853ZM32.365 6.74121V7.56152H32.9972V6.74121V5.9209H32.365V6.74121ZM32.9972 6.74121V7.56152C34.6559 7.56152 35.9668 8.07789 36.9967 9.07993L37.5687 8.49199L38.1408 7.90405C36.7714 6.57172 35.0346 5.9209 32.9972 5.9209V6.74121ZM37.5687 8.49199L37.005 9.08792C37.9936 10.0231 38.5478 11.4312 38.5478 13.4525H39.3681H40.1884C40.1884 11.1293 39.543 9.23043 38.1324 7.89606L37.5687 8.49199ZM39.3681 13.4525H38.5478V18.559H39.3681H40.1884V13.4525H39.3681ZM39.3681 18.559H38.5478C38.5478 20.5704 38.0458 21.9533 37.1746 22.8509L37.7632 23.4223L38.3519 23.9936C39.6205 22.6865 40.1884 20.8273 40.1884 18.559H39.3681ZM37.7632 23.4223L37.1659 22.8601C36.2726 23.8091 35.2087 24.2981 33.9342 24.3535L33.9699 25.173L34.0055 25.9926C35.7139 25.9183 37.1788 25.2401 38.3606 23.9845L37.7632 23.4223ZM33.9699 25.173V24.3527H33.6294V25.173V25.9934H33.9699V25.173ZM33.6294 25.173V24.3527C32.8156 24.3527 32.1936 24.207 31.7258 23.9608L31.3437 24.6867L30.9616 25.4126C31.7258 25.8148 32.6277 25.9934 33.6294 25.9934V25.173ZM31.3437 24.6867L31.7258 23.9608C31.1979 23.683 30.7873 23.3467 30.4766 22.9585L29.8361 23.4709L29.1955 23.9833C29.663 24.5677 30.2575 25.042 30.9616 25.4126L31.3437 24.6867ZM29.8361 23.4709L30.5121 23.0062C30.2048 22.5593 29.9852 22.0905 29.8483 21.5978L29.058 21.8174L28.2676 22.0369C28.4549 22.7114 28.7541 23.345 29.1601 23.9356L29.8361 23.4709ZM29.058 21.8174L29.8513 21.6086C29.7055 21.0546 29.6351 20.525 29.6351 20.018H28.8148H27.9945C27.9945 20.6781 28.0862 21.3482 28.2647 22.0261L29.058 21.8174ZM28.8148 20.018L28.2809 20.6408C28.5413 20.864 28.808 21.0533 29.0802 21.1894L29.447 20.4557L29.8139 19.722C29.697 19.6635 29.5422 19.561 29.3487 19.3951L28.8148 20.018ZM29.447 20.4557L29.1876 21.2339C29.5279 21.3473 30.0491 21.3732 30.6142 21.3732V20.5529V19.7326C30.3352 19.7326 30.1166 19.7248 29.9528 19.7111C29.8713 19.7043 29.8094 19.6966 29.7643 19.6891C29.7168 19.6812 29.701 19.6756 29.7064 19.6774L29.447 20.4557ZM30.6142 20.5529V21.3732C31.1825 21.3732 31.7424 21.217 32.1669 20.7925L31.5869 20.2125L31.0068 19.6325C30.9774 19.6619 30.8889 19.7326 30.6142 19.7326V20.5529ZM31.5869 20.2125L32.1669 20.7925C32.5281 20.4314 32.7787 19.9976 32.9132 19.5043L32.1218 19.2885L31.3304 19.0726C31.2704 19.2927 31.1644 19.4748 31.0068 19.6325L31.5869 20.2125ZM32.1218 19.2885L32.8928 19.5688C33.0585 19.1129 33.1367 18.6279 33.1367 18.1213H32.3164H31.496C31.496 18.4577 31.4445 18.7507 31.3509 19.0081L32.1218 19.2885ZM32.3164 18.1213L33.1346 18.1797C33.168 17.7114 33.1853 17.2861 33.1853 16.9055H32.365H31.5447C31.5447 17.2382 31.5295 17.6234 31.4981 18.0628L32.3164 18.1213ZM32.365 16.9055H33.1853V6.74121H32.365H31.5447V16.9055H32.365ZM38.59 42V41.1797H38.1037V42V42.8203H38.59V42ZM38.1037 42V41.1797C37.3136 41.1797 36.5225 41.1038 35.7297 40.9513L35.5748 41.7568L35.4198 42.5624C36.3129 42.7341 37.2078 42.8203 38.1037 42.8203V42ZM35.5748 41.7568L35.7356 40.9525C35.0179 40.8089 34.3644 40.5523 33.7694 40.184L33.3376 40.8814L32.9059 41.5789C33.6726 42.0536 34.5105 42.3805 35.4139 42.5612L35.5748 41.7568ZM33.3376 40.8814L33.7847 40.1937C33.2583 39.8515 32.8106 39.3705 32.4469 38.727L31.7328 39.1307L31.0186 39.5343C31.4979 40.3823 32.1201 41.0684 32.8906 41.5692L33.3376 40.8814ZM31.7328 39.1307L32.4469 38.727C32.1174 38.144 31.9209 37.3246 31.9209 36.2127H31.1005H30.2802C30.2802 37.5 30.5052 38.6259 31.0186 39.5343L31.7328 39.1307ZM31.1005 36.2127H31.9209V25.9025H31.1005H30.2802V36.2127H31.1005ZM31.1005 25.9025V26.7229H31.8787V25.9025V25.0822H31.1005V25.9025ZM31.8787 25.9025V26.7229C32.6229 26.7229 33.3692 26.8121 34.1189 26.992L34.3103 26.1943L34.5017 25.3967C33.6303 25.1875 32.7555 25.0822 31.8787 25.0822V25.9025ZM34.3103 26.1943L34.1494 26.9987C34.8518 27.1392 35.4518 27.4017 35.9635 27.7788L36.4502 27.1184L36.9368 26.458C36.2164 25.9272 35.3899 25.5737 34.4712 25.39L34.3103 26.1943ZM36.4502 27.1184L36.0031 27.8061C36.5229 28.144 36.9495 28.6168 37.2791 29.2486L38.0064 28.8691L38.7337 28.4897C38.2852 27.6301 37.6743 26.9357 36.8972 26.4306L36.4502 27.1184ZM38.0064 28.8691L37.2791 29.2486C37.588 29.8407 37.7697 30.655 37.7697 31.7385H38.59H39.4103C39.4103 30.4876 39.2029 29.389 38.7337 28.4897L38.0064 28.8691ZM38.59 31.7385H37.7697V42H38.59H39.4103V31.7385H38.59Z" fill="#3504FB" mask="url(#path-2-outside-1_3_25)"/>
</g>
</g>
<defs>
<clipPath id="clip0_3_25">
<rect width="60" height="60" fill="white"/>
</clipPath>
<clipPath id="clip1_3_25">
<rect width="60" height="60" fill="white"/>
</clipPath>
</defs>
</svg>
