<svg width="76" height="76" viewBox="0 0 76 76" fill="none" xmlns="http://www.w3.org/2000/svg">
<g clip-path="url(#clip0_3_23)">
<g clip-path="url(#clip1_3_23)">
<path d="M0.840016 0.583829L74.6076 0.528214L37.7247 74.3246L0.840016 0.583829Z" fill="#3504FB" stroke="#3504FB" stroke-width="1.03906"/>
<mask id="path-2-outside-1_3_23" maskUnits="userSpaceOnUse" x="25.5979" y="7" width="26" height="48" fill="black">
<rect fill="white" x="25.5979" y="7" width="26" height="48"/>
<path d="M35.5747 45.6078C35.5747 47.0452 35.2872 48.2361 34.7123 49.1807C34.1373 50.1253 33.4186 50.885 32.5562 51.46C31.6938 51.9938 30.7287 52.384 29.6609 52.6304C28.6342 52.8768 27.6486 53 26.7041 53V17.2095C26.7041 14.3348 27.3611 12.1171 28.6753 10.5565C29.9895 8.99595 31.8786 8.21566 34.3426 8.21566C35.5747 8.21566 36.5808 8.421 37.3611 8.83168C38.1414 9.24236 38.7369 9.77624 39.1476 10.4333C39.5993 11.0904 39.9073 11.8091 40.0716 12.5894C40.2359 13.3286 40.318 14.0473 40.318 14.7454C40.318 15.115 40.2769 15.382 40.1948 15.5462C39.6609 15.0945 39.0244 14.8686 38.2851 14.8686C37.6691 14.8686 37.1763 14.9918 36.8067 15.2382C36.4782 15.4436 36.2112 15.7311 36.0059 16.1007C35.8416 16.4292 35.7184 16.8193 35.6363 17.2711C35.5952 17.7228 35.5747 18.1951 35.5747 18.6879V45.6078ZM40.9956 8.33887H41.7964C44.1373 8.33887 46.0675 9.07808 47.587 10.5565C49.1065 11.9939 49.8662 14.0883 49.8662 16.8399V23.308C49.8662 26.0185 49.1886 28.0719 47.8334 29.4682C46.5192 30.8645 44.9176 31.6037 43.0285 31.6859H42.5973C41.4474 31.6859 40.4823 31.4805 39.702 31.0698C38.9217 30.6592 38.2851 30.1458 37.7923 29.5298C37.3406 28.8727 37.012 28.1746 36.8067 27.4354C36.6014 26.6551 36.4987 25.8953 36.4987 25.1561C36.7862 25.4025 37.0531 25.5873 37.2995 25.7105C37.5459 25.7926 38.0387 25.8337 38.778 25.8337C39.3118 25.8337 39.7225 25.69 40.01 25.4025C40.3385 25.074 40.5644 24.6838 40.6876 24.2321C40.8519 23.7803 40.934 23.2875 40.934 22.7536C40.9751 22.1787 40.9956 21.6653 40.9956 21.2136V8.33887ZM48.8806 53H48.2646C47.1968 53 46.1291 52.8973 45.0613 52.692C44.0346 52.4867 43.0901 52.117 42.2276 51.5832C41.4063 51.0493 40.7287 50.3101 40.1948 49.3655C39.6609 48.421 39.394 47.1889 39.394 45.6694V32.6099H40.3796C41.4063 32.6099 42.433 32.7331 43.4597 32.9795C44.4864 33.1848 45.3899 33.575 46.1701 34.1499C46.9915 34.6838 47.6486 35.423 48.1414 36.3676C48.6342 37.3121 48.8806 38.5236 48.8806 40.0021V53Z"/>
</mask>
<path d="M35.5747 45.6078C35.5747 47.0452 35.2872 48.2361 34.7123 49.1807C34.1373 50.1253 33.4186 50.885 32.5562 51.46C31.6938 51.9938 30.7287 52.384 29.6609 52.6304C28.6342 52.8768 27.6486 53 26.7041 53V17.2095C26.7041 14.3348 27.3611 12.1171 28.6753 10.5565C29.9895 8.99595 31.8786 8.21566 34.3426 8.21566C35.5747 8.21566 36.5808 8.421 37.3611 8.83168C38.1414 9.24236 38.7369 9.77624 39.1476 10.4333C39.5993 11.0904 39.9073 11.8091 40.0716 12.5894C40.2359 13.3286 40.318 14.0473 40.318 14.7454C40.318 15.115 40.2769 15.382 40.1948 15.5462C39.6609 15.0945 39.0244 14.8686 38.2851 14.8686C37.6691 14.8686 37.1763 14.9918 36.8067 15.2382C36.4782 15.4436 36.2112 15.7311 36.0059 16.1007C35.8416 16.4292 35.7184 16.8193 35.6363 17.2711C35.5952 17.7228 35.5747 18.1951 35.5747 18.6879V45.6078ZM40.9956 8.33887H41.7964C44.1373 8.33887 46.0675 9.07808 47.587 10.5565C49.1065 11.9939 49.8662 14.0883 49.8662 16.8399V23.308C49.8662 26.0185 49.1886 28.0719 47.8334 29.4682C46.5192 30.8645 44.9176 31.6037 43.0285 31.6859H42.5973C41.4474 31.6859 40.4823 31.4805 39.702 31.0698C38.9217 30.6592 38.2851 30.1458 37.7923 29.5298C37.3406 28.8727 37.012 28.1746 36.8067 27.4354C36.6014 26.6551 36.4987 25.8953 36.4987 25.1561C36.7862 25.4025 37.0531 25.5873 37.2995 25.7105C37.5459 25.7926 38.0387 25.8337 38.778 25.8337C39.3118 25.8337 39.7225 25.69 40.01 25.4025C40.3385 25.074 40.5644 24.6838 40.6876 24.2321C40.8519 23.7803 40.934 23.2875 40.934 22.7536C40.9751 22.1787 40.9956 21.6653 40.9956 21.2136V8.33887ZM48.8806 53H48.2646C47.1968 53 46.1291 52.8973 45.0613 52.692C44.0346 52.4867 43.0901 52.117 42.2276 51.5832C41.4063 51.0493 40.7287 50.3101 40.1948 49.3655C39.6609 48.421 39.394 47.1889 39.394 45.6694V32.6099H40.3796C41.4063 32.6099 42.433 32.7331 43.4597 32.9795C44.4864 33.1848 45.3899 33.575 46.1701 34.1499C46.9915 34.6838 47.6486 35.423 48.1414 36.3676C48.6342 37.3121 48.8806 38.5236 48.8806 40.0021V53Z" fill="#FFFEFE"/>
<path d="M34.7123 49.1807L33.8247 48.6404L33.8247 48.6404L34.7123 49.1807ZM32.5562 51.46L33.1031 52.3434L33.118 52.3342L33.1326 52.3245L32.5562 51.46ZM29.6609 52.6304L29.4273 51.6179L29.4184 51.62L29.6609 52.6304ZM26.7041 53H25.665V54.0391H26.7041V53ZM28.6753 10.5565L29.4701 11.2258L29.4701 11.2258L28.6753 10.5565ZM37.3611 8.83168L36.8772 9.75116L36.8772 9.75116L37.3611 8.83168ZM39.1476 10.4333L38.2664 10.984L38.2785 11.0033L38.2913 11.022L39.1476 10.4333ZM40.0716 12.5894L39.0548 12.8034L39.0573 12.8148L40.0716 12.5894ZM40.1948 15.5462L39.5236 16.3395L40.5329 17.1935L41.1242 16.0109L40.1948 15.5462ZM36.8067 15.2382L37.3574 16.1194L37.3704 16.1113L37.3831 16.1028L36.8067 15.2382ZM36.0059 16.1007L35.0976 15.596L35.0866 15.6158L35.0765 15.636L36.0059 16.1007ZM35.6363 17.2711L34.614 17.0852L34.6057 17.1308L34.6015 17.177L35.6363 17.2711ZM40.9956 8.33887V7.2998H39.9566V8.33887H40.9956ZM47.587 10.5565L46.8624 11.3012L46.8676 11.3063L46.8729 11.3114L47.587 10.5565ZM47.8334 29.4682L47.0878 28.7445L47.0822 28.7502L47.0767 28.7561L47.8334 29.4682ZM43.0285 31.6859V32.7249H43.051L43.0736 32.7239L43.0285 31.6859ZM39.702 31.0698L39.218 31.9893L39.218 31.9893L39.702 31.0698ZM37.7923 29.5298L36.9361 30.1185L36.9574 30.1495L36.981 30.1789L37.7923 29.5298ZM36.8067 27.4354L35.8019 27.6998L35.8037 27.7066L35.8056 27.7134L36.8067 27.4354ZM36.4987 25.1561L37.1749 24.3672L35.4596 22.8969V25.1561H36.4987ZM37.2995 25.7105L36.8348 26.6399L36.9009 26.6729L36.9709 26.6962L37.2995 25.7105ZM40.6876 24.2321L39.7111 23.877L39.6964 23.9173L39.6852 23.9587L40.6876 24.2321ZM40.934 22.7536L39.8976 22.6796L39.8949 22.7166V22.7536H40.934ZM48.8806 53V54.0391H49.9197V53H48.8806ZM45.0613 52.692L44.8575 53.7109L44.8651 53.7124L45.0613 52.692ZM42.2276 51.5832L41.6614 52.4544L41.671 52.4606L41.6807 52.4666L42.2276 51.5832ZM40.1948 49.3655L41.0994 48.8542L41.0994 48.8542L40.1948 49.3655ZM39.394 32.6099V31.5708H38.3549V32.6099H39.394ZM43.4597 32.9795L43.2172 33.9899L43.2365 33.9945L43.2559 33.9984L43.4597 32.9795ZM46.1701 34.1499L45.5538 34.9864L45.5783 35.0045L45.6039 35.0211L46.1701 34.1499ZM48.1414 36.3676L49.0626 35.8869L49.0626 35.8869L48.1414 36.3676ZM35.5747 45.6078H34.5356C34.5356 46.9106 34.275 47.9007 33.8247 48.6404L34.7123 49.1807L35.5998 49.721C36.2994 48.5716 36.6137 47.1798 36.6137 45.6078H35.5747ZM34.7123 49.1807L33.8247 48.6404C33.3232 49.4643 32.7078 50.1101 31.9798 50.5954L32.5562 51.46L33.1326 52.3245C34.1295 51.6599 34.9514 50.7862 35.5998 49.721L34.7123 49.1807ZM32.5562 51.46L32.0093 50.5765C31.251 51.0459 30.3932 51.395 29.4273 51.6179L29.6609 52.6304L29.8946 53.6428C31.0642 53.3729 32.1366 52.9418 33.1031 52.3434L32.5562 51.46ZM29.6609 52.6304L29.4184 51.62C28.462 51.8496 27.558 51.9609 26.7041 51.9609V53V54.0391C27.7392 54.0391 28.8065 53.904 29.9034 53.6408L29.6609 52.6304ZM26.7041 53H27.7431V17.2095H26.7041H25.665V53H26.7041ZM26.7041 17.2095H27.7431C27.7431 14.4807 28.3675 12.5352 29.4701 11.2258L28.6753 10.5565L27.8805 9.88723C26.3548 11.699 25.665 14.1888 25.665 17.2095H26.7041ZM28.6753 10.5565L29.4701 11.2258C30.5458 9.94841 32.1151 9.25472 34.3426 9.25472V8.21566V7.1766C31.6421 7.1766 29.4331 8.04349 27.8805 9.88723L28.6753 10.5565ZM34.3426 8.21566V9.25472C35.4693 9.25472 36.2935 9.44396 36.8772 9.75116L37.3611 8.83168L37.8451 7.91219C36.8682 7.39804 35.6801 7.1766 34.3426 7.1766V8.21566ZM37.3611 8.83168L36.8772 9.75116C37.5176 10.0882 37.966 10.5034 38.2664 10.984L39.1476 10.4333L40.0287 9.88262C39.5077 9.04911 38.7652 8.39647 37.8451 7.91219L37.3611 8.83168ZM39.1476 10.4333L38.2913 11.022C38.6654 11.566 38.9188 12.1574 39.0548 12.8034L40.0716 12.5894L41.0884 12.3753C40.8958 11.4608 40.5333 10.6148 40.0038 9.84466L39.1476 10.4333ZM40.0716 12.5894L39.0573 12.8148C39.2065 13.4862 39.2789 14.1292 39.2789 14.7454H40.318H41.3571C41.3571 13.9654 41.2653 13.171 41.0859 12.364L40.0716 12.5894ZM40.318 14.7454H39.2789C39.2789 14.8952 39.2704 14.9987 39.2602 15.0648C39.2491 15.1369 39.2413 15.1298 39.2654 15.0816L40.1948 15.5462L41.1242 16.0109C41.3203 15.6186 41.3571 15.1449 41.3571 14.7454H40.318ZM40.1948 15.5462L40.866 14.753C40.1332 14.133 39.2549 13.8296 38.2851 13.8296V14.8686V15.9077C38.7938 15.9077 39.1886 16.056 39.5236 16.3395L40.1948 15.5462ZM38.2851 14.8686V13.8296C37.5407 13.8296 36.8249 13.9773 36.2303 14.3737L36.8067 15.2382L37.3831 16.1028C37.5278 16.0063 37.7976 15.9077 38.2851 15.9077V14.8686ZM36.8067 15.2382L36.256 14.3571C35.7649 14.664 35.3803 15.0871 35.0976 15.596L36.0059 16.1007L36.9142 16.6053C37.0421 16.375 37.1914 16.2231 37.3574 16.1194L36.8067 15.2382ZM36.0059 16.1007L35.0765 15.636C34.8588 16.0713 34.7095 16.5597 34.614 17.0852L35.6363 17.2711L36.6586 17.457C36.7273 17.079 36.8244 16.7871 36.9353 16.5653L36.0059 16.1007ZM35.6363 17.2711L34.6015 17.177C34.5573 17.6626 34.5356 18.1664 34.5356 18.6879H35.5747H36.6137C36.6137 18.2239 36.6331 17.7831 36.6711 17.3652L35.6363 17.2711ZM35.5747 18.6879H34.5356V45.6078H35.5747H36.6137V18.6879H35.5747ZM40.9956 8.33887V9.37793H41.7964V8.33887V7.2998H40.9956V8.33887ZM41.7964 8.33887V9.37793C43.8974 9.37793 45.5579 10.032 46.8624 11.3012L47.587 10.5565L48.3116 9.8118C46.5771 8.12418 44.3771 7.2998 41.7964 7.2998V8.33887ZM47.587 10.5565L46.8729 11.3114C48.1252 12.4959 48.8272 14.2796 48.8272 16.8399H49.8662H50.9053C50.9053 13.8971 50.0878 11.4919 48.301 9.80168L47.587 10.5565ZM49.8662 16.8399H48.8272V23.308H49.8662H50.9053V16.8399H49.8662ZM49.8662 23.308H48.8272C48.8272 25.8558 48.1913 27.6075 47.0878 28.7445L47.8334 29.4682L48.579 30.1919C50.1859 28.5363 50.9053 26.1812 50.9053 23.308H49.8662ZM47.8334 29.4682L47.0767 28.7561C45.9453 29.9582 44.5976 30.5776 42.9833 30.6478L43.0285 31.6859L43.0736 32.7239C45.2375 32.6299 47.0932 31.7708 48.59 30.1803L47.8334 29.4682ZM43.0285 31.6859V30.6468H42.5973V31.6859V32.7249H43.0285V31.6859ZM42.5973 31.6859V30.6468C41.5664 30.6468 40.7785 30.4623 40.1859 30.1504L39.702 31.0698L39.218 31.9893C40.186 32.4988 41.3283 32.7249 42.5973 32.7249V31.6859ZM39.702 31.0698L40.1859 30.1504C39.5173 29.7984 38.9972 29.3725 38.6037 28.8807L37.7923 29.5298L36.981 30.1789C37.5731 30.9191 38.3261 31.5199 39.218 31.9893L39.702 31.0698ZM37.7923 29.5298L38.6486 28.9411C38.2594 28.3751 37.9812 27.7813 37.8079 27.1573L36.8067 27.4354L35.8056 27.7134C36.0429 28.5678 36.4218 29.3704 36.9361 30.1185L37.7923 29.5298ZM36.8067 27.4354L37.8116 27.1709C37.6269 26.4691 37.5378 25.7983 37.5378 25.1561H36.4987H35.4596C35.4596 25.9923 35.5759 26.841 35.8019 27.6998L36.8067 27.4354ZM36.4987 25.1561L35.8225 25.945C36.1523 26.2277 36.4901 26.4675 36.8348 26.6399L37.2995 25.7105L37.7642 24.7811C37.6161 24.7071 37.4201 24.5773 37.1749 24.3672L36.4987 25.1561ZM37.2995 25.7105L36.9709 26.6962C37.4019 26.8399 38.0622 26.8728 38.778 26.8728V25.8337V24.7946C38.4246 24.7946 38.1477 24.7847 37.9402 24.7674C37.837 24.7588 37.7585 24.749 37.7013 24.7395C37.6412 24.7295 37.6212 24.7225 37.6281 24.7248L37.2995 25.7105ZM38.778 25.8337V26.8728C39.4978 26.8728 40.207 26.6749 40.7447 26.1372L40.01 25.4025L39.2753 24.6678C39.238 24.705 39.1259 24.7946 38.778 24.7946V25.8337ZM40.01 25.4025L40.7447 26.1372C41.2022 25.6798 41.5197 25.1302 41.6901 24.5055L40.6876 24.2321L39.6852 23.9587C39.6091 24.2374 39.4749 24.4681 39.2753 24.6678L40.01 25.4025ZM40.6876 24.2321L41.6641 24.5872C41.8741 24.0097 41.9731 23.3953 41.9731 22.7536H40.934H39.8949C39.8949 23.1797 39.8297 23.5509 39.7111 23.877L40.6876 24.2321ZM40.934 22.7536L41.9704 22.8277C42.0128 22.2344 42.0347 21.6957 42.0347 21.2136H40.9956H39.9566C39.9566 21.635 39.9374 22.1229 39.8976 22.6796L40.934 22.7536ZM40.9956 21.2136H42.0347V8.33887H40.9956H39.9566V21.2136H40.9956ZM48.8806 53V51.9609H48.2646V53V54.0391H48.8806V53ZM48.2646 53V51.9609C47.2639 51.9609 46.2618 51.8648 45.2575 51.6716L45.0613 52.692L44.8651 53.7124C45.9963 53.9299 47.1298 54.0391 48.2646 54.0391V53ZM45.0613 52.692L45.2651 51.6731C44.356 51.4913 43.5282 51.1662 42.7746 50.6997L42.2276 51.5832L41.6807 52.4666C42.6519 53.0679 43.7133 53.482 44.8575 53.7109L45.0613 52.692ZM42.2276 51.5832L42.7939 50.712C42.1272 50.2786 41.56 49.6693 41.0994 48.8542L40.1948 49.3655L39.2902 49.8768C39.8973 50.9509 40.6854 51.82 41.6614 52.4544L42.2276 51.5832ZM40.1948 49.3655L41.0994 48.8542C40.682 48.1158 40.433 47.0778 40.433 45.6694H39.394H38.3549C38.3549 47.3 38.6399 48.7261 39.2902 49.8768L40.1948 49.3655ZM39.394 45.6694H40.433V32.6099H39.394H38.3549V45.6694H39.394ZM39.394 32.6099V33.6489H40.3796V32.6099V31.5708H39.394V32.6099ZM40.3796 32.6099V33.6489C41.3223 33.6489 42.2677 33.762 43.2172 33.9899L43.4597 32.9795L43.7022 31.9691C42.5983 31.7042 41.4903 31.5708 40.3796 31.5708V32.6099ZM43.4597 32.9795L43.2559 33.9984C44.1455 34.1763 44.9056 34.5088 45.5538 34.9864L46.1701 34.1499L46.7865 33.3134C45.8741 32.6411 44.8272 32.1934 43.6635 31.9606L43.4597 32.9795ZM46.1701 34.1499L45.6039 35.0211C46.2623 35.4491 46.8026 36.0479 47.2202 36.8482L48.1414 36.3676L49.0626 35.8869C48.4945 34.7981 47.7207 33.9185 46.7364 33.2787L46.1701 34.1499ZM48.1414 36.3676L47.2202 36.8482C47.6115 37.5982 47.8416 38.6296 47.8416 40.0021H48.8806H49.9197C49.9197 38.4176 49.657 37.0261 49.0626 35.8869L48.1414 36.3676ZM48.8806 40.0021H47.8416V53H48.8806H49.9197V40.0021H48.8806Z" fill="#3504FB" mask="url(#path-2-outside-1_3_23)"/>
</g>
</g>
<defs>
<clipPath id="clip0_3_23">
<rect width="76" height="76" fill="white"/>
</clipPath>
<clipPath id="clip1_3_23">
<rect width="76" height="76" fill="white"/>
</clipPath>
</defs>
</svg>
