<svg width="57" height="57" viewBox="0 0 57 57" fill="none" xmlns="http://www.w3.org/2000/svg">
<g clip-path="url(#clip0_3_26)">
<g clip-path="url(#clip1_3_26)">
<path d="M0.630012 0.937864L55.9562 0.896153L28.2938 56.2432L0.630012 0.937864Z" fill="#3504FB" stroke="#3504FB" stroke-width="0.779297"/>
<mask id="path-2-outside-1_3_26" maskUnits="userSpaceOnUse" x="18.4484" y="5" width="20" height="36" fill="black">
<rect fill="white" x="18.4484" y="5" width="20" height="36"/>
<path d="M26.681 34.4559C26.681 35.5339 26.4654 36.4271 26.0342 37.1355C25.603 37.8439 25.064 38.4138 24.4171 38.845C23.7703 39.2454 23.0465 39.538 22.2457 39.7228C21.4757 39.9076 20.7365 40 20.028 40V13.1571C20.028 11.0011 20.5208 9.33782 21.5065 8.16739C22.4921 6.99696 23.9089 6.41175 25.757 6.41175C26.681 6.41175 27.4356 6.56575 28.0208 6.87376C28.6061 7.18177 29.0527 7.58218 29.3607 8.07499C29.6995 8.5678 29.9305 9.10682 30.0537 9.69203C30.1769 10.2464 30.2385 10.7855 30.2385 11.3091C30.2385 11.5863 30.2077 11.7865 30.1461 11.9097C29.7457 11.5709 29.2683 11.4015 28.7139 11.4015C28.2518 11.4015 27.8822 11.4939 27.605 11.6787C27.3586 11.8327 27.1584 12.0483 27.0044 12.3255C26.8812 12.5719 26.7888 12.8645 26.7272 13.2033C26.6964 13.5421 26.681 13.8963 26.681 14.2659V34.4559ZM30.7467 6.50415H31.3473C33.103 6.50415 34.5506 7.05856 35.6902 8.16739C36.8299 9.24542 37.3997 10.8163 37.3997 12.8799V17.731C37.3997 19.7639 36.8915 21.3039 35.875 22.3512C34.8894 23.3984 33.6882 23.9528 32.2713 24.0144H31.9479C31.0855 24.0144 30.3617 23.8604 29.7765 23.5524C29.1913 23.2444 28.7139 22.8594 28.3442 22.3974C28.0054 21.9045 27.759 21.3809 27.605 20.8265C27.451 20.2413 27.374 19.6715 27.374 19.1171C27.5896 19.3019 27.7898 19.4405 27.9746 19.5329C28.1594 19.5945 28.5291 19.6253 29.0835 19.6253C29.4839 19.6253 29.7919 19.5175 30.0075 19.3019C30.2539 19.0555 30.4233 18.7629 30.5157 18.4241C30.6389 18.0852 30.7005 17.7156 30.7005 17.3152C30.7313 16.884 30.7467 16.499 30.7467 16.1602V6.50415ZM36.6605 40H36.1984C35.3976 40 34.5968 39.923 33.796 39.769C33.026 39.615 32.3175 39.3378 31.6707 38.9374C31.0547 38.537 30.5465 37.9825 30.1461 37.2741C29.7457 36.5657 29.5455 35.6417 29.5455 34.5021V24.7074H30.2847C31.0547 24.7074 31.8247 24.7998 32.5948 24.9846C33.3648 25.1386 34.0424 25.4312 34.6276 25.8624C35.2436 26.2629 35.7364 26.8173 36.106 27.5257C36.4757 28.2341 36.6605 29.1427 36.6605 30.2516V40Z"/>
</mask>
<path d="M26.681 34.4559C26.681 35.5339 26.4654 36.4271 26.0342 37.1355C25.603 37.8439 25.064 38.4138 24.4171 38.845C23.7703 39.2454 23.0465 39.538 22.2457 39.7228C21.4757 39.9076 20.7365 40 20.028 40V13.1571C20.028 11.0011 20.5208 9.33782 21.5065 8.16739C22.4921 6.99696 23.9089 6.41175 25.757 6.41175C26.681 6.41175 27.4356 6.56575 28.0208 6.87376C28.6061 7.18177 29.0527 7.58218 29.3607 8.07499C29.6995 8.5678 29.9305 9.10682 30.0537 9.69203C30.1769 10.2464 30.2385 10.7855 30.2385 11.3091C30.2385 11.5863 30.2077 11.7865 30.1461 11.9097C29.7457 11.5709 29.2683 11.4015 28.7139 11.4015C28.2518 11.4015 27.8822 11.4939 27.605 11.6787C27.3586 11.8327 27.1584 12.0483 27.0044 12.3255C26.8812 12.5719 26.7888 12.8645 26.7272 13.2033C26.6964 13.5421 26.681 13.8963 26.681 14.2659V34.4559ZM30.7467 6.50415H31.3473C33.103 6.50415 34.5506 7.05856 35.6902 8.16739C36.8299 9.24542 37.3997 10.8163 37.3997 12.8799V17.731C37.3997 19.7639 36.8915 21.3039 35.875 22.3512C34.8894 23.3984 33.6882 23.9528 32.2713 24.0144H31.9479C31.0855 24.0144 30.3617 23.8604 29.7765 23.5524C29.1913 23.2444 28.7139 22.8594 28.3442 22.3974C28.0054 21.9045 27.759 21.3809 27.605 20.8265C27.451 20.2413 27.374 19.6715 27.374 19.1171C27.5896 19.3019 27.7898 19.4405 27.9746 19.5329C28.1594 19.5945 28.5291 19.6253 29.0835 19.6253C29.4839 19.6253 29.7919 19.5175 30.0075 19.3019C30.2539 19.0555 30.4233 18.7629 30.5157 18.4241C30.6389 18.0852 30.7005 17.7156 30.7005 17.3152C30.7313 16.884 30.7467 16.499 30.7467 16.1602V6.50415ZM36.6605 40H36.1984C35.3976 40 34.5968 39.923 33.796 39.769C33.026 39.615 32.3175 39.3378 31.6707 38.9374C31.0547 38.537 30.5465 37.9825 30.1461 37.2741C29.7457 36.5657 29.5455 35.6417 29.5455 34.5021V24.7074H30.2847C31.0547 24.7074 31.8247 24.7998 32.5948 24.9846C33.3648 25.1386 34.0424 25.4312 34.6276 25.8624C35.2436 26.2629 35.7364 26.8173 36.106 27.5257C36.4757 28.2341 36.6605 29.1427 36.6605 30.2516V40Z" fill="#FFFEFE"/>
<path d="M26.0342 37.1355L25.3685 36.7303L25.3685 36.7303L26.0342 37.1355ZM24.4171 38.845L24.8273 39.5076L24.8385 39.5007L24.8494 39.4934L24.4171 38.845ZM22.2457 39.7228L22.0705 38.9634L22.0638 38.965L22.2457 39.7228ZM20.028 40H19.2487V40.7793H20.028V40ZM21.5065 8.16739L22.1026 8.66937L22.1026 8.66936L21.5065 8.16739ZM28.0208 6.87376L27.6579 7.56337L27.6579 7.56337L28.0208 6.87376ZM29.3607 8.07499L28.6998 8.48801L28.7089 8.50245L28.7185 8.51648L29.3607 8.07499ZM30.0537 9.69203L29.2911 9.85258L29.293 9.86108L30.0537 9.69203ZM30.1461 11.9097L29.6427 12.5046L30.3997 13.1451L30.8431 12.2582L30.1461 11.9097ZM27.605 11.6787L28.0181 12.3395L28.0278 12.3335L28.0373 12.3271L27.605 11.6787ZM27.0044 12.3255L26.3232 11.947L26.315 11.9618L26.3074 11.977L27.0044 12.3255ZM26.7272 13.2033L25.9605 13.0639L25.9543 13.0981L25.9511 13.1328L26.7272 13.2033ZM30.7467 6.50415V5.72485H29.9674V6.50415H30.7467ZM35.6902 8.16739L35.1467 8.72599L35.1547 8.73353L35.6902 8.16739ZM35.875 22.3512L35.3158 21.8083L35.3076 21.817L35.875 22.3512ZM32.2713 24.0144V24.7937H32.2883L32.3052 24.793L32.2713 24.0144ZM29.7765 23.5524L29.4135 24.242L29.4135 24.242L29.7765 23.5524ZM28.3442 22.3974L27.7021 22.8388L27.7181 22.8621L27.7357 22.8842L28.3442 22.3974ZM27.605 20.8265L26.8513 21.0249L26.8542 21.0351L27.605 20.8265ZM27.374 19.1171L27.8812 18.5254L26.5947 17.4227V19.1171H27.374ZM27.9746 19.5329L27.6261 20.2299L27.6757 20.2547L27.7282 20.2722L27.9746 19.5329ZM30.5157 18.4241L29.7833 18.1577L29.7723 18.188L29.7639 18.219L30.5157 18.4241ZM30.7005 17.3152L29.9232 17.2597L29.9212 17.2874V17.3152H30.7005ZM36.6605 40V40.7793H37.4398V40H36.6605ZM33.796 39.769L33.6432 40.5332L33.6488 40.5343L33.796 39.769ZM31.6707 38.9374L31.246 39.5908L31.2532 39.5955L31.2605 39.6L31.6707 38.9374ZM30.1461 37.2741L30.8245 36.8907L30.8245 36.8907L30.1461 37.2741ZM29.5455 24.7074V23.9281H28.7662V24.7074H29.5455ZM32.5948 24.9846L32.4129 25.7424L32.4273 25.7459L32.4419 25.7488L32.5948 24.9846ZM34.6276 25.8624L34.1653 26.4898L34.1837 26.5034L34.2029 26.5158L34.6276 25.8624ZM36.106 27.5257L36.797 27.1652L36.797 27.1652L36.106 27.5257ZM26.681 34.4559H25.9017C25.9017 35.433 25.7062 36.1755 25.3685 36.7303L26.0342 37.1355L26.6999 37.5407C27.2246 36.6787 27.4603 35.6348 27.4603 34.4559H26.681ZM26.0342 37.1355L25.3685 36.7303C24.9924 37.3482 24.5308 37.8326 23.9849 38.1966L24.4171 38.845L24.8494 39.4934C25.5971 38.9949 26.2136 38.3397 26.6999 37.5407L26.0342 37.1355ZM24.4171 38.845L24.007 38.1824C23.4383 38.5344 22.7949 38.7963 22.0705 38.9635L22.2457 39.7228L22.4209 40.4821C23.2982 40.2797 24.1024 39.9563 24.8273 39.5076L24.4171 38.845ZM22.2457 39.7228L22.0638 38.965C21.3465 39.1372 20.6685 39.2207 20.028 39.2207V40V40.7793C20.8044 40.7793 21.6049 40.678 22.4276 40.4806L22.2457 39.7228ZM20.028 40H20.8073V13.1571H20.028H19.2487V40H20.028ZM20.028 13.1571H20.8073C20.8073 11.1105 21.2756 9.6514 22.1026 8.66937L21.5065 8.16739L20.9104 7.66542C19.7661 9.02424 19.2487 10.8916 19.2487 13.1571H20.028ZM21.5065 8.16739L22.1026 8.66936C22.9094 7.7113 24.0863 7.19104 25.757 7.19104V6.41175V5.63245C23.7315 5.63245 22.0748 6.28262 20.9104 7.66542L21.5065 8.16739ZM25.757 6.41175V7.19104C26.6019 7.19104 27.2201 7.33297 27.6579 7.56337L28.0208 6.87376L28.3838 6.18415C27.6511 5.79853 26.7601 5.63245 25.757 5.63245V6.41175ZM28.0208 6.87376L27.6579 7.56337C28.1382 7.81618 28.4745 8.12752 28.6998 8.48801L29.3607 8.07499L30.0215 7.66196C29.6308 7.03683 29.0739 6.54735 28.3838 6.18415L28.0208 6.87376ZM29.3607 8.07499L28.7185 8.51648C28.999 8.92451 29.1891 9.36804 29.2911 9.85257L30.0537 9.69203L30.8163 9.53149C30.6719 8.84559 30.3999 8.21109 30.0028 7.63349L29.3607 8.07499ZM30.0537 9.69203L29.293 9.86108C29.4049 10.3646 29.4592 10.8469 29.4592 11.3091H30.2385H31.0178C31.0178 10.724 30.9489 10.1283 30.8144 9.52298L30.0537 9.69203ZM30.2385 11.3091H29.4592C29.4592 11.4214 29.4528 11.499 29.4452 11.5486C29.4368 11.6027 29.431 11.5974 29.4491 11.5612L30.1461 11.9097L30.8431 12.2582C30.9903 11.9639 31.0178 11.6087 31.0178 11.3091H30.2385ZM30.1461 11.9097L30.6495 11.3148C30.0999 10.8498 29.4412 10.6222 28.7139 10.6222V11.4015V12.1808C29.0953 12.1808 29.3915 12.292 29.6427 12.5046L30.1461 11.9097ZM28.7139 11.4015V10.6222C28.1555 10.6222 27.6187 10.733 27.1728 11.0303L27.605 11.6787L28.0373 12.3271C28.1458 12.2548 28.3482 12.1808 28.7139 12.1808V11.4015ZM27.605 11.6787L27.192 11.0178C26.8237 11.248 26.5353 11.5653 26.3232 11.947L27.0044 12.3255L27.6856 12.704C27.7816 12.5313 27.8935 12.4173 28.0181 12.3395L27.605 11.6787ZM27.0044 12.3255L26.3074 11.977C26.1441 12.3035 26.0321 12.6698 25.9605 13.0639L26.7272 13.2033L27.4939 13.3427C27.5455 13.0593 27.6183 12.8403 27.7014 12.674L27.0044 12.3255ZM26.7272 13.2033L25.9511 13.1328C25.918 13.4969 25.9017 13.8748 25.9017 14.2659H26.681H27.4603C27.4603 13.9179 27.4748 13.5873 27.5033 13.2739L26.7272 13.2033ZM26.681 14.2659H25.9017V34.4559H26.681H27.4603V14.2659H26.681ZM30.7467 6.50415V7.28345H31.3473V6.50415V5.72485H30.7467V6.50415ZM31.3473 6.50415V7.28345C32.9231 7.28345 34.1684 7.77399 35.1468 8.72593L35.6902 8.16739L36.2337 7.60885C34.9328 6.34314 33.2829 5.72485 31.3473 5.72485V6.50415ZM35.6902 8.16739L35.1547 8.73353C36.0939 9.62193 36.6204 10.9597 36.6204 12.8799H37.3997H38.179C38.179 10.6728 37.5659 8.86891 36.2258 7.60126L35.6902 8.16739ZM37.3997 12.8799H36.6204V17.731H37.3997H38.179V12.8799H37.3997ZM37.3997 17.731H36.6204C36.6204 19.6418 36.1435 20.9557 35.3158 21.8084L35.875 22.3512L36.4342 22.8939C37.6394 21.6522 38.179 19.8859 38.179 17.731H37.3997ZM35.875 22.3512L35.3076 21.817C34.459 22.7187 33.4482 23.1832 32.2375 23.2358L32.2713 24.0144L32.3052 24.793C33.9281 24.7224 35.3199 24.0781 36.4425 22.8853L35.875 22.3512ZM32.2713 24.0144V23.2351H31.9479V24.0144V24.7937H32.2713V24.0144ZM31.9479 24.0144V23.2351C31.1748 23.2351 30.5839 23.0967 30.1394 22.8628L29.7765 23.5524L29.4135 24.242C30.1395 24.6241 30.9962 24.7937 31.9479 24.7937V24.0144ZM29.7765 23.5524L30.1394 22.8628C29.638 22.5988 29.2479 22.2794 28.9528 21.9105L28.3442 22.3974L27.7357 22.8842C28.1798 23.4393 28.7446 23.8899 29.4135 24.242L29.7765 23.5524ZM28.3442 22.3974L28.9864 21.9559C28.6945 21.5313 28.4859 21.086 28.3559 20.6179L27.605 20.8265L26.8542 21.0351C27.0322 21.6759 27.3163 22.2778 27.7021 22.8388L28.3442 22.3974ZM27.605 20.8265L28.3587 20.6282C28.2202 20.1018 28.1533 19.5987 28.1533 19.1171H27.374H26.5947C26.5947 19.7442 26.6819 20.3808 26.8514 21.0248L27.605 20.8265ZM27.374 19.1171L26.8669 19.7088C27.1142 19.9208 27.3676 20.1006 27.6261 20.2299L27.9746 19.5329L28.3232 18.8359C28.2121 18.7803 28.0651 18.683 27.8812 18.5254L27.374 19.1171ZM27.9746 19.5329L27.7282 20.2722C28.0514 20.3799 28.5466 20.4046 29.0835 20.4046V19.6253V18.846C28.8184 18.846 28.6107 18.8385 28.4552 18.8256C28.3777 18.8191 28.3189 18.8118 28.276 18.8046C28.2309 18.7971 28.2159 18.7918 28.2211 18.7936L27.9746 19.5329ZM29.0835 19.6253V20.4046C29.6233 20.4046 30.1553 20.2562 30.5585 19.8529L30.0075 19.3019L29.4564 18.7508C29.4285 18.7788 29.3444 18.846 29.0835 18.846V19.6253ZM30.0075 19.3019L30.5585 19.8529C30.9016 19.5098 31.1397 19.0977 31.2675 18.6291L30.5157 18.4241L29.7639 18.219C29.7069 18.428 29.6062 18.6011 29.4564 18.7508L30.0075 19.3019ZM30.5157 18.4241L31.2481 18.6904C31.4056 18.2573 31.4798 17.7965 31.4798 17.3152H30.7005H29.9212C29.9212 17.6348 29.8722 17.9132 29.7833 18.1577L30.5157 18.4241ZM30.7005 17.3152L31.4778 17.3707C31.5096 16.9258 31.526 16.5218 31.526 16.1602H30.7467H29.9674C29.9674 16.4763 29.953 16.8422 29.9232 17.2597L30.7005 17.3152ZM30.7467 16.1602H31.526V6.50415H30.7467H29.9674V16.1602H30.7467ZM36.6605 40V39.2207H36.1984V40V40.7793H36.6605V40ZM36.1984 40V39.2207C35.4479 39.2207 34.6964 39.1486 33.9432 39.0037L33.796 39.769L33.6488 40.5343C34.4972 40.6974 35.3473 40.7793 36.1984 40.7793V40ZM33.796 39.769L33.9488 39.0048C33.267 38.8685 32.6461 38.6247 32.0809 38.2748L31.6707 38.9374L31.2605 39.6C31.989 40.0509 32.785 40.3615 33.6432 40.5332L33.796 39.769ZM31.6707 38.9374L32.0954 38.284C31.5954 37.9589 31.17 37.502 30.8245 36.8907L30.1461 37.2741L29.4677 37.6576C29.923 38.4631 30.5141 39.115 31.246 39.5908L31.6707 38.9374ZM30.1461 37.2741L30.8245 36.8907C30.5115 36.3368 30.3248 35.5583 30.3248 34.5021H29.5455H28.7662C28.7662 35.725 28.9799 36.7946 29.4677 37.6576L30.1461 37.2741ZM29.5455 34.5021H30.3248V24.7074H29.5455H28.7662V34.5021H29.5455ZM29.5455 24.7074V25.4867H30.2847V24.7074V23.9281H29.5455V24.7074ZM30.2847 24.7074V25.4867C30.9917 25.4867 31.7007 25.5715 32.4129 25.7424L32.5948 24.9846L32.7766 24.2268C31.9487 24.0281 31.1177 23.9281 30.2847 23.9281V24.7074ZM32.5948 24.9846L32.4419 25.7488C33.1092 25.8822 33.6792 26.1316 34.1653 26.4898L34.6276 25.8624L35.0899 25.2351C34.4056 24.7308 33.6204 24.395 32.7476 24.2205L32.5948 24.9846ZM34.6276 25.8624L34.2029 26.5158C34.6967 26.8368 35.102 27.286 35.4151 27.8862L36.106 27.5257L36.797 27.1652C36.3709 26.3486 35.7905 25.6889 35.0523 25.209L34.6276 25.8624ZM36.106 27.5257L35.4151 27.8862C35.7086 28.4486 35.8812 29.2222 35.8812 30.2516H36.6605H37.4398C37.4398 29.0632 37.2427 28.0196 36.797 27.1652L36.106 27.5257ZM36.6605 30.2516H35.8812V40H36.6605H37.4398V30.2516H36.6605Z" fill="#3504FB" mask="url(#path-2-outside-1_3_26)"/>
</g>
</g>
<defs>
<clipPath id="clip0_3_26">
<rect width="57" height="57" fill="white"/>
</clipPath>
<clipPath id="clip1_3_26">
<rect width="57" height="57" fill="white"/>
</clipPath>
</defs>
</svg>
