<svg width="144" height="144" viewBox="0 0 144 144" fill="none" xmlns="http://www.w3.org/2000/svg">
<g clip-path="url(#clip0_3_13)">
<g clip-path="url(#clip1_3_13)">
<path d="M1.59253 1.10656L141.363 1.00118L71.4782 140.825L1.59253 1.10656Z" fill="#3504FB" stroke="#3504FB" stroke-width="1.96875"/>
<mask id="path-2-outside-1_3_13" maskUnits="userSpaceOnUse" x="48.0276" y="14" width="49" height="89" fill="black">
<rect fill="white" x="48.0276" y="14" width="49" height="89"/>
<path d="M67.4047 86.9937C67.4047 89.7172 66.86 91.9737 65.7706 93.7634C64.6812 95.5531 63.3195 96.9927 61.6855 98.082C60.0514 99.0936 58.2228 99.8328 56.1997 100.3C54.2544 100.767 52.3869 101 50.5972 101V33.1864C50.5972 27.7395 51.8422 23.5377 54.3322 20.5808C56.8222 17.6239 60.4016 16.1455 65.0703 16.1455C67.4047 16.1455 69.3111 16.5345 70.7895 17.3127C72.268 18.0908 73.3962 19.1023 74.1744 20.3473C75.0303 21.5923 75.6139 22.9541 75.9252 24.4325C76.2364 25.8331 76.392 27.1948 76.392 28.5177C76.392 29.218 76.3142 29.7237 76.1586 30.035C75.147 29.1791 73.9409 28.7511 72.5403 28.7511C71.3731 28.7511 70.4394 28.9845 69.7391 29.4514C69.1166 29.8405 68.6108 30.3852 68.2217 31.0855C67.9105 31.708 67.677 32.4472 67.5214 33.3031C67.4436 34.1591 67.4047 35.0539 67.4047 35.9877V86.9937ZM77.6759 16.3789H79.1933C83.6286 16.3789 87.2858 17.7795 90.1648 20.5808C93.0439 23.3042 94.4834 27.2727 94.4834 32.4861V44.7416C94.4834 49.8772 93.1995 53.7678 90.6317 56.4134C88.1417 59.0591 85.107 60.4597 81.5277 60.6153H80.7106C78.5319 60.6153 76.7033 60.2262 75.2248 59.4481C73.7464 58.67 72.5403 57.6973 71.6066 56.5302C70.7506 55.2852 70.1281 53.9623 69.7391 52.5617C69.35 51.0833 69.1555 49.6437 69.1555 48.2431C69.7001 48.71 70.2059 49.0602 70.6728 49.2936C71.1397 49.4492 72.0734 49.527 73.4741 49.527C74.4856 49.527 75.2637 49.2547 75.8084 48.71C76.4309 48.0875 76.8589 47.3483 77.0923 46.4923C77.4036 45.6364 77.5592 44.7027 77.5592 43.6911C77.637 42.6017 77.6759 41.6291 77.6759 40.7731V16.3789ZM92.6159 101H91.4487C89.4256 101 87.4025 100.805 85.3794 100.416C83.4341 100.027 81.6444 99.327 80.0103 98.3155C78.4541 97.3039 77.1701 95.9033 76.1586 94.1136C75.147 92.3239 74.6412 89.9895 74.6412 87.1105V62.3661H76.5087C78.4541 62.3661 80.3994 62.5995 82.3447 63.0664C84.29 63.4555 86.0019 64.1947 87.4803 65.2841C89.0366 66.2956 90.2816 67.6962 91.2153 69.4859C92.1491 71.2756 92.6159 73.5711 92.6159 76.3723V101Z"/>
</mask>
<path d="M67.4047 86.9937C67.4047 89.7172 66.86 91.9737 65.7706 93.7634C64.6812 95.5531 63.3195 96.9927 61.6855 98.082C60.0514 99.0936 58.2228 99.8328 56.1997 100.3C54.2544 100.767 52.3869 101 50.5972 101V33.1864C50.5972 27.7395 51.8422 23.5377 54.3322 20.5808C56.8222 17.6239 60.4016 16.1455 65.0703 16.1455C67.4047 16.1455 69.3111 16.5345 70.7895 17.3127C72.268 18.0908 73.3962 19.1023 74.1744 20.3473C75.0303 21.5923 75.6139 22.9541 75.9252 24.4325C76.2364 25.8331 76.392 27.1948 76.392 28.5177C76.392 29.218 76.3142 29.7237 76.1586 30.035C75.147 29.1791 73.9409 28.7511 72.5403 28.7511C71.3731 28.7511 70.4394 28.9845 69.7391 29.4514C69.1166 29.8405 68.6108 30.3852 68.2217 31.0855C67.9105 31.708 67.677 32.4472 67.5214 33.3031C67.4436 34.1591 67.4047 35.0539 67.4047 35.9877V86.9937ZM77.6759 16.3789H79.1933C83.6286 16.3789 87.2858 17.7795 90.1648 20.5808C93.0439 23.3042 94.4834 27.2727 94.4834 32.4861V44.7416C94.4834 49.8772 93.1995 53.7678 90.6317 56.4134C88.1417 59.0591 85.107 60.4597 81.5277 60.6153H80.7106C78.5319 60.6153 76.7033 60.2262 75.2248 59.4481C73.7464 58.67 72.5403 57.6973 71.6066 56.5302C70.7506 55.2852 70.1281 53.9623 69.7391 52.5617C69.35 51.0833 69.1555 49.6437 69.1555 48.2431C69.7001 48.71 70.2059 49.0602 70.6728 49.2936C71.1397 49.4492 72.0734 49.527 73.4741 49.527C74.4856 49.527 75.2637 49.2547 75.8084 48.71C76.4309 48.0875 76.8589 47.3483 77.0923 46.4923C77.4036 45.6364 77.5592 44.7027 77.5592 43.6911C77.637 42.6017 77.6759 41.6291 77.6759 40.7731V16.3789ZM92.6159 101H91.4487C89.4256 101 87.4025 100.805 85.3794 100.416C83.4341 100.027 81.6444 99.327 80.0103 98.3155C78.4541 97.3039 77.1701 95.9033 76.1586 94.1136C75.147 92.3239 74.6412 89.9895 74.6412 87.1105V62.3661H76.5087C78.4541 62.3661 80.3994 62.5995 82.3447 63.0664C84.29 63.4555 86.0019 64.1947 87.4803 65.2841C89.0366 66.2956 90.2816 67.6962 91.2153 69.4859C92.1491 71.2756 92.6159 73.5711 92.6159 76.3723V101Z" fill="#FFFEFE"/>
<path d="M65.7706 93.7634L64.0889 92.7398L64.0889 92.7398L65.7706 93.7634ZM61.6855 98.082L62.7217 99.756L62.7499 99.7385L62.7775 99.7201L61.6855 98.082ZM56.1997 100.3L55.757 98.3814L55.7486 98.3833L55.7402 98.3853L56.1997 100.3ZM50.5972 101H48.6284V102.969H50.5972V101ZM54.3322 20.5808L55.8381 21.8489L55.8381 21.8489L54.3322 20.5808ZM70.7895 17.3127L69.8726 19.0548L69.8726 19.0548L70.7895 17.3127ZM74.1744 20.3473L72.5049 21.3908L72.5277 21.4272L72.552 21.4627L74.1744 20.3473ZM75.9252 24.4325L73.9986 24.8381L74.0009 24.8488L74.0033 24.8596L75.9252 24.4325ZM76.1586 30.035L74.8869 31.5379L76.7992 33.156L77.9195 30.9154L76.1586 30.035ZM69.7391 29.4514L70.7825 31.1209L70.807 31.1056L70.8311 31.0895L69.7391 29.4514ZM68.2217 31.0855L66.5007 30.1294L66.4799 30.1668L66.4608 30.205L68.2217 31.0855ZM67.5214 33.3031L65.5844 32.9509L65.5687 33.0374L65.5607 33.1249L67.5214 33.3031ZM77.6759 16.3789V14.4102H75.7072V16.3789H77.6759ZM90.1648 20.5808L88.7919 21.9918L88.8019 22.0015L88.8119 22.011L90.1648 20.5808ZM90.6317 56.4134L89.219 55.0422L89.2084 55.0531L89.1981 55.0641L90.6317 56.4134ZM81.5277 60.6153V62.5841H81.5704L81.6132 62.5822L81.5277 60.6153ZM75.2248 59.4481L74.3079 61.1903L74.3079 61.1903L75.2248 59.4481ZM71.6066 56.5302L69.9842 57.6455L70.0246 57.7043L70.0692 57.76L71.6066 56.5302ZM69.7391 52.5617L67.8351 53.0628L67.8385 53.0757L67.8421 53.0886L69.7391 52.5617ZM69.1555 48.2431L70.4367 46.7483L67.1867 43.9626V48.2431H69.1555ZM70.6728 49.2936L69.7924 51.0545L69.9175 51.1171L70.0502 51.1613L70.6728 49.2936ZM77.0923 46.4923L75.2421 45.8195L75.2143 45.8959L75.193 45.9743L77.0923 46.4923ZM77.5592 43.6911L75.5955 43.5508L75.5905 43.6209V43.6911H77.5592ZM92.6159 101V102.969H94.5847V101H92.6159ZM85.3794 100.416L84.9933 102.347L85.0004 102.348L85.0076 102.35L85.3794 100.416ZM80.0103 98.3155L78.9374 99.9662L78.9556 99.978L78.974 99.9894L80.0103 98.3155ZM76.1586 94.1136L77.8725 93.1449L77.8725 93.1449L76.1586 94.1136ZM74.6412 62.3661V60.3973H72.6725V62.3661H74.6412ZM82.3447 63.0664L81.8852 64.9808L81.9217 64.9896L81.9586 64.9969L82.3447 63.0664ZM87.4803 65.2841L86.3124 66.869L86.3589 66.9033L86.4074 66.9347L87.4803 65.2841ZM91.2153 69.4859L92.9608 68.5753L92.9608 68.5753L91.2153 69.4859ZM67.4047 86.9937H65.4359C65.4359 89.4622 64.9421 91.3381 64.0889 92.7398L65.7706 93.7634L67.4523 94.7871C68.7779 92.6094 69.3734 89.9722 69.3734 86.9937H67.4047ZM65.7706 93.7634L64.0889 92.7398C63.1387 94.3008 61.9727 95.5244 60.5934 96.4439L61.6855 98.082L62.7775 99.7201C64.6664 98.4609 66.2238 96.8054 67.4523 94.7871L65.7706 93.7634ZM61.6855 98.082L60.6492 96.4081C59.2125 97.2975 57.5871 97.959 55.757 98.3814L56.1997 100.3L56.6424 102.218C58.8585 101.707 60.8903 100.89 62.7217 99.756L61.6855 98.082ZM56.1997 100.3L55.7402 98.3853C53.928 98.8202 52.2152 99.0312 50.5972 99.0312V101V102.969C52.5585 102.969 54.5807 102.713 56.6591 102.214L56.1997 100.3ZM50.5972 101H52.5659V33.1864H50.5972H48.6284V101H50.5972ZM50.5972 33.1864H52.5659C52.5659 28.0161 53.7489 24.3298 55.8381 21.8489L54.3322 20.5808L52.8263 19.3126C49.9355 22.7455 48.6284 27.463 48.6284 33.1864H50.5972ZM54.3322 20.5808L55.8381 21.8489C57.8763 19.4286 60.8497 18.1142 65.0703 18.1142V16.1455V14.1767C59.9534 14.1767 55.7681 15.8192 52.8263 19.3126L54.3322 20.5808ZM65.0703 16.1455V18.1142C67.205 18.1142 68.7667 18.4728 69.8726 19.0548L70.7895 17.3127L71.7065 15.5705C69.8555 14.5963 67.6044 14.1767 65.0703 14.1767V16.1455ZM70.7895 17.3127L69.8726 19.0548C71.0861 19.6935 71.9357 20.4801 72.5049 21.3908L74.1744 20.3473L75.8439 19.3039C74.8568 17.7246 73.4499 16.488 71.7065 15.5705L70.7895 17.3127ZM74.1744 20.3473L72.552 21.4627C73.2607 22.4935 73.7409 23.614 73.9986 24.8381L75.9252 24.4325L77.8517 24.0269C77.4869 22.2941 76.7999 20.6912 75.7967 19.232L74.1744 20.3473ZM75.9252 24.4325L74.0033 24.8596C74.286 26.1317 74.4233 27.35 74.4233 28.5177H76.392H78.3608C78.3608 27.0397 78.1868 25.5345 77.847 24.0054L75.9252 24.4325ZM76.392 28.5177H74.4233C74.4233 28.8013 74.4071 28.9976 74.3878 29.1229C74.3668 29.2595 74.352 29.246 74.3977 29.1545L76.1586 30.035L77.9195 30.9154C78.2912 30.172 78.3608 29.2745 78.3608 28.5177H76.392ZM76.1586 30.035L77.4303 28.5321C76.0419 27.3573 74.3778 26.7823 72.5403 26.7823V28.7511V30.7198C73.504 30.7198 74.2522 31.0008 74.8869 31.5379L76.1586 30.035ZM72.5403 28.7511V26.7823C71.1297 26.7823 69.7735 27.0623 68.647 27.8133L69.7391 29.4514L70.8311 31.0895C71.1053 30.9067 71.6165 30.7198 72.5403 30.7198V28.7511ZM69.7391 29.4514L68.6956 27.7819C67.7652 28.3634 67.0365 29.165 66.5007 30.1294L68.2217 31.0855L69.9427 32.0416C70.1851 31.6053 70.4679 31.3175 70.7825 31.1209L69.7391 29.4514ZM68.2217 31.0855L66.4608 30.205C66.0484 31.0299 65.7655 31.9552 65.5844 32.9509L67.5214 33.3031L69.4584 33.6553C69.5886 32.9392 69.7726 32.386 69.9826 31.9659L68.2217 31.0855ZM67.5214 33.3031L65.5607 33.1249C65.4771 34.0449 65.4359 34.9994 65.4359 35.9877H67.4047H69.3734C69.3734 35.1084 69.4101 34.2732 69.4821 33.4814L67.5214 33.3031ZM67.4047 35.9877H65.4359V86.9937H67.4047H69.3734V35.9877H67.4047ZM77.6759 16.3789V18.3477H79.1933V16.3789V14.4102H77.6759V16.3789ZM79.1933 16.3789V18.3477C83.1741 18.3477 86.3202 19.5869 88.7919 21.9918L90.1648 20.5808L91.5378 19.1697C88.2513 15.9721 84.083 14.4102 79.1933 14.4102V16.3789ZM90.1648 20.5808L88.8119 22.011C91.1845 24.2554 92.5147 27.635 92.5147 32.4861H94.4834H96.4522C96.4522 26.9103 94.9033 22.353 91.5178 19.1505L90.1648 20.5808ZM94.4834 32.4861H92.5147V44.7416H94.4834H96.4522V32.4861H94.4834ZM94.4834 44.7416H92.5147C92.5147 49.5688 91.3099 52.888 89.219 55.0422L90.6317 56.4134L92.0444 57.7846C95.0892 54.6476 96.4522 50.1855 96.4522 44.7416H94.4834ZM90.6317 56.4134L89.1981 55.0641C87.0543 57.3419 84.5008 58.5154 81.4421 58.6484L81.5277 60.6153L81.6132 62.5822C85.7132 62.4039 89.2292 60.7762 92.0654 57.7627L90.6317 56.4134ZM81.5277 60.6153V58.6466H80.7106V60.6153V62.5841H81.5277V60.6153ZM80.7106 60.6153V58.6466C78.7574 58.6466 77.2646 58.2969 76.1418 57.7059L75.2248 59.4481L74.3079 61.1903C76.1419 62.1556 78.3063 62.5841 80.7106 62.5841V60.6153ZM75.2248 59.4481L76.1418 57.7059C74.8749 57.0392 73.8894 56.2322 73.1439 55.3003L71.6066 56.5302L70.0692 57.76C71.1912 59.1625 72.6179 60.3008 74.3079 61.1903L75.2248 59.4481ZM71.6066 56.5302L73.2289 55.4148C72.4915 54.3423 71.9644 53.2172 71.636 52.0348L69.7391 52.5617L67.8421 53.0886C68.2918 54.7074 69.0097 56.2281 69.9842 57.6455L71.6066 56.5302ZM69.7391 52.5617L71.643 52.0607C71.2931 50.731 71.1242 49.46 71.1242 48.2431H69.1555H67.1867C67.1867 49.8275 67.4069 51.4356 67.8351 53.0628L69.7391 52.5617ZM69.1555 48.2431L67.8742 49.7379C68.4991 50.2735 69.1392 50.7279 69.7924 51.0545L70.6728 49.2936L71.5533 47.5327C71.2726 47.3924 70.9012 47.1465 70.4367 46.7483L69.1555 48.2431ZM70.6728 49.2936L70.0502 51.1613C70.8668 51.4335 72.1178 51.4958 73.4741 51.4958V49.527V47.5583C72.8045 47.5583 72.2798 47.5395 71.8868 47.5067C71.6911 47.4904 71.5425 47.4718 71.4342 47.4538C71.3202 47.4348 71.2823 47.4215 71.2954 47.4259L70.6728 49.2936ZM73.4741 49.527V51.4958C74.8379 51.4958 76.1818 51.1209 77.2005 50.1021L75.8084 48.71L74.4163 47.3179C74.3457 47.3885 74.1333 47.5583 73.4741 47.5583V49.527ZM75.8084 48.71L77.2005 50.1021C78.0673 49.2354 78.6689 48.1941 78.9917 47.0104L77.0923 46.4923L75.193 45.9743C75.0489 46.5024 74.7946 46.9396 74.4163 47.3179L75.8084 48.71ZM77.0923 46.4923L78.9426 47.1652C79.3404 46.071 79.528 44.9069 79.528 43.6911H77.5592H75.5905C75.5905 44.4985 75.4668 45.2018 75.2421 45.8195L77.0923 46.4923ZM77.5592 43.6911L79.523 43.8314C79.6032 42.7073 79.6447 41.6865 79.6447 40.7731H77.6759H75.7072C75.7072 41.5716 75.6708 42.4961 75.5955 43.5508L77.5592 43.6911ZM77.6759 40.7731H79.6447V16.3789H77.6759H75.7072V40.7731H77.6759ZM92.6159 101V99.0312H91.4487V101V102.969H92.6159V101ZM91.4487 101V99.0312C89.5527 99.0312 87.654 98.849 85.7512 98.4831L85.3794 100.416L85.0076 102.35C87.151 102.762 89.2986 102.969 91.4487 102.969V101ZM85.3794 100.416L85.7655 98.4859C84.0429 98.1414 82.4745 97.5255 81.0466 96.6415L80.0103 98.3155L78.974 99.9894C80.8142 101.129 82.8252 101.913 84.9933 102.347L85.3794 100.416ZM80.0103 98.3155L81.0833 96.6648C79.8199 95.8436 78.7454 94.6891 77.8725 93.1449L76.1586 94.1136L74.4447 95.0823C75.5949 97.1174 77.0882 98.7642 78.9374 99.9662L80.0103 98.3155ZM76.1586 94.1136L77.8725 93.1449C77.0817 91.7457 76.61 89.779 76.61 87.1105H74.6412H72.6725C72.6725 90.2001 73.2124 92.9021 74.4447 95.0823L76.1586 94.1136ZM74.6412 87.1105H76.61V62.3661H74.6412H72.6725V87.1105H74.6412ZM74.6412 62.3661V64.3348H76.5087V62.3661V60.3973H74.6412V62.3661ZM76.5087 62.3661V64.3348C78.295 64.3348 80.0861 64.549 81.8852 64.9808L82.3447 63.0664L82.8041 61.152C80.7126 60.6501 78.6132 60.3973 76.5087 60.3973V62.3661ZM82.3447 63.0664L81.9586 64.9969C83.6442 65.334 85.0844 65.9641 86.3124 66.869L87.4803 65.2841L88.6482 63.6991C86.9194 62.4253 84.9358 61.5769 82.7308 61.1359L82.3447 63.0664ZM87.4803 65.2841L86.4074 66.9347C87.655 67.7457 88.6787 68.8803 89.4698 70.3966L91.2153 69.4859L92.9608 68.5753C91.8844 66.5122 90.4182 64.8456 88.5533 63.6334L87.4803 65.2841ZM91.2153 69.4859L89.4698 70.3966C90.2112 71.8176 90.6472 73.772 90.6472 76.3723H92.6159H94.5847C94.5847 73.3702 94.0869 70.7337 92.9608 68.5753L91.2153 69.4859ZM92.6159 76.3723H90.6472V101H92.6159H94.5847V76.3723H92.6159Z" fill="#3504FB" mask="url(#path-2-outside-1_3_13)"/>
</g>
</g>
<defs>
<clipPath id="clip0_3_13">
<rect width="144" height="144" fill="white"/>
</clipPath>
<clipPath id="clip1_3_13">
<rect width="144" height="144" fill="white"/>
</clipPath>
</defs>
</svg>
