<svg width="114" height="114" viewBox="0 0 114 114" fill="none" xmlns="http://www.w3.org/2000/svg">
<g clip-path="url(#clip0_3_22)">
<g clip-path="url(#clip1_3_22)">
<path d="M1.26002 0.875759L111.912 0.792336L56.5876 111.487L1.26002 0.875759Z" fill="#3504FB" stroke="#3504FB" stroke-width="1.55859"/>
<mask id="path-2-outside-1_3_22" maskUnits="userSpaceOnUse" x="37.8969" y="11" width="39" height="71" fill="black">
<rect fill="white" x="37.8969" y="11" width="39" height="71"/>
<path d="M53.362 68.9117C53.362 71.0678 52.9308 72.8542 52.0684 74.2711C51.206 75.6879 50.1279 76.8275 48.8343 77.6899C47.5407 78.4908 46.093 79.076 44.4914 79.4456C42.9513 79.8152 41.4729 80 40.0561 80V26.3142C40.0561 22.0021 41.0417 18.6756 43.0129 16.3348C44.9842 13.9939 47.8179 12.8235 51.514 12.8235C53.362 12.8235 54.8713 13.1315 56.0417 13.7475C57.2121 14.3635 58.1053 15.1644 58.7213 16.15C59.399 17.1356 59.861 18.2136 60.1074 19.3841C60.3538 20.4929 60.477 21.5709 60.477 22.6181C60.477 23.1726 60.4154 23.573 60.2922 23.8194C59.4914 23.1418 58.5365 22.8029 57.4277 22.8029C56.5037 22.8029 55.7645 22.9878 55.2101 23.3574C54.7172 23.6654 54.3168 24.0966 54.0088 24.651C53.7624 25.1438 53.5776 25.729 53.4544 26.4066C53.3928 27.0843 53.362 27.7927 53.362 28.5319V68.9117ZM61.4934 13.0083H62.6946C66.2059 13.0083 69.1012 14.1171 71.3805 16.3348C73.6597 18.4908 74.7994 21.6325 74.7994 25.7598V35.4621C74.7994 39.5278 73.7829 42.6079 71.7501 44.7023C69.7788 46.7968 67.3764 47.9056 64.5427 48.0288H63.8959C62.171 48.0288 60.7234 47.7208 59.553 47.1048C58.3825 46.4887 57.4277 45.7187 56.6885 44.7947C56.0109 43.8091 55.5181 42.7619 55.2101 41.653C54.9021 40.4826 54.748 39.343 54.748 38.2341C55.1793 38.6037 55.5797 38.881 55.9493 39.0658C56.3189 39.189 57.0581 39.2506 58.1669 39.2506C58.9678 39.2506 59.5838 39.035 60.015 38.6037C60.5078 38.1109 60.8466 37.5257 61.0314 36.8481C61.2778 36.1705 61.401 35.4313 61.401 34.6304C61.4626 33.768 61.4934 32.998 61.4934 32.3204V13.0083ZM73.3209 80H72.3969C70.7953 80 69.1936 79.846 67.592 79.538C66.0519 79.23 64.6351 78.6756 63.3415 77.8747C62.1094 77.0739 61.093 75.9651 60.2922 74.5483C59.4914 73.1314 59.091 71.2834 59.091 69.0041V49.4148H60.5694C62.1094 49.4148 63.6495 49.5996 65.1895 49.9692C66.7296 50.2772 68.0848 50.8625 69.2552 51.7249C70.4872 52.5257 71.4729 53.6345 72.2121 55.0514C72.9513 56.4682 73.3209 58.2854 73.3209 60.5031V80Z"/>
</mask>
<path d="M53.362 68.9117C53.362 71.0678 52.9308 72.8542 52.0684 74.2711C51.206 75.6879 50.1279 76.8275 48.8343 77.6899C47.5407 78.4908 46.093 79.076 44.4914 79.4456C42.9513 79.8152 41.4729 80 40.0561 80V26.3142C40.0561 22.0021 41.0417 18.6756 43.0129 16.3348C44.9842 13.9939 47.8179 12.8235 51.514 12.8235C53.362 12.8235 54.8713 13.1315 56.0417 13.7475C57.2121 14.3635 58.1053 15.1644 58.7213 16.15C59.399 17.1356 59.861 18.2136 60.1074 19.3841C60.3538 20.4929 60.477 21.5709 60.477 22.6181C60.477 23.1726 60.4154 23.573 60.2922 23.8194C59.4914 23.1418 58.5365 22.8029 57.4277 22.8029C56.5037 22.8029 55.7645 22.9878 55.2101 23.3574C54.7172 23.6654 54.3168 24.0966 54.0088 24.651C53.7624 25.1438 53.5776 25.729 53.4544 26.4066C53.3928 27.0843 53.362 27.7927 53.362 28.5319V68.9117ZM61.4934 13.0083H62.6946C66.2059 13.0083 69.1012 14.1171 71.3805 16.3348C73.6597 18.4908 74.7994 21.6325 74.7994 25.7598V35.4621C74.7994 39.5278 73.7829 42.6079 71.7501 44.7023C69.7788 46.7968 67.3764 47.9056 64.5427 48.0288H63.8959C62.171 48.0288 60.7234 47.7208 59.553 47.1048C58.3825 46.4887 57.4277 45.7187 56.6885 44.7947C56.0109 43.8091 55.5181 42.7619 55.2101 41.653C54.9021 40.4826 54.748 39.343 54.748 38.2341C55.1793 38.6037 55.5797 38.881 55.9493 39.0658C56.3189 39.189 57.0581 39.2506 58.1669 39.2506C58.9678 39.2506 59.5838 39.035 60.015 38.6037C60.5078 38.1109 60.8466 37.5257 61.0314 36.8481C61.2778 36.1705 61.401 35.4313 61.401 34.6304C61.4626 33.768 61.4934 32.998 61.4934 32.3204V13.0083ZM73.3209 80H72.3969C70.7953 80 69.1936 79.846 67.592 79.538C66.0519 79.23 64.6351 78.6756 63.3415 77.8747C62.1094 77.0739 61.093 75.9651 60.2922 74.5483C59.4914 73.1314 59.091 71.2834 59.091 69.0041V49.4148H60.5694C62.1094 49.4148 63.6495 49.5996 65.1895 49.9692C66.7296 50.2772 68.0848 50.8625 69.2552 51.7249C70.4872 52.5257 71.4729 53.6345 72.2121 55.0514C72.9513 56.4682 73.3209 58.2854 73.3209 60.5031V80Z" fill="#FFFEFE"/>
<path d="M52.0684 74.2711L50.737 73.4607L50.737 73.4607L52.0684 74.2711ZM48.8343 77.6899L49.6547 79.0152L49.677 79.0013L49.6989 78.9868L48.8343 77.6899ZM44.4914 79.4456L44.1409 77.9268L44.1277 77.93L44.4914 79.4456ZM40.0561 80H38.4975V81.5586H40.0561V80ZM43.0129 16.3348L44.2051 17.3387L44.2051 17.3387L43.0129 16.3348ZM56.0417 13.7475L55.3158 15.1267L55.3158 15.1267L56.0417 13.7475ZM58.7213 16.15L57.3997 16.976L57.4177 17.0049L57.437 17.033L58.7213 16.15ZM60.1074 19.3841L58.5822 19.7051L58.584 19.7137L58.5859 19.7222L60.1074 19.3841ZM60.2922 23.8194L59.2854 25.0092L60.7993 26.2902L61.6862 24.5164L60.2922 23.8194ZM55.2101 23.3574L56.0361 24.679L56.0555 24.6669L56.0746 24.6542L55.2101 23.3574ZM54.0088 24.651L52.6464 23.8941L52.6299 23.9237L52.6148 23.954L54.0088 24.651ZM53.4544 26.4066L51.921 26.1278L51.9085 26.1963L51.9022 26.2655L53.4544 26.4066ZM61.4934 13.0083V11.4497H59.9348V13.0083H61.4934ZM71.3805 16.3348L70.2936 17.4519L70.3014 17.4595L70.3094 17.4671L71.3805 16.3348ZM71.7501 44.7023L70.6317 43.6168L70.6233 43.6254L70.6151 43.6341L71.7501 44.7023ZM64.5427 48.0288V49.5874H64.5766L64.6104 49.5859L64.5427 48.0288ZM59.553 47.1048L58.8271 48.484L58.8271 48.484L59.553 47.1048ZM56.6885 44.7947L55.4041 45.6777L55.4362 45.7242L55.4714 45.7684L56.6885 44.7947ZM55.2101 41.653L53.7028 42.0497L53.7055 42.0599L53.7083 42.0702L55.2101 41.653ZM54.748 38.2341L55.7624 37.0508L53.1895 34.8454V38.2341H54.748ZM55.9493 39.0658L55.2523 40.4598L55.3513 40.5093L55.4564 40.5444L55.9493 39.0658ZM61.0314 36.8481L59.5667 36.3155L59.5447 36.3759L59.5277 36.438L61.0314 36.8481ZM61.401 34.6304L59.8464 34.5194L59.8424 34.5749V34.6304H61.401ZM73.3209 80V81.5586H74.8795V80H73.3209ZM67.592 79.538L67.2863 81.0664L67.2976 81.0685L67.592 79.538ZM63.3415 77.8747L62.4921 79.1815L62.5065 79.1909L62.5211 79.2L63.3415 77.8747ZM60.2922 74.5483L61.649 73.7813L61.649 73.7813L60.2922 74.5483ZM59.091 49.4148V47.8562H57.5324V49.4148H59.091ZM65.1895 49.9692L64.8258 51.4848L64.8547 51.4917L64.8838 51.4976L65.1895 49.9692ZM69.2552 51.7249L68.3307 52.9796L68.3675 53.0068L68.4058 53.0317L69.2552 51.7249ZM72.2121 55.0514L73.5939 54.3304L73.5939 54.3304L72.2121 55.0514ZM53.362 68.9117H51.8034C51.8034 70.8659 51.4125 72.351 50.737 73.4607L52.0684 74.2711L53.3997 75.0814C54.4491 73.3575 54.9206 71.2696 54.9206 68.9117H53.362ZM52.0684 74.2711L50.737 73.4607C49.9848 74.6965 49.0617 75.6652 47.9697 76.3931L48.8343 77.6899L49.6989 78.9868C51.1942 77.9899 52.4271 76.6793 53.3997 75.0814L52.0684 74.2711ZM48.8343 77.6899L48.0139 76.3647C46.8765 77.0688 45.5898 77.5926 44.1409 77.9269L44.4914 79.4456L44.8419 80.9643C46.5963 80.5594 48.2048 79.9127 49.6547 79.0152L48.8343 77.6899ZM44.4914 79.4456L44.1277 77.93C42.693 78.2744 41.337 78.4414 40.0561 78.4414V80V81.5586C41.6088 81.5586 43.2097 81.356 44.8551 80.9611L44.4914 79.4456ZM40.0561 80H41.6147V26.3142H40.0561H38.4975V80H40.0561ZM40.0561 26.3142H41.6147C41.6147 22.2211 42.5512 19.3028 44.2051 17.3387L43.0129 16.3348L41.8208 15.3308C39.5322 18.0485 38.4975 21.7832 38.4975 26.3142H40.0561ZM43.0129 16.3348L44.2051 17.3387C45.8187 15.4226 48.1727 14.3821 51.514 14.3821V12.8235V11.2649C47.4631 11.2649 44.1497 12.5652 41.8208 15.3308L43.0129 16.3348ZM51.514 12.8235V14.3821C53.2039 14.3821 54.4402 14.6659 55.3158 15.1267L56.0417 13.7475L56.7676 12.3683C55.3023 11.5971 53.5201 11.2649 51.514 11.2649V12.8235ZM56.0417 13.7475L55.3158 15.1267C56.2764 15.6324 56.949 16.255 57.3997 16.976L58.7213 16.15L60.043 15.3239C59.2616 14.0737 58.1478 13.0947 56.7676 12.3683L56.0417 13.7475ZM58.7213 16.15L57.437 17.033C57.998 17.849 58.3782 18.7361 58.5822 19.7051L60.1074 19.3841L61.6325 19.063C61.3437 17.6912 60.7999 16.4222 60.0057 15.267L58.7213 16.15ZM60.1074 19.3841L58.5859 19.7222C58.8097 20.7293 58.9184 21.6938 58.9184 22.6181H60.477H62.0356C62.0356 21.4481 61.8979 20.2565 61.6289 19.046L60.1074 19.3841ZM60.477 22.6181H58.9184C58.9184 22.8427 58.9056 22.9981 58.8903 23.0973C58.8737 23.2054 58.8619 23.1948 58.8981 23.1223L60.2922 23.8194L61.6862 24.5164C61.9805 23.9279 62.0356 23.2173 62.0356 22.6181H60.477ZM60.2922 23.8194L61.2989 22.6296C60.1998 21.6995 58.8824 21.2444 57.4277 21.2444V22.8029V24.3615C58.1907 24.3615 58.7829 24.584 59.2854 25.0092L60.2922 23.8194ZM57.4277 22.8029V21.2444C56.311 21.2444 55.2373 21.466 54.3455 22.0605L55.2101 23.3574L56.0746 24.6542C56.2916 24.5095 56.6964 24.3615 57.4277 24.3615V22.8029ZM55.2101 23.3574L54.384 22.0357C53.6474 22.496 53.0705 23.1306 52.6464 23.8941L54.0088 24.651L55.3713 25.4079C55.5632 25.0625 55.7871 24.8347 56.0361 24.679L55.2101 23.3574ZM54.0088 24.651L52.6148 23.954C52.2883 24.607 52.0643 25.3395 51.921 26.1278L53.4544 26.4066L54.9879 26.6854C55.0909 26.1185 55.2366 25.6806 55.4029 25.348L54.0088 24.651ZM53.4544 26.4066L51.9022 26.2655C51.836 26.9939 51.8034 27.7496 51.8034 28.5319H53.362H54.9206C54.9206 27.8358 54.9496 27.1746 55.0066 26.5477L53.4544 26.4066ZM53.362 28.5319H51.8034V68.9117H53.362H54.9206V28.5319H53.362ZM61.4934 13.0083V14.5669H62.6946V13.0083V11.4497H61.4934V13.0083ZM62.6946 13.0083V14.5669C65.8462 14.5669 68.3368 15.548 70.2936 17.4519L71.3805 16.3348L72.4674 15.2177C69.8656 12.6863 66.5657 11.4497 62.6946 11.4497V13.0083ZM71.3805 16.3348L70.3094 17.4671C72.1877 19.2439 73.2408 21.9194 73.2408 25.7598H74.7994H76.358C76.358 21.3457 75.1317 17.7378 72.4515 15.2025L71.3805 16.3348ZM74.7994 25.7598H73.2408V35.4621H74.7994H76.358V25.7598H74.7994ZM74.7994 35.4621H73.2408C73.2408 39.2837 72.287 41.9113 70.6317 43.6168L71.7501 44.7023L72.8685 45.7878C75.2789 43.3044 76.358 39.7719 76.358 35.4621H74.7994ZM71.7501 44.7023L70.6151 43.6341C68.9179 45.4374 66.8965 46.3664 64.475 46.4717L64.5427 48.0288L64.6104 49.5859C67.8563 49.4448 70.6397 48.1562 72.885 45.7705L71.7501 44.7023ZM64.5427 48.0288V46.4702H63.8959V48.0288V49.5874H64.5427V48.0288ZM63.8959 48.0288V46.4702C62.3496 46.4702 61.1678 46.1934 60.2789 45.7255L59.553 47.1048L58.8271 48.484C60.279 49.2482 61.9925 49.5874 63.8959 49.5874V48.0288ZM59.553 47.1048L60.2789 45.7255C59.2759 45.1977 58.4958 44.5588 57.9056 43.8211L56.6885 44.7947L55.4714 45.7684C56.3597 46.8786 57.4891 47.7798 58.8271 48.484L59.553 47.1048ZM56.6885 44.7947L57.9728 43.9117C57.3891 43.0626 56.9718 42.172 56.7118 41.2359L55.2101 41.653L53.7083 42.0702C54.0643 43.3517 54.6327 44.5555 55.4041 45.6777L56.6885 44.7947ZM55.2101 41.653L56.7173 41.2564C56.4403 40.2037 56.3066 39.1975 56.3066 38.2341H54.748H53.1895C53.1895 39.4884 53.3638 40.7615 53.7028 42.0497L55.2101 41.653ZM54.748 38.2341L53.7337 39.4175C54.2284 39.8415 54.7352 40.2013 55.2523 40.4598L55.9493 39.0658L56.6463 37.6717C56.4242 37.5606 56.1301 37.366 55.7624 37.0508L54.748 38.2341ZM55.9493 39.0658L55.4564 40.5444C56.1029 40.7599 57.0933 40.8092 58.1669 40.8092V39.2506V37.692C57.6369 37.692 57.2215 37.6771 56.9103 37.6512C56.7555 37.6382 56.6378 37.6235 56.552 37.6092C56.4618 37.5942 56.4318 37.5837 56.4422 37.5871L55.9493 39.0658ZM58.1669 39.2506V40.8092C59.2466 40.8092 60.3105 40.5124 61.1171 39.7058L60.015 38.6037L58.9129 37.5017C58.857 37.5575 58.6889 37.692 58.1669 37.692V39.2506ZM60.015 38.6037L61.1171 39.7058C61.8032 39.0197 62.2795 38.1954 62.5351 37.2582L61.0314 36.8481L59.5277 36.438C59.4137 36.8561 59.2123 37.2022 58.9129 37.5017L60.015 38.6037ZM61.0314 36.8481L62.4962 37.3807C62.8111 36.5146 62.9596 35.5929 62.9596 34.6304H61.401H59.8424C59.8424 35.2696 59.7445 35.8264 59.5667 36.3155L61.0314 36.8481ZM61.401 34.6304L62.9557 34.7415C63.0192 33.8516 63.052 33.0435 63.052 32.3204H61.4934H59.9348C59.9348 32.9525 59.906 33.6844 59.8464 34.5194L61.401 34.6304ZM61.4934 32.3204H63.052V13.0083H61.4934H59.9348V32.3204H61.4934ZM73.3209 80V78.4414H72.3969V80V81.5586H73.3209V80ZM72.3969 80V78.4414C70.8958 78.4414 69.3927 78.2971 67.8863 78.0074L67.592 79.538L67.2976 81.0685C68.9945 81.3949 70.6947 81.5586 72.3969 81.5586V80ZM67.592 79.538L67.8976 78.0097C66.5339 77.7369 65.2923 77.2493 64.1618 76.5495L63.3415 77.8747L62.5211 79.2C63.9779 80.1018 65.5699 80.723 67.2863 81.0663L67.592 79.538ZM63.3415 77.8747L64.1909 76.568C63.1908 75.9179 62.3401 75.0039 61.649 73.7813L60.2922 74.5483L58.9353 75.3152C59.846 76.9263 61.0281 78.23 62.4921 79.1815L63.3415 77.8747ZM60.2922 74.5483L61.649 73.7813C61.023 72.6737 60.6496 71.1167 60.6496 69.0041H59.091H57.5324C57.5324 71.4501 57.9598 73.5892 58.9353 75.3152L60.2922 74.5483ZM59.091 69.0041H60.6496V49.4148H59.091H57.5324V69.0041H59.091ZM59.091 49.4148V50.9734H60.5694V49.4148V47.8562H59.091V49.4148ZM60.5694 49.4148V50.9734C61.9835 50.9734 63.4015 51.143 64.8258 51.4848L65.1895 49.9692L65.5532 48.4537C63.8975 48.0563 62.2354 47.8562 60.5694 47.8562V49.4148ZM65.1895 49.9692L64.8838 51.4976C66.2183 51.7645 67.3584 52.2633 68.3307 52.9796L69.2552 51.7249L70.1798 50.4701C68.8111 49.4617 67.2408 48.79 65.4952 48.4409L65.1895 49.9692ZM69.2552 51.7249L68.4058 53.0317C69.3935 53.6737 70.204 54.5719 70.8303 55.7723L72.2121 55.0514L73.5939 54.3304C72.7418 52.6971 71.581 51.3777 70.1046 50.4181L69.2552 51.7249ZM72.2121 55.0514L70.8303 55.7723C71.4172 56.8972 71.7623 58.4445 71.7623 60.5031H73.3209H74.8795C74.8795 58.1264 74.4854 56.0392 73.5939 54.3304L72.2121 55.0514ZM73.3209 60.5031H71.7623V80H73.3209H74.8795V60.5031H73.3209Z" fill="#3504FB" mask="url(#path-2-outside-1_3_22)"/>
</g>
</g>
<defs>
<clipPath id="clip0_3_22">
<rect width="114" height="114" fill="white"/>
</clipPath>
<clipPath id="clip1_3_22">
<rect width="114" height="114" fill="white"/>
</clipPath>
</defs>
</svg>
