<svg width="96" height="96" viewBox="0 0 96 96" fill="none" xmlns="http://www.w3.org/2000/svg">
<g clip-path="url(#clip0_3_17)">
<rect width="96" height="96" fill="white"/>
<g clip-path="url(#clip1_3_17)">
<path d="M1.06136 0.738072L94.242 0.667821L47.6521 93.8836L1.06136 0.738072Z" fill="#3504FB" stroke="#3504FB" stroke-width="1.3125"/>
<mask id="path-2-outside-1_3_17" maskUnits="userSpaceOnUse" x="32.0184" y="9" width="33" height="60" fill="black">
<rect fill="white" x="32.0184" y="9" width="33" height="60"/>
<path d="M44.9365 57.6625C44.9365 59.4781 44.5733 60.9825 43.8471 62.1756C43.1208 63.3687 42.213 64.3284 41.1236 65.0547C40.0343 65.7291 38.8152 66.2219 37.4665 66.5331C36.1696 66.8444 34.9246 67 33.7315 67V21.7909C33.7315 18.1597 34.5615 15.3584 36.2215 13.3872C37.8815 11.4159 40.2677 10.4303 43.3802 10.4303C44.9365 10.4303 46.2074 10.6897 47.193 11.2084C48.1786 11.7272 48.9308 12.4016 49.4496 13.2316C50.0202 14.0616 50.4093 14.9694 50.6168 15.955C50.8243 16.8887 50.928 17.7966 50.928 18.6784C50.928 19.1453 50.8761 19.4825 50.7724 19.69C50.098 19.1194 49.294 18.8341 48.3602 18.8341C47.5821 18.8341 46.9596 18.9897 46.4927 19.3009C46.0777 19.5603 45.7405 19.9234 45.4811 20.3903C45.2736 20.8053 45.118 21.2981 45.0143 21.8687C44.9624 22.4394 44.9365 23.0359 44.9365 23.6584V57.6625ZM51.784 10.5859H52.7955C55.7524 10.5859 58.1905 11.5197 60.1099 13.3872C62.0293 15.2028 62.989 17.8484 62.989 21.3241V29.4944C62.989 32.9181 62.133 35.5119 60.4211 37.2756C58.7611 39.0394 56.738 39.9731 54.3518 40.0769H53.8071C52.3546 40.0769 51.1355 39.8175 50.1499 39.2987C49.1643 38.78 48.3602 38.1316 47.7377 37.3534C47.1671 36.5234 46.7521 35.6416 46.4927 34.7078C46.2333 33.7222 46.1036 32.7625 46.1036 31.8287C46.4668 32.14 46.804 32.3734 47.1152 32.5291C47.4265 32.6328 48.049 32.6847 48.9827 32.6847C49.6571 32.6847 50.1758 32.5031 50.539 32.14C50.954 31.725 51.2393 31.2322 51.3949 30.6616C51.6024 30.0909 51.7061 29.4684 51.7061 28.7941C51.758 28.0678 51.784 27.4194 51.784 26.8487V10.5859ZM61.744 67H60.9658C59.6171 67 58.2683 66.8703 56.9196 66.6109C55.6227 66.3516 54.4296 65.8847 53.3402 65.2103C52.3027 64.5359 51.4468 63.6022 50.7724 62.4091C50.098 61.2159 49.7608 59.6597 49.7608 57.7403V41.2441H51.0058C52.3027 41.2441 53.5996 41.3997 54.8965 41.7109C56.1933 41.9703 57.3346 42.4631 58.3202 43.1894C59.3577 43.8637 60.1877 44.7975 60.8102 45.9906C61.4327 47.1837 61.744 48.7141 61.744 50.5816V67Z"/>
</mask>
<path d="M44.9365 57.6625C44.9365 59.4781 44.5733 60.9825 43.8471 62.1756C43.1208 63.3687 42.213 64.3284 41.1236 65.0547C40.0343 65.7291 38.8152 66.2219 37.4665 66.5331C36.1696 66.8444 34.9246 67 33.7315 67V21.7909C33.7315 18.1597 34.5615 15.3584 36.2215 13.3872C37.8815 11.4159 40.2677 10.4303 43.3802 10.4303C44.9365 10.4303 46.2074 10.6897 47.193 11.2084C48.1786 11.7272 48.9308 12.4016 49.4496 13.2316C50.0202 14.0616 50.4093 14.9694 50.6168 15.955C50.8243 16.8887 50.928 17.7966 50.928 18.6784C50.928 19.1453 50.8761 19.4825 50.7724 19.69C50.098 19.1194 49.294 18.8341 48.3602 18.8341C47.5821 18.8341 46.9596 18.9897 46.4927 19.3009C46.0777 19.5603 45.7405 19.9234 45.4811 20.3903C45.2736 20.8053 45.118 21.2981 45.0143 21.8687C44.9624 22.4394 44.9365 23.0359 44.9365 23.6584V57.6625ZM51.784 10.5859H52.7955C55.7524 10.5859 58.1905 11.5197 60.1099 13.3872C62.0293 15.2028 62.989 17.8484 62.989 21.3241V29.4944C62.989 32.9181 62.133 35.5119 60.4211 37.2756C58.7611 39.0394 56.738 39.9731 54.3518 40.0769H53.8071C52.3546 40.0769 51.1355 39.8175 50.1499 39.2987C49.1643 38.78 48.3602 38.1316 47.7377 37.3534C47.1671 36.5234 46.7521 35.6416 46.4927 34.7078C46.2333 33.7222 46.1036 32.7625 46.1036 31.8287C46.4668 32.14 46.804 32.3734 47.1152 32.5291C47.4265 32.6328 48.049 32.6847 48.9827 32.6847C49.6571 32.6847 50.1758 32.5031 50.539 32.14C50.954 31.725 51.2393 31.2322 51.3949 30.6616C51.6024 30.0909 51.7061 29.4684 51.7061 28.7941C51.758 28.0678 51.784 27.4194 51.784 26.8487V10.5859ZM61.744 67H60.9658C59.6171 67 58.2683 66.8703 56.9196 66.6109C55.6227 66.3516 54.4296 65.8847 53.3402 65.2103C52.3027 64.5359 51.4468 63.6022 50.7724 62.4091C50.098 61.2159 49.7608 59.6597 49.7608 57.7403V41.2441H51.0058C52.3027 41.2441 53.5996 41.3997 54.8965 41.7109C56.1933 41.9703 57.3346 42.4631 58.3202 43.1894C59.3577 43.8637 60.1877 44.7975 60.8102 45.9906C61.4327 47.1837 61.744 48.7141 61.744 50.5816V67Z" fill="#FFFEFE"/>
<path d="M43.8471 62.1756L42.7259 61.4932L42.7259 61.4932L43.8471 62.1756ZM41.1236 65.0547L41.8145 66.1707L41.8333 66.159L41.8517 66.1468L41.1236 65.0547ZM37.4665 66.5331L37.1713 65.2542L37.1602 65.2569L37.4665 66.5331ZM33.7315 67H32.419V68.3125H33.7315V67ZM36.2215 13.3872L37.2254 14.2326L37.2254 14.2326L36.2215 13.3872ZM47.193 11.2084L46.5817 12.3699L46.5817 12.3699L47.193 11.2084ZM49.4496 13.2316L48.3366 13.9272L48.3518 13.9515L48.368 13.9751L49.4496 13.2316ZM50.6168 15.955L49.3324 16.2254L49.3339 16.2326L49.3355 16.2397L50.6168 15.955ZM50.7724 19.69L49.9246 20.6919L51.1995 21.7707L51.9463 20.277L50.7724 19.69ZM46.4927 19.3009L47.1883 20.4139L47.2047 20.4037L47.2207 20.393L46.4927 19.3009ZM45.4811 20.3903L44.3338 19.7529L44.32 19.7778L44.3072 19.8033L45.4811 20.3903ZM45.0143 21.8687L43.7229 21.634L43.7125 21.6916L43.7072 21.7499L45.0143 21.8687ZM51.784 10.5859V9.27344H50.4715V10.5859H51.784ZM60.1099 13.3872L59.1946 14.3279L59.2012 14.3343L59.2079 14.3407L60.1099 13.3872ZM60.4211 37.2756L59.4793 36.3615L59.4723 36.3687L59.4654 36.3761L60.4211 37.2756ZM54.3518 40.0769V41.3894H54.3803L54.4088 41.3881L54.3518 40.0769ZM50.1499 39.2987L49.5386 40.4602L49.5386 40.4602L50.1499 39.2987ZM47.7377 37.3534L46.6561 38.097L46.6831 38.1362L46.7128 38.1733L47.7377 37.3534ZM46.4927 34.7078L45.2234 35.0418L45.2257 35.0505L45.2281 35.0591L46.4927 34.7078ZM46.1036 31.8287L46.9578 30.8322L44.7911 28.9751V31.8287H46.1036ZM47.1152 32.5291L46.5282 33.703L46.6117 33.7447L46.7002 33.7742L47.1152 32.5291ZM51.3949 30.6616L50.1614 30.213L50.1429 30.2639L50.1286 30.3162L51.3949 30.6616ZM51.7061 28.7941L50.397 28.7005L50.3936 28.7472V28.7941H51.7061ZM61.744 67V68.3125H63.0565V67H61.744ZM56.9196 66.6109L56.6622 67.898L56.6717 67.8998L56.9196 66.6109ZM53.3402 65.2103L52.6249 66.3108L52.637 66.3187L52.6494 66.3263L53.3402 65.2103ZM50.7724 62.4091L51.915 61.7632L51.915 61.7632L50.7724 62.4091ZM49.7608 41.2441V39.9316H48.4483V41.2441H49.7608ZM54.8965 41.7109L54.5902 42.9872L54.6145 42.993L54.6391 42.9979L54.8965 41.7109ZM58.3202 43.1894L57.5416 44.246L57.5726 44.2688L57.6049 44.2898L58.3202 43.1894ZM60.8102 45.9906L61.9738 45.3835L61.9738 45.3835L60.8102 45.9906ZM44.9365 57.6625H43.624C43.624 59.3081 43.2948 60.5587 42.7259 61.4932L43.8471 62.1756L44.9682 62.8581C45.8519 61.4063 46.249 59.6481 46.249 57.6625H44.9365ZM43.8471 62.1756L42.7259 61.4932C42.0925 62.5339 41.3151 63.3496 40.3956 63.9626L41.1236 65.0547L41.8517 66.1468C43.1109 65.3073 44.1492 64.2036 44.9682 62.8581L43.8471 62.1756ZM41.1236 65.0547L40.4328 63.9387C39.475 64.5317 38.3914 64.9727 37.1713 65.2542L37.4665 66.5331L37.7616 67.812C39.239 67.4711 40.5936 66.9265 41.8145 66.1707L41.1236 65.0547ZM37.4665 66.5331L37.1602 65.2569C35.952 65.5468 34.8101 65.6875 33.7315 65.6875V67V68.3125C35.039 68.3125 36.3872 68.1419 37.7728 67.8094L37.4665 66.5331ZM33.7315 67H35.044V21.7909H33.7315H32.419V67H33.7315ZM33.7315 21.7909H35.044C35.044 18.3441 35.8326 15.8866 37.2254 14.2326L36.2215 13.3872L35.2175 12.5418C33.2903 14.8303 32.419 17.9753 32.419 21.7909H33.7315ZM36.2215 13.3872L37.2254 14.2326C38.5842 12.619 40.5665 11.7428 43.3802 11.7428V10.4303V9.11781C39.9689 9.11781 37.1787 10.2128 35.2175 12.5418L36.2215 13.3872ZM43.3802 10.4303V11.7428C44.8033 11.7428 45.8444 11.9818 46.5817 12.3699L47.193 11.2084L47.8043 10.047C46.5703 9.39752 45.0696 9.11781 43.3802 9.11781V10.4303ZM47.193 11.2084L46.5817 12.3699C47.3907 12.7957 47.9571 13.32 48.3366 13.9272L49.4496 13.2316L50.5626 12.5359C49.9045 11.4831 48.9666 10.6587 47.8043 10.047L47.193 11.2084ZM49.4496 13.2316L48.368 13.9751C48.8405 14.6623 49.1606 15.4093 49.3324 16.2254L50.6168 15.955L51.9011 15.6846C51.6579 14.5294 51.1999 13.4608 50.5311 12.488L49.4496 13.2316ZM50.6168 15.955L49.3355 16.2397C49.524 17.0878 49.6155 17.9 49.6155 18.6784H50.928H52.2405C52.2405 17.6931 52.1245 16.6897 51.898 15.6703L50.6168 15.955ZM50.928 18.6784H49.6155C49.6155 18.8676 49.6047 18.9984 49.5919 19.0819C49.5779 19.173 49.568 19.164 49.5985 19.103L50.7724 19.69L51.9463 20.277C52.1941 19.7814 52.2405 19.183 52.2405 18.6784H50.928ZM50.7724 19.69L51.6202 18.6881C50.6946 17.9049 49.5852 17.5216 48.3602 17.5216V18.8341V20.1466C49.0027 20.1466 49.5014 20.3339 49.9246 20.6919L50.7724 19.69ZM48.3602 18.8341V17.5216C47.4198 17.5216 46.5157 17.7082 45.7647 18.2089L46.4927 19.3009L47.2207 20.393C47.4035 20.2712 47.7443 20.1466 48.3602 20.1466V18.8341ZM46.4927 19.3009L45.7971 18.1879C45.1768 18.5756 44.691 19.11 44.3338 19.7529L45.4811 20.3903L46.6285 21.0277C46.7901 20.7369 46.9786 20.545 47.1883 20.4139L46.4927 19.3009ZM45.4811 20.3903L44.3072 19.8033C44.0322 20.3533 43.8436 20.9701 43.7229 21.634L45.0143 21.8687L46.3056 22.1035C46.3924 21.6261 46.515 21.2573 46.6551 20.9773L45.4811 20.3903ZM45.0143 21.8687L43.7072 21.7499C43.6514 22.3633 43.624 22.9996 43.624 23.6584H44.9365H46.249C46.249 23.0722 46.2734 22.5155 46.3214 21.9876L45.0143 21.8687ZM44.9365 23.6584H43.624V57.6625H44.9365H46.249V23.6584H44.9365ZM51.784 10.5859V11.8984H52.7955V10.5859V9.27344H51.784V10.5859ZM52.7955 10.5859V11.8984C55.4494 11.8984 57.5468 12.7246 59.1946 14.3279L60.1099 13.3872L61.0252 12.4465C58.8342 10.3148 56.0554 9.27344 52.7955 9.27344V10.5859ZM60.1099 13.3872L59.2079 14.3407C60.7897 15.8369 61.6765 18.09 61.6765 21.3241H62.989H64.3015C64.3015 17.6069 63.2688 14.5687 61.0118 12.4337L60.1099 13.3872ZM62.989 21.3241H61.6765V29.4944H62.989H64.3015V21.3241H62.989ZM62.989 29.4944H61.6765C61.6765 32.7126 60.8733 34.9253 59.4793 36.3615L60.4211 37.2756L61.363 38.1897C63.3928 36.0984 64.3015 33.1237 64.3015 29.4944H62.989ZM60.4211 37.2756L59.4654 36.3761C58.0362 37.8946 56.3339 38.677 54.2948 38.7656L54.3518 40.0769L54.4088 41.3881C57.1422 41.2693 59.4861 40.1841 61.3769 38.1752L60.4211 37.2756ZM54.3518 40.0769V38.7644H53.8071V40.0769V41.3894H54.3518V40.0769ZM53.8071 40.0769V38.7644C52.505 38.7644 51.5098 38.5313 50.7612 38.1373L50.1499 39.2987L49.5386 40.4602C50.7613 41.1037 52.2042 41.3894 53.8071 41.3894V40.0769ZM50.1499 39.2987L50.7612 38.1373C49.9166 37.6928 49.2596 37.1548 48.7626 36.5335L47.7377 37.3534L46.7128 38.1733C47.4608 39.1083 48.4119 39.8672 49.5386 40.4602L50.1499 39.2987ZM47.7377 37.3534L48.8193 36.6099C48.3277 35.8948 47.9763 35.1448 47.7573 34.3565L46.4927 34.7078L45.2281 35.0591C45.5279 36.1383 46.0065 37.152 46.6561 38.097L47.7377 37.3534ZM46.4927 34.7078L47.762 34.3738C47.5287 33.4873 47.4161 32.64 47.4161 31.8287H46.1036H44.7911C44.7911 32.885 44.938 33.9571 45.2234 35.0418L46.4927 34.7078ZM46.1036 31.8287L45.2495 32.8253C45.6661 33.1823 46.0928 33.4853 46.5282 33.703L47.1152 32.5291L47.7022 31.3551C47.5151 31.2616 47.2675 31.0977 46.9578 30.8322L46.1036 31.8287ZM47.1152 32.5291L46.7002 33.7742C47.2445 33.9557 48.0786 33.9972 48.9827 33.9972V32.6847V31.3722C48.5363 31.3722 48.1865 31.3596 47.9245 31.3378C47.7941 31.3269 47.695 31.3145 47.6228 31.3025C47.5468 31.2898 47.5215 31.281 47.5303 31.2839L47.1152 32.5291ZM48.9827 32.6847V33.9972C49.8919 33.9972 50.7878 33.7473 51.467 33.0681L50.539 32.14L49.6109 31.2119C49.5638 31.259 49.4222 31.3722 48.9827 31.3722V32.6847ZM50.539 32.14L51.467 33.0681C52.0449 32.4903 52.4459 31.7961 52.6611 31.0069L51.3949 30.6616L50.1286 30.3162C50.0326 30.6683 49.8631 30.9597 49.6109 31.2119L50.539 32.14ZM51.3949 30.6616L52.6284 31.1101C52.8936 30.3807 53.0186 29.6046 53.0186 28.7941H51.7061H50.3936C50.3936 29.3323 50.3112 29.8012 50.1614 30.213L51.3949 30.6616ZM51.7061 28.7941L53.0153 28.8876C53.0688 28.1382 53.0965 27.4577 53.0965 26.8487H51.784H50.4715C50.4715 27.3811 50.4472 27.9974 50.397 28.7005L51.7061 28.7941ZM51.784 26.8487H53.0965V10.5859H51.784H50.4715V26.8487H51.784ZM61.744 67V65.6875H60.9658V67V68.3125H61.744V67ZM60.9658 67V65.6875C59.7018 65.6875 58.436 65.566 57.1674 65.3221L56.9196 66.6109L56.6717 67.8998C58.1007 68.1746 59.5324 68.3125 60.9658 68.3125V67ZM56.9196 66.6109L57.177 65.3239C56.0286 65.0942 54.983 64.6836 54.031 64.0943L53.3402 65.2103L52.6494 66.3263C53.8762 67.0857 55.2168 67.6089 56.6622 67.8979L56.9196 66.6109ZM53.3402 65.2103L54.0555 64.1099C53.2133 63.5624 52.4969 62.7928 51.915 61.7632L50.7724 62.4091L49.6298 63.0549C50.3966 64.4116 51.3921 65.5095 52.6249 66.3108L53.3402 65.2103ZM50.7724 62.4091L51.915 61.7632C51.3878 60.8304 51.0733 59.5193 51.0733 57.7403H49.7608H48.4483C48.4483 59.8001 48.8083 61.6014 49.6298 63.0549L50.7724 62.4091ZM49.7608 57.7403H51.0733V41.2441H49.7608H48.4483V57.7403H49.7608ZM49.7608 41.2441V42.5566H51.0058V41.2441V39.9316H49.7608V41.2441ZM51.0058 41.2441V42.5566C52.1966 42.5566 53.3907 42.6993 54.5902 42.9872L54.8965 41.7109L55.2028 40.4347C53.8084 40.1 52.4088 39.9316 51.0058 39.9316V41.2441ZM54.8965 41.7109L54.6391 42.9979C55.7628 43.2227 56.7229 43.6427 57.5416 44.246L58.3202 43.1894L59.0988 42.1327C57.9463 41.2835 56.6239 40.7179 55.1539 40.4239L54.8965 41.7109ZM58.3202 43.1894L57.6049 44.2898C58.4366 44.8305 59.1192 45.5869 59.6466 46.5977L60.8102 45.9906L61.9738 45.3835C61.2563 44.0081 60.2788 42.897 59.0355 42.0889L58.3202 43.1894ZM60.8102 45.9906L59.6466 46.5977C60.1408 47.545 60.4315 48.848 60.4315 50.5816H61.744H63.0565C63.0565 48.5801 62.7246 46.8225 61.9738 45.3835L60.8102 45.9906ZM61.744 50.5816H60.4315V67H61.744H63.0565V50.5816H61.744Z" fill="#3504FB" mask="url(#path-2-outside-1_3_17)"/>
</g>
</g>
<defs>
<clipPath id="clip0_3_17">
<rect width="96" height="96" fill="white"/>
</clipPath>
<clipPath id="clip1_3_17">
<rect width="96" height="96" fill="white"/>
</clipPath>
</defs>
</svg>
