<svg width="32" height="32" viewBox="0 0 32 32" fill="none" xmlns="http://www.w3.org/2000/svg">
<g clip-path="url(#clip0_3_20)">
<rect width="32" height="32" fill="white"/>
<g clip-path="url(#clip1_3_20)">
<path d="M0.354108 0.246349L31.4137 0.222933L15.8844 31.2952L0.354108 0.246349Z" fill="#3504FB" stroke="#3504FB" stroke-width="0.4375"/>
<mask id="path-2-outside-1_3_20" maskUnits="userSpaceOnUse" x="10.6728" y="2" width="11" height="21" fill="black">
<rect fill="white" x="10.6728" y="2" width="11" height="21"/>
<path d="M14.9788 18.8875C14.9788 19.4927 14.8578 19.9942 14.6157 20.3919C14.3736 20.7896 14.071 21.1095 13.7079 21.3516C13.3448 21.5764 12.9384 21.7406 12.4888 21.8444C12.0565 21.9481 11.6415 22 11.2438 22V6.93031C11.2438 5.7199 11.5205 4.78615 12.0738 4.12906C12.6271 3.47198 13.4226 3.14344 14.4601 3.14344C14.9788 3.14344 15.4025 3.22989 15.731 3.40281C16.0595 3.57573 16.3103 3.80052 16.4832 4.07719C16.6734 4.35385 16.8031 4.65646 16.8723 4.985C16.9414 5.29625 16.976 5.59885 16.976 5.89281C16.976 6.04844 16.9587 6.16083 16.9241 6.23C16.6993 6.03979 16.4313 5.94469 16.1201 5.94469C15.8607 5.94469 15.6532 5.99656 15.4976 6.10031C15.3592 6.18677 15.2468 6.30781 15.1604 6.46344C15.0912 6.60177 15.0393 6.76604 15.0048 6.95625C14.9875 7.14646 14.9788 7.34531 14.9788 7.55281V18.8875ZM17.2613 3.19531H17.5985C18.5841 3.19531 19.3968 3.50656 20.0366 4.12906C20.6764 4.73427 20.9963 5.61614 20.9963 6.77469V9.49812C20.9963 10.6394 20.711 11.504 20.1404 12.0919C19.587 12.6798 18.9127 12.991 18.1173 13.0256H17.9357C17.4515 13.0256 17.0452 12.9392 16.7166 12.7662C16.3881 12.5933 16.1201 12.3772 15.9126 12.1178C15.7224 11.8411 15.584 11.5472 15.4976 11.2359C15.4111 10.9074 15.3679 10.5875 15.3679 10.2762C15.4889 10.38 15.6013 10.4578 15.7051 10.5097C15.8088 10.5443 16.0163 10.5616 16.3276 10.5616C16.5524 10.5616 16.7253 10.501 16.8463 10.38C16.9846 10.2417 17.0798 10.0774 17.1316 9.88719C17.2008 9.69698 17.2354 9.48948 17.2354 9.26469C17.2527 9.0226 17.2613 8.80646 17.2613 8.61625V3.19531ZM20.5813 22H20.3219C19.8724 22 19.4228 21.9568 18.9732 21.8703C18.5409 21.7839 18.1432 21.6282 17.7801 21.4034C17.4342 21.1786 17.1489 20.8674 16.9241 20.4697C16.6993 20.072 16.5869 19.5532 16.5869 18.9134V13.4147H17.0019C17.4342 13.4147 17.8665 13.4666 18.2988 13.5703C18.7311 13.6568 19.1115 13.821 19.4401 14.0631C19.7859 14.2879 20.0626 14.5992 20.2701 14.9969C20.4776 15.3946 20.5813 15.9047 20.5813 16.5272V22Z"/>
</mask>
<path d="M14.9788 18.8875C14.9788 19.4927 14.8578 19.9942 14.6157 20.3919C14.3736 20.7896 14.071 21.1095 13.7079 21.3516C13.3448 21.5764 12.9384 21.7406 12.4888 21.8444C12.0565 21.9481 11.6415 22 11.2438 22V6.93031C11.2438 5.7199 11.5205 4.78615 12.0738 4.12906C12.6271 3.47198 13.4226 3.14344 14.4601 3.14344C14.9788 3.14344 15.4025 3.22989 15.731 3.40281C16.0595 3.57573 16.3103 3.80052 16.4832 4.07719C16.6734 4.35385 16.8031 4.65646 16.8723 4.985C16.9414 5.29625 16.976 5.59885 16.976 5.89281C16.976 6.04844 16.9587 6.16083 16.9241 6.23C16.6993 6.03979 16.4313 5.94469 16.1201 5.94469C15.8607 5.94469 15.6532 5.99656 15.4976 6.10031C15.3592 6.18677 15.2468 6.30781 15.1604 6.46344C15.0912 6.60177 15.0393 6.76604 15.0048 6.95625C14.9875 7.14646 14.9788 7.34531 14.9788 7.55281V18.8875ZM17.2613 3.19531H17.5985C18.5841 3.19531 19.3968 3.50656 20.0366 4.12906C20.6764 4.73427 20.9963 5.61614 20.9963 6.77469V9.49812C20.9963 10.6394 20.711 11.504 20.1404 12.0919C19.587 12.6798 18.9127 12.991 18.1173 13.0256H17.9357C17.4515 13.0256 17.0452 12.9392 16.7166 12.7662C16.3881 12.5933 16.1201 12.3772 15.9126 12.1178C15.7224 11.8411 15.584 11.5472 15.4976 11.2359C15.4111 10.9074 15.3679 10.5875 15.3679 10.2762C15.4889 10.38 15.6013 10.4578 15.7051 10.5097C15.8088 10.5443 16.0163 10.5616 16.3276 10.5616C16.5524 10.5616 16.7253 10.501 16.8463 10.38C16.9846 10.2417 17.0798 10.0774 17.1316 9.88719C17.2008 9.69698 17.2354 9.48948 17.2354 9.26469C17.2527 9.0226 17.2613 8.80646 17.2613 8.61625V3.19531ZM20.5813 22H20.3219C19.8724 22 19.4228 21.9568 18.9732 21.8703C18.5409 21.7839 18.1432 21.6282 17.7801 21.4034C17.4342 21.1786 17.1489 20.8674 16.9241 20.4697C16.6993 20.072 16.5869 19.5532 16.5869 18.9134V13.4147H17.0019C17.4342 13.4147 17.8665 13.4666 18.2988 13.5703C18.7311 13.6568 19.1115 13.821 19.4401 14.0631C19.7859 14.2879 20.0626 14.5992 20.2701 14.9969C20.4776 15.3946 20.5813 15.9047 20.5813 16.5272V22Z" fill="#FFFEFE"/>
<path d="M14.6157 20.3919L14.242 20.1644L14.242 20.1644L14.6157 20.3919ZM13.7079 21.3516L13.9382 21.7236L13.9444 21.7197L13.9506 21.7156L13.7079 21.3516ZM12.4888 21.8444L12.3904 21.4181L12.3867 21.419L12.4888 21.8444ZM11.2438 22H10.8063V22.4375H11.2438V22ZM12.0738 4.12906L12.4085 4.41087L12.4085 4.41087L12.0738 4.12906ZM15.731 3.40281L15.5272 3.78996L15.5272 3.78996L15.731 3.40281ZM16.4832 4.07719L16.1122 4.30906L16.1173 4.31717L16.1227 4.32504L16.4832 4.07719ZM16.8723 4.985L16.4441 5.07513L16.4452 5.07991L16.8723 4.985ZM16.9241 6.23L16.6415 6.56398L17.0665 6.92356L17.3154 6.42565L16.9241 6.23ZM15.4976 6.10031L15.7295 6.47147L15.7402 6.46433L15.4976 6.10031ZM15.1604 6.46344L14.7779 6.25097L14.7733 6.25928L14.7691 6.26778L15.1604 6.46344ZM15.0048 6.95625L14.5743 6.87799L14.5708 6.8972L14.5691 6.91664L15.0048 6.95625ZM17.2613 3.19531V2.75781H16.8238V3.19531H17.2613ZM20.0366 4.12906L19.7315 4.44266L19.736 4.44689L20.0366 4.12906ZM20.1404 12.0919L19.8264 11.7871L19.8218 11.792L20.1404 12.0919ZM18.1173 13.0256V13.4631H18.1268L18.1363 13.4627L18.1173 13.0256ZM16.7166 12.7662L16.5129 13.1534L16.5129 13.1534L16.7166 12.7662ZM15.9126 12.1178L15.552 12.3657L15.561 12.3787L15.5709 12.3911L15.9126 12.1178ZM15.4976 11.2359L15.0744 11.3473L15.076 11.353L15.4976 11.2359ZM15.3679 10.2762L15.6526 9.94407L14.9304 9.32503V10.2762H15.3679ZM15.7051 10.5097L15.5094 10.901L15.5372 10.9149L15.5667 10.9247L15.7051 10.5097ZM16.8463 10.38L16.537 10.0706L16.8463 10.38ZM17.1316 9.88719L16.7205 9.73767L16.7143 9.75465L16.7095 9.77207L17.1316 9.88719ZM17.2354 9.26469L16.799 9.23352L16.7979 9.24908V9.26469H17.2354ZM20.5813 22V22.4375H21.0188V22H20.5813ZM18.9732 21.8703L18.8874 22.2993L18.8906 22.2999L18.9732 21.8703ZM17.7801 21.4034L17.5416 21.7703L17.5498 21.7754L17.7801 21.4034ZM16.9241 20.4697L17.305 20.2544L17.305 20.2544L16.9241 20.4697ZM16.5869 13.4147V12.9772H16.1494V13.4147H16.5869ZM18.2988 13.5703L18.1967 13.9957L18.2048 13.9977L18.213 13.9993L18.2988 13.5703ZM19.4401 14.0631L19.1805 14.4153L19.1909 14.4229L19.2016 14.4299L19.4401 14.0631ZM20.2701 14.9969L20.6579 14.7945L20.6579 14.7945L20.2701 14.9969ZM14.9788 18.8875H14.5413C14.5413 19.436 14.4316 19.8529 14.242 20.1644L14.6157 20.3919L14.9894 20.6194C15.284 20.1354 15.4163 19.5494 15.4163 18.8875H14.9788ZM14.6157 20.3919L14.242 20.1644C14.0308 20.5113 13.7717 20.7832 13.4652 20.9875L13.7079 21.3516L13.9506 21.7156C14.3703 21.4358 14.7164 21.0679 14.9894 20.6194L14.6157 20.3919ZM13.7079 21.3516L13.4776 20.9796C13.1583 21.1772 12.7971 21.3242 12.3904 21.4181L12.4888 21.8444L12.5872 22.2707C13.0797 22.157 13.5312 21.9755 13.9382 21.7236L13.7079 21.3516ZM12.4888 21.8444L12.3867 21.419C11.984 21.5156 11.6034 21.5625 11.2438 21.5625V22V22.4375C11.6797 22.4375 12.129 22.3806 12.5909 22.2698L12.4888 21.8444ZM11.2438 22H11.6813V6.93031H11.2438H10.8063V22H11.2438ZM11.2438 6.93031H11.6813C11.6813 5.78135 11.9442 4.96219 12.4085 4.41087L12.0738 4.12906L11.7392 3.84725C11.0968 4.6101 10.8063 5.65844 10.8063 6.93031H11.2438ZM12.0738 4.12906L12.4085 4.41087C12.8614 3.87301 13.5222 3.58094 14.4601 3.58094V3.14344V2.70594C13.323 2.70594 12.3929 3.07094 11.7392 3.84725L12.0738 4.12906ZM14.4601 3.14344V3.58094C14.9344 3.58094 15.2815 3.66062 15.5272 3.78996L15.731 3.40281L15.9348 3.01566C15.5234 2.79917 15.0232 2.70594 14.4601 2.70594V3.14344ZM15.731 3.40281L15.5272 3.78996C15.7969 3.93189 15.9857 4.10668 16.1122 4.30906L16.4832 4.07719L16.8542 3.84531C16.6348 3.49436 16.3222 3.21957 15.9348 3.01566L15.731 3.40281ZM16.4832 4.07719L16.1227 4.32504C16.2802 4.55411 16.3869 4.80311 16.4441 5.07513L16.8723 4.985L17.3004 4.89487C17.2193 4.50981 17.0666 4.1536 16.8437 3.82933L16.4832 4.07719ZM16.8723 4.985L16.4452 5.07991C16.508 5.3626 16.5385 5.63334 16.5385 5.89281H16.976H17.4135C17.4135 5.56437 17.3748 5.2299 17.2993 4.89009L16.8723 4.985ZM16.976 5.89281H16.5385C16.5385 5.95585 16.5349 5.99946 16.5306 6.0273C16.526 6.05766 16.5227 6.05467 16.5328 6.03434L16.9241 6.23L17.3154 6.42565C17.398 6.26045 17.4135 6.061 17.4135 5.89281H16.976ZM16.9241 6.23L17.2067 5.89602C16.8982 5.63495 16.5284 5.50719 16.1201 5.50719V5.94469V6.38219C16.3342 6.38219 16.5005 6.44463 16.6415 6.56398L16.9241 6.23ZM16.1201 5.94469V5.50719C15.8066 5.50719 15.5052 5.5694 15.2549 5.73629L15.4976 6.10031L15.7402 6.46433C15.8012 6.42372 15.9148 6.38219 16.1201 6.38219V5.94469ZM15.4976 6.10031L15.2657 5.72931C15.0589 5.85854 14.897 6.03667 14.7779 6.25097L15.1604 6.46344L15.5428 6.67591C15.5967 6.57895 15.6595 6.515 15.7294 6.47131L15.4976 6.10031ZM15.1604 6.46344L14.7691 6.26778C14.6774 6.45109 14.6145 6.6567 14.5743 6.87799L15.0048 6.95625L15.4352 7.03451C15.4641 6.87538 15.505 6.75245 15.5517 6.65909L15.1604 6.46344ZM15.0048 6.95625L14.5691 6.91664C14.5505 7.12109 14.5413 7.33321 14.5413 7.55281H14.9788H15.4163C15.4163 7.35742 15.4245 7.17183 15.4405 6.99586L15.0048 6.95625ZM14.9788 7.55281H14.5413V18.8875H14.9788H15.4163V7.55281H14.9788ZM17.2613 3.19531V3.63281H17.5985V3.19531V2.75781H17.2613V3.19531ZM17.5985 3.19531V3.63281C18.4831 3.63281 19.1823 3.90821 19.7315 4.44263L20.0366 4.12906L20.3417 3.81549C19.6114 3.10492 18.6851 2.75781 17.5985 2.75781V3.19531ZM20.0366 4.12906L19.736 4.44689C20.2632 4.94564 20.5588 5.69666 20.5588 6.77469H20.9963H21.4338C21.4338 5.53563 21.0896 4.5229 20.3373 3.81123L20.0366 4.12906ZM20.9963 6.77469H20.5588V9.49812H20.9963H21.4338V6.77469H20.9963ZM20.9963 9.49812H20.5588C20.5588 10.5709 20.2911 11.3084 19.8264 11.7872L20.1404 12.0919L20.4543 12.3966C21.1309 11.6995 21.4338 10.7079 21.4338 9.49812H20.9963ZM20.1404 12.0919L19.8218 11.792C19.3454 12.2982 18.778 12.559 18.0983 12.5885L18.1173 13.0256L18.1363 13.4627C19.0474 13.4231 19.8287 13.0614 20.459 12.3917L20.1404 12.0919ZM18.1173 13.0256V12.5881H17.9357V13.0256V13.4631H18.1173V13.0256ZM17.9357 13.0256V12.5881C17.5016 12.5881 17.1699 12.5104 16.9204 12.3791L16.7166 12.7662L16.5129 13.1534C16.9204 13.3679 17.4014 13.4631 17.9357 13.4631V13.0256ZM16.7166 12.7662L16.9204 12.3791C16.6389 12.2309 16.4199 12.0516 16.2542 11.8445L15.9126 12.1178L15.5709 12.3911C15.8203 12.7028 16.1373 12.9557 16.5129 13.1534L16.7166 12.7662ZM15.9126 12.1178L16.2731 11.87C16.1092 11.6316 15.9921 11.3816 15.9191 11.1188L15.4976 11.2359L15.076 11.353C15.176 11.7128 15.3355 12.0507 15.552 12.3657L15.9126 12.1178ZM15.4976 11.2359L15.9207 11.1246C15.8429 10.8291 15.8054 10.5467 15.8054 10.2762H15.3679H14.9304C14.9304 10.6283 14.9793 10.9857 15.0745 11.3473L15.4976 11.2359ZM15.3679 10.2762L15.0832 10.6084C15.222 10.7274 15.3643 10.8284 15.5094 10.901L15.7051 10.5097L15.9007 10.1184C15.8384 10.0872 15.7558 10.0326 15.6526 9.94407L15.3679 10.2762ZM15.7051 10.5097L15.5667 10.9247C15.7482 10.9852 16.0262 10.9991 16.3276 10.9991V10.5616V10.1241C16.1788 10.1241 16.0622 10.1199 15.9748 10.1126C15.9314 10.109 15.8983 10.1048 15.8743 10.1008C15.8489 10.0966 15.8405 10.0937 15.8434 10.0946L15.7051 10.5097ZM16.3276 10.5616V10.9991C16.6306 10.9991 16.9293 10.9158 17.1557 10.6894L16.8463 10.38L16.537 10.0706C16.5213 10.0863 16.4741 10.1241 16.3276 10.1241V10.5616ZM16.8463 10.38L17.1557 10.6894C17.3483 10.4968 17.482 10.2654 17.5537 10.0023L17.1316 9.88719L16.7095 9.77207C16.6775 9.88943 16.621 9.98658 16.537 10.0706L16.8463 10.38ZM17.1316 9.88719L17.5428 10.0367C17.6312 9.79356 17.6729 9.53486 17.6729 9.26469H17.2354H16.7979C16.7979 9.4441 16.7704 9.60039 16.7205 9.73767L17.1316 9.88719ZM17.2354 9.26469L17.6718 9.29586C17.6896 9.04607 17.6988 8.81923 17.6988 8.61625H17.2613H16.8238C16.8238 8.79369 16.8157 8.99914 16.799 9.23352L17.2354 9.26469ZM17.2613 8.61625H17.6988V3.19531H17.2613H16.8238V8.61625H17.2613ZM20.5813 22V21.5625H20.3219V22V22.4375H20.5813V22ZM20.3219 22V21.5625C19.9006 21.5625 19.4787 21.522 19.0558 21.4407L18.9732 21.8703L18.8906 22.2999C19.3669 22.3915 19.8441 22.4375 20.3219 22.4375V22ZM18.9732 21.8703L19.059 21.4413C18.6762 21.3647 18.3277 21.2279 18.0103 21.0314L17.7801 21.4034L17.5498 21.7754C17.9587 22.0286 18.4056 22.203 18.8874 22.2993L18.9732 21.8703ZM17.7801 21.4034L18.0185 21.0366C17.7378 20.8541 17.499 20.5976 17.305 20.2544L16.9241 20.4697L16.5433 20.685C16.7989 21.1372 17.1307 21.5032 17.5416 21.7703L17.7801 21.4034ZM16.9241 20.4697L17.305 20.2544C17.1293 19.9435 17.0244 19.5064 17.0244 18.9134H16.5869H16.1494C16.1494 19.6 16.2694 20.2005 16.5433 20.685L16.9241 20.4697ZM16.5869 18.9134H17.0244V13.4147H16.5869H16.1494V18.9134H16.5869ZM16.5869 13.4147V13.8522H17.0019V13.4147V12.9772H16.5869V13.4147ZM17.0019 13.4147V13.8522C17.3989 13.8522 17.7969 13.8998 18.1967 13.9957L18.2988 13.5703L18.4009 13.1449C17.9361 13.0333 17.4696 12.9772 17.0019 12.9772V13.4147ZM18.2988 13.5703L18.213 13.9993C18.5876 14.0742 18.9076 14.2142 19.1805 14.4153L19.4401 14.0631L19.6996 13.7109C19.3154 13.4278 18.8746 13.2393 18.3846 13.1413L18.2988 13.5703ZM19.4401 14.0631L19.2016 14.4299C19.4789 14.6102 19.7064 14.8623 19.8822 15.1992L20.2701 14.9969L20.6579 14.7945C20.4188 14.336 20.0929 13.9657 19.6785 13.6963L19.4401 14.0631ZM20.2701 14.9969L19.8822 15.1992C20.0469 15.515 20.1438 15.9493 20.1438 16.5272H20.5813H21.0188C21.0188 15.86 20.9082 15.2742 20.6579 14.7945L20.2701 14.9969ZM20.5813 16.5272H20.1438V22H20.5813H21.0188V16.5272H20.5813Z" fill="#3504FB" mask="url(#path-2-outside-1_3_20)"/>
</g>
</g>
<defs>
<clipPath id="clip0_3_20">
<rect width="32" height="32" fill="white"/>
</clipPath>
<clipPath id="clip1_3_20">
<rect width="32" height="32" fill="white"/>
</clipPath>
</defs>
</svg>
