<svg width="196" height="196" viewBox="0 0 196 196" fill="none" xmlns="http://www.w3.org/2000/svg">
<g clip-path="url(#clip0_3_15)">
<rect width="196" height="196" fill="white"/>
<g clip-path="url(#clip1_3_15)">
<path d="M2.16795 1.50614L192.411 1.36272L97.2899 191.679L2.16795 1.50614Z" fill="#3504FB" stroke="#3504FB" stroke-width="2.67969"/>
<mask id="path-2-outside-1_3_15" maskUnits="userSpaceOnUse" x="66.1209" y="18" width="66" height="122" fill="black">
<rect fill="white" x="66.1209" y="18" width="66" height="122"/>
<path d="M91.7453 117.936C91.7453 121.643 91.0039 124.714 89.5211 127.15C88.0384 129.586 86.1849 131.546 83.9608 133.028C81.7366 134.405 79.2477 135.411 76.494 136.047C73.8462 136.682 71.3043 137 68.8684 137V44.6982C68.8684 37.2844 70.563 31.5651 73.9521 27.5405C77.3413 23.5159 82.2132 21.5035 88.5679 21.5035C91.7453 21.5035 94.3401 22.0331 96.3524 23.0922C98.3647 24.1513 99.9004 25.5282 100.96 27.2228C102.125 28.9174 102.919 30.7708 103.343 32.7831C103.766 34.6895 103.978 36.543 103.978 38.3435C103.978 39.2967 103.872 39.9851 103.66 40.4087C102.283 39.2437 100.642 38.6612 98.7354 38.6612C97.1467 38.6612 95.8758 38.9789 94.9226 39.6144C94.0753 40.144 93.3869 40.8853 92.8573 41.8385C92.4337 42.6858 92.1159 43.692 91.9041 44.857C91.7982 46.0221 91.7453 47.24 91.7453 48.511V117.936ZM105.726 21.8213H107.791C113.828 21.8213 118.806 23.7277 122.724 27.5405C126.643 31.2474 128.602 36.6489 128.602 43.745V60.426C128.602 67.4162 126.855 72.7117 123.36 76.3127C119.971 79.9137 115.84 81.8201 110.968 82.032H109.856C106.891 82.032 104.402 81.5024 102.389 80.4433C100.377 79.3842 98.7354 78.0603 97.4645 76.4716C96.2994 74.777 95.4522 72.9765 94.9226 71.0701C94.393 69.0578 94.1283 67.0984 94.1283 65.192C94.8696 65.8275 95.5581 66.3041 96.1935 66.6218C96.829 66.8337 98.0999 66.9396 100.006 66.9396C101.383 66.9396 102.442 66.5689 103.184 65.8275C104.031 64.9802 104.613 63.974 104.931 62.809C105.355 61.644 105.567 60.3731 105.567 58.9962C105.673 57.5134 105.726 56.1896 105.726 55.0245V21.8213ZM126.061 137H124.472C121.718 137 118.964 136.735 116.211 136.206C113.563 135.676 111.127 134.723 108.903 133.346C106.785 131.969 105.037 130.063 103.66 127.627C102.283 125.191 101.595 122.014 101.595 118.095V84.415H104.137C106.785 84.415 109.432 84.7327 112.08 85.3682C114.728 85.8977 117.058 86.9039 119.07 88.3866C121.189 89.7635 122.883 91.6699 124.154 94.1059C125.425 96.5418 126.061 99.6662 126.061 103.479V137Z"/>
</mask>
<path d="M91.7453 117.936C91.7453 121.643 91.0039 124.714 89.5211 127.15C88.0384 129.586 86.1849 131.546 83.9608 133.028C81.7366 134.405 79.2477 135.411 76.494 136.047C73.8462 136.682 71.3043 137 68.8684 137V44.6982C68.8684 37.2844 70.563 31.5651 73.9521 27.5405C77.3413 23.5159 82.2132 21.5035 88.5679 21.5035C91.7453 21.5035 94.3401 22.0331 96.3524 23.0922C98.3647 24.1513 99.9004 25.5282 100.96 27.2228C102.125 28.9174 102.919 30.7708 103.343 32.7831C103.766 34.6895 103.978 36.543 103.978 38.3435C103.978 39.2967 103.872 39.9851 103.66 40.4087C102.283 39.2437 100.642 38.6612 98.7354 38.6612C97.1467 38.6612 95.8758 38.9789 94.9226 39.6144C94.0753 40.144 93.3869 40.8853 92.8573 41.8385C92.4337 42.6858 92.1159 43.692 91.9041 44.857C91.7982 46.0221 91.7453 47.24 91.7453 48.511V117.936ZM105.726 21.8213H107.791C113.828 21.8213 118.806 23.7277 122.724 27.5405C126.643 31.2474 128.602 36.6489 128.602 43.745V60.426C128.602 67.4162 126.855 72.7117 123.36 76.3127C119.971 79.9137 115.84 81.8201 110.968 82.032H109.856C106.891 82.032 104.402 81.5024 102.389 80.4433C100.377 79.3842 98.7354 78.0603 97.4645 76.4716C96.2994 74.777 95.4522 72.9765 94.9226 71.0701C94.393 69.0578 94.1283 67.0984 94.1283 65.192C94.8696 65.8275 95.5581 66.3041 96.1935 66.6218C96.829 66.8337 98.0999 66.9396 100.006 66.9396C101.383 66.9396 102.442 66.5689 103.184 65.8275C104.031 64.9802 104.613 63.974 104.931 62.809C105.355 61.644 105.567 60.3731 105.567 58.9962C105.673 57.5134 105.726 56.1896 105.726 55.0245V21.8213ZM126.061 137H124.472C121.718 137 118.964 136.735 116.211 136.206C113.563 135.676 111.127 134.723 108.903 133.346C106.785 131.969 105.037 130.063 103.66 127.627C102.283 125.191 101.595 122.014 101.595 118.095V84.415H104.137C106.785 84.415 109.432 84.7327 112.08 85.3682C114.728 85.8977 117.058 86.9039 119.07 88.3866C121.189 89.7635 122.883 91.6699 124.154 94.1059C125.425 96.5418 126.061 99.6662 126.061 103.479V137Z" fill="#FFFEFE"/>
<path d="M89.5211 127.15L87.2321 125.757L87.2321 125.757L89.5211 127.15ZM83.9608 133.028L85.3712 135.307L85.4096 135.283L85.4472 135.258L83.9608 133.028ZM76.494 136.047L75.8915 133.436L75.88 133.438L75.8686 133.441L76.494 136.047ZM68.8684 137H66.1887V139.68H68.8684V137ZM73.9521 27.5405L76.0019 29.2666L76.0019 29.2666L73.9521 27.5405ZM96.3524 23.0922L95.1043 25.4635L95.1043 25.4635L96.3524 23.0922ZM100.96 27.2228L98.6872 28.643L98.7182 28.6926L98.7514 28.7409L100.96 27.2228ZM103.343 32.7831L100.72 33.3352L100.723 33.3498L100.727 33.3644L103.343 32.7831ZM103.66 40.4087L101.929 42.4544L104.532 44.6568L106.057 41.6071L103.66 40.4087ZM94.9226 39.6144L96.3428 41.8868L96.3762 41.8659L96.409 41.844L94.9226 39.6144ZM92.8573 41.8385L90.5149 40.5372L90.4866 40.5881L90.4605 40.6402L92.8573 41.8385ZM91.9041 44.857L89.2677 44.3777L89.2463 44.4953L89.2354 44.6144L91.9041 44.857ZM105.726 21.8213V19.1416H103.046V21.8213H105.726ZM122.724 27.5405L120.856 29.4611L120.869 29.4743L120.883 29.4872L122.724 27.5405ZM123.36 76.3127L121.437 74.4464L121.423 74.4612L121.408 74.4762L123.36 76.3127ZM110.968 82.032V84.7116H111.026L111.085 84.7091L110.968 82.032ZM102.389 80.4433L101.141 82.8146L101.141 82.8146L102.389 80.4433ZM97.4645 76.4716L95.2563 77.9897L95.3113 78.0698L95.372 78.1456L97.4645 76.4716ZM94.9226 71.0701L92.3311 71.7521L92.3358 71.7697L92.3407 71.7873L94.9226 71.0701ZM94.1283 65.192L95.8722 63.1575L91.4486 59.3658V65.192H94.1283ZM96.1935 66.6218L94.9951 69.0186L95.1655 69.1038L95.3461 69.164L96.1935 66.6218ZM103.184 65.8275L101.289 63.9327L103.184 65.8275ZM104.931 62.809L102.413 61.8933L102.375 61.9972L102.346 62.104L104.931 62.809ZM105.567 58.9962L102.894 58.8053L102.887 58.9006V58.9962H105.567ZM126.061 137V139.68H128.74V137H126.061ZM116.211 136.206L115.685 138.833L115.695 138.835L115.705 138.837L116.211 136.206ZM108.903 133.346L107.443 135.593L107.467 135.609L107.492 135.624L108.903 133.346ZM103.66 127.627L105.993 126.308L105.993 126.308L103.66 127.627ZM101.595 84.415V81.7353H98.9153V84.415H101.595ZM112.08 85.3682L111.455 87.9739L111.505 87.9858L111.555 87.9958L112.08 85.3682ZM119.07 88.3866L117.481 90.5439L117.544 90.5906L117.61 90.6334L119.07 88.3866ZM124.154 94.1059L126.53 92.8663L126.53 92.8663L124.154 94.1059ZM91.7453 117.936H89.0656C89.0656 121.296 88.3934 123.849 87.2321 125.757L89.5211 127.15L91.8101 128.544C93.6143 125.579 94.4249 121.99 94.4249 117.936H91.7453ZM89.5211 127.15L87.2321 125.757C85.9388 127.882 84.3517 129.547 82.4743 130.799L83.9608 133.028L85.4472 135.258C88.0181 133.544 90.1379 131.291 91.8101 128.544L89.5211 127.15ZM83.9608 133.028L82.5503 130.75C80.5947 131.96 78.3824 132.861 75.8915 133.436L76.494 136.047L77.0966 138.658C80.113 137.962 82.8785 136.85 85.3712 135.307L83.9608 133.028ZM76.494 136.047L75.8686 133.441C73.402 134.033 71.0707 134.32 68.8684 134.32V137V139.68C71.538 139.68 74.2904 139.331 77.1194 138.652L76.494 136.047ZM68.8684 137H71.5481V44.6982H68.8684H66.1887V137H68.8684ZM68.8684 44.6982H71.5481C71.5481 37.6608 73.1582 32.6434 76.0019 29.2666L73.9521 27.5405L71.9024 25.8144C67.9677 30.4869 66.1887 36.9079 66.1887 44.6982H68.8684ZM73.9521 27.5405L76.0019 29.2666C78.7761 25.9722 82.8232 24.1832 88.5679 24.1832V21.5035V18.8239C81.6032 18.8239 75.9065 21.0595 71.9024 25.8144L73.9521 27.5405ZM88.5679 21.5035V24.1832C91.4734 24.1832 93.5991 24.6713 95.1043 25.4635L96.3524 23.0922L97.6005 20.7209C95.0811 19.3949 92.0171 18.8239 88.5679 18.8239V21.5035ZM96.3524 23.0922L95.1043 25.4635C96.756 26.3328 97.9124 27.4034 98.6872 28.643L100.96 27.2228L103.232 25.8025C101.888 23.653 99.9734 21.9698 97.6005 20.7209L96.3524 23.0922ZM100.96 27.2228L98.7514 28.7409C99.716 30.1439 100.37 31.669 100.72 33.3352L103.343 32.7831L105.965 32.2311C105.468 29.8726 104.533 27.6908 103.168 25.7046L100.96 27.2228ZM103.343 32.7831L100.727 33.3644C101.111 35.0959 101.298 36.7542 101.298 38.3435H103.978H106.658C106.658 36.3318 106.421 34.2831 105.958 32.2018L103.343 32.7831ZM103.978 38.3435H101.298C101.298 38.7296 101.276 38.9967 101.25 39.1672C101.221 39.3532 101.201 39.3348 101.264 39.2104L103.66 40.4087L106.057 41.6071C106.563 40.5953 106.658 39.3736 106.658 38.3435H103.978ZM103.66 40.4087L105.391 38.3631C103.501 36.7641 101.236 35.9815 98.7354 35.9815V38.6612V41.3409C100.047 41.3409 101.065 41.7234 101.929 42.4544L103.66 40.4087ZM98.7354 38.6612V35.9815C96.8154 35.9815 94.9695 36.3626 93.4362 37.3848L94.9226 39.6144L96.409 41.844C96.7822 41.5953 97.478 41.3409 98.7354 41.3409V38.6612ZM94.9226 39.6144L93.5024 37.342C92.2359 38.1336 91.2441 39.2246 90.5149 40.5372L92.8573 41.8385L95.1998 43.1399C95.5297 42.5461 95.9147 42.1544 96.3428 41.8868L94.9226 39.6144ZM92.8573 41.8385L90.4605 40.6402C89.8991 41.763 89.5141 43.0223 89.2677 44.3777L91.9041 44.857L94.5406 45.3364C94.7178 44.3617 94.9682 43.6087 95.2541 43.0369L92.8573 41.8385ZM91.9041 44.857L89.2354 44.6144C89.1216 45.8667 89.0656 47.1659 89.0656 48.511H91.7453H94.4249C94.4249 47.3142 94.4748 46.1774 94.5728 45.0996L91.9041 44.857ZM91.7453 48.511H89.0656V117.936H91.7453H94.4249V48.511H91.7453ZM105.726 21.8213V24.501H107.791V21.8213V19.1416H105.726V21.8213ZM107.791 21.8213V24.501C113.209 24.501 117.491 26.1878 120.856 29.4611L122.724 27.5405L124.593 25.6199C120.12 21.2676 114.446 19.1416 107.791 19.1416V21.8213ZM122.724 27.5405L120.883 29.4872C124.112 32.5421 125.923 37.1421 125.923 43.745H128.602H131.282C131.282 36.1557 129.174 29.9527 124.566 25.5938L122.724 27.5405ZM128.602 43.745H125.923V60.426H128.602H131.282V43.745H128.602ZM128.602 60.426H125.923C125.923 66.9965 124.283 71.5142 121.437 74.4464L123.36 76.3127L125.283 78.1791C129.427 73.9093 131.282 67.8358 131.282 60.426H128.602ZM123.36 76.3127L121.408 74.4762C118.491 77.5765 115.015 79.1738 110.852 79.3548L110.968 82.032L111.085 84.7091C116.665 84.4665 121.451 82.2509 125.311 78.1493L123.36 76.3127ZM110.968 82.032V79.3523H109.856V82.032V84.7116H110.968V82.032ZM109.856 82.032V79.3523C107.198 79.3523 105.166 78.8764 103.637 78.072L102.389 80.4433L101.141 82.8146C103.638 84.1284 106.584 84.7116 109.856 84.7116V82.032ZM102.389 80.4433L103.637 78.072C101.913 77.1644 100.572 76.066 99.557 74.7976L97.4645 76.4716L95.372 78.1456C96.8991 80.0545 98.841 81.6039 101.141 82.8146L102.389 80.4433ZM97.4645 76.4716L99.6726 74.9535C98.669 73.4936 97.9516 71.9624 97.5045 70.3529L94.9226 71.0701L92.3407 71.7873C92.9527 73.9907 93.9299 76.0604 95.2563 77.9897L97.4645 76.4716ZM94.9226 71.0701L97.5141 70.3881C97.0378 68.5783 96.8079 66.8483 96.8079 65.192H94.1283H91.4486C91.4486 67.3485 91.7483 69.5373 92.3311 71.7521L94.9226 71.0701ZM94.1283 65.192L92.3843 67.2266C93.2348 67.9556 94.1061 68.5741 94.9951 69.0186L96.1935 66.6218L97.3919 64.225C97.01 64.0341 96.5044 63.6994 95.8722 63.1575L94.1283 65.192ZM96.1935 66.6218L95.3461 69.164C96.4576 69.5345 98.1604 69.6193 100.006 69.6193V66.9396V64.2599C99.095 64.2599 98.3808 64.2343 97.8459 64.1897C97.5796 64.1675 97.3773 64.1422 97.2298 64.1176C97.0748 64.0918 97.0231 64.0737 97.0409 64.0797L96.1935 66.6218ZM100.006 66.9396V69.6193C101.863 69.6193 103.692 69.109 105.079 67.7223L103.184 65.8275L101.289 63.9327C101.193 64.0287 100.904 64.2599 100.006 64.2599V66.9396ZM103.184 65.8275L105.079 67.7223C106.258 66.5426 107.077 65.1253 107.516 63.5141L104.931 62.809L102.346 62.104C102.15 62.8227 101.804 63.4178 101.289 63.9327L103.184 65.8275ZM104.931 62.809L107.45 63.7248C107.991 62.2356 108.246 60.651 108.246 58.9962H105.567H102.887C102.887 60.0951 102.719 61.0524 102.413 61.8933L104.931 62.809ZM105.567 58.9962L108.24 59.1871C108.349 57.6572 108.405 56.2678 108.405 55.0245H105.726H103.046C103.046 56.1113 102.996 57.3697 102.894 58.8053L105.567 58.9962ZM105.726 55.0245H108.405V21.8213H105.726H103.046V55.0245H105.726ZM126.061 137V134.32H124.472V137V139.68H126.061V137ZM124.472 137V134.32C121.891 134.32 119.307 134.072 116.717 133.574L116.211 136.206L115.705 138.837C118.622 139.398 121.545 139.68 124.472 139.68V137ZM116.211 136.206L116.736 133.578C114.392 133.109 112.257 132.271 110.313 131.068L108.903 133.346L107.492 135.624C109.997 137.175 112.734 138.243 115.685 138.833L116.211 136.206ZM108.903 133.346L110.363 131.099C108.644 129.982 107.181 128.41 105.993 126.308L103.66 127.627L101.327 128.945C102.893 131.715 104.926 133.957 107.443 135.593L108.903 133.346ZM103.66 127.627L105.993 126.308C104.917 124.404 104.275 121.727 104.275 118.095H101.595H98.9153C98.9153 122.3 99.6502 125.978 101.327 128.945L103.66 127.627ZM101.595 118.095H104.275V84.415H101.595H98.9153V118.095H101.595ZM101.595 84.415V87.0946H104.137V84.415V81.7353H101.595V84.415ZM104.137 84.415V87.0946C106.568 87.0946 109.006 87.3861 111.455 87.9739L112.08 85.3682L112.706 82.7625C109.859 82.0792 107.001 81.7353 104.137 81.7353V84.415ZM112.08 85.3682L111.555 87.9958C113.849 88.4547 115.809 89.3123 117.481 90.5439L119.07 88.3866L120.66 86.2293C118.307 84.4955 115.607 83.3408 112.606 82.7405L112.08 85.3682ZM119.07 88.3866L117.61 90.6334C119.308 91.7372 120.702 93.2815 121.778 95.3454L124.154 94.1059L126.53 92.8663C125.065 90.0583 123.069 87.7898 120.531 86.1399L119.07 88.3866ZM124.154 94.1059L121.778 95.3454C122.787 97.2795 123.381 99.9396 123.381 103.479H126.061H128.74C128.74 99.3928 128.063 95.8042 126.53 92.8663L124.154 94.1059ZM126.061 103.479H123.381V137H126.061H128.74V103.479H126.061Z" fill="#3504FB" mask="url(#path-2-outside-1_3_15)"/>
</g>
</g>
<defs>
<clipPath id="clip0_3_15">
<rect width="196" height="196" fill="white"/>
</clipPath>
<clipPath id="clip1_3_15">
<rect width="196" height="196" fill="white"/>
</clipPath>
</defs>
</svg>
