<svg width="128" height="128" viewBox="0 0 128 128" fill="none" xmlns="http://www.w3.org/2000/svg">
<g clip-path="url(#clip0_3_16)">
<rect width="128" height="128" fill="white"/>
<g clip-path="url(#clip1_3_16)">
<path d="M1.41547 0.983383L125.657 0.889716L63.5365 125.178L1.41547 0.983383Z" fill="#3504FB" stroke="#3504FB" stroke-width="1.75"/>
<mask id="path-2-outside-1_3_16" maskUnits="userSpaceOnUse" x="42.6912" y="12" width="44" height="80" fill="black">
<rect fill="white" x="42.6912" y="12" width="44" height="80"/>
<path d="M59.9153 77.55C59.9153 79.9708 59.4311 81.9767 58.4628 83.5675C57.4944 85.1583 56.284 86.4379 54.8315 87.4062C53.379 88.3054 51.7536 88.9625 49.9553 89.3775C48.2261 89.7925 46.5661 90 44.9753 90V29.7212C44.9753 24.8796 46.0819 21.1446 48.2953 18.5162C50.5086 15.8879 53.6903 14.5737 57.8403 14.5737C59.9153 14.5737 61.6098 14.9196 62.924 15.6112C64.2382 16.3029 65.2411 17.2021 65.9328 18.3087C66.6936 19.4154 67.2123 20.6258 67.489 21.94C67.7657 23.185 67.904 24.3954 67.904 25.5712C67.904 26.1937 67.8348 26.6433 67.6965 26.92C66.7973 26.1592 65.7253 25.7787 64.4803 25.7787C63.4428 25.7787 62.6128 25.9862 61.9903 26.4012C61.4369 26.7471 60.9873 27.2312 60.6415 27.8537C60.3648 28.4071 60.1573 29.0642 60.019 29.825C59.9498 30.5858 59.9153 31.3812 59.9153 32.2112V77.55ZM69.0453 14.7812H70.394C74.3365 14.7812 77.5873 16.0262 80.1465 18.5162C82.7057 20.9371 83.9853 24.4646 83.9853 29.0987V39.9925C83.9853 44.5575 82.844 48.0158 80.5615 50.3675C78.3482 52.7192 75.6507 53.9642 72.469 54.1025H71.7428C69.8061 54.1025 68.1807 53.7567 66.8665 53.065C65.5523 52.3733 64.4803 51.5087 63.6503 50.4712C62.8894 49.3646 62.3361 48.1887 61.9903 46.9437C61.6444 45.6296 61.4715 44.35 61.4715 43.105C61.9557 43.52 62.4053 43.8312 62.8203 44.0387C63.2353 44.1771 64.0653 44.2462 65.3103 44.2462C66.2094 44.2462 66.9011 44.0042 67.3853 43.52C67.9386 42.9667 68.319 42.3096 68.5265 41.5487C68.8032 40.7879 68.9415 39.9579 68.9415 39.0587C69.0107 38.0904 69.0453 37.2258 69.0453 36.465V14.7812ZM82.3253 90H81.2878C79.4894 90 77.6911 89.8271 75.8928 89.4812C74.1636 89.1354 72.5728 88.5129 71.1203 87.6137C69.7369 86.7146 68.5957 85.4696 67.6965 83.8787C66.7973 82.2879 66.3478 80.2129 66.3478 77.6537V55.6587H68.0078C69.7369 55.6587 71.4661 55.8662 73.1953 56.2812C74.9244 56.6271 76.4461 57.2842 77.7603 58.2525C79.1436 59.1517 80.2503 60.3967 81.0803 61.9875C81.9103 63.5783 82.3253 65.6187 82.3253 68.1087V90Z"/>
</mask>
<path d="M59.9153 77.55C59.9153 79.9708 59.4311 81.9767 58.4628 83.5675C57.4944 85.1583 56.284 86.4379 54.8315 87.4062C53.379 88.3054 51.7536 88.9625 49.9553 89.3775C48.2261 89.7925 46.5661 90 44.9753 90V29.7212C44.9753 24.8796 46.0819 21.1446 48.2953 18.5162C50.5086 15.8879 53.6903 14.5737 57.8403 14.5737C59.9153 14.5737 61.6098 14.9196 62.924 15.6112C64.2382 16.3029 65.2411 17.2021 65.9328 18.3087C66.6936 19.4154 67.2123 20.6258 67.489 21.94C67.7657 23.185 67.904 24.3954 67.904 25.5712C67.904 26.1937 67.8348 26.6433 67.6965 26.92C66.7973 26.1592 65.7253 25.7787 64.4803 25.7787C63.4428 25.7787 62.6128 25.9862 61.9903 26.4012C61.4369 26.7471 60.9873 27.2312 60.6415 27.8537C60.3648 28.4071 60.1573 29.0642 60.019 29.825C59.9498 30.5858 59.9153 31.3812 59.9153 32.2112V77.55ZM69.0453 14.7812H70.394C74.3365 14.7812 77.5873 16.0262 80.1465 18.5162C82.7057 20.9371 83.9853 24.4646 83.9853 29.0987V39.9925C83.9853 44.5575 82.844 48.0158 80.5615 50.3675C78.3482 52.7192 75.6507 53.9642 72.469 54.1025H71.7428C69.8061 54.1025 68.1807 53.7567 66.8665 53.065C65.5523 52.3733 64.4803 51.5087 63.6503 50.4712C62.8894 49.3646 62.3361 48.1887 61.9903 46.9437C61.6444 45.6296 61.4715 44.35 61.4715 43.105C61.9557 43.52 62.4053 43.8312 62.8203 44.0387C63.2353 44.1771 64.0653 44.2462 65.3103 44.2462C66.2094 44.2462 66.9011 44.0042 67.3853 43.52C67.9386 42.9667 68.319 42.3096 68.5265 41.5487C68.8032 40.7879 68.9415 39.9579 68.9415 39.0587C69.0107 38.0904 69.0453 37.2258 69.0453 36.465V14.7812ZM82.3253 90H81.2878C79.4894 90 77.6911 89.8271 75.8928 89.4812C74.1636 89.1354 72.5728 88.5129 71.1203 87.6137C69.7369 86.7146 68.5957 85.4696 67.6965 83.8787C66.7973 82.2879 66.3478 80.2129 66.3478 77.6537V55.6587H68.0078C69.7369 55.6587 71.4661 55.8662 73.1953 56.2812C74.9244 56.6271 76.4461 57.2842 77.7603 58.2525C79.1436 59.1517 80.2503 60.3967 81.0803 61.9875C81.9103 63.5783 82.3253 65.6187 82.3253 68.1087V90Z" fill="#FFFEFE"/>
<path d="M58.4628 83.5675L56.9679 82.6576L56.9679 82.6576L58.4628 83.5675ZM54.8315 87.4062L55.7526 88.8942L55.7777 88.8787L55.8022 88.8623L54.8315 87.4062ZM49.9553 89.3775L49.5618 87.6723L49.5543 87.674L49.5469 87.6758L49.9553 89.3775ZM44.9753 90H43.2253V91.75H44.9753V90ZM48.2953 18.5162L49.6339 19.6435L49.6339 19.6435L48.2953 18.5162ZM62.924 15.6112L62.109 17.1599L62.109 17.1599L62.924 15.6112ZM65.9328 18.3087L64.4488 19.2362L64.469 19.2687L64.4907 19.3002L65.9328 18.3087ZM67.489 21.94L65.7766 22.3005L65.7786 22.3101L65.7807 22.3196L67.489 21.94ZM67.6965 26.92L66.5661 28.2559L68.266 29.6942L69.2618 27.7026L67.6965 26.92ZM61.9903 26.4012L62.9178 27.8852L62.9396 27.8716L62.961 27.8573L61.9903 26.4012ZM60.6415 27.8537L59.1117 27.0039L59.0933 27.0371L59.0763 27.0711L60.6415 27.8537ZM60.019 29.825L58.2972 29.5119L58.2833 29.5888L58.2762 29.6666L60.019 29.825ZM69.0453 14.7812V13.0312H67.2953V14.7812H69.0453ZM80.1465 18.5162L78.9261 19.7705L78.935 19.7791L78.9439 19.7876L80.1465 18.5162ZM80.5615 50.3675L79.3057 49.1487L79.2964 49.1583L79.2872 49.1681L80.5615 50.3675ZM72.469 54.1025V55.8525H72.507L72.545 55.8508L72.469 54.1025ZM66.8665 53.065L66.0515 54.6136L66.0515 54.6136L66.8665 53.065ZM63.6503 50.4712L62.2082 51.4627L62.2441 51.5149L62.2837 51.5645L63.6503 50.4712ZM61.9903 46.9437L60.2979 47.3891L60.3009 47.4006L60.3041 47.4121L61.9903 46.9437ZM61.4715 43.105L62.6104 41.7763L59.7215 39.3001V43.105H61.4715ZM62.8203 44.0387L62.0376 45.604L62.1489 45.6596L62.2669 45.6989L62.8203 44.0387ZM67.3853 43.52L66.1478 42.2826L67.3853 43.52ZM68.5265 41.5487L66.8819 40.9507L66.8572 41.0186L66.8382 41.0883L68.5265 41.5487ZM68.9415 39.0587L67.196 38.9341L67.1915 38.9963V39.0587H68.9415ZM82.3253 90V91.75H84.0753V90H82.3253ZM75.8928 89.4812L75.5496 91.1973L75.5623 91.1998L75.8928 89.4812ZM71.1203 87.6137L70.1665 89.081L70.1827 89.0915L70.1991 89.1017L71.1203 87.6137ZM67.6965 83.8787L69.22 83.0177L69.22 83.0176L67.6965 83.8787ZM66.3478 55.6587V53.9087H64.5978V55.6587H66.3478ZM73.1953 56.2812L72.7869 57.9829L72.8193 57.9907L72.8521 57.9973L73.1953 56.2812ZM77.7603 58.2525L76.7222 59.6613L76.7635 59.6918L76.8065 59.7198L77.7603 58.2525ZM81.0803 61.9875L82.6318 61.178L82.6318 61.178L81.0803 61.9875ZM59.9153 77.55H58.1653C58.1653 79.7442 57.7263 81.4116 56.9679 82.6576L58.4628 83.5675L59.9576 84.4774C61.1359 82.5417 61.6653 80.1975 61.6653 77.55H59.9153ZM58.4628 83.5675L56.9679 82.6576C56.1233 84.0452 55.0868 85.1328 53.8608 85.9502L54.8315 87.4062L55.8022 88.8623C57.4812 87.743 58.8656 86.2715 59.9576 84.4774L58.4628 83.5675ZM54.8315 87.4062L53.9104 85.9183C52.6333 86.7089 51.1885 87.2969 49.5618 87.6723L49.9553 89.3775L50.3488 91.0827C52.3187 90.6281 54.1247 89.902 55.7526 88.8942L54.8315 87.4062ZM49.9553 89.3775L49.5469 87.6758C47.936 88.0624 46.4135 88.25 44.9753 88.25V90V91.75C46.7187 91.75 48.5162 91.5226 50.3637 91.0792L49.9553 89.3775ZM44.9753 90H46.7253V29.7212H44.9753H43.2253V90H44.9753ZM44.9753 29.7212H46.7253C46.7253 25.1254 47.7768 21.8488 49.6339 19.6435L48.2953 18.5162L46.9567 17.389C44.3871 20.4404 43.2253 24.6338 43.2253 29.7212H44.9753ZM48.2953 18.5162L49.6339 19.6435C51.4456 17.4921 54.0886 16.3237 57.8403 16.3237V14.5737V12.8237C53.2919 12.8237 49.5716 14.2838 46.9567 17.389L48.2953 18.5162ZM57.8403 14.5737V16.3237C59.7377 16.3237 61.1259 16.6425 62.109 17.1599L62.924 15.6112L63.7391 14.0626C62.0938 13.1967 60.0928 12.8237 57.8403 12.8237V14.5737ZM62.924 15.6112L62.109 17.1599C63.1876 17.7276 63.9428 18.4267 64.4488 19.2362L65.9328 18.3087L67.4168 17.3812C66.5394 15.9774 65.2888 14.8783 63.7391 14.0626L62.924 15.6112ZM65.9328 18.3087L64.4907 19.3002C65.1206 20.2164 65.5475 21.2124 65.7766 22.3005L67.489 21.94L69.2015 21.5795C68.8772 20.0392 68.2666 18.6144 67.3748 17.3173L65.9328 18.3087ZM67.489 21.94L65.7807 22.3196C66.032 23.4504 66.154 24.5333 66.154 25.5712H67.904H69.654C69.654 24.2575 69.4994 22.9196 69.1973 21.5604L67.489 21.94ZM67.904 25.5712H66.154C66.154 25.8234 66.1396 25.9978 66.1225 26.1092C66.1038 26.2306 66.0906 26.2187 66.1313 26.1374L67.6965 26.92L69.2618 27.7026C69.5922 27.0418 69.654 26.244 69.654 25.5712H67.904ZM67.6965 26.92L68.8269 25.5841C67.5928 24.5398 66.1136 24.0287 64.4803 24.0287V25.7787V27.5287C65.3369 27.5287 66.0019 27.7785 66.5661 28.2559L67.6965 26.92ZM64.4803 25.7787V24.0287C63.2264 24.0287 62.0209 24.2776 61.0195 24.9452L61.9903 26.4012L62.961 27.8573C63.2047 27.6949 63.6591 27.5287 64.4803 27.5287V25.7787ZM61.9903 26.4012L61.0628 24.9172C60.2357 25.4342 59.588 26.1467 59.1117 27.0039L60.6415 27.8537L62.1713 28.7036C62.3867 28.3158 62.6381 28.06 62.9178 27.8852L61.9903 26.4012ZM60.6415 27.8537L59.0763 27.0711C58.7096 27.8044 58.4582 28.6268 58.2972 29.5119L60.019 29.825L61.7408 30.138C61.8565 29.5015 62.0201 29.0098 62.2068 28.6364L60.6415 27.8537ZM60.019 29.825L58.2762 29.6666C58.2019 30.4844 58.1653 31.3328 58.1653 32.2112H59.9153H61.6653C61.6653 31.4297 61.6978 30.6873 61.7618 29.9834L60.019 29.825ZM59.9153 32.2112H58.1653V77.55H59.9153H61.6653V32.2112H59.9153ZM69.0453 14.7812V16.5312H70.394V14.7812V13.0312H69.0453V14.7812ZM70.394 14.7812V16.5312C73.9326 16.5312 76.7291 17.6328 78.9261 19.7705L80.1465 18.5162L81.3669 17.262C78.4456 14.4197 74.7405 13.0312 70.394 13.0312V14.7812ZM80.1465 18.5162L78.9439 19.7876C81.0529 21.7826 82.2353 24.7867 82.2353 29.0987H83.9853H85.7353C85.7353 24.1425 84.3584 20.0916 81.3491 17.2449L80.1465 18.5162ZM83.9853 29.0987H82.2353V39.9925H83.9853H85.7353V29.0987H83.9853ZM83.9853 39.9925H82.2353C82.2353 44.2834 81.1643 47.2338 79.3057 49.1487L80.5615 50.3675L81.8173 51.5863C84.5237 48.7979 85.7353 44.8316 85.7353 39.9925H83.9853ZM80.5615 50.3675L79.2872 49.1681C77.3816 51.1928 75.1118 52.2359 72.393 52.3542L72.469 54.1025L72.545 55.8508C76.1895 55.6924 79.3148 54.2455 81.8359 51.5669L80.5615 50.3675ZM72.469 54.1025V52.3525H71.7428V54.1025V55.8525H72.469V54.1025ZM71.7428 54.1025V52.3525C70.0066 52.3525 68.6797 52.0417 67.6816 51.5164L66.8665 53.065L66.0515 54.6136C67.6817 55.4716 69.6056 55.8525 71.7428 55.8525V54.1025ZM66.8665 53.065L67.6816 51.5164C66.5555 50.9237 65.6795 50.2064 65.0168 49.378L63.6503 50.4712L62.2837 51.5645C63.2811 52.8111 64.5492 53.823 66.0515 54.6136L66.8665 53.065ZM63.6503 50.4712L65.0923 49.4798C64.4369 48.5264 63.9684 47.5264 63.6764 46.4754L61.9903 46.9437L60.3041 47.4121C60.7038 48.8511 61.342 50.2027 62.2082 51.4627L63.6503 50.4712ZM61.9903 46.9437L63.6826 46.4984C63.3716 45.3164 63.2215 44.1867 63.2215 43.105H61.4715H59.7215C59.7215 44.5133 59.9173 45.9427 60.2979 47.3891L61.9903 46.9437ZM61.4715 43.105L60.3326 44.4337C60.8881 44.9098 61.4571 45.3137 62.0376 45.604L62.8203 44.0387L63.6029 42.4735C63.3535 42.3488 63.0233 42.1302 62.6104 41.7763L61.4715 43.105ZM62.8203 44.0387L62.2669 45.6989C62.9927 45.9409 64.1047 45.9962 65.3103 45.9962V44.2462V42.4962C64.7151 42.4962 64.2487 42.4795 63.8993 42.4504C63.7255 42.4359 63.5933 42.4194 63.497 42.4033C63.3958 42.3865 63.362 42.3747 63.3737 42.3786L62.8203 44.0387ZM65.3103 44.2462V45.9962C66.5226 45.9962 67.7171 45.663 68.6227 44.7574L67.3853 43.52L66.1478 42.2826C66.0851 42.3453 65.8963 42.4962 65.3103 42.4962V44.2462ZM67.3853 43.52L68.6227 44.7574C69.3931 43.987 69.9279 43.0615 70.2149 42.0092L68.5265 41.5487L66.8382 41.0883C66.7102 41.5577 66.4841 41.9463 66.1478 42.2826L67.3853 43.52ZM68.5265 41.5487L70.1712 42.1468C70.5248 41.1743 70.6915 40.1394 70.6915 39.0587H68.9415H67.1915C67.1915 39.7764 67.0816 40.4016 66.8819 40.9507L68.5265 41.5487ZM68.9415 39.0587L70.6871 39.1834C70.7584 38.1843 70.7953 37.2769 70.7953 36.465H69.0453H67.2953C67.2953 37.1747 67.2629 37.9965 67.196 38.9341L68.9415 39.0587ZM69.0453 36.465H70.7953V14.7812H69.0453H67.2953V36.465H69.0453ZM82.3253 90V88.25H81.2878V90V91.75H82.3253V90ZM81.2878 90V88.25C79.6024 88.25 77.9147 88.088 76.2232 87.7627L75.8928 89.4812L75.5623 91.1998C77.4675 91.5662 79.3765 91.75 81.2878 91.75V90ZM75.8928 89.4812L76.236 87.7652C74.7048 87.459 73.3107 86.9115 72.0414 86.1258L71.1203 87.6137L70.1991 89.1017C71.8349 90.1143 73.6224 90.8118 75.5496 91.1973L75.8928 89.4812ZM71.1203 87.6137L72.074 86.1465C70.9511 85.4166 69.9959 84.3903 69.22 83.0177L67.6965 83.8787L66.173 84.7398C67.1955 86.5488 68.5228 88.0126 70.1665 89.081L71.1203 87.6137ZM67.6965 83.8787L69.22 83.0176C68.517 81.7739 68.0978 80.0258 68.0978 77.6537H66.3478H64.5978C64.5978 80.4001 65.0777 82.8019 66.173 84.7399L67.6965 83.8787ZM66.3478 77.6537H68.0978V55.6587H66.3478H64.5978V77.6537H66.3478ZM66.3478 55.6587V57.4087H68.0078V55.6587V53.9087H66.3478V55.6587ZM68.0078 55.6587V57.4087C69.5955 57.4087 71.1876 57.5991 72.7869 57.9829L73.1953 56.2812L73.6037 54.5796C71.7446 54.1334 69.8784 53.9087 68.0078 53.9087V55.6587ZM73.1953 56.2812L72.8521 57.9973C74.3504 58.2969 75.6305 58.857 76.7222 59.6613L77.7603 58.2525L78.7984 56.8436C77.2617 55.7113 75.4985 54.9572 73.5385 54.5652L73.1953 56.2812ZM77.7603 58.2525L76.8065 59.7198C77.9155 60.4406 78.8255 61.4492 79.5287 62.797L81.0803 61.9875L82.6318 61.178C81.675 59.3442 80.3717 57.8627 78.714 56.7852L77.7603 58.2525ZM81.0803 61.9875L79.5287 62.797C80.1877 64.0601 80.5753 65.7973 80.5753 68.1087H82.3253H84.0753C84.0753 65.4402 83.6328 63.0966 82.6318 61.178L81.0803 61.9875ZM82.3253 68.1087H80.5753V90H82.3253H84.0753V68.1087H82.3253Z" fill="#3504FB" mask="url(#path-2-outside-1_3_16)"/>
</g>
</g>
<defs>
<clipPath id="clip0_3_16">
<rect width="128" height="128" fill="white"/>
</clipPath>
<clipPath id="clip1_3_16">
<rect width="128" height="128" fill="white"/>
</clipPath>
</defs>
</svg>
