<svg width="16" height="16" viewBox="0 0 16 16" fill="none" xmlns="http://www.w3.org/2000/svg">
<g clip-path="url(#clip0_3_21)">
<rect width="16" height="16" fill="white"/>
<g clip-path="url(#clip1_3_21)">
<path d="M0.177062 0.123175L15.7073 0.111466L7.94267 15.6476L0.177062 0.123175Z" fill="#3504FB" stroke="#3504FB" stroke-width="0.21875"/>
<mask id="path-2-outside-1_3_21" maskUnits="userSpaceOnUse" x="5.33641" y="1" width="6" height="11" fill="black">
<rect fill="white" x="5.33641" y="1" width="6" height="11"/>
<path d="M7.48942 9.44375C7.48942 9.74635 7.42889 9.99708 7.30785 10.1959C7.18681 10.3948 7.03551 10.5547 6.85395 10.6758C6.67238 10.7882 6.46921 10.8703 6.24442 10.9222C6.02827 10.9741 5.82077 11 5.62192 11V3.46516C5.62192 2.85995 5.76025 2.39307 6.03692 2.06453C6.31358 1.73599 6.71129 1.57172 7.23004 1.57172C7.48942 1.57172 7.70124 1.61495 7.86551 1.70141C8.02978 1.78786 8.15514 1.90026 8.2416 2.03859C8.33671 2.17693 8.40155 2.32823 8.43613 2.4925C8.47072 2.64812 8.48801 2.79943 8.48801 2.94641C8.48801 3.02422 8.47936 3.08042 8.46207 3.115C8.34968 3.0199 8.21567 2.97234 8.06004 2.97234C7.93035 2.97234 7.8266 2.99828 7.74879 3.05016C7.67962 3.09338 7.62343 3.15391 7.5802 3.23172C7.54561 3.30089 7.51968 3.38302 7.50238 3.47812C7.49374 3.57323 7.48942 3.67266 7.48942 3.77641V9.44375ZM8.63067 1.59766H8.79926C9.29207 1.59766 9.69843 1.75328 10.0183 2.06453C10.3382 2.36713 10.4982 2.80807 10.4982 3.38734V4.74906C10.4982 5.31969 10.3555 5.75198 10.0702 6.04594C9.79353 6.3399 9.45634 6.49552 9.05863 6.51281H8.96785C8.72577 6.51281 8.52259 6.46958 8.35832 6.38312C8.19405 6.29667 8.06004 6.18859 7.95629 6.05891C7.86119 5.92057 7.79202 5.77359 7.74879 5.61797C7.70556 5.4537 7.68395 5.29375 7.68395 5.13812C7.74447 5.19 7.80067 5.22891 7.85254 5.25484C7.90442 5.27214 8.00817 5.28078 8.16379 5.28078C8.27619 5.28078 8.36264 5.25052 8.42317 5.19C8.49233 5.12083 8.53988 5.0387 8.56582 4.94359C8.60041 4.84849 8.6177 4.74474 8.6177 4.63234C8.62634 4.5113 8.63067 4.40323 8.63067 4.30812V1.59766ZM10.2907 11H10.161C9.93619 11 9.71139 10.9784 9.4866 10.9352C9.27046 10.8919 9.0716 10.8141 8.89004 10.7017C8.71712 10.5893 8.57447 10.4337 8.46207 10.2348C8.34968 10.036 8.29348 9.77661 8.29348 9.45672V6.70734H8.50098C8.71712 6.70734 8.93327 6.73328 9.14942 6.78516C9.36556 6.82839 9.55577 6.91052 9.72004 7.03156C9.89296 7.14396 10.0313 7.29958 10.135 7.49844C10.2388 7.69729 10.2907 7.95234 10.2907 8.26359V11Z"/>
</mask>
<path d="M7.48942 9.44375C7.48942 9.74635 7.42889 9.99708 7.30785 10.1959C7.18681 10.3948 7.03551 10.5547 6.85395 10.6758C6.67238 10.7882 6.46921 10.8703 6.24442 10.9222C6.02827 10.9741 5.82077 11 5.62192 11V3.46516C5.62192 2.85995 5.76025 2.39307 6.03692 2.06453C6.31358 1.73599 6.71129 1.57172 7.23004 1.57172C7.48942 1.57172 7.70124 1.61495 7.86551 1.70141C8.02978 1.78786 8.15514 1.90026 8.2416 2.03859C8.33671 2.17693 8.40155 2.32823 8.43613 2.4925C8.47072 2.64812 8.48801 2.79943 8.48801 2.94641C8.48801 3.02422 8.47936 3.08042 8.46207 3.115C8.34968 3.0199 8.21567 2.97234 8.06004 2.97234C7.93035 2.97234 7.8266 2.99828 7.74879 3.05016C7.67962 3.09338 7.62343 3.15391 7.5802 3.23172C7.54561 3.30089 7.51968 3.38302 7.50238 3.47812C7.49374 3.57323 7.48942 3.67266 7.48942 3.77641V9.44375ZM8.63067 1.59766H8.79926C9.29207 1.59766 9.69843 1.75328 10.0183 2.06453C10.3382 2.36713 10.4982 2.80807 10.4982 3.38734V4.74906C10.4982 5.31969 10.3555 5.75198 10.0702 6.04594C9.79353 6.3399 9.45634 6.49552 9.05863 6.51281H8.96785C8.72577 6.51281 8.52259 6.46958 8.35832 6.38312C8.19405 6.29667 8.06004 6.18859 7.95629 6.05891C7.86119 5.92057 7.79202 5.77359 7.74879 5.61797C7.70556 5.4537 7.68395 5.29375 7.68395 5.13812C7.74447 5.19 7.80067 5.22891 7.85254 5.25484C7.90442 5.27214 8.00817 5.28078 8.16379 5.28078C8.27619 5.28078 8.36264 5.25052 8.42317 5.19C8.49233 5.12083 8.53988 5.0387 8.56582 4.94359C8.60041 4.84849 8.6177 4.74474 8.6177 4.63234C8.62634 4.5113 8.63067 4.40323 8.63067 4.30812V1.59766ZM10.2907 11H10.161C9.93619 11 9.71139 10.9784 9.4866 10.9352C9.27046 10.8919 9.0716 10.8141 8.89004 10.7017C8.71712 10.5893 8.57447 10.4337 8.46207 10.2348C8.34968 10.036 8.29348 9.77661 8.29348 9.45672V6.70734H8.50098C8.71712 6.70734 8.93327 6.73328 9.14942 6.78516C9.36556 6.82839 9.55577 6.91052 9.72004 7.03156C9.89296 7.14396 10.0313 7.29958 10.135 7.49844C10.2388 7.69729 10.2907 7.95234 10.2907 8.26359V11Z" fill="#FFFEFE"/>
<path d="M7.30785 10.1959L7.121 10.0822L7.121 10.0822L7.30785 10.1959ZM6.85395 10.6758L6.96915 10.8619L6.97529 10.8578L6.85395 10.6758ZM6.24442 10.9222L6.19523 10.709L6.19337 10.7095L6.24442 10.9222ZM5.62192 11H5.40317V11.2188H5.62192V11ZM6.03692 2.06453L6.20424 2.20544L6.20424 2.20544L6.03692 2.06453ZM7.86551 1.70141L7.76363 1.89498L7.76363 1.89498L7.86551 1.70141ZM8.2416 2.03859L8.05593 2.15464L8.06134 2.16252L8.2416 2.03859ZM8.43613 2.4925L8.22206 2.53757L8.22259 2.53995L8.43613 2.4925ZM8.46207 3.115L8.32077 3.28199L8.53325 3.46178L8.65773 3.21283L8.46207 3.115ZM7.74879 3.05016L7.86478 3.23574L7.87013 3.23217L7.74879 3.05016ZM7.5802 3.23172L7.38879 3.12538L7.38454 3.13389L7.5802 3.23172ZM7.50238 3.47812L7.28716 3.43899L7.28542 3.4486L7.28453 3.45832L7.50238 3.47812ZM8.63067 1.59766V1.37891H8.41192V1.59766H8.63067ZM10.0183 2.06453L9.86576 2.22133L9.868 2.22345L10.0183 2.06453ZM10.0702 6.04594L9.91321 5.89357L9.9109 5.89601L10.0702 6.04594ZM9.05863 6.51281V6.73177L9.06814 6.73136L9.05863 6.51281ZM8.35832 6.38312L8.25644 6.5767L8.25644 6.5767L8.35832 6.38312ZM7.95629 6.05891L7.77603 6.18283L7.78052 6.18937L7.78548 6.19556L7.95629 6.05891ZM7.74879 5.61797L7.53722 5.67364L7.53802 5.67652L7.74879 5.61797ZM7.68395 5.13812L7.82631 4.97204L7.4652 4.66251V5.13812H7.68395ZM7.85254 5.25484L7.75471 5.4505L7.76862 5.45745L7.78337 5.46237L7.85254 5.25484ZM8.42317 5.19L8.26849 5.03532L8.42317 5.19ZM8.56582 4.94359L8.36024 4.86884L8.35716 4.87732L8.35478 4.88604L8.56582 4.94359ZM8.6177 4.63234L8.3995 4.61676L8.39895 4.62454V4.63234H8.6177ZM10.2907 11V11.2188H10.5094V11H10.2907ZM9.4866 10.9352L9.4437 11.1497L9.44529 11.15L9.4866 10.9352ZM8.89004 10.7017L8.7708 10.8852L8.7749 10.8877L8.89004 10.7017ZM8.46207 10.2348L8.65251 10.1272L8.65251 10.1272L8.46207 10.2348ZM8.29348 6.70734V6.48859H8.07473V6.70734H8.29348ZM9.14942 6.78516L9.09833 6.99802L9.10652 6.99966L9.14942 6.78516ZM9.72004 7.03156L9.59006 7.20797L9.60082 7.21497L9.72004 7.03156ZM10.135 7.49844L10.329 7.39725L10.329 7.39725L10.135 7.49844ZM7.48942 9.44375H7.27067C7.27067 9.71802 7.2158 9.92645 7.121 10.0822L7.30785 10.1959L7.49471 10.3097C7.64199 10.0677 7.70817 9.77469 7.70817 9.44375H7.48942ZM7.30785 10.1959L7.121 10.0822C7.01542 10.2556 6.88586 10.3916 6.73261 10.4938L6.85395 10.6758L6.97529 10.8578C7.18516 10.7179 7.3582 10.5339 7.49471 10.3097L7.30785 10.1959ZM6.85395 10.6758L6.73881 10.4898C6.57917 10.5886 6.39857 10.6621 6.19523 10.709L6.24442 10.9222L6.2936 11.1353C6.53984 11.0785 6.7656 10.9877 6.96909 10.8618L6.85395 10.6758ZM6.24442 10.9222L6.19337 10.7095C5.99201 10.7578 5.8017 10.7812 5.62192 10.7812V11V11.2188C5.83984 11.2188 6.06453 11.1903 6.29547 11.1349L6.24442 10.9222ZM5.62192 11H5.84067V3.46516H5.62192H5.40317V11H5.62192ZM5.62192 3.46516H5.84067C5.84067 2.89068 5.97211 2.48109 6.20424 2.20544L6.03692 2.06453L5.86959 1.92363C5.54839 2.30505 5.40317 2.82922 5.40317 3.46516H5.62192ZM6.03692 2.06453L6.20424 2.20544C6.43071 1.93651 6.76109 1.79047 7.23004 1.79047V1.57172V1.35297C6.6615 1.35297 6.19646 1.53547 5.86959 1.92363L6.03692 2.06453ZM7.23004 1.57172V1.79047C7.46722 1.79047 7.64075 1.83031 7.76363 1.89498L7.86551 1.70141L7.96739 1.50783C7.76173 1.39959 7.51161 1.35297 7.23004 1.35297V1.57172ZM7.86551 1.70141L7.76363 1.89498C7.89846 1.96595 7.99286 2.05334 8.0561 2.15453L8.2416 2.03859L8.4271 1.92266C8.31743 1.74718 8.1611 1.60978 7.96739 1.50783L7.86551 1.70141ZM8.2416 2.03859L8.06134 2.16252C8.14009 2.27706 8.19344 2.40156 8.22208 2.53756L8.43613 2.4925L8.65019 2.44743C8.60966 2.2549 8.53333 2.0768 8.42186 1.91467L8.2416 2.03859ZM8.43613 2.4925L8.22259 2.53995C8.254 2.6813 8.26926 2.81667 8.26926 2.94641H8.48801H8.70676C8.70676 2.78218 8.68743 2.61495 8.64968 2.44505L8.43613 2.4925ZM8.48801 2.94641H8.26926C8.26926 2.97793 8.26746 2.99973 8.26532 3.01365C8.26298 3.02883 8.26133 3.02733 8.26642 3.01717L8.46207 3.115L8.65773 3.21283C8.69903 3.13023 8.70676 3.0305 8.70676 2.94641H8.48801ZM8.46207 3.115L8.60337 2.94801C8.44911 2.81748 8.26421 2.75359 8.06004 2.75359V2.97234V3.19109C8.16712 3.19109 8.25025 3.22231 8.32077 3.28199L8.46207 3.115ZM8.06004 2.97234V2.75359C7.90331 2.75359 7.75262 2.7847 7.62745 2.86814L7.74879 3.05016L7.87013 3.23217C7.90059 3.21186 7.9574 3.19109 8.06004 3.19109V2.97234ZM7.74879 3.05016L7.63285 2.86466C7.52947 2.92927 7.4485 3.01834 7.38898 3.12548L7.5802 3.23172L7.77142 3.33795C7.79835 3.28948 7.82978 3.2575 7.86473 3.23566L7.74879 3.05016ZM7.5802 3.23172L7.38454 3.13389C7.33871 3.22555 7.30728 3.32835 7.28716 3.43899L7.50238 3.47812L7.71761 3.51726C7.73207 3.43769 7.75251 3.37622 7.77585 3.32955L7.5802 3.23172ZM7.50238 3.47812L7.28453 3.45832C7.27524 3.56054 7.27067 3.6666 7.27067 3.77641H7.48942H7.70817C7.70817 3.67871 7.71224 3.58591 7.72024 3.49793L7.50238 3.47812ZM7.48942 3.77641H7.27067V9.44375H7.48942H7.70817V3.77641H7.48942ZM8.63067 1.59766V1.81641H8.79926V1.59766V1.37891H8.63067V1.59766ZM8.79926 1.59766V1.81641C9.24158 1.81641 9.59114 1.9541 9.86578 2.22131L10.0183 2.06453L10.1709 1.90775C9.80571 1.55246 9.34257 1.37891 8.79926 1.37891V1.59766ZM10.0183 2.06453L9.868 2.22345C10.1316 2.47282 10.2794 2.84833 10.2794 3.38734H10.4982H10.7169C10.7169 2.76781 10.5448 2.26145 10.1686 1.90562L10.0183 2.06453ZM10.4982 3.38734H10.2794V4.74906H10.4982H10.7169V3.38734H10.4982ZM10.4982 4.74906H10.2794C10.2794 5.28543 10.1455 5.65422 9.91323 5.89358L10.0702 6.04594L10.2272 6.19829C10.5655 5.84974 10.7169 5.35395 10.7169 4.74906H10.4982ZM10.0702 6.04594L9.9109 5.89601C9.6727 6.1491 9.38899 6.27949 9.04913 6.29427L9.05863 6.51281L9.06814 6.73136C9.5237 6.71155 9.91436 6.53069 10.2295 6.19586L10.0702 6.04594ZM9.05863 6.51281V6.29406H8.96785V6.51281V6.73156H9.05863V6.51281ZM8.96785 6.51281V6.29406C8.75083 6.29406 8.58497 6.25521 8.4602 6.18955L8.35832 6.38312L8.25644 6.5767C8.46022 6.68395 8.70071 6.73156 8.96785 6.73156V6.51281ZM8.35832 6.38312L8.4602 6.18955C8.31944 6.11546 8.20994 6.0258 8.12711 5.92225L7.95629 6.05891L7.78548 6.19556C7.91014 6.35139 8.06866 6.47787 8.25644 6.5767L8.35832 6.38312ZM7.95629 6.05891L8.13655 5.93498C8.05462 5.81581 7.99606 5.6908 7.95956 5.55942L7.74879 5.61797L7.53802 5.67652C7.58798 5.85638 7.66775 6.02534 7.77603 6.18283L7.95629 6.05891ZM7.74879 5.61797L7.96034 5.5623C7.92146 5.41455 7.9027 5.27333 7.9027 5.13812H7.68395H7.4652C7.4652 5.31417 7.48967 5.49284 7.53724 5.67364L7.74879 5.61797ZM7.68395 5.13812L7.54159 5.30421C7.61102 5.36372 7.68214 5.41421 7.75471 5.4505L7.85254 5.25484L7.95037 5.05919C7.91919 5.0436 7.87792 5.01628 7.82631 4.97204L7.68395 5.13812ZM7.85254 5.25484L7.78337 5.46237C7.8741 5.49261 8.0131 5.49953 8.16379 5.49953V5.28078V5.06203C8.08939 5.06203 8.0311 5.05994 7.98743 5.0563C7.96569 5.05449 7.94917 5.05242 7.93714 5.05042C7.92448 5.04831 7.92026 5.04683 7.92172 5.04732L7.85254 5.25484ZM8.16379 5.28078V5.49953C8.31533 5.49953 8.46465 5.45788 8.57785 5.34468L8.42317 5.19L8.26849 5.03532C8.26064 5.04316 8.23704 5.06203 8.16379 5.06203V5.28078ZM8.42317 5.19L8.57785 5.34468C8.67415 5.24838 8.74099 5.13268 8.77686 5.00115L8.56582 4.94359L8.35478 4.88604C8.33878 4.94471 8.31052 4.99329 8.26849 5.03532L8.42317 5.19ZM8.56582 4.94359L8.7714 5.01835C8.81561 4.89678 8.83645 4.76743 8.83645 4.63234H8.6177H8.39895C8.39895 4.72205 8.3852 4.8002 8.36024 4.86884L8.56582 4.94359ZM8.6177 4.63234L8.83589 4.64793C8.84481 4.52304 8.84942 4.40961 8.84942 4.30812H8.63067H8.41192C8.41192 4.39684 8.40787 4.49957 8.3995 4.61676L8.6177 4.63234ZM8.63067 4.30812H8.84942V1.59766H8.63067H8.41192V4.30812H8.63067ZM10.2907 11V10.7812H10.161V11V11.2188H10.2907V11ZM10.161 11V10.7812C9.9503 10.7812 9.73934 10.761 9.52791 10.7203L9.4866 10.9352L9.44529 11.15C9.68345 11.1958 9.92207 11.2188 10.161 11.2188V11ZM9.4866 10.9352L9.5295 10.7207C9.33811 10.6824 9.16384 10.6139 9.00518 10.5157L8.89004 10.7017L8.7749 10.8877C8.97937 11.0143 9.20281 11.1015 9.4437 11.1497L9.4866 10.9352ZM8.89004 10.7017L9.00926 10.5183C8.86889 10.4271 8.74949 10.2988 8.65251 10.1272L8.46207 10.2348L8.27164 10.3425C8.39944 10.5686 8.56536 10.7516 8.77082 10.8851L8.89004 10.7017ZM8.46207 10.2348L8.65251 10.1272C8.56464 9.97174 8.51223 9.75322 8.51223 9.45672H8.29348H8.07473C8.07473 9.80001 8.13472 10.1002 8.27164 10.3425L8.46207 10.2348ZM8.29348 9.45672H8.51223V6.70734H8.29348H8.07473V9.45672H8.29348ZM8.29348 6.70734V6.92609H8.50098V6.70734V6.48859H8.29348V6.70734ZM8.50098 6.70734V6.92609C8.69945 6.92609 8.89846 6.94989 9.09837 6.99787L9.14942 6.78516L9.20047 6.57245C8.96808 6.51667 8.7348 6.48859 8.50098 6.48859V6.70734ZM9.14942 6.78516L9.10652 6.99966C9.29381 7.03712 9.45382 7.10712 9.59028 7.20767L9.72004 7.03156L9.8498 6.85546C9.65772 6.71392 9.43732 6.61965 9.19232 6.57065L9.14942 6.78516ZM9.72004 7.03156L9.60082 7.21497C9.73945 7.30508 9.8532 7.43115 9.9411 7.59962L10.135 7.49844L10.329 7.39725C10.2094 7.16802 10.0465 6.98284 9.83926 6.84815L9.72004 7.03156ZM10.135 7.49844L9.9411 7.59962C10.0235 7.75751 10.0719 7.97466 10.0719 8.26359H10.2907H10.5094C10.5094 7.93002 10.4541 7.63708 10.329 7.39725L10.135 7.49844ZM10.2907 8.26359H10.0719V11H10.2907H10.5094V8.26359H10.2907Z" fill="#3504FB" mask="url(#path-2-outside-1_3_21)"/>
</g>
</g>
<defs>
<clipPath id="clip0_3_21">
<rect width="16" height="16" fill="white"/>
</clipPath>
<clipPath id="clip1_3_21">
<rect width="16" height="16" fill="white"/>
</clipPath>
</defs>
</svg>
