<svg width="150" height="150" viewBox="0 0 150 150" fill="none" xmlns="http://www.w3.org/2000/svg">
<g clip-path="url(#clip0_3_2)">
<g clip-path="url(#clip1_3_2)">
<path d="M1.65845 1.15313L147.252 1.04336L74.4567 146.692L1.65845 1.15313Z" fill="#3504FB" stroke="#3504FB" stroke-width="2.05078"/>
<mask id="path-2-outside-1_3_2" maskUnits="userSpaceOnUse" x="50.6538" y="14" width="50" height="94" fill="black">
<rect fill="white" x="50.6538" y="14" width="50" height="94"/>
<path d="M70.2132 90.4102C70.2132 93.2471 69.6458 95.5977 68.5111 97.4619C67.3763 99.3262 65.9578 100.826 64.2557 101.96C62.5535 103.014 60.6487 103.784 58.5413 104.271C56.515 104.757 54.5696 105 52.7054 105V34.3608C52.7054 28.687 54.0023 24.3101 56.596 21.23C59.1898 18.1499 62.9183 16.6099 67.7816 16.6099C70.2132 16.6099 72.199 17.0151 73.7391 17.8257C75.2791 18.6362 76.4544 19.6899 77.265 20.9868C78.1566 22.2837 78.7645 23.7021 79.0887 25.2422C79.4129 26.7012 79.575 28.1196 79.575 29.4976C79.575 30.227 79.494 30.7539 79.3319 31.0781C78.2781 30.1865 77.0218 29.7407 75.5628 29.7407C74.347 29.7407 73.3743 29.9839 72.6448 30.4702C71.9964 30.8755 71.4696 31.4429 71.0643 32.1724C70.7401 32.8208 70.4969 33.5908 70.3348 34.4824C70.2537 35.374 70.2132 36.3062 70.2132 37.2788V90.4102ZM80.9124 16.853H82.493C87.1131 16.853 90.9227 18.312 93.9217 21.23C96.9207 24.0669 98.4202 28.2007 98.4202 33.6313V46.3975C98.4202 51.7471 97.0828 55.7998 94.408 58.5557C91.8143 61.3115 88.6531 62.7705 84.9246 62.9326H84.0736C81.804 62.9326 79.8992 62.5273 78.3592 61.7168C76.8192 60.9062 75.5628 59.8931 74.5902 58.6772C73.6986 57.3804 73.0501 56.0024 72.6448 54.5435C72.2396 53.0034 72.0369 51.5039 72.0369 50.0449C72.6043 50.5312 73.1312 50.896 73.6175 51.1392C74.1038 51.3013 75.0765 51.3823 76.5355 51.3823C77.5892 51.3823 78.3997 51.0986 78.9671 50.5312C79.6155 49.8828 80.0613 49.1128 80.3045 48.2212C80.6287 47.3296 80.7908 46.3569 80.7908 45.3032C80.8719 44.1685 80.9124 43.1553 80.9124 42.2637V16.853ZM96.4749 105H95.2591C93.1517 105 91.0443 104.797 88.9368 104.392C86.9105 103.987 85.0462 103.257 83.3441 102.204C81.723 101.15 80.3856 99.6909 79.3319 97.8267C78.2781 95.9624 77.7513 93.5308 77.7513 90.5317V64.7563H79.6966C81.723 64.7563 83.7493 64.9995 85.7757 65.4858C87.8021 65.8911 89.5853 66.6611 91.1253 67.7959C92.7464 68.8496 94.0433 70.3086 95.0159 72.1729C95.9886 74.0371 96.4749 76.4282 96.4749 79.3462V105Z"/>
</mask>
<path d="M70.2132 90.4102C70.2132 93.2471 69.6458 95.5977 68.5111 97.4619C67.3763 99.3262 65.9578 100.826 64.2557 101.96C62.5535 103.014 60.6487 103.784 58.5413 104.271C56.515 104.757 54.5696 105 52.7054 105V34.3608C52.7054 28.687 54.0023 24.3101 56.596 21.23C59.1898 18.1499 62.9183 16.6099 67.7816 16.6099C70.2132 16.6099 72.199 17.0151 73.7391 17.8257C75.2791 18.6362 76.4544 19.6899 77.265 20.9868C78.1566 22.2837 78.7645 23.7021 79.0887 25.2422C79.4129 26.7012 79.575 28.1196 79.575 29.4976C79.575 30.227 79.494 30.7539 79.3319 31.0781C78.2781 30.1865 77.0218 29.7407 75.5628 29.7407C74.347 29.7407 73.3743 29.9839 72.6448 30.4702C71.9964 30.8755 71.4696 31.4429 71.0643 32.1724C70.7401 32.8208 70.4969 33.5908 70.3348 34.4824C70.2537 35.374 70.2132 36.3062 70.2132 37.2788V90.4102ZM80.9124 16.853H82.493C87.1131 16.853 90.9227 18.312 93.9217 21.23C96.9207 24.0669 98.4202 28.2007 98.4202 33.6313V46.3975C98.4202 51.7471 97.0828 55.7998 94.408 58.5557C91.8143 61.3115 88.6531 62.7705 84.9246 62.9326H84.0736C81.804 62.9326 79.8992 62.5273 78.3592 61.7168C76.8192 60.9062 75.5628 59.8931 74.5902 58.6772C73.6986 57.3804 73.0501 56.0024 72.6448 54.5435C72.2396 53.0034 72.0369 51.5039 72.0369 50.0449C72.6043 50.5312 73.1312 50.896 73.6175 51.1392C74.1038 51.3013 75.0765 51.3823 76.5355 51.3823C77.5892 51.3823 78.3997 51.0986 78.9671 50.5312C79.6155 49.8828 80.0613 49.1128 80.3045 48.2212C80.6287 47.3296 80.7908 46.3569 80.7908 45.3032C80.8719 44.1685 80.9124 43.1553 80.9124 42.2637V16.853ZM96.4749 105H95.2591C93.1517 105 91.0443 104.797 88.9368 104.392C86.9105 103.987 85.0462 103.257 83.3441 102.204C81.723 101.15 80.3856 99.6909 79.3319 97.8267C78.2781 95.9624 77.7513 93.5308 77.7513 90.5317V64.7563H79.6966C81.723 64.7563 83.7493 64.9995 85.7757 65.4858C87.8021 65.8911 89.5853 66.6611 91.1253 67.7959C92.7464 68.8496 94.0433 70.3086 95.0159 72.1729C95.9886 74.0371 96.4749 76.4282 96.4749 79.3462V105Z" fill="#FFFEFE"/>
<path d="M68.5111 97.4619L66.7593 96.3956L66.7593 96.3956L68.5111 97.4619ZM64.2557 101.96L65.3351 103.704L65.3645 103.686L65.3933 103.667L64.2557 101.96ZM58.5413 104.271L58.0802 102.272L58.0715 102.274L58.0627 102.276L58.5413 104.271ZM52.7054 105H50.6546V107.051H52.7054V105ZM56.596 21.23L58.1647 22.551L58.1647 22.551L56.596 21.23ZM73.7391 17.8257L72.7839 19.6405L72.7839 19.6405L73.7391 17.8257ZM77.265 20.9868L75.5259 22.0737L75.5496 22.1117L75.575 22.1486L77.265 20.9868ZM79.0887 25.2422L77.0819 25.6647L77.0843 25.6759L77.0867 25.6871L79.0887 25.2422ZM79.3319 31.0781L78.0072 32.6437L79.9992 34.3292L81.1661 31.9953L79.3319 31.0781ZM72.6448 30.4702L73.7318 32.2093L73.7573 32.1933L73.7824 32.1766L72.6448 30.4702ZM71.0643 32.1724L69.2716 31.1764L69.2499 31.2154L69.23 31.2552L71.0643 32.1724ZM70.3348 34.4824L68.3171 34.1156L68.3007 34.2056L68.2924 34.2967L70.3348 34.4824ZM80.9124 16.853V14.8022H78.8616V16.853H80.9124ZM93.9217 21.23L92.4916 22.6998L92.5019 22.7099L92.5124 22.7198L93.9217 21.23ZM94.408 58.5557L92.9364 57.1273L92.9254 57.1387L92.9146 57.1501L94.408 58.5557ZM84.9246 62.9326V64.9834H84.9692L85.0137 64.9815L84.9246 62.9326ZM78.3592 61.7168L77.4041 63.5316L77.4041 63.5316L78.3592 61.7168ZM74.5902 58.6772L72.9002 59.8391L72.9423 59.9003L72.9888 59.9584L74.5902 58.6772ZM72.6448 54.5435L70.6616 55.0654L70.6651 55.0789L70.6689 55.0923L72.6448 54.5435ZM72.0369 50.0449L73.3716 48.4879L69.9862 45.5861V50.0449H72.0369ZM73.6175 51.1392L72.7004 52.9734L72.8307 53.0386L72.969 53.0847L73.6175 51.1392ZM78.9671 50.5312L80.4172 51.9814L78.9671 50.5312ZM80.3045 48.2212L78.3772 47.5203L78.3483 47.5999L78.326 47.6816L80.3045 48.2212ZM80.7908 45.3032L78.7453 45.1571L78.7401 45.2301V45.3032H80.7908ZM96.4749 105V107.051H98.5257V105H96.4749ZM88.9368 104.392L88.5346 106.403L88.5421 106.405L88.5496 106.406L88.9368 104.392ZM83.3441 102.204L82.2264 103.923L82.2454 103.935L82.2646 103.947L83.3441 102.204ZM79.3319 97.8267L81.1172 96.8176L81.1172 96.8176L79.3319 97.8267ZM77.7513 64.7563V62.7056H75.7005V64.7563H77.7513ZM85.7757 65.4858L85.2971 67.48L85.3352 67.4891L85.3735 67.4968L85.7757 65.4858ZM91.1253 67.7959L89.9088 69.4469L89.9572 69.4826L90.0077 69.5154L91.1253 67.7959ZM95.0159 72.1729L96.8341 71.2242L96.8341 71.2242L95.0159 72.1729ZM70.2132 90.4102H68.1624C68.1624 92.9815 67.648 94.9355 66.7593 96.3956L68.5111 97.4619L70.2628 98.5282C71.6436 96.2598 72.264 93.5127 72.264 90.4102H70.2132ZM68.5111 97.4619L66.7593 96.3956C65.7695 98.0217 64.5549 99.2963 63.1181 100.254L64.2557 101.96L65.3933 103.667C67.3608 102.355 68.9831 100.631 70.2628 98.5282L68.5111 97.4619ZM64.2557 101.96L63.1762 100.217C61.6796 101.143 59.9865 101.832 58.0802 102.272L58.5413 104.271L59.0025 106.269C61.311 105.736 63.4274 104.885 65.3351 103.704L64.2557 101.96ZM58.5413 104.271L58.0627 102.276C56.175 102.729 54.3908 102.949 52.7054 102.949V105V107.051C54.7485 107.051 56.8549 106.784 59.0199 106.265L58.5413 104.271ZM52.7054 105H54.7562V34.3608H52.7054H50.6546V105H52.7054ZM52.7054 34.3608H54.7562C54.7562 28.9751 55.9884 25.1353 58.1647 22.551L56.596 21.23L55.0273 19.909C52.0161 23.4849 50.6546 28.3989 50.6546 34.3608H52.7054ZM56.596 21.23L58.1647 22.551C60.2878 20.0297 63.3851 18.6606 67.7816 18.6606V16.6099V14.5591C62.4515 14.5591 58.0917 16.27 55.0273 19.909L56.596 21.23ZM67.7816 16.6099V18.6606C70.0052 18.6606 71.6319 19.0341 72.7839 19.6405L73.7391 17.8257L74.6942 16.0109C72.7662 14.9961 70.4212 14.5591 67.7816 14.5591V16.6099ZM73.7391 17.8257L72.7839 19.6405C74.048 20.3057 74.933 21.1251 75.5259 22.0737L77.265 20.9868L79.004 19.8999C77.9758 18.2548 76.5103 16.9667 74.6942 16.0109L73.7391 17.8257ZM77.265 20.9868L75.575 22.1486C76.3132 23.2224 76.8135 24.3896 77.0819 25.6647L79.0887 25.2422L81.0955 24.8197C80.7155 23.0147 79.9999 21.345 78.9549 19.825L77.265 20.9868ZM79.0887 25.2422L77.0867 25.6871C77.3812 27.0122 77.5242 28.2813 77.5242 29.4976H79.575H81.6258C81.6258 27.958 81.4446 26.3901 81.0906 24.7973L79.0887 25.2422ZM79.575 29.4976H77.5242C77.5242 29.7931 77.5074 29.9975 77.4873 30.128C77.4654 30.2703 77.4499 30.2563 77.4976 30.161L79.3319 31.0781L81.1661 31.9953C81.5533 31.2209 81.6258 30.2859 81.6258 29.4976H79.575ZM79.3319 31.0781L80.6565 29.5126C79.2103 28.2888 77.4769 27.6899 75.5628 27.6899V29.7407V31.7915C76.5667 31.7915 77.346 32.0842 78.0072 32.6437L79.3319 31.0781ZM75.5628 29.7407V27.6899C74.0935 27.6899 72.6807 27.9816 71.5073 28.7639L72.6448 30.4702L73.7824 32.1766C74.068 31.9862 74.6005 31.7915 75.5628 31.7915V29.7407ZM72.6448 30.4702L71.5579 28.7312C70.5887 29.3369 69.8296 30.1719 69.2716 31.1764L71.0643 32.1724L72.857 33.1683C73.1095 32.7138 73.4041 32.4141 73.7318 32.2093L72.6448 30.4702ZM71.0643 32.1724L69.23 31.2552C68.8004 32.1145 68.5057 33.0783 68.3171 34.1156L70.3348 34.4824L72.3525 34.8493C72.4881 34.1033 72.6798 33.5271 72.8986 33.0895L71.0643 32.1724ZM70.3348 34.4824L68.2924 34.2967C68.2053 35.2551 68.1624 36.2494 68.1624 37.2788H70.2132H72.264C72.264 36.3629 72.3022 35.4929 72.3771 34.6681L70.3348 34.4824ZM70.2132 37.2788H68.1624V90.4102H70.2132H72.264V37.2788H70.2132ZM80.9124 16.853V18.9038H82.493V16.853V14.8022H80.9124V16.853ZM82.493 16.853V18.9038C86.6397 18.9038 89.9169 20.1947 92.4916 22.6998L93.9217 21.23L95.3518 19.7601C91.9285 16.4293 87.5865 14.8022 82.493 14.8022V16.853ZM93.9217 21.23L92.5124 22.7198C94.9839 25.0577 96.3695 28.5781 96.3695 33.6313H98.4202H100.471C100.471 27.8232 98.8575 23.0761 95.331 19.7402L93.9217 21.23ZM98.4202 33.6313H96.3695V46.3975H98.4202H100.471V33.6313H98.4202ZM98.4202 46.3975H96.3695C96.3695 51.4259 95.1145 54.8833 92.9364 57.1273L94.408 58.5557L95.8796 59.984C99.0512 56.7163 100.471 52.0683 100.471 46.3975H98.4202ZM94.408 58.5557L92.9146 57.1501C90.6815 59.5228 88.0217 60.7452 84.8356 60.8838L84.9246 62.9326L85.0137 64.9815C89.2846 64.7958 92.947 63.1002 95.9014 59.9612L94.408 58.5557ZM84.9246 62.9326V60.8818H84.0736V62.9326V64.9834H84.9246V62.9326ZM84.0736 62.9326V60.8818C82.039 60.8818 80.484 60.5176 79.3143 59.902L78.3592 61.7168L77.4041 63.5316C79.3145 64.5371 81.5691 64.9834 84.0736 64.9834V62.9326ZM78.3592 61.7168L79.3143 59.902C77.9947 59.2075 76.9681 58.3669 76.1915 57.3961L74.5902 58.6772L72.9888 59.9584C74.1575 61.4193 75.6436 62.605 77.4041 63.5316L78.3592 61.7168ZM74.5902 58.6772L76.2801 57.5154C75.512 56.3982 74.963 55.2263 74.6208 53.9946L72.6448 54.5435L70.6689 55.0923C71.1373 56.7786 71.8851 58.3626 72.9002 59.8391L74.5902 58.6772ZM72.6448 54.5435L74.6281 54.0215C74.2636 52.6364 74.0877 51.3125 74.0877 50.0449H72.0369H69.9862C69.9862 51.6953 70.2155 53.3704 70.6616 55.0654L72.6448 54.5435ZM72.0369 50.0449L70.7023 51.602C71.3532 52.1599 72.02 52.6333 72.7004 52.9734L73.6175 51.1392L74.5346 49.3049C74.2423 49.1587 73.8554 48.9026 73.3716 48.4879L72.0369 50.0449ZM73.6175 51.1392L72.969 53.0847C73.8196 53.3682 75.1227 53.4331 76.5355 53.4331V51.3823V49.3315C75.838 49.3315 75.2915 49.312 74.882 49.2778C74.6783 49.2609 74.5234 49.2415 74.4106 49.2227C74.2919 49.2029 74.2523 49.1891 74.266 49.1936L73.6175 51.1392ZM76.5355 51.3823V53.4331C77.9561 53.4331 79.356 53.0426 80.4172 51.9814L78.9671 50.5312L77.517 49.0811C77.4435 49.1547 77.2222 49.3315 76.5355 49.3315V51.3823ZM78.9671 50.5312L80.4172 51.9814C81.3201 51.0785 81.9467 49.9939 82.283 48.7608L80.3045 48.2212L78.326 47.6816C78.176 48.2317 77.911 48.6871 77.517 49.0811L78.9671 50.5312ZM80.3045 48.2212L82.2318 48.922C82.6463 47.7823 82.8416 46.5696 82.8416 45.3032H80.7908H78.7401C78.7401 46.1442 78.6112 46.8769 78.3772 47.5203L80.3045 48.2212ZM80.7908 45.3032L82.8364 45.4493C82.92 44.2785 82.9632 43.2151 82.9632 42.2637H80.9124H78.8616C78.8616 43.0954 78.8237 44.0585 78.7453 45.1571L80.7908 45.3032ZM80.9124 42.2637H82.9632V16.853H80.9124H78.8616V42.2637H80.9124ZM96.4749 105V102.949H95.2591V105V107.051H96.4749V105ZM95.2591 105V102.949C93.284 102.949 91.3063 102.759 89.3241 102.378L88.9368 104.392L88.5496 106.406C90.7823 106.835 93.0193 107.051 95.2591 107.051V105ZM88.9368 104.392L89.339 102.381C87.5447 102.022 85.9109 101.381 84.4235 100.46L83.3441 102.204L82.2646 103.947C84.1815 105.134 86.2763 105.951 88.5346 106.403L88.9368 104.392ZM83.3441 102.204L84.4617 100.484C83.1458 99.6288 82.0264 98.4262 81.1172 96.8176L79.3319 97.8267L77.5465 98.8358C78.7447 100.956 80.3002 102.671 82.2264 103.923L83.3441 102.204ZM79.3319 97.8267L81.1172 96.8176C80.2934 95.3601 79.8021 93.3114 79.8021 90.5317H77.7513H75.7005C75.7005 93.7501 76.2629 96.5647 77.5465 98.8358L79.3319 97.8267ZM77.7513 90.5317H79.8021V64.7563H77.7513H75.7005V90.5317H77.7513ZM77.7513 64.7563V66.8071H79.6966V64.7563V62.7056H77.7513V64.7563ZM79.6966 64.7563V66.8071C81.5572 66.8071 83.423 67.0302 85.2971 67.48L85.7757 65.4858L86.2543 63.4917C84.0756 62.9688 81.8887 62.7056 79.6966 62.7056V64.7563ZM85.7757 65.4858L85.3735 67.4968C87.1294 67.848 88.6295 68.5043 89.9088 69.4469L91.1253 67.7959L92.3418 66.1449C90.541 64.818 88.4748 63.9343 86.1779 63.4749L85.7757 65.4858ZM91.1253 67.7959L90.0077 69.5154C91.3072 70.3601 92.3737 71.542 93.1977 73.1215L95.0159 72.1729L96.8341 71.2242C95.7129 69.0752 94.1856 67.3391 92.243 66.0764L91.1253 67.7959ZM95.0159 72.1729L93.1977 73.1215C93.97 74.6016 94.4241 76.6375 94.4241 79.3462H96.4749H98.5257C98.5257 76.219 98.0072 73.4726 96.8341 71.2242L95.0159 72.1729ZM96.4749 79.3462H94.4241V105H96.4749H98.5257V79.3462H96.4749Z" fill="#3504FB" mask="url(#path-2-outside-1_3_2)"/>
</g>
</g>
<defs>
<clipPath id="clip0_3_2">
<rect width="150" height="150" fill="white"/>
</clipPath>
<clipPath id="clip1_3_2">
<rect width="150" height="150" fill="white"/>
</clipPath>
</defs>
</svg>
