<svg width="310" height="150" viewBox="0 0 310 150" fill="none" xmlns="http://www.w3.org/2000/svg">
<g clip-path="url(#clip0_3_0)">
<path d="M109.04 28.7225L200.279 28.6537L154.66 119.927L109.04 28.7225Z" fill="#3504FB" stroke="#3504FB" stroke-width="1.28516"/>
<mask id="path-2-outside-1_3_0" maskUnits="userSpaceOnUse" x="139.476" y="37" width="32" height="59" fill="black">
<rect fill="white" x="139.476" y="37" width="32" height="59"/>
<path d="M152 84.857C152 86.6348 151.645 88.1079 150.934 89.2761C150.222 90.4444 149.334 91.3841 148.267 92.0952C147.2 92.7555 146.007 93.2381 144.686 93.5429C143.416 93.8476 142.197 94 141.029 94V49.7328C141.029 46.1772 141.841 43.4343 143.467 41.5041C145.092 39.5739 147.429 38.6088 150.476 38.6088C152 38.6088 153.245 38.8628 154.21 39.3708C155.175 39.8787 155.911 40.539 156.419 41.3517C156.978 42.1644 157.359 43.0533 157.562 44.0184C157.765 44.9327 157.867 45.8216 157.867 46.6851C157.867 47.1423 157.816 47.4724 157.715 47.6756C157.054 47.1169 156.267 46.8375 155.353 46.8375C154.591 46.8375 153.981 46.9899 153.524 47.2947C153.118 47.5486 152.788 47.9042 152.534 48.3613C152.33 48.7677 152.178 49.2502 152.076 49.809C152.026 50.3677 152 50.9519 152 51.5614V84.857ZM158.705 38.7612H159.696C162.591 38.7612 164.978 39.6755 166.858 41.5041C168.737 43.2819 169.677 45.8724 169.677 49.2756V57.2757C169.677 60.6282 168.839 63.1679 167.162 64.8949C165.537 66.6219 163.556 67.5362 161.219 67.6378H160.686C159.264 67.6378 158.07 67.3838 157.105 66.8759C156.14 66.3679 155.353 65.733 154.743 64.9711C154.184 64.1584 153.778 63.2949 153.524 62.3806C153.27 61.4155 153.143 60.4758 153.143 59.5615C153.499 59.8662 153.829 60.0948 154.134 60.2472C154.438 60.3488 155.048 60.3996 155.962 60.3996C156.623 60.3996 157.13 60.2218 157.486 59.8662C157.892 59.4599 158.172 58.9773 158.324 58.4186C158.527 57.8599 158.629 57.2503 158.629 56.59C158.68 55.8789 158.705 55.244 158.705 54.6852V38.7612ZM168.458 94H167.696C166.375 94 165.054 93.873 163.734 93.619C162.464 93.3651 161.296 92.9079 160.229 92.2476C159.213 91.5873 158.375 90.673 157.715 89.5047C157.054 88.3364 156.724 86.8126 156.724 84.9332V68.7806H157.943C159.213 68.7806 160.483 68.933 161.753 69.2378C163.023 69.4918 164.14 69.9743 165.105 70.6854C166.121 71.3458 166.934 72.2601 167.543 73.4283C168.153 74.5966 168.458 76.095 168.458 77.9236V94Z"/>
</mask>
<path d="M152 84.857C152 86.6348 151.645 88.1079 150.934 89.2761C150.222 90.4444 149.334 91.3841 148.267 92.0952C147.2 92.7555 146.007 93.2381 144.686 93.5429C143.416 93.8476 142.197 94 141.029 94V49.7328C141.029 46.1772 141.841 43.4343 143.467 41.5041C145.092 39.5739 147.429 38.6088 150.476 38.6088C152 38.6088 153.245 38.8628 154.21 39.3708C155.175 39.8787 155.911 40.539 156.419 41.3517C156.978 42.1644 157.359 43.0533 157.562 44.0184C157.765 44.9327 157.867 45.8216 157.867 46.6851C157.867 47.1423 157.816 47.4724 157.715 47.6756C157.054 47.1169 156.267 46.8375 155.353 46.8375C154.591 46.8375 153.981 46.9899 153.524 47.2947C153.118 47.5486 152.788 47.9042 152.534 48.3613C152.33 48.7677 152.178 49.2502 152.076 49.809C152.026 50.3677 152 50.9519 152 51.5614V84.857ZM158.705 38.7612H159.696C162.591 38.7612 164.978 39.6755 166.858 41.5041C168.737 43.2819 169.677 45.8724 169.677 49.2756V57.2757C169.677 60.6282 168.839 63.1679 167.162 64.8949C165.537 66.6219 163.556 67.5362 161.219 67.6378H160.686C159.264 67.6378 158.07 67.3838 157.105 66.8759C156.14 66.3679 155.353 65.733 154.743 64.9711C154.184 64.1584 153.778 63.2949 153.524 62.3806C153.27 61.4155 153.143 60.4758 153.143 59.5615C153.499 59.8662 153.829 60.0948 154.134 60.2472C154.438 60.3488 155.048 60.3996 155.962 60.3996C156.623 60.3996 157.13 60.2218 157.486 59.8662C157.892 59.4599 158.172 58.9773 158.324 58.4186C158.527 57.8599 158.629 57.2503 158.629 56.59C158.68 55.8789 158.705 55.244 158.705 54.6852V38.7612ZM168.458 94H167.696C166.375 94 165.054 93.873 163.734 93.619C162.464 93.3651 161.296 92.9079 160.229 92.2476C159.213 91.5873 158.375 90.673 157.715 89.5047C157.054 88.3364 156.724 86.8126 156.724 84.9332V68.7806H157.943C159.213 68.7806 160.483 68.933 161.753 69.2378C163.023 69.4918 164.14 69.9743 165.105 70.6854C166.121 71.3458 166.934 72.2601 167.543 73.4283C168.153 74.5966 168.458 76.095 168.458 77.9236V94Z" fill="#FFFEFE"/>
<path d="M150.934 89.2761L149.836 88.6079L149.836 88.6079L150.934 89.2761ZM148.267 92.0952L148.943 93.1879L148.962 93.1765L148.98 93.1645L148.267 92.0952ZM144.686 93.5429L144.397 92.2906L144.386 92.2932L144.686 93.5429ZM141.029 94H139.744V95.2852H141.029V94ZM143.467 41.5041L144.45 42.3319L144.45 42.3319L143.467 41.5041ZM154.21 39.3708L153.611 40.508L153.611 40.508L154.21 39.3708ZM156.419 41.3517L155.33 42.0329L155.344 42.0567L155.36 42.0798L156.419 41.3517ZM157.562 44.0184L156.305 44.2832L156.306 44.2902L156.308 44.2972L157.562 44.0184ZM157.715 47.6756L156.884 48.6567L158.133 49.713L158.864 48.2504L157.715 47.6756ZM153.524 47.2947L154.205 48.3845L154.221 48.3745L154.237 48.364L153.524 47.2947ZM152.534 48.3613L151.41 47.7372L151.397 47.7616L151.384 47.7866L152.534 48.3613ZM152.076 49.809L150.812 49.5791L150.802 49.6355L150.797 49.6926L152.076 49.809ZM158.705 38.7612V37.4761H157.42V38.7612H158.705ZM166.858 41.5041L165.961 42.4252L165.968 42.4315L165.974 42.4377L166.858 41.5041ZM167.162 64.8949L166.24 63.9998L166.233 64.0069L166.227 64.0141L167.162 64.8949ZM161.219 67.6378V68.9229H161.247L161.275 68.9217L161.219 67.6378ZM157.105 66.8759L156.507 68.0131L156.507 68.0131L157.105 66.8759ZM154.743 64.9711L153.684 65.6992L153.711 65.7375L153.74 65.7739L154.743 64.9711ZM153.524 62.3806L152.281 62.7076L152.283 62.7161L152.286 62.7245L153.524 62.3806ZM153.143 59.5615L153.98 58.5857L151.858 56.7673V59.5615H153.143ZM154.134 60.2472L153.559 61.3967L153.641 61.4375L153.727 61.4664L154.134 60.2472ZM158.324 58.4186L157.116 57.9794L157.098 58.0293L157.084 58.0805L158.324 58.4186ZM158.629 56.59L157.347 56.4985L157.344 56.5442V56.59H158.629ZM168.458 94V95.2852H169.743V94H168.458ZM163.734 93.619L163.482 94.8793L163.491 94.8811L163.734 93.619ZM160.229 92.2476L159.529 93.3251L159.54 93.3329L159.553 93.3403L160.229 92.2476ZM157.715 89.5047L158.833 88.8723L158.833 88.8723L157.715 89.5047ZM156.724 68.7806V67.4955H155.439V68.7806H156.724ZM161.753 69.2378L161.453 70.4875L161.477 70.4932L161.501 70.498L161.753 69.2378ZM165.105 70.6854L164.343 71.7201L164.373 71.7424L164.405 71.763L165.105 70.6854ZM167.543 73.4283L168.683 72.8339L168.683 72.8338L167.543 73.4283ZM152 84.857H150.715C150.715 86.4684 150.393 87.6929 149.836 88.6079L150.934 89.2761L152.031 89.9443C152.897 88.5228 153.285 86.8013 153.285 84.857H152ZM150.934 89.2761L149.836 88.6079C149.216 89.6269 148.454 90.4257 147.554 91.0259L148.267 92.0952L148.98 93.1645C150.213 92.3425 151.229 91.2619 152.031 89.9443L150.934 89.2761ZM148.267 92.0952L147.59 91.0025C146.653 91.5831 145.592 92.0149 144.397 92.2906L144.686 93.5429L144.975 94.7951C146.422 94.4613 147.748 93.928 148.943 93.1879L148.267 92.0952ZM144.686 93.5429L144.386 92.2932C143.203 92.5771 142.085 92.7148 141.029 92.7148V94V95.2852C142.309 95.2852 143.629 95.1181 144.986 94.7925L144.686 93.5429ZM141.029 94H142.314V49.7328H141.029H139.744V94H141.029ZM141.029 49.7328H142.314C142.314 46.3577 143.086 43.9514 144.45 42.3319L143.467 41.5041L142.484 40.6763C140.597 42.9172 139.744 45.9967 139.744 49.7328H141.029ZM143.467 41.5041L144.45 42.3319C145.78 40.752 147.721 39.894 150.476 39.894V38.6088V37.3237C147.136 37.3237 144.404 38.3959 142.484 40.6763L143.467 41.5041ZM150.476 38.6088V39.894C151.87 39.894 152.889 40.1281 153.611 40.508L154.21 39.3708L154.808 38.2335C153.6 37.5976 152.131 37.3237 150.476 37.3237V38.6088ZM154.21 39.3708L153.611 40.508C154.403 40.9249 154.958 41.4384 155.33 42.0329L156.419 41.3517L157.509 40.6706C156.865 39.6397 155.946 38.8325 154.808 38.2335L154.21 39.3708ZM156.419 41.3517L155.36 42.0798C155.823 42.7527 156.136 43.4841 156.305 44.2832L157.562 44.0184L158.82 43.7537C158.582 42.6226 158.133 41.5762 157.478 40.6237L156.419 41.3517ZM157.562 44.0184L156.308 44.2972C156.492 45.1276 156.582 45.9229 156.582 46.6851H157.867H159.152C159.152 45.7203 159.039 44.7378 158.817 43.7396L157.562 44.0184ZM157.867 46.6851H156.582C156.582 46.8703 156.571 46.9984 156.559 47.0802C156.545 47.1694 156.535 47.1606 156.565 47.1009L157.715 47.6756L158.864 48.2504C159.107 47.7651 159.152 47.1792 159.152 46.6851H157.867ZM157.715 47.6756L158.545 46.6946C157.638 45.9277 156.552 45.5524 155.353 45.5524V46.8375V48.1227C155.982 48.1227 156.47 48.3061 156.884 48.6567L157.715 47.6756ZM155.353 46.8375V45.5524C154.432 45.5524 153.547 45.7351 152.811 46.2254L153.524 47.2947L154.237 48.364C154.416 48.2447 154.75 48.1227 155.353 48.1227V46.8375ZM153.524 47.2947L152.843 46.2049C152.236 46.5845 151.76 47.1077 151.41 47.7372L152.534 48.3613L153.657 48.9855C153.815 48.7007 154 48.5128 154.205 48.3845L153.524 47.2947ZM152.534 48.3613L151.384 47.7866C151.115 48.3251 150.93 48.9291 150.812 49.5791L152.076 49.809L153.341 50.0389C153.426 49.5714 153.546 49.2103 153.683 48.9361L152.534 48.3613ZM152.076 49.809L150.797 49.6926C150.742 50.2932 150.715 50.9163 150.715 51.5614H152H153.285C153.285 50.9874 153.309 50.4422 153.356 49.9253L152.076 49.809ZM152 51.5614H150.715V84.857H152H153.285V51.5614H152ZM158.705 38.7612V40.0464H159.696V38.7612V37.4761H158.705V38.7612ZM159.696 38.7612V40.0464C162.294 40.0464 164.348 40.8554 165.961 42.4252L166.858 41.5041L167.754 40.583C165.609 38.4957 162.888 37.4761 159.696 37.4761V38.7612ZM166.858 41.5041L165.974 42.4377C167.523 43.9028 168.392 46.109 168.392 49.2756H169.677H170.962C170.962 45.6359 169.951 42.661 167.741 40.5705L166.858 41.5041ZM169.677 49.2756H168.392V57.2757H169.677H170.962V49.2756H169.677ZM169.677 57.2757H168.392C168.392 60.4269 167.605 62.5935 166.24 63.9998L167.162 64.8949L168.085 65.79C170.072 63.7422 170.962 60.8294 170.962 57.2757H169.677ZM167.162 64.8949L166.227 64.0141C164.827 65.501 163.16 66.267 161.164 66.3538L161.219 67.6378L161.275 68.9217C163.952 68.8053 166.247 67.7428 168.098 65.7757L167.162 64.8949ZM161.219 67.6378V66.3526H160.686V67.6378V68.9229H161.219V67.6378ZM160.686 67.6378V66.3526C159.411 66.3526 158.437 66.1244 157.704 65.7386L157.105 66.8759L156.507 68.0131C157.704 68.6432 159.117 68.9229 160.686 68.9229V67.6378ZM157.105 66.8759L157.704 65.7386C156.877 65.3033 156.233 64.7766 155.747 64.1682L154.743 64.9711L153.74 65.7739C154.472 66.6894 155.403 67.4325 156.507 68.0131L157.105 66.8759ZM154.743 64.9711L155.802 64.243C155.321 63.5429 154.977 62.8085 154.762 62.0366L153.524 62.3806L152.286 62.7245C152.579 63.7812 153.048 64.7739 153.684 65.6992L154.743 64.9711ZM153.524 62.3806L154.767 62.0535C154.539 61.1855 154.428 60.3558 154.428 59.5615H153.143H151.858C151.858 60.5957 152.002 61.6455 152.281 62.7076L153.524 62.3806ZM153.143 59.5615L152.307 60.5372C152.715 60.8869 153.133 61.1835 153.559 61.3967L154.134 60.2472L154.708 59.0977C154.525 59.0061 154.283 58.8456 153.98 58.5857L153.143 59.5615ZM154.134 60.2472L153.727 61.4664C154.26 61.6441 155.077 61.6847 155.962 61.6847V60.3996V59.1144C155.525 59.1144 155.183 59.1022 154.926 59.0808C154.798 59.0701 154.701 59.058 154.631 59.0462C154.556 59.0338 154.531 59.0251 154.54 59.028L154.134 60.2472ZM155.962 60.3996V61.6847C156.853 61.6847 157.73 61.44 158.395 60.775L157.486 59.8662L156.577 58.9575C156.531 59.0036 156.393 59.1144 155.962 59.1144V60.3996ZM157.486 59.8662L158.395 60.775C158.961 60.2092 159.353 59.5295 159.564 58.7568L158.324 58.4186L157.084 58.0805C156.99 58.4252 156.824 58.7106 156.577 58.9575L157.486 59.8662ZM158.324 58.4186L159.532 58.8578C159.792 58.1436 159.914 57.3836 159.914 56.59H158.629H157.344C157.344 57.117 157.263 57.5762 157.116 57.9794L158.324 58.4186ZM158.629 56.59L159.911 56.6816C159.963 55.9478 159.99 55.2815 159.99 54.6852H158.705H157.42C157.42 55.2065 157.396 55.81 157.347 56.4985L158.629 56.59ZM158.705 54.6852H159.99V38.7612H158.705H157.42V54.6852H158.705ZM168.458 94V92.7148H167.696V94V95.2852H168.458V94ZM167.696 94V92.7148C166.458 92.7148 165.219 92.5959 163.976 92.357L163.734 93.619L163.491 94.8811C164.89 95.1501 166.292 95.2852 167.696 95.2852V94ZM163.734 93.619L163.986 92.3588C162.861 92.134 161.838 91.7319 160.905 91.1549L160.229 92.2476L159.553 93.3403C160.754 94.0839 162.066 94.5962 163.482 94.8792L163.734 93.619ZM160.229 92.2476L160.929 91.1701C160.105 90.634 159.403 89.8804 158.833 88.8723L157.715 89.5047L156.596 90.1371C157.347 91.4655 158.321 92.5405 159.529 93.3251L160.229 92.2476ZM157.715 89.5047L158.833 88.8723C158.317 87.959 158.009 86.6752 158.009 84.9332H156.724H155.439C155.439 86.9501 155.791 88.7139 156.596 90.1371L157.715 89.5047ZM156.724 84.9332H158.009V68.7806H156.724H155.439V84.9332H156.724ZM156.724 68.7806V70.0658H157.943V68.7806V67.4955H156.724V68.7806ZM157.943 68.7806V70.0658C159.109 70.0658 160.278 70.2056 161.453 70.4875L161.753 69.2378L162.053 67.9881C160.687 67.6605 159.317 67.4955 157.943 67.4955V68.7806ZM161.753 69.2378L161.501 70.498C162.601 70.7181 163.541 71.1293 164.343 71.7201L165.105 70.6854L165.868 69.6508C164.739 68.8193 163.444 68.2655 162.005 67.9776L161.753 69.2378ZM165.105 70.6854L164.405 71.763C165.219 72.2923 165.888 73.033 166.404 74.0228L167.543 73.4283L168.683 72.8338C167.98 71.4871 167.023 70.3992 165.806 69.6079L165.105 70.6854ZM167.543 73.4283L166.404 74.0228C166.888 74.9504 167.172 76.2261 167.172 77.9236H168.458H169.743C169.743 75.9639 169.418 74.2428 168.683 72.8339L167.543 73.4283ZM168.458 77.9236H167.172V94H168.458H169.743V77.9236H168.458Z" fill="#3504FB" mask="url(#path-2-outside-1_3_0)"/>
</g>
<defs>
<clipPath id="clip0_3_0">
<rect width="94" height="94" fill="white" transform="translate(108 28)"/>
</clipPath>
</defs>
</svg>
