<svg width="310" height="310" viewBox="0 0 310 310" fill="none" xmlns="http://www.w3.org/2000/svg">
<g clip-path="url(#clip0_3_1)">
<g clip-path="url(#clip1_3_1)">
<path d="M3.42802 2.3819L304.323 2.15505L153.877 303.164L3.42802 2.3819Z" fill="#3504FB" stroke="#3504FB" stroke-width="4.23828"/>
<mask id="path-2-outside-1_3_1" maskUnits="userSpaceOnUse" x="104.018" y="30" width="104" height="192" fill="black">
<rect fill="white" x="104.018" y="30" width="104" height="192"/>
<path d="M145.107 186.848C145.107 192.711 143.935 197.568 141.59 201.421C139.244 205.274 136.313 208.373 132.795 210.718C129.277 212.896 125.341 214.487 120.985 215.492C116.798 216.497 112.777 217 108.924 217V71.0124C108.924 59.2865 111.605 50.2408 116.965 43.8753C122.326 37.5098 130.031 34.327 140.082 34.327C145.107 34.327 149.211 35.1646 152.394 36.8397C155.577 38.5149 158.006 40.6925 159.681 43.3727C161.524 46.053 162.78 48.9844 163.45 52.1672C164.12 55.1824 164.455 58.1139 164.455 60.9616C164.455 62.4692 164.288 63.5581 163.953 64.2281C161.775 62.3855 159.178 61.4642 156.163 61.4642C153.65 61.4642 151.64 61.9667 150.133 62.9718C148.793 63.8093 147.704 64.9819 146.866 66.4895C146.196 67.8296 145.694 69.421 145.359 71.2637C145.191 73.1063 145.107 75.0327 145.107 77.0429V186.848ZM167.219 34.8296H170.486C180.034 34.8296 187.907 37.8448 194.105 43.8753C200.303 49.7382 203.402 58.2814 203.402 69.5048V95.8881C203.402 106.944 200.638 115.32 195.11 121.015C189.75 126.71 183.217 129.726 175.511 130.061H173.752C169.062 130.061 165.125 129.223 161.942 127.548C158.76 125.873 156.163 123.779 154.153 121.266C152.31 118.586 150.97 115.738 150.133 112.723C149.295 109.54 148.876 106.441 148.876 103.426C150.049 104.431 151.138 105.185 152.143 105.688C153.148 106.023 155.158 106.19 158.173 106.19C160.351 106.19 162.026 105.604 163.199 104.431C164.539 103.091 165.46 101.5 165.963 99.6571C166.633 97.8145 166.968 95.8043 166.968 93.6267C167.135 91.2815 167.219 89.1876 167.219 87.3449V34.8296ZM199.382 217H196.869C192.513 217 188.158 216.581 183.803 215.744C179.615 214.906 175.762 213.398 172.244 211.221C168.894 209.043 166.13 206.028 163.953 202.175C161.775 198.322 160.686 193.297 160.686 187.099V133.83H164.706C168.894 133.83 173.082 134.332 177.27 135.337C181.458 136.175 185.143 137.766 188.326 140.112C191.676 142.289 194.356 145.304 196.366 149.157C198.376 153.01 199.382 157.952 199.382 163.982V217Z"/>
</mask>
<path d="M145.107 186.848C145.107 192.711 143.935 197.568 141.59 201.421C139.244 205.274 136.313 208.373 132.795 210.718C129.277 212.896 125.341 214.487 120.985 215.492C116.798 216.497 112.777 217 108.924 217V71.0124C108.924 59.2865 111.605 50.2408 116.965 43.8753C122.326 37.5098 130.031 34.327 140.082 34.327C145.107 34.327 149.211 35.1646 152.394 36.8397C155.577 38.5149 158.006 40.6925 159.681 43.3727C161.524 46.053 162.78 48.9844 163.45 52.1672C164.12 55.1824 164.455 58.1139 164.455 60.9616C164.455 62.4692 164.288 63.5581 163.953 64.2281C161.775 62.3855 159.178 61.4642 156.163 61.4642C153.65 61.4642 151.64 61.9667 150.133 62.9718C148.793 63.8093 147.704 64.9819 146.866 66.4895C146.196 67.8296 145.694 69.421 145.359 71.2637C145.191 73.1063 145.107 75.0327 145.107 77.0429V186.848ZM167.219 34.8296H170.486C180.034 34.8296 187.907 37.8448 194.105 43.8753C200.303 49.7382 203.402 58.2814 203.402 69.5048V95.8881C203.402 106.944 200.638 115.32 195.11 121.015C189.75 126.71 183.217 129.726 175.511 130.061H173.752C169.062 130.061 165.125 129.223 161.942 127.548C158.76 125.873 156.163 123.779 154.153 121.266C152.31 118.586 150.97 115.738 150.133 112.723C149.295 109.54 148.876 106.441 148.876 103.426C150.049 104.431 151.138 105.185 152.143 105.688C153.148 106.023 155.158 106.19 158.173 106.19C160.351 106.19 162.026 105.604 163.199 104.431C164.539 103.091 165.46 101.5 165.963 99.6571C166.633 97.8145 166.968 95.8043 166.968 93.6267C167.135 91.2815 167.219 89.1876 167.219 87.3449V34.8296ZM199.382 217H196.869C192.513 217 188.158 216.581 183.803 215.744C179.615 214.906 175.762 213.398 172.244 211.221C168.894 209.043 166.13 206.028 163.953 202.175C161.775 198.322 160.686 193.297 160.686 187.099V133.83H164.706C168.894 133.83 173.082 134.332 177.27 135.337C181.458 136.175 185.143 137.766 188.326 140.112C191.676 142.289 194.356 145.304 196.366 149.157C198.376 153.01 199.382 157.952 199.382 163.982V217Z" fill="#FFFEFE"/>
<path d="M141.59 201.421L137.969 199.218L137.969 199.218L141.59 201.421ZM132.795 210.718L135.026 214.322L135.087 214.284L135.146 214.245L132.795 210.718ZM120.985 215.492L120.032 211.363L120.014 211.367L119.996 211.371L120.985 215.492ZM108.924 217H104.686V221.238H108.924V217ZM116.965 43.8753L120.207 46.6053L120.207 46.6053L116.965 43.8753ZM152.394 36.8397L150.42 40.5903L150.42 40.5903L152.394 36.8397ZM159.681 43.3727L156.087 45.619L156.136 45.6975L156.188 45.7738L159.681 43.3727ZM163.45 52.1672L159.303 53.0403L159.307 53.0635L159.313 53.0866L163.45 52.1672ZM163.953 64.2281L161.215 67.4636L165.332 70.947L167.743 66.1235L163.953 64.2281ZM150.133 62.9718L152.379 66.5658L152.432 66.5328L152.484 66.4982L150.133 62.9718ZM146.866 66.4895L143.161 64.4312L143.117 64.5118L143.075 64.5941L146.866 66.4895ZM145.359 71.2637L141.189 70.5055L141.155 70.6916L141.138 70.8799L145.359 71.2637ZM167.219 34.8296V30.5913H162.981V34.8296H167.219ZM194.105 43.8753L191.149 46.913L191.171 46.9338L191.192 46.9543L194.105 43.8753ZM195.11 121.015L192.069 118.063L192.046 118.087L192.024 118.11L195.11 121.015ZM175.511 130.061V134.299H175.603L175.695 134.295L175.511 130.061ZM161.942 127.548L159.968 131.299L159.968 131.299L161.942 127.548ZM154.153 121.266L150.66 123.667L150.748 123.794L150.843 123.914L154.153 121.266ZM150.133 112.723L146.034 113.802L146.041 113.83L146.049 113.857L150.133 112.723ZM148.876 103.426L151.635 100.208L144.638 94.2112V103.426H148.876ZM152.143 105.688L150.247 109.478L150.517 109.613L150.803 109.708L152.143 105.688ZM165.963 99.6571L161.98 98.2087L161.92 98.3732L161.874 98.542L165.963 99.6571ZM166.968 93.6267L162.74 93.3247L162.729 93.4755V93.6267H166.968ZM199.382 217V221.238H203.62V217H199.382ZM183.803 215.744L182.972 219.9L182.987 219.903L183.002 219.906L183.803 215.744ZM172.244 211.221L169.935 214.774L169.974 214.8L170.014 214.824L172.244 211.221ZM163.953 202.175L167.642 200.09L167.642 200.09L163.953 202.175ZM160.686 133.83V129.591H156.448V133.83H160.686ZM177.27 135.337L176.281 139.459L176.359 139.478L176.439 139.493L177.27 135.337ZM188.326 140.112L185.812 143.524L185.912 143.597L186.016 143.665L188.326 140.112ZM196.366 149.157L200.124 147.197L200.124 147.197L196.366 149.157ZM145.107 186.848H140.869C140.869 192.162 139.806 196.2 137.969 199.218L141.59 201.421L145.21 203.625C148.063 198.937 149.346 193.26 149.346 186.848H145.107ZM141.59 201.421L137.969 199.218C135.924 202.578 133.413 205.212 130.444 207.192L132.795 210.718L135.146 214.245C139.212 211.534 142.565 207.97 145.21 203.625L141.59 201.421ZM132.795 210.718L130.564 207.115C127.471 209.029 123.972 210.453 120.032 211.363L120.985 215.492L121.938 219.622C126.709 218.521 131.083 216.763 135.026 214.322L132.795 210.718ZM120.985 215.492L119.996 211.371C116.095 212.307 112.408 212.762 108.924 212.762V217V221.238C113.147 221.238 117.5 220.687 121.975 219.614L120.985 215.492ZM108.924 217H113.163V71.0124H108.924H104.686V217H108.924ZM108.924 71.0124H113.163C113.163 59.8818 115.709 51.9462 120.207 46.6053L116.965 43.8753L113.723 41.1453C107.5 48.5354 104.686 58.6911 104.686 71.0124H108.924ZM116.965 43.8753L120.207 46.6053C124.595 41.3948 130.996 38.5653 140.082 38.5653V34.327V30.0888C129.066 30.0888 120.056 33.6248 113.723 41.1453L116.965 43.8753ZM140.082 34.327V38.5653C144.677 38.5653 148.039 39.3372 150.42 40.5903L152.394 36.8397L154.368 33.0892C150.383 30.992 145.537 30.0888 140.082 30.0888V34.327ZM152.394 36.8397L150.42 40.5903C153.033 41.9652 154.862 43.6585 156.087 45.619L159.681 43.3727L163.275 41.1265C161.15 37.7266 158.121 35.0645 154.368 33.0892L152.394 36.8397ZM159.681 43.3727L156.188 45.7738C157.714 47.993 158.748 50.4051 159.303 53.0403L163.45 52.1672L167.597 51.2941C166.812 47.5637 165.333 44.113 163.173 40.9716L159.681 43.3727ZM163.45 52.1672L159.313 53.0866C159.921 55.8252 160.217 58.448 160.217 60.9616H164.455H168.693C168.693 57.7798 168.319 54.5396 167.587 51.2478L163.45 52.1672ZM164.455 60.9616H160.217C160.217 61.5723 160.182 61.9948 160.14 62.2645C160.095 62.5586 160.063 62.5296 160.162 62.3327L163.953 64.2281L167.743 66.1235C168.544 64.5231 168.693 62.5909 168.693 60.9616H164.455ZM163.953 64.2281L166.69 60.9927C163.701 58.4636 160.119 57.2259 156.163 57.2259V61.4642V65.7024C158.238 65.7024 159.848 66.3074 161.215 67.4636L163.953 64.2281ZM156.163 61.4642V57.2259C153.126 57.2259 150.207 57.8286 147.782 59.4453L150.133 62.9718L152.484 66.4982C153.074 66.1048 154.174 65.7024 156.163 65.7024V61.4642ZM150.133 62.9718L147.886 59.3777C145.883 60.6296 144.315 62.3553 143.161 64.4312L146.866 66.4895L150.571 68.5478C151.093 67.6086 151.702 66.9891 152.379 66.5658L150.133 62.9718ZM146.866 66.4895L143.075 64.5941C142.187 66.37 141.578 68.3618 141.189 70.5055L145.359 71.2637L149.528 72.0218C149.809 70.4802 150.205 69.2893 150.657 68.385L146.866 66.4895ZM145.359 71.2637L141.138 70.8799C140.958 72.8605 140.869 74.9155 140.869 77.0429H145.107H149.346C149.346 75.15 149.424 73.3521 149.579 71.6474L145.359 71.2637ZM145.107 77.0429H140.869V186.848H145.107H149.346V77.0429H145.107ZM167.219 34.8296V39.0679H170.486V34.8296V30.5913H167.219V34.8296ZM170.486 34.8296V39.0679C179.055 39.0679 185.828 41.7357 191.149 46.913L194.105 43.8753L197.06 40.8376C189.986 33.9539 181.012 30.5913 170.486 30.5913V34.8296ZM194.105 43.8753L191.192 46.9543C196.3 51.7859 199.164 59.0614 199.164 69.5048H203.402H207.64C207.64 57.5014 204.306 47.6906 197.017 40.7963L194.105 43.8753ZM203.402 69.5048H199.164V95.8881H203.402H207.64V69.5048H203.402ZM203.402 95.8881H199.164C199.164 106.28 196.57 113.426 192.069 118.063L195.11 121.015L198.151 123.967C204.706 117.214 207.64 107.608 207.64 95.8881H203.402ZM195.11 121.015L192.024 118.11C187.408 123.014 181.911 125.54 175.327 125.826L175.511 130.061L175.695 134.295C184.522 133.911 192.091 130.407 198.196 123.92L195.11 121.015ZM175.511 130.061V125.822H173.752V130.061V134.299H175.511V130.061ZM173.752 130.061V125.822C169.547 125.822 166.334 125.07 163.916 123.798L161.942 127.548L159.968 131.299C163.917 133.377 168.576 134.299 173.752 134.299V130.061ZM161.942 127.548L163.916 123.798C161.189 122.362 159.067 120.625 157.463 118.619L154.153 121.266L150.843 123.914C153.259 126.933 156.33 129.384 159.968 131.299L161.942 127.548ZM154.153 121.266L157.646 118.865C156.058 116.556 154.923 114.134 154.216 111.589L150.133 112.723L146.049 113.857C147.017 117.342 148.563 120.616 150.66 123.667L154.153 121.266ZM150.133 112.723L154.231 111.645C153.478 108.782 153.115 106.046 153.115 103.426H148.876H144.638C144.638 106.837 145.112 110.299 146.034 113.802L150.133 112.723ZM148.876 103.426L146.118 106.644C147.463 107.797 148.841 108.775 150.247 109.478L152.143 105.688L154.038 101.897C153.434 101.595 152.635 101.065 151.635 100.208L148.876 103.426ZM152.143 105.688L150.803 109.708C152.561 110.294 155.254 110.428 158.173 110.428V106.19V101.952C156.732 101.952 155.602 101.911 154.756 101.841C154.335 101.806 154.015 101.766 153.782 101.727C153.537 101.686 153.455 101.657 153.483 101.667L152.143 105.688ZM158.173 106.19V110.428C161.109 110.428 164.002 109.621 166.196 107.428L163.199 104.431L160.202 101.434C160.05 101.586 159.593 101.952 158.173 101.952V106.19ZM163.199 104.431L166.196 107.428C168.062 105.562 169.357 103.321 170.052 100.772L165.963 99.6571L161.874 98.542C161.564 99.6788 161.016 100.62 160.202 101.434L163.199 104.431ZM165.963 99.6571L169.946 101.106C170.802 98.7501 171.206 96.2439 171.206 93.6267H166.968H162.729C162.729 95.3647 162.463 96.8788 161.98 98.2087L165.963 99.6571ZM166.968 93.6267L171.195 93.9286C171.368 91.5088 171.457 89.3113 171.457 87.3449H167.219H162.981C162.981 89.0638 162.902 91.0541 162.74 93.3247L166.968 93.6267ZM167.219 87.3449H171.457V34.8296H167.219H162.981V87.3449H167.219ZM199.382 217V212.762H196.869V217V221.238H199.382V217ZM196.869 217V212.762C192.787 212.762 188.7 212.369 184.603 211.582L183.803 215.744L183.002 219.906C187.617 220.793 192.24 221.238 196.869 221.238V217ZM183.803 215.744L184.634 211.588C180.926 210.846 177.549 209.52 174.475 207.617L172.244 211.221L170.014 214.824C173.975 217.277 178.304 218.966 182.972 219.9L183.803 215.744ZM172.244 211.221L174.554 207.667C171.835 205.899 169.521 203.414 167.642 200.09L163.953 202.175L160.263 204.261C162.739 208.642 165.954 212.187 169.935 214.774L172.244 211.221ZM163.953 202.175L167.642 200.09C165.94 197.077 164.924 192.844 164.924 187.099H160.686H156.448C156.448 193.75 157.61 199.567 160.263 204.261L163.953 202.175ZM160.686 187.099H164.924V133.83H160.686H156.448V187.099H160.686ZM160.686 133.83V138.068H164.706V133.83V129.591H160.686V133.83ZM164.706 133.83V138.068C168.552 138.068 172.408 138.529 176.281 139.459L177.27 135.337L178.259 131.216C173.756 130.136 169.237 129.591 164.706 129.591V133.83ZM177.27 135.337L176.439 139.493C180.067 140.219 183.168 141.576 185.812 143.524L188.326 140.112L190.84 136.699C187.118 133.957 182.848 132.131 178.101 131.181L177.27 135.337ZM188.326 140.112L186.016 143.665C188.702 145.411 190.906 147.853 192.609 151.118L196.366 149.157L200.124 147.197C197.807 142.755 194.65 139.168 190.635 136.558L188.326 140.112ZM196.366 149.157L192.609 151.118C194.205 154.177 195.143 158.384 195.143 163.982H199.382H203.62C203.62 157.519 202.548 151.843 200.124 147.197L196.366 149.157ZM199.382 163.982H195.143V217H199.382H203.62V163.982H199.382Z" fill="#3504FB" mask="url(#path-2-outside-1_3_1)"/>
</g>
</g>
<defs>
<clipPath id="clip0_3_1">
<rect width="310" height="310" fill="white"/>
</clipPath>
<clipPath id="clip1_3_1">
<rect width="310" height="310" fill="white"/>
</clipPath>
</defs>
</svg>
