<svg width="70" height="70" viewBox="0 0 70 70" fill="none" xmlns="http://www.w3.org/2000/svg">
<g clip-path="url(#clip0_3_4)">
<g clip-path="url(#clip1_3_4)">
<path d="M0.774101 0.538256L68.7174 0.487032L34.7472 68.457L0.774101 0.538256Z" fill="#3504FB" stroke="#3504FB" stroke-width="0.957031"/>
<mask id="path-2-outside-1_3_4" maskUnits="userSpaceOnUse" x="22.9717" y="6" width="24" height="44" fill="black">
<rect fill="white" x="22.9717" y="6" width="24" height="44"/>
<path d="M32.7661 42.1914C32.7661 43.5153 32.5014 44.6122 31.9718 45.4822C31.4422 46.3522 30.7803 47.052 29.986 47.5815C29.1916 48.0733 28.3027 48.4326 27.3193 48.6596C26.3736 48.8865 25.4658 49 24.5958 49V16.0351C24.5958 13.3873 25.201 11.3447 26.4115 9.90732C27.6219 8.46995 29.3618 7.75127 31.6314 7.75127C32.7661 7.75127 33.6929 7.94039 34.4115 8.31865C35.1302 8.69691 35.6787 9.18864 36.057 9.79385C36.473 10.3991 36.7567 11.061 36.908 11.7797C37.0593 12.4605 37.135 13.1225 37.135 13.7655C37.135 14.106 37.0972 14.3518 37.0215 14.5031C36.5298 14.087 35.9435 13.879 35.2626 13.879C34.6952 13.879 34.2413 13.9925 33.9009 14.2194C33.5983 14.4086 33.3524 14.6733 33.1633 15.0138C33.012 15.3164 32.8985 15.6757 32.8229 16.0918C32.7851 16.5079 32.7661 16.9429 32.7661 17.3968V42.1914ZM37.7591 7.86474H38.4967C40.6528 7.86474 42.4306 8.5456 43.8301 9.90732C45.2296 11.2312 45.9294 13.1603 45.9294 15.6946V21.6521C45.9294 24.1486 45.3053 26.0399 44.0571 27.326C42.8466 28.612 41.3714 29.2929 39.6315 29.3686H39.2343C38.1752 29.3686 37.2863 29.1794 36.5676 28.8012C35.8489 28.4229 35.2626 27.9501 34.8087 27.3827C34.3926 26.7775 34.09 26.1345 33.9009 25.4536C33.7118 24.7349 33.6172 24.0352 33.6172 23.3543C33.882 23.5812 34.1279 23.7515 34.3548 23.8649C34.5818 23.9406 35.0357 23.9784 35.7165 23.9784C36.2083 23.9784 36.5865 23.846 36.8513 23.5812C37.1539 23.2786 37.3619 22.9193 37.4754 22.5032C37.6267 22.0871 37.7024 21.6332 37.7024 21.1415C37.7402 20.6119 37.7591 20.1391 37.7591 19.723V7.86474ZM45.0216 49H44.4542C43.4708 49 42.4873 48.9054 41.5038 48.7163C40.5582 48.5272 39.6882 48.1868 38.8939 47.695C38.1374 47.2033 37.5132 46.5224 37.0215 45.6524C36.5298 44.7825 36.2839 43.6477 36.2839 42.2481V30.2196H37.1917C38.1374 30.2196 39.083 30.3331 40.0286 30.5601C40.9743 30.7492 41.8064 31.1085 42.5251 31.6381C43.2816 32.1298 43.8868 32.8107 44.3407 33.6807C44.7947 34.5507 45.0216 35.6665 45.0216 37.0282V49Z"/>
</mask>
<path d="M32.7661 42.1914C32.7661 43.5153 32.5014 44.6122 31.9718 45.4822C31.4422 46.3522 30.7803 47.052 29.986 47.5815C29.1916 48.0733 28.3027 48.4326 27.3193 48.6596C26.3736 48.8865 25.4658 49 24.5958 49V16.0351C24.5958 13.3873 25.201 11.3447 26.4115 9.90732C27.6219 8.46995 29.3618 7.75127 31.6314 7.75127C32.7661 7.75127 33.6929 7.94039 34.4115 8.31865C35.1302 8.69691 35.6787 9.18864 36.057 9.79385C36.473 10.3991 36.7567 11.061 36.908 11.7797C37.0593 12.4605 37.135 13.1225 37.135 13.7655C37.135 14.106 37.0972 14.3518 37.0215 14.5031C36.5298 14.087 35.9435 13.879 35.2626 13.879C34.6952 13.879 34.2413 13.9925 33.9009 14.2194C33.5983 14.4086 33.3524 14.6733 33.1633 15.0138C33.012 15.3164 32.8985 15.6757 32.8229 16.0918C32.7851 16.5079 32.7661 16.9429 32.7661 17.3968V42.1914ZM37.7591 7.86474H38.4967C40.6528 7.86474 42.4306 8.5456 43.8301 9.90732C45.2296 11.2312 45.9294 13.1603 45.9294 15.6946V21.6521C45.9294 24.1486 45.3053 26.0399 44.0571 27.326C42.8466 28.612 41.3714 29.2929 39.6315 29.3686H39.2343C38.1752 29.3686 37.2863 29.1794 36.5676 28.8012C35.8489 28.4229 35.2626 27.9501 34.8087 27.3827C34.3926 26.7775 34.09 26.1345 33.9009 25.4536C33.7118 24.7349 33.6172 24.0352 33.6172 23.3543C33.882 23.5812 34.1279 23.7515 34.3548 23.8649C34.5818 23.9406 35.0357 23.9784 35.7165 23.9784C36.2083 23.9784 36.5865 23.846 36.8513 23.5812C37.1539 23.2786 37.3619 22.9193 37.4754 22.5032C37.6267 22.0871 37.7024 21.6332 37.7024 21.1415C37.7402 20.6119 37.7591 20.1391 37.7591 19.723V7.86474ZM45.0216 49H44.4542C43.4708 49 42.4873 48.9054 41.5038 48.7163C40.5582 48.5272 39.6882 48.1868 38.8939 47.695C38.1374 47.2033 37.5132 46.5224 37.0215 45.6524C36.5298 44.7825 36.2839 43.6477 36.2839 42.2481V30.2196H37.1917C38.1374 30.2196 39.083 30.3331 40.0286 30.5601C40.9743 30.7492 41.8064 31.1085 42.5251 31.6381C43.2816 32.1298 43.8868 32.8107 44.3407 33.6807C44.7947 34.5507 45.0216 35.6665 45.0216 37.0282V49Z" fill="#FFFEFE"/>
<path d="M31.9718 45.4822L31.1543 44.9846L31.1543 44.9846L31.9718 45.4822ZM29.986 47.5815L30.4897 48.3953L30.5034 48.3868L30.5168 48.3778L29.986 47.5815ZM27.3193 48.6596L27.1041 47.727L27.0959 47.729L27.3193 48.6596ZM24.5958 49H23.6388V49.957H24.5958V49ZM26.4115 9.90732L27.1435 10.5238L27.1435 10.5238L26.4115 9.90732ZM34.4115 8.31865L33.9658 9.16555L33.9658 9.16555L34.4115 8.31865ZM36.057 9.79385L35.2454 10.3011L35.2565 10.3188L35.2683 10.336L36.057 9.79385ZM36.908 11.7797L35.9715 11.9769L35.9738 11.9873L36.908 11.7797ZM37.0215 14.5031L36.4033 15.2337L37.3329 16.0203L37.8775 14.9311L37.0215 14.5031ZM33.9009 14.2194L34.4081 15.031L34.4201 15.0235L34.4318 15.0157L33.9009 14.2194ZM33.1633 15.0138L32.3267 14.549L32.3166 14.5672L32.3073 14.5858L33.1633 15.0138ZM32.8229 16.0918L31.8813 15.9206L31.8736 15.9626L31.8698 16.0051L32.8229 16.0918ZM37.7591 7.86474V6.90771H36.8021V7.86474H37.7591ZM43.8301 9.90732L43.1626 10.5933L43.1724 10.6026L43.8301 9.90732ZM44.0571 27.326L43.3703 26.6594L43.3652 26.6647L43.3601 26.6701L44.0571 27.326ZM39.6315 29.3686V30.3256H39.6523L39.673 30.3247L39.6315 29.3686ZM36.5676 28.8012L36.1219 29.6481L36.1219 29.6481L36.5676 28.8012ZM34.8087 27.3827L34.0201 27.9249L34.0397 27.9535L34.0614 27.9806L34.8087 27.3827ZM33.9009 25.4536L32.9753 25.6972L32.9788 25.7098L33.9009 25.4536ZM33.6172 23.3543L34.24 22.6277L32.6602 21.2735V23.3543H33.6172ZM34.3548 23.8649L33.9268 24.7209L33.9876 24.7514L34.0522 24.7729L34.3548 23.8649ZM36.8513 23.5812L36.1746 22.9045L36.8513 23.5812ZM37.4754 22.5032L36.576 22.1762L36.5625 22.2133L36.5521 22.2514L37.4754 22.5032ZM37.7024 21.1415L36.7478 21.0733L36.7453 21.1074V21.1415H37.7024ZM45.0216 49V49.957H45.9786V49H45.0216ZM41.5038 48.7163L41.3161 49.6548L41.3231 49.6561L41.5038 48.7163ZM38.8939 47.695L38.3723 48.4974L38.3812 48.5032L38.3901 48.5087L38.8939 47.695ZM37.0215 45.6524L37.8547 45.1815L37.8547 45.1815L37.0215 45.6524ZM36.2839 30.2196V29.2626H35.3269V30.2196H36.2839ZM40.0286 30.5601L39.8053 31.4907L39.823 31.4949L39.8409 31.4985L40.0286 30.5601ZM42.5251 31.6381L41.9574 32.4085L41.98 32.4252L42.0036 32.4405L42.5251 31.6381ZM44.3407 33.6807L45.1892 33.238L45.1892 33.238L44.3407 33.6807ZM32.7661 42.1914H31.8091C31.8091 43.3914 31.5691 44.3032 31.1543 44.9846L31.9718 45.4822L32.7893 45.9798C33.4337 44.9212 33.7232 43.6392 33.7232 42.1914H32.7661ZM31.9718 45.4822L31.1543 44.9846C30.6924 45.7435 30.1256 46.3383 29.4551 46.7852L29.986 47.5815L30.5168 48.3778C31.435 47.7657 32.1921 46.961 32.7893 45.9798L31.9718 45.4822ZM29.986 47.5815L29.4822 46.7678C28.7838 47.2002 27.9937 47.5217 27.1041 47.727L27.3193 48.6596L27.5345 49.5921C28.6118 49.3435 29.5994 48.9464 30.4897 48.3953L29.986 47.5815ZM27.3193 48.6596L27.0959 47.729C26.215 47.9404 25.3824 48.043 24.5958 48.043V49V49.957C25.5493 49.957 26.5323 49.8327 27.5426 49.5902L27.3193 48.6596ZM24.5958 49H25.5529V16.0351H24.5958H23.6388V49H24.5958ZM24.5958 16.0351H25.5529C25.5529 13.5217 26.1279 11.7298 27.1435 10.5238L26.4115 9.90732L25.6794 9.29087C24.2742 10.9596 23.6388 13.2528 23.6388 16.0351H24.5958ZM26.4115 9.90732L27.1435 10.5238C28.1343 9.34722 29.5797 8.7083 31.6314 8.7083V7.75127V6.79424C29.144 6.79424 27.1094 7.59269 25.6794 9.29087L26.4115 9.90732ZM31.6314 7.75127V8.7083C32.6691 8.7083 33.4282 8.8826 33.9658 9.16555L34.4115 8.31865L34.8573 7.47176C33.9575 6.99819 32.8632 6.79424 31.6314 6.79424V7.75127ZM34.4115 8.31865L33.9658 9.16555C34.5557 9.47601 34.9687 9.85836 35.2454 10.3011L36.057 9.79385L36.8685 9.28662C36.3887 8.51891 35.7048 7.9178 34.8573 7.47176L34.4115 8.31865ZM36.057 9.79385L35.2683 10.336C35.6128 10.8371 35.8463 11.3818 35.9715 11.9768L36.908 11.7797L37.8445 11.5825C37.6672 10.7402 37.3333 9.96099 36.8456 9.25166L36.057 9.79385ZM36.908 11.7797L35.9738 11.9873C36.1112 12.6057 36.178 13.1979 36.178 13.7655H37.135H38.092C38.092 13.0471 38.0075 12.3154 37.8423 11.5721L36.908 11.7797ZM37.135 13.7655H36.178C36.178 13.9034 36.1701 13.9988 36.1607 14.0597C36.1505 14.1261 36.1433 14.1196 36.1655 14.0751L37.0215 14.5031L37.8775 14.9311C38.0582 14.5697 38.092 14.1334 38.092 13.7655H37.135ZM37.0215 14.5031L37.6397 13.7725C36.9648 13.2015 36.1559 12.922 35.2626 12.922V13.879V14.836C35.7311 14.836 36.0948 14.9726 36.4033 15.2337L37.0215 14.5031ZM35.2626 13.879V12.922C34.5769 12.922 33.9176 13.0581 33.37 13.4231L33.9009 14.2194L34.4318 15.0157C34.565 14.9269 34.8136 14.836 35.2626 14.836V13.879ZM33.9009 14.2194L33.3937 13.4079C32.9414 13.6906 32.5871 14.0802 32.3267 14.549L33.1633 15.0138L33.9999 15.4785C34.1177 15.2665 34.2552 15.1266 34.4081 15.031L33.9009 14.2194ZM33.1633 15.0138L32.3073 14.5858C32.1068 14.9868 31.9693 15.4365 31.8813 15.9206L32.8229 16.0918L33.7645 16.263C33.8278 15.9149 33.9172 15.646 34.0193 15.4418L33.1633 15.0138ZM32.8229 16.0918L31.8698 16.0051C31.8291 16.4524 31.8091 16.9164 31.8091 17.3968H32.7661H33.7232C33.7232 16.9693 33.741 16.5634 33.776 16.1784L32.8229 16.0918ZM32.7661 17.3968H31.8091V42.1914H32.7661H33.7232V17.3968H32.7661ZM37.7591 7.86474V8.82178H38.4967V7.86474V6.90771H37.7591V7.86474ZM38.4967 7.86474V8.82178C40.4319 8.82178 41.9612 9.4242 43.1627 10.5933L43.8301 9.90732L44.4975 9.22139C42.8999 7.66701 40.8737 6.90771 38.4967 6.90771V7.86474ZM43.8301 9.90732L43.1724 10.6026C44.3258 11.6936 44.9724 13.3365 44.9724 15.6946H45.9294H46.8865C46.8865 12.9842 46.1335 10.7688 44.4878 9.21207L43.8301 9.90732ZM45.9294 15.6946H44.9724V21.6521H45.9294H46.8865V15.6946H45.9294ZM45.9294 21.6521H44.9724C44.9724 23.9987 44.3867 25.6122 43.3703 26.6594L44.0571 27.326L44.7438 27.9925C46.2239 26.4676 46.8865 24.2985 46.8865 21.6521H45.9294ZM44.0571 27.326L43.3601 26.6701C42.318 27.7773 41.0768 28.3478 39.5899 28.4124L39.6315 29.3686L39.673 30.3247C41.6661 30.238 43.3753 29.4468 44.754 27.9819L44.0571 27.326ZM39.6315 29.3686V28.4115H39.2343V29.3686V30.3256H39.6315V29.3686ZM39.2343 29.3686V28.4115C38.2848 28.4115 37.5592 28.2416 37.0133 27.9543L36.5676 28.8012L36.1219 29.6481C37.0134 30.1173 38.0655 30.3256 39.2343 30.3256V29.3686ZM36.5676 28.8012L37.0133 27.9543C36.3975 27.6301 35.9184 27.2379 35.556 26.7849L34.8087 27.3827L34.0614 27.9806C34.6068 28.6623 35.3003 29.2157 36.1219 29.6481L36.5676 28.8012ZM34.8087 27.3827L35.5974 26.8405C35.2389 26.3192 34.9827 25.7723 34.823 25.1975L33.9009 25.4536L32.9788 25.7098C33.1974 26.4967 33.5464 27.2359 34.0201 27.9249L34.8087 27.3827ZM33.9009 25.4536L34.8264 25.2101C34.6563 24.5637 34.5742 23.9458 34.5742 23.3543H33.6172H32.6602C32.6602 24.1245 32.7672 24.9062 32.9754 25.6972L33.9009 25.4536ZM33.6172 23.3543L32.9944 24.0809C33.2981 24.3413 33.6093 24.5622 33.9268 24.7209L34.3548 23.8649L34.7828 23.0089C34.6464 22.9407 34.4658 22.8212 34.24 22.6277L33.6172 23.3543ZM34.3548 23.8649L34.0522 24.7729C34.4491 24.9052 35.0573 24.9354 35.7165 24.9354V23.9784V23.0214C35.391 23.0214 35.136 23.0122 34.9449 22.9963C34.8498 22.9884 34.7776 22.9794 34.7249 22.9706C34.6695 22.9613 34.6511 22.9549 34.6575 22.957L34.3548 23.8649ZM35.7165 23.9784V24.9354C36.3795 24.9354 37.0328 24.7532 37.528 24.258L36.8513 23.5812L36.1746 22.9045C36.1403 22.9388 36.037 23.0214 35.7165 23.0214V23.9784ZM36.8513 23.5812L37.528 24.258C37.9493 23.8366 38.2418 23.3305 38.3987 22.755L37.4754 22.5032L36.5521 22.2514C36.4821 22.5081 36.3584 22.7206 36.1746 22.9045L36.8513 23.5812ZM37.4754 22.5032L38.3748 22.8303C38.5682 22.2984 38.6594 21.7325 38.6594 21.1415H37.7024H36.7453C36.7453 21.534 36.6852 21.8759 36.576 22.1762L37.4754 22.5032ZM37.7024 21.1415L38.657 21.2097C38.696 20.6633 38.7161 20.1671 38.7161 19.723H37.7591H36.8021C36.8021 20.1112 36.7844 20.5606 36.7478 21.0733L37.7024 21.1415ZM37.7591 19.723H38.7161V7.86474H37.7591H36.8021V19.723H37.7591ZM45.0216 49V48.043H44.4542V49V49.957H45.0216V49ZM44.4542 49V48.043C43.5325 48.043 42.6096 47.9544 41.6846 47.7765L41.5038 48.7163L41.3231 49.6561C42.365 49.8565 43.409 49.957 44.4542 49.957V49ZM41.5038 48.7163L41.6915 47.7779C40.8542 47.6104 40.0917 47.311 39.3976 46.8813L38.8939 47.695L38.3901 48.5087C39.2847 49.0625 40.2622 49.444 41.3161 49.6548L41.5038 48.7163ZM38.8939 47.695L39.4154 46.8926C38.8013 46.4934 38.279 45.9322 37.8547 45.1815L37.0215 45.6524L36.1884 46.1234C36.7475 47.1126 37.4734 47.9131 38.3723 48.4974L38.8939 47.695ZM37.0215 45.6524L37.8547 45.1815C37.4702 44.5014 37.2409 43.5453 37.2409 42.2481H36.2839H35.3269C35.3269 43.75 35.5893 45.0635 36.1884 46.1234L37.0215 45.6524ZM36.2839 42.2481H37.2409V30.2196H36.2839H35.3269V42.2481H36.2839ZM36.2839 30.2196V31.1767H37.1917V30.2196V29.2626H36.2839V30.2196ZM37.1917 30.2196V31.1767C38.06 31.1767 38.9307 31.2808 39.8053 31.4907L40.0286 30.5601L40.252 29.6295C39.2353 29.3854 38.2147 29.2626 37.1917 29.2626V30.2196ZM40.0286 30.5601L39.8409 31.4985C40.6603 31.6624 41.3604 31.9687 41.9574 32.4085L42.5251 31.6381L43.0928 30.8676C42.2524 30.2484 41.2882 29.836 40.2163 29.6216L40.0286 30.5601ZM42.5251 31.6381L42.0036 32.4405C42.61 32.8347 43.1077 33.3863 43.4923 34.1234L44.3407 33.6807L45.1892 33.238C44.666 32.2351 43.9532 31.4249 43.0467 30.8357L42.5251 31.6381ZM44.3407 33.6807L43.4923 34.1234C43.8526 34.8141 44.0646 35.7641 44.0646 37.0282H45.0216H45.9786C45.9786 35.5689 45.7367 34.2872 45.1892 33.238L44.3407 33.6807ZM45.0216 37.0282H44.0646V49H45.0216H45.9786V37.0282H45.0216Z" fill="#3504FB" mask="url(#path-2-outside-1_3_4)"/>
</g>
</g>
<defs>
<clipPath id="clip0_3_4">
<rect width="70" height="70" fill="white"/>
</clipPath>
<clipPath id="clip1_3_4">
<rect width="70" height="70" fill="white"/>
</clipPath>
</defs>
</svg>
